<?xml version="1.0" standalone="no"?>
<!DOCTYPE svg PUBLIC "-//W3C//DTD SVG 1.1//EN" "http://www.w3.org/Graphics/SVG/1.1/DTD/svg11.dtd" >
<svg xmlns="http://www.w3.org/2000/svg" xmlns:xlink="http://www.w3.org/1999/xlink" version="1.1">
<metadata>
Created by FontForge 20170731 at Wed Nov  9 12:46:26 2022
 By Aleksey,,,
Copyright (c) 2011 by Wolfgang Homola, distributed by TypeTogether. All rights reserved.
</metadata>
<defs>
<font id="Soleil-Regular" horiz-adv-x="1126" >
  <font-face 
    font-family="Soleil"
    font-weight="400"
    font-stretch="normal"
    units-per-em="2048"
    panose-1="2 0 5 3 3 0 0 2 0 4"
    ascent="1536"
    descent="-512"
    x-height="1024"
    cap-height="1434"
    bbox="-430 -672 2576 2214"
    underline-thickness="102"
    underline-position="-307"
    unicode-range="U+000D-FB06"
  />
<missing-glyph 
d="M610 258h-121v133h121v-133zM123 1360h881v-1360h-881v1360zM238 1251v-1142h651v1142h-651zM436 852v-10h-104v4q0 99 66 163t159 64q95 0 160 -64.5t65 -142.5q0 -52 -15 -92.5t-43.5 -68t-54 -43.5t-63.5 -33v-131h-110v190q41 14 67.5 26.5t56 32.5t44 49t14.5 66
q0 48 -33.5 82.5t-87.5 34.5q-56 0 -88.5 -34.5t-32.5 -92.5z" />
    <glyph glyph-name="ff" unicode="ff" horiz-adv-x="1380" 
d="M750 1516l-54 -156q-63 29 -127 29q-73 0 -118 -33q-33 -27 -43.5 -75.5t-10.5 -127.5v-129h236v-164h-236v-860h-186v860h-117v164h117v147q0 174 63 269q81 121 273 121q97 0 203 -45zM1440 1516l-54 -156q-63 29 -126 29q-74 0 -119 -33q-33 -27 -43.5 -75.5
t-10.5 -127.5v-129h277v-164h-277v-860h-186v860h-117v164h117v147q0 172 64 269q81 121 272 121q97 0 203 -45z" />
    <glyph glyph-name="fi" unicode="fi" horiz-adv-x="1220" 
d="M674 860h-277v-860h-186v860h-117v164h117v147q0 174 63 269q81 121 273 121q68 0 151 -27l-28 -162q-53 17 -101 17q-73 0 -118 -33q-33 -27 -43.5 -75.5t-10.5 -127.5v-129h277v-164zM1049 0h-187v1024h187v-1024zM1049 1225h-187v209h187v-209z" />
    <glyph glyph-name="fl" unicode="fl" horiz-adv-x="1220" 
d="M674 860h-277v-860h-186v860h-117v164h117v147q0 174 63 269q81 121 273 121q68 0 151 -27l-28 -162q-53 17 -101 17q-73 0 -118 -33q-33 -27 -43.5 -75.5t-10.5 -127.5v-129h277v-164zM1049 1536v-1536h-187v1536h187z" />
    <glyph glyph-name="ffi" unicode="ffi" horiz-adv-x="1910" 
d="M750 1516l-54 -156q-63 29 -127 29q-73 0 -118 -33q-33 -27 -43.5 -75.5t-10.5 -127.5v-129h236v-164h-236v-860h-186v860h-117v164h117v147q0 174 63 269q81 121 273 121q97 0 203 -45zM1364 860h-277v-860h-186v860h-117v164h117v147q0 172 64 269q81 121 272 121
q69 0 152 -27l-29 -162q-53 17 -100 17q-74 0 -119 -33q-33 -27 -43.5 -75.5t-10.5 -127.5v-129h277v-164zM1739 0h-187v1024h187v-1024zM1739 1225h-187v209h187v-209z" />
    <glyph glyph-name="ffl" unicode="ffl" horiz-adv-x="1910" 
d="M750 1516l-54 -156q-63 29 -127 29q-73 0 -118 -33q-33 -27 -43.5 -75.5t-10.5 -127.5v-129h236v-164h-236v-860h-186v860h-117v164h117v147q0 174 63 269q81 121 273 121q97 0 203 -45zM1364 860h-277v-860h-186v860h-117v164h117v147q0 172 64 269q81 121 272 121
q69 0 152 -27l-29 -162q-53 17 -100 17q-74 0 -119 -33q-33 -27 -43.5 -75.5t-10.5 -127.5v-129h277v-164zM1739 1536v-1536h-187v1536h187z" />
    <glyph glyph-name="f_k" unicode="fk" horiz-adv-x="1742" 
d="M674 860h-277v-860h-186v860h-117v164h117v147q0 174 63 269q81 121 273 121q68 0 151 -27l-28 -162q-53 17 -101 17q-73 0 -118 -33q-33 -27 -43.5 -75.5t-10.5 -127.5v-129h277v-164zM1731 0h-228l-293 459l-161 -189v-270h-187v1536h187v-1024l4 -2l413 514h230
l-359 -418z" />
    <glyph glyph-name="f_b" unicode="fb" horiz-adv-x="1972" 
d="M674 860h-277v-860h-186v860h-117v164h117v147q0 174 63 269q81 121 273 121q68 0 151 -27l-28 -162q-53 17 -101 17q-73 0 -118 -33q-33 -27 -43.5 -75.5t-10.5 -127.5v-129h277v-164zM862 1536h187v-649q54 77 142 119.5t183 42.5q145 0 262.5 -71.5t183.5 -195
t66 -272.5q0 -101 -37 -197.5t-103 -171.5t-164 -120.5t-212 -45.5q-90 0 -174.5 36t-146.5 100v-111h-187v1536zM1049 682v-379q51 -73 133 -114.5t164 -41.5q86 0 154.5 32.5t110 85.5t63.5 117t22 132q0 149 -96 256t-250 107q-90 0 -177.5 -52.5t-123.5 -142.5z" />
    <glyph glyph-name="f_h" unicode="fh" horiz-adv-x="1931" 
d="M674 860h-277v-860h-186v860h-117v164h117v147q0 174 63 269q81 121 273 121q68 0 151 -27l-28 -162q-53 17 -101 17q-73 0 -118 -33q-33 -27 -43.5 -75.5t-10.5 -127.5v-129h277v-164zM1049 1536v-680q57 91 144 142t189 51q202 0 297 -129q93 -125 93 -388v-532h-187
v512q0 95 -10 164t-43 119q-55 82 -178 82q-87 0 -167.5 -54t-137.5 -143v-680h-187v1536h187z" />
    <glyph glyph-name="f_t" unicode="ft" horiz-adv-x="1398" 
d="M750 1516l-54 -156q-63 29 -127 29q-73 0 -118 -33q-33 -27 -43.5 -75.5t-10.5 -127.5v-129h256v-164h-256v-860h-186v860h-117v164h117v147q0 174 63 269q81 121 273 121q97 0 203 -45zM1346 860h-287v-463q0 -49 2 -80q5 -86 37.5 -129t105.5 -43q55 0 115 29l51 -149
q-85 -45 -190 -45q-204 0 -275 159q-33 75 -33 213v508h-116v164h116v246h187v-246h287v-164z" />
    <glyph glyph-name="f_j" unicode="fj" horiz-adv-x="1236" 
d="M674 860h-277v-860h-186v860h-117v164h117v147q0 174 63 269q81 121 273 121q68 0 151 -27l-28 -162q-53 17 -101 17q-73 0 -118 -33q-33 -27 -43.5 -75.5t-10.5 -127.5v-129h277v-164zM1065 1225h-186v209h186v-209zM1065 1024v-1114q0 -123 -29 -195
q-31 -79 -98.5 -124.5t-173.5 -45.5q-117 0 -197 45l54 152q56 -29 114 -29q39 0 66 12.5t42 31.5t23.5 52t10.5 63t2 75v1077h186z" />
    <glyph glyph-name="f_f_j" unicode="ffj" horiz-adv-x="1927" 
d="M750 1516l-54 -156q-63 29 -127 29q-73 0 -118 -33q-33 -27 -43.5 -75.5t-10.5 -127.5v-129h236v-164h-236v-860h-186v860h-117v164h117v147q0 174 63 269q81 121 273 121q97 0 203 -45zM1364 860h-277v-860h-186v860h-117v164h117v147q0 172 64 269q81 121 272 121
q69 0 152 -27l-29 -162q-53 17 -100 17q-74 0 -119 -33q-33 -27 -43.5 -75.5t-10.5 -127.5v-129h277v-164zM1755 1225h-186v209h186v-209zM1755 1024v-1114q0 -123 -29 -195q-31 -79 -98.5 -124.5t-173.5 -45.5q-117 0 -197 45l54 152q56 -29 114 -29q39 0 66 12.5t42 31.5
t23.5 52t10.5 63t2 75v1077h186z" />
    <glyph glyph-name="f_f_k" unicode="ffk" horiz-adv-x="2433" 
d="M750 1516l-54 -156q-63 29 -127 29q-73 0 -118 -33q-33 -27 -43.5 -75.5t-10.5 -127.5v-129h236v-164h-236v-860h-186v860h-117v164h117v147q0 174 63 269q81 121 273 121q97 0 203 -45zM1364 860h-277v-860h-186v860h-117v164h117v147q0 172 64 269q81 121 272 121
q69 0 152 -27l-29 -162q-53 17 -100 17q-74 0 -119 -33q-33 -27 -43.5 -75.5t-10.5 -127.5v-129h277v-164zM2421 0h-228l-292 459l-162 -189v-270h-187v1536h187v-1024l4 -2l414 514h229l-358 -418z" />
    <glyph glyph-name="f_f_b" unicode="ffb" horiz-adv-x="2662" 
d="M750 1516l-54 -156q-63 29 -127 29q-73 0 -118 -33q-33 -27 -43.5 -75.5t-10.5 -127.5v-129h236v-164h-236v-860h-186v860h-117v164h117v147q0 174 63 269q81 121 273 121q97 0 203 -45zM1364 860h-277v-860h-186v860h-117v164h117v147q0 172 64 269q81 121 272 121
q69 0 152 -27l-29 -162q-53 17 -100 17q-74 0 -119 -33q-33 -27 -43.5 -75.5t-10.5 -127.5v-129h277v-164zM1552 1536h187v-649q54 77 142 119.5t183 42.5q145 0 262.5 -71.5t183.5 -195t66 -272.5q0 -101 -37 -197.5t-103 -171.5t-164 -120.5t-212 -45.5q-90 0 -174.5 36
t-146.5 100v-111h-187v1536zM1739 682v-379q51 -73 133 -114.5t164 -41.5q86 0 154.5 32.5t110 85.5t63.5 117t22 132q0 149 -96 256t-250 107q-90 0 -177.5 -52.5t-123.5 -142.5z" />
    <glyph glyph-name="f_f_h" unicode="ffh" horiz-adv-x="2621" 
d="M750 1516l-54 -156q-63 29 -127 29q-73 0 -118 -33q-33 -27 -43.5 -75.5t-10.5 -127.5v-129h236v-164h-236v-860h-186v860h-117v164h117v147q0 174 63 269q81 121 273 121q97 0 203 -45zM1364 860h-277v-860h-186v860h-117v164h117v147q0 172 64 269q81 121 272 121
q69 0 152 -27l-29 -162q-53 17 -100 17q-74 0 -119 -33q-33 -27 -43.5 -75.5t-10.5 -127.5v-129h277v-164zM1739 1536v-680q57 91 144.5 142t189.5 51q202 0 297 -129q92 -124 92 -388v-532h-187v512q0 95 -10 164t-43 119q-55 82 -178 82q-87 0 -167.5 -54t-137.5 -143
v-680h-187v1536h187z" />
    <glyph glyph-name="f_f_t" unicode="fft" horiz-adv-x="2088" 
d="M750 1516l-54 -156q-63 29 -127 29q-73 0 -118 -33q-33 -27 -43.5 -75.5t-10.5 -127.5v-129h236v-164h-236v-860h-186v860h-117v164h117v147q0 174 63 269q81 121 273 121q97 0 203 -45zM1440 1516l-54 -156q-63 29 -126 29q-74 0 -119 -33q-33 -27 -43.5 -75.5
t-10.5 -127.5v-129h256v-164h-256v-860h-186v860h-117v164h117v147q0 172 64 269q81 121 272 121q97 0 203 -45zM2036 860h-287v-463q0 -49 2 -80q5 -86 37.5 -129t105.5 -43q55 0 115 29l51 -149q-85 -45 -190 -45q-204 0 -275 159q-32 73 -32 213v508h-117v164h117v246
h186v-246h287v-164z" />
    <glyph glyph-name="f_iacute" unicode="f&#xed;" horiz-adv-x="1220" 
d="M674 860h-277v-860h-186v860h-117v164h117v147q0 174 63 269q81 121 273 121q68 0 151 -27l-28 -162q-53 17 -101 17q-73 0 -118 -33q-33 -27 -43.5 -75.5t-10.5 -127.5v-129h277v-164zM1251 1499l-282 -346l-127 98l272 351zM1049 0h-187v1024h187v-1024z" />
    <glyph glyph-name="t_t" unicode="tt" horiz-adv-x="1417" 
d="M1364 860h-287v-463q0 -49 2 -80q5 -86 38 -129t106 -43q54 0 114 29l52 -149q-85 -45 -191 -45q-203 0 -274 159q-33 75 -33 213v508h-137v164h137v246h186v-246h287v-164zM655 860h-286v-463q0 -49 2 -80q5 -86 37.5 -129t105.5 -43q55 0 115 29l51 -149
q-85 -45 -191 -45q-203 0 -274 159q-33 75 -33 213v508h-137v164h137v246h187v-246h286v-164z" />
    <glyph glyph-name=".notdef" 
d="M610 258h-121v133h121v-133zM123 1360h881v-1360h-881v1360zM238 1251v-1142h651v1142h-651zM436 852v-10h-104v4q0 99 66 163t159 64q95 0 160 -64.5t65 -142.5q0 -52 -15 -92.5t-43.5 -68t-54 -43.5t-63.5 -33v-131h-110v190q41 14 67.5 26.5t56 32.5t44 49t14.5 66
q0 48 -33.5 82.5t-87.5 34.5q-56 0 -88.5 -34.5t-32.5 -92.5z" />
    <glyph glyph-name=".null" horiz-adv-x="0" 
 />
    <glyph glyph-name="nonmarkingreturn" horiz-adv-x="682" 
 />
    <glyph glyph-name="CR" unicode="&#xd;" horiz-adv-x="1024" 
 />
    <glyph glyph-name="space" unicode=" " horiz-adv-x="512" 
 />
    <glyph glyph-name="exclam" unicode="!" horiz-adv-x="649" 
d="M434 1434v-228l-18 -776h-183l-18 776v228h219zM432 0h-215v238h215v-238z" />
    <glyph glyph-name="quotedbl" unicode="&#x22;" horiz-adv-x="976" 
d="M348 891h-166l-18 543h203zM795 891h-166l-19 543h203z" />
    <glyph glyph-name="numbersign" unicode="#" horiz-adv-x="1474" 
d="M133 539h275l49 282h-185v152h209l68 387h166l-68 -387h266l68 387h166l-68 -387h262v-152h-286l-49 -282h196v-152h-221l-66 -387h-165l65 387h-266l-66 -387h-166l66 387h-250v152zM623 821l-50 -282h267l49 282h-266z" />
    <glyph glyph-name="dollar" unicode="$" 
d="M61 180l134 125q161 -164 350 -164q75 0 139 23t109 78.5t45 136.5q0 44 -17.5 80.5t-42.5 61t-69.5 48t-80 37t-93.5 34.5l-9 3q-40 14 -61.5 22.5t-59 24t-59.5 28t-52.5 32t-49 38.5t-39.5 45.5t-32 54.5t-18.5 64t-7.5 76q0 148 103 245t264 109v195h131v-199
q175 -18 336 -133l-117 -137q-121 109 -295 109q-94 0 -165.5 -48.5t-71.5 -140.5q0 -23 5.5 -42.5t18.5 -37t25.5 -31t37 -27.5t41.5 -23.5t49.5 -22t52 -19.5t56.5 -20q55 -19 84.5 -30.5t80.5 -34t79.5 -42t65 -51.5t55.5 -66t33 -81t14 -101q0 -175 -111 -283.5
t-284 -133.5v-199h-131v192q-237 8 -443 205z" />
    <glyph glyph-name="percent" unicode="%" horiz-adv-x="1740" 
d="M446 1446q136 0 231 -95.5t95 -232.5q0 -135 -95 -230t-231 -95t-231.5 95t-95.5 230q0 137 95.5 232.5t231.5 95.5zM449 1300q-75 0 -126 -52t-51 -128q0 -78 51 -130t126 -52q72 0 120.5 52t48.5 130q0 77 -48.5 128.5t-120.5 51.5zM1296 641q136 0 231 -95.5
t95 -232.5q0 -135 -95 -230t-231 -95t-231.5 95t-95.5 230q0 137 95.5 232.5t231.5 95.5zM1298 496q-75 0 -125.5 -52t-50.5 -129q0 -78 50.5 -130t125.5 -52q72 0 121 52t49 130q0 77 -49 129t-121 52zM1327 1458l113 -82l-1018 -1401l-113 82z" />
    <glyph glyph-name="ampersand" unicode="&#x26;" horiz-adv-x="1392" 
d="M1423 92l-114 -129l-254 225q-158 -213 -451 -213q-124 0 -233.5 61.5t-174.5 164.5t-65 219q0 126 66 228t176 161q-137 148 -137 299q0 100 60 182t152 125t193 43q132 0 234 -69.5t135 -188.5l-172 -49q-18 67 -72.5 101t-132.5 34q-91 0 -151 -52t-60 -136
q0 -76 50.5 -140.5t168.5 -169.5l-111 -131l-36 33q-81 -38 -129 -108t-48 -160q0 -115 91.5 -195t218.5 -80q194 0 303 152l-166 150l113 129z" />
    <glyph glyph-name="quotesingle" unicode="'" horiz-adv-x="530" 
d="M348 891h-166l-18 543h203z" />
    <glyph glyph-name="parenleft" unicode="(" horiz-adv-x="706" 
d="M645 1599l78 -133q-90 -59 -163 -134t-134.5 -177t-96 -238t-34.5 -294t34.5 -294.5t96 -238.5t134.5 -177t163 -134l-78 -133q-96 60 -174 127t-148.5 156t-118 190.5t-75 230t-27.5 273.5t27.5 273.5t75 229.5t118 190t148.5 156t174 127z" />
    <glyph glyph-name="parenright" unicode=")" horiz-adv-x="706" 
d="M-16 1466l77 133q96 -60 174 -127t148.5 -156t118 -190t75 -229.5t27.5 -273.5t-27.5 -273.5t-75 -230t-118 -190.5t-148.5 -156t-174 -127l-77 133q90 59 163 134t134.5 177t96 238.5t34.5 294.5t-34.5 294t-96 238t-134.5 177t-163 134z" />
    <glyph glyph-name="asterisk" unicode="*" horiz-adv-x="1003" 
d="M860 1133l-244 -60l172 -199l-143 -102l-143 232l-144 -232l-143 102l170 199l-242 60l54 167l237 -98l-20 256h176l-19 -256l236 98z" />
    <glyph glyph-name="plus" unicode="+" 
d="M643 1149v-432h432v-160h-432v-430h-160v430h-432v160h432v432h160z" />
    <glyph glyph-name="comma" unicode="," horiz-adv-x="512" 
d="M389 238l-135 -512h-178l104 512h209z" />
    <glyph glyph-name="hyphen" unicode="-" horiz-adv-x="942" 
d="M737 487h-532v168h532v-168z" />
    <glyph glyph-name="period" unicode="." horiz-adv-x="512" 
d="M362 0h-215v238h215v-238z" />
    <glyph glyph-name="slash" unicode="/" horiz-adv-x="743" 
d="M743 1505l-598 -1614l-145 56l598 1614z" />
    <glyph glyph-name="zero" unicode="0" 
d="M563 1384q229 0 355 -187.5t126 -516.5q0 -330 -126 -517.5t-355 -187.5t-355 187.5t-126 517.5q0 329 126 516.5t355 187.5zM563 1208q-137 0 -210.5 -133t-73.5 -395t73.5 -395t210.5 -133t211 133t74 395t-74 395t-211 133z" />
    <glyph glyph-name="one" unicode="1" horiz-adv-x="704" 
d="M510 0h-193v1126q-28 -15 -64 -31t-79.5 -34t-60.5 -25v181q167 83 272 143h125v-1360z" />
    <glyph glyph-name="two" unicode="2" horiz-adv-x="1042" 
d="M983 0h-864v174q337 354 479 561q125 182 125 289q0 86 -67 137t-156 51q-87 0 -150.5 -59.5t-64.5 -151.5l-191 39q12 149 137 246.5t277 97.5q166 0 290 -101.5t124 -258.5q0 -167 -146 -375q-148 -210 -399 -477h606v-172z" />
    <glyph glyph-name="three" unicode="3" horiz-adv-x="1062" 
d="M315 598v197q131 3 195 20q81 22 131.5 76.5t50.5 126.5q0 85 -63.5 139.5t-163.5 54.5q-77 0 -138 -38.5t-85 -108.5l-164 68q41 113 145 182t246 69q188 0 304 -99.5t116 -264.5q0 -92 -46.5 -170.5t-123.5 -118.5q106 -36 172.5 -127.5t66.5 -208.5q0 -128 -62 -225
t-164.5 -146t-227.5 -49q-135 0 -254 59t-178 169l151 84q41 -70 111.5 -105t154.5 -35q114 0 193.5 60t79.5 172q0 101 -83.5 167t-205.5 66q-95 0 -158 -14z" />
    <glyph glyph-name="four" unicode="4" horiz-adv-x="1101" 
d="M856 0h-188v342h-615v207q222 288 604 811h199v-846h203v-172h-203v-342zM258 514h410v576q-157 -228 -410 -576z" />
    <glyph glyph-name="five" unicode="5" horiz-adv-x="1021" 
d="M887 1360v-172h-518q-14 -273 -25 -381q82 39 201 39q171 0 293.5 -121t122.5 -297q0 -195 -128 -324t-325 -129q-129 0 -252.5 63t-179.5 165l153 86q38 -68 105.5 -105t148.5 -37q128 0 204.5 78.5t76.5 196.5q0 113 -77.5 182.5t-197.5 69.5q-127 0 -210 -86l-140 76
q24 239 47 696h701z" />
    <glyph glyph-name="six" unicode="6" horiz-adv-x="1093" 
d="M752 1436l77 -172q-207 -93 -340 -218.5t-184 -310.5q125 125 307 125q177 0 288.5 -126.5t111.5 -311.5q0 -190 -123 -318.5t-309 -128.5q-114 0 -209.5 44.5t-157.5 120t-96.5 173.5t-34.5 205q0 158 52.5 304.5t144.5 262t212.5 205t260.5 146.5zM571 688
q-91 0 -172 -46.5t-123 -125.5q0 -58 10 -110.5t32 -100.5t54.5 -82.5t81.5 -55t109 -20.5q114 0 183 79.5t69 199.5q0 116 -66 189t-178 73z" />
    <glyph glyph-name="seven" unicode="7" horiz-adv-x="925" 
d="M885 1360v-141q-127 -264 -291.5 -632t-274.5 -632l-178 80q82 193 178.5 403.5t221.5 472t131 273.5h-652v176h865z" />
    <glyph glyph-name="eight" unicode="8" horiz-adv-x="1150" 
d="M575 -25q-202 0 -331 115t-129 285q0 228 211 342q-170 100 -170 295q0 158 116.5 265t302.5 107t303 -107t117 -265q0 -195 -170 -295q211 -114 211 -342q0 -170 -129 -285t-332 -115zM575 621q-109 0 -186.5 -70t-77.5 -168q0 -101 77 -168.5t187 -67.5t187.5 67.5
t77.5 168.5q0 98 -78 168t-187 70zM575 1212q-95 0 -161 -58.5t-66 -149.5q0 -88 66.5 -149.5t160.5 -61.5t161 61.5t67 149.5q0 91 -66.5 149.5t-161.5 58.5z" />
    <glyph glyph-name="nine" unicode="9" horiz-adv-x="1093" 
d="M342 -76l-78 172q207 93 340 218.5t184 310.5q-125 -125 -307 -125q-177 0 -288 126.5t-111 311.5q0 190 123 318t309 128q114 0 209.5 -44.5t157.5 -119.5t96.5 -173t34.5 -205q0 -158 -52.5 -304.5t-144.5 -262t-212.5 -205t-260.5 -146.5zM522 672q91 0 172 46.5
t123 125.5q0 100 -27.5 180t-94 134t-165.5 54q-114 0 -182.5 -79t-68.5 -199q0 -116 65.5 -189t177.5 -73z" />
    <glyph glyph-name="colon" unicode=":" horiz-adv-x="512" 
d="M362 786h-215v238h215v-238zM362 0h-215v238h215v-238z" />
    <glyph glyph-name="semicolon" unicode=";" horiz-adv-x="512" 
d="M389 238l-135 -512h-178l104 512h209zM393 786h-215v238h215v-238z" />
    <glyph glyph-name="less" unicode="&#x3c;" 
d="M49 557v160l1026 409v-159l-827 -330l827 -330v-160z" />
    <glyph glyph-name="equal" unicode="=" 
d="M111 877h903v-160h-903v160zM111 557h903v-160h-903v160z" />
    <glyph glyph-name="greater" unicode="&#x3e;" 
d="M1077 717v-160l-1026 -410v160l828 330l-828 330v159z" />
    <glyph glyph-name="question" unicode="?" horiz-adv-x="1107" 
d="M643 430h-199v340q48 16 81.5 29.5t75 33.5t69 43t52.5 52.5t37.5 68t12.5 84.5q0 86 -61.5 147.5t-153.5 61.5q-100 0 -159.5 -62t-59.5 -167v-17h-186v9q0 176 119 290.5t286 114.5q85 0 161.5 -33t128 -86t81.5 -119t30 -133q0 -74 -18.5 -135.5t-46.5 -103t-73 -78.5
t-83.5 -59t-93.5 -47v-234zM651 0h-215v238h215v-238z" />
    <glyph glyph-name="at" unicode="@" horiz-adv-x="1638" 
d="M1118 -211q-145 -74 -309 -74q-143 0 -272.5 56t-222 151t-147 225t-54.5 273q0 193 92 355t252.5 256.5t351.5 94.5q320 0 519.5 -186.5t199.5 -478.5q0 -86 -18.5 -162t-55.5 -138t-99 -98t-141 -36q-25 0 -50.5 7t-54 23.5t-53.5 51.5t-40 84q-34 -65 -99 -100.5
t-139 -35.5q-146 0 -240 101t-94 252q0 143 92 248.5t246 105.5q116 0 211 -88v65h146v-315q0 -80 7 -133.5t21 -79.5t28.5 -35.5t35.5 -9.5q46 0 78 43.5t45.5 108t13.5 143.5q0 230 -152 369t-405 139q-149 0 -273 -72.5t-195 -198.5t-71 -278t71 -278.5t195 -199.5
t273 -73q131 0 256 61zM993 358v148q-39 56 -92.5 88.5t-101.5 32.5q-102 0 -153.5 -65t-51.5 -154t54.5 -152t146.5 -63q54 0 111.5 44.5t86.5 120.5z" />
    <glyph glyph-name="A" unicode="A" horiz-adv-x="1337" 
d="M1307 0h-228l-112 305h-611l-110 -305h-215l555 1434h172zM662 1135l-240 -654h481l-239 654h-2z" />
    <glyph glyph-name="B" unicode="B" horiz-adv-x="1251" 
d="M195 0v1434h342q242 0 381 -91q151 -100 151 -296q0 -105 -52 -179t-167 -118q278 -83 278 -342q0 -120 -62 -212.5t-171 -138.5q-138 -57 -377 -57h-323zM920 406q0 110 -78 175.5t-221 65.5h-230v-475h109q210 0 303 43q117 55 117 191zM872 1036q0 120 -81 172
q-51 32 -123 43t-179 11h-98v-443h137q166 0 255 53.5t89 163.5z" />
    <glyph glyph-name="C" unicode="C" horiz-adv-x="1380" 
d="M1315 106q-192 -131 -422 -131q-160 0 -301 53t-245 147.5t-164 235t-60 306.5q0 156 61 294t164.5 236t245.5 154.5t299 56.5q207 0 385 -110l-92 -152q-140 86 -293 86q-243 0 -402 -159.5t-159 -405.5q0 -258 156 -411.5t405 -153.5q170 0 317 100z" />
    <glyph glyph-name="D" unicode="D" horiz-adv-x="1474" 
d="M195 0v1434h387q114 0 220.5 -23.5t207.5 -78t176 -135t120.5 -202.5t45.5 -272q0 -154 -45 -278t-121 -206t-179 -137t-214 -78.5t-232 -23.5h-366zM1143 705q0 269 -156 410.5t-442 141.5h-154v-1081h68q127 0 229 16.5t188.5 55t144.5 98.5t90 150.5t32 208.5z" />
    <glyph glyph-name="E" unicode="E" horiz-adv-x="1187" 
d="M1055 0h-860v1434h860v-177h-664v-430h664v-176h-664v-475h664v-176z" />
    <glyph glyph-name="F" unicode="F" horiz-adv-x="1013" 
d="M922 612h-531v-612h-196v1434h727v-177h-531v-469h531v-176z" />
    <glyph glyph-name="G" unicode="G" horiz-adv-x="1644" 
d="M1284 618h-364v177h561v-545q-103 -131 -257 -203t-331 -72q-218 0 -393 92t-276 262t-101 388q0 156 61 294t164.5 236t245.5 154.5t299 56.5q163 0 306.5 -67.5t248.5 -186.5l-139 -114q-77 88 -186.5 140t-229.5 52q-243 0 -402 -159.5t-159 -405.5q0 -258 156 -411.5
t405 -153.5q114 0 215 38.5t176 110.5v317z" />
    <glyph glyph-name="H" unicode="H" horiz-adv-x="1540" 
d="M1346 0h-197v651h-758v-651h-196v1434h196v-607h758v607h197v-1434z" />
    <glyph glyph-name="I" unicode="I" horiz-adv-x="585" 
d="M391 0h-196v1434h196v-1434z" />
    <glyph glyph-name="J" unicode="J" horiz-adv-x="698" 
d="M514 1434v-1072q0 -177 -65 -272q-80 -115 -275 -115q-101 0 -207 45l53 160q61 -28 125 -28q103 0 138 49q34 43 34 188v1045h197z" />
    <glyph glyph-name="K" unicode="K" horiz-adv-x="1271" 
d="M1233 1434l-477 -566l506 -868h-230l-409 709l-232 -277v-432h-196v1434h196v-732l602 732h240z" />
    <glyph glyph-name="L" unicode="L" horiz-adv-x="1024" 
d="M1014 0h-819v1434h196v-1258h623v-176z" />
    <glyph glyph-name="M" unicode="M" horiz-adv-x="1890" 
d="M1499 1210l-489 -1210h-138l-481 1210v-1210h-196v1434h311l436 -1121l442 1121h312v-1434h-197v1210z" />
    <glyph glyph-name="N" unicode="N" horiz-adv-x="1546" 
d="M1352 0h-174l-787 1069v-1069h-196v1434h172l788 -1069v1069h197v-1434z" />
    <glyph glyph-name="O" unicode="O" horiz-adv-x="1720" 
d="M1389 717q0 157 -68 286t-189.5 204t-271.5 75t-271 -75t-189 -204t-68 -286t68 -286t189 -204t271 -75t271.5 75t189.5 204t68 286zM1597 717q0 -152 -57 -289t-154.5 -236.5t-234.5 -158t-291 -58.5t-291 58.5t-234.5 158t-154.5 236.5t-57 289t57 288.5t154.5 236
t234.5 158t291 58.5t291 -58.5t234.5 -158t154.5 -236t57 -288.5z" />
    <glyph glyph-name="P" unicode="P" horiz-adv-x="1189" 
d="M1128 1006q0 -114 -45.5 -200.5t-120.5 -135.5t-161 -73t-178 -24h-232v-573h-196v1434h428q72 0 141.5 -14t136 -47t116.5 -81t80.5 -122t30.5 -164zM920 999q0 120 -84.5 189t-223.5 69h-221v-507h180q105 0 180 23t122 80t47 146z" />
    <glyph glyph-name="Q" unicode="Q" horiz-adv-x="1720" 
d="M1597 717q0 -155 -57.5 -292.5t-161.5 -238.5l195 -192l-125 -125l-211 207q-175 -101 -377 -101q-154 0 -291 58.5t-234.5 158t-154.5 236.5t-57 289t57 288.5t154.5 236t234.5 158t291 58.5t291 -58.5t234.5 -158t154.5 -236t57 -288.5zM1389 717q0 157 -68 286
t-189.5 204t-271.5 75t-271 -75t-189 -204t-68 -286t68 -286t189 -204t271 -75q135 0 244 59l-201 201l125 125l215 -215q146 159 146 395z" />
    <glyph glyph-name="R" unicode="R" horiz-adv-x="1255" 
d="M1214 0h-245l-430 606h-148v-606h-196v1434h426q68 0 135 -14t131.5 -46t113.5 -78.5t79 -117t30 -156.5q0 -88 -29.5 -160t-80 -120t-111 -78.5t-129.5 -45.5zM901 1016q0 109 -80 175t-211 66h-219v-475h178q151 0 241.5 58t90.5 176z" />
    <glyph glyph-name="S" unicode="S" horiz-adv-x="1247" 
d="M938 1167q-53 49 -136 82t-165 33q-116 0 -186 -52.5t-70 -146.5q0 -23 5.5 -43t20 -38t26.5 -31t39 -28t43 -23.5t52.5 -22.5t53 -20t59.5 -21q53 -19 89 -33t85 -37.5t82.5 -46.5t70 -56.5t58 -70t35.5 -85.5t14 -105q0 -93 -31.5 -170t-82.5 -127t-118 -85t-135.5 -50
t-136.5 -15q-157 0 -280.5 51.5t-237.5 163.5l139 132q98 -97 184 -133.5t197 -36.5q122 0 207.5 62t85.5 185q0 33 -9.5 62t-24 50.5t-40.5 42.5t-49 35t-61 30.5t-64.5 26t-70.5 24.5q-68 24 -118 45.5t-107.5 56.5t-93.5 73.5t-60.5 95t-24.5 122.5q0 98 34.5 175
t94.5 124t137 71.5t166 24.5q252 0 445 -147z" />
    <glyph glyph-name="T" unicode="T" horiz-adv-x="999" 
d="M958 1257h-360v-1257h-197v1257h-360v177h917v-177z" />
    <glyph glyph-name="U" unicode="U" horiz-adv-x="1478" 
d="M1294 1434v-760q0 -346 -135 -522.5t-424 -176.5q-283 0 -417 177t-134 522v760h197v-811q0 -233 94 -352t264 -119t264.5 119t94.5 352v811h196z" />
    <glyph glyph-name="V" unicode="V" horiz-adv-x="1296" 
d="M1286 1434l-555 -1434h-172l-549 1434h228l415 -1135h2l416 1135h215z" />
    <glyph glyph-name="W" unicode="W" horiz-adv-x="1814" 
d="M1004 1434l286 -1082h4l301 1082h209l-409 -1434h-197l-287 1092h-4l-311 -1092h-193l-393 1434h217l287 -1082h4l301 1082h185z" />
    <glyph glyph-name="X" unicode="X" horiz-adv-x="1333" 
d="M1315 1434l-520 -709l528 -725h-248l-416 567l-401 -567h-248l527 729l-510 705h252l397 -551l395 551h244z" />
    <glyph glyph-name="Y" unicode="Y" horiz-adv-x="1136" 
d="M664 0h-197v623l-457 811h244l319 -603h7l317 603h229l-462 -822v-612z" />
    <glyph glyph-name="Z" unicode="Z" horiz-adv-x="1120" 
d="M1028 1327l-674 -1151h725v-176h-997v104l678 1153h-662v177h930v-107z" />
    <glyph glyph-name="bracketleft" unicode="[" horiz-adv-x="636" 
d="M616 -348h-432v1884h432v-158h-264v-1568h264v-158z" />
    <glyph glyph-name="backslash" unicode="\" horiz-adv-x="743" 
d="M743 -53l-145 -56l-598 1614l145 56z" />
    <glyph glyph-name="bracketright" unicode="]" horiz-adv-x="636" 
d="M453 -348h-433v158h265v1568h-265v158h433v-1884z" />
    <glyph glyph-name="asciicircum" unicode="^" 
d="M971 717h-160l-248 520l-248 -520h-159l309 678h197z" />
    <glyph glyph-name="underscore" unicode="_" 
d="M1126 -481h-1126v129h1126v-129z" />
    <glyph glyph-name="grave" unicode="`" horiz-adv-x="737" 
d="M391 1159l-274 328l135 104l252 -346z" />
    <glyph glyph-name="a" unicode="a" horiz-adv-x="1118" 
d="M958 0h-178v109q-63 -70 -136 -102t-171 -32t-177.5 31t-132 103.5t-52.5 177.5q0 75 26 134.5t69.5 97.5t103.5 63t123 35t134 10q93 0 205 -23v37q0 246 -242 246q-161 0 -325 -90l-55 155q86 42 194.5 69.5t208.5 27.5q214 0 309.5 -109t95.5 -317v-623zM772 254v211
q-95 20 -184 20q-42 0 -80 -4t-78.5 -16.5t-69.5 -32t-48 -53.5t-19 -78q0 -88 56.5 -129t146.5 -41q132 0 276 123z" />
    <glyph glyph-name="b" unicode="b" horiz-adv-x="1282" 
d="M172 1536h186v-649q54 77 142.5 119.5t183.5 42.5q145 0 262.5 -71.5t183.5 -195t66 -272.5q0 -101 -37 -197.5t-103 -171.5t-164 -120.5t-212 -45.5q-90 0 -175 36t-147 100v-111h-186v1536zM358 682v-379q51 -73 133 -114.5t164 -41.5q86 0 155 32.5t110.5 85.5
t63.5 117t22 132q0 148 -96.5 255.5t-250.5 107.5q-90 0 -177.5 -52.5t-123.5 -142.5z" />
    <glyph glyph-name="c" unicode="c" horiz-adv-x="972" 
d="M831 219l93 -143q-58 -47 -140.5 -74t-173.5 -27q-146 0 -265 66t-189 189.5t-70 281.5q0 147 71 270.5t194 195t270 71.5q157 0 288 -88l-88 -154q-93 70 -209 70q-138 0 -237 -106.5t-99 -258.5q0 -161 100 -263t238 -102q51 0 113.5 20.5t103.5 51.5z" />
    <glyph glyph-name="d" unicode="d" horiz-adv-x="1282" 
d="M598 -25q-145 0 -262.5 71.5t-183.5 194.5t-66 271q0 137 62.5 259t182.5 200t271 78q88 0 174 -37t148 -101v625h186v-1536h-186v137q-54 -79 -142 -120.5t-184 -41.5zM623 147q89 0 176 52t125 141v381q-52 73 -134 114.5t-163 41.5q-86 0 -155 -32.5t-110.5 -85.5
t-63.5 -117.5t-22 -133.5q0 -147 96.5 -254t250.5 -107z" />
    <glyph glyph-name="e" unicode="e" horiz-adv-x="1146" 
d="M1053 465h-781q9 -139 98.5 -234.5t231.5 -95.5q218 0 305 166l135 -86q-77 -123 -185 -181.5t-263 -58.5q-158 0 -275 72.5t-175 193t-58 271.5q0 228 147 382.5t361 154.5q202 0 334.5 -136t132.5 -342q0 -52 -8 -106zM596 889q-119 0 -199.5 -76.5t-109.5 -198.5h581
q-6 112 -83 193.5t-189 81.5z" />
    <glyph glyph-name="f" unicode="f" horiz-adv-x="690" 
d="M750 1516l-54 -156q-63 29 -127 29q-73 0 -118 -33q-33 -27 -43.5 -75.5t-10.5 -127.5v-129h277v-164h-277v-860h-186v860h-117v164h117v147q0 174 63 269q81 121 273 121q97 0 203 -45z" />
    <glyph glyph-name="g" unicode="g" horiz-adv-x="1269" 
d="M1110 1024v-967q0 -165 -53 -268q-66 -127 -187 -185.5t-276 -58.5q-122 0 -242.5 35t-210.5 101l72 159q73 -53 178 -88t199 -35q68 0 126.5 17t106 52t74.5 95t27 139v142q-53 -79 -142 -120.5t-186 -41.5q-143 0 -260 69t-183.5 189t-66.5 266q0 135 62.5 254
t182.5 195t271 76q88 0 174 -37t148 -101v113h186zM924 362v359q-52 73 -134 114.5t-163 41.5q-86 0 -155 -31t-110.5 -82.5t-63.5 -114t-22 -129.5q0 -143 96.5 -245.5t248.5 -102.5q89 0 177 51t126 139z" />
    <glyph glyph-name="h" unicode="h" horiz-adv-x="1241" 
d="M358 1536v-680q57 91 144.5 142t189.5 51q202 0 297 -129q92 -124 92 -388v-532h-186v512q0 95 -10 164t-43 119q-55 82 -178 82q-87 0 -168 -54t-138 -143v-680h-186v1536h186z" />
    <glyph glyph-name="i" unicode="i" horiz-adv-x="530" 
d="M358 0h-186v1024h186v-1024zM358 1225h-186v209h186v-209z" />
    <glyph glyph-name="j" unicode="j" horiz-adv-x="546" 
d="M375 1225h-187v209h187v-209zM375 1024v-1114q0 -123 -29 -195q-31 -79 -98.5 -124.5t-173.5 -45.5q-117 0 -197 45l53 152q56 -29 115 -29q39 0 66 12.5t42 31.5t23 52t10 62.5t2 75.5v1077h187z" />
    <glyph glyph-name="k" unicode="k" horiz-adv-x="1052" 
d="M1040 0h-227l-293 459l-162 -189v-270h-186v1536h186v-1024l4 -2l414 514h230l-359 -418z" />
    <glyph glyph-name="l" unicode="l" horiz-adv-x="530" 
d="M358 1536v-1536h-186v1536h186z" />
    <glyph glyph-name="m" unicode="m" horiz-adv-x="1882" 
d="M1722 0h-186v512q0 63 -2 103t-13.5 93t-33.5 87q-55 82 -176 82q-72 0 -148.5 -46.5t-134.5 -123.5q12 -76 12 -175v-532h-186v512q0 64 -2 105.5t-15 97t-38 90.5q-52 72 -158 72q-73 0 -149.5 -55.5t-133.5 -133.5v-688h-186v1024h186v-156q57 82 145 131.5t177 49.5
q194 0 285 -142q10 -13 24 -47q65 92 158 140.5t199 48.5q191 0 282 -121q94 -123 94 -396v-532z" />
    <glyph glyph-name="n" unicode="n" horiz-adv-x="1241" 
d="M172 1024h186v-168q57 91 144.5 142t189.5 51q202 0 297 -129q92 -124 92 -388v-532h-186v512q0 95 -10 164t-43 119q-55 82 -178 82q-87 0 -168 -54t-138 -143v-680h-186v1024z" />
    <glyph glyph-name="o" unicode="o" horiz-adv-x="1216" 
d="M608 1049q147 0 267 -71.5t187.5 -194.5t67.5 -271t-67.5 -271t-187.5 -194.5t-267 -71.5t-267 71.5t-187.5 194.5t-67.5 271t67.5 271t187.5 194.5t267 71.5zM940 512q0 152 -94.5 258.5t-237.5 106.5t-237.5 -106.5t-94.5 -258.5t94.5 -258.5t237.5 -106.5t237.5 106.5
t94.5 258.5z" />
    <glyph glyph-name="p" unicode="p" horiz-adv-x="1282" 
d="M172 1024h186v-137q54 77 142.5 119.5t183.5 42.5q145 0 262.5 -71.5t183.5 -195t66 -272.5q0 -101 -37 -197.5t-103 -171.5t-164 -120.5t-212 -45.5q-90 0 -175 36t-147 100v-623h-186v1536zM358 682v-379q51 -73 133 -114.5t164 -41.5q86 0 155 32.5t110.5 85.5
t63.5 117t22 132q0 148 -96.5 255.5t-250.5 107.5q-90 0 -177.5 -52.5t-123.5 -142.5z" />
    <glyph glyph-name="q" unicode="q" horiz-adv-x="1282" 
d="M1110 1024v-1536h-186v649q-54 -79 -142 -120.5t-184 -41.5q-145 0 -262.5 71.5t-183.5 194.5t-66 271q0 137 62.5 259t182.5 200t271 78q88 0 174 -37t148 -101v113h186zM924 340v381q-52 73 -134 114.5t-163 41.5q-86 0 -155 -32.5t-110.5 -85.5t-63.5 -117.5
t-22 -133.5q0 -147 96.5 -254t250.5 -107q89 0 176 52t125 141z" />
    <glyph glyph-name="r" unicode="r" horiz-adv-x="731" 
d="M358 1024v-170q49 88 117 141.5t148 53.5q47 0 110 -13l-35 -198q-44 20 -96 20q-146 0 -244 -172v-686h-186v1024h186z" />
    <glyph glyph-name="s" unicode="s" horiz-adv-x="923" 
d="M782 936l-110 -119q-36 32 -94 54t-109 22q-70 0 -112 -37.5t-42 -97.5q0 -23 12.5 -43t27.5 -34t46.5 -30.5t51 -24.5t59.5 -24q48 -19 83 -34.5t79 -43.5t71 -57.5t46.5 -74t19.5 -95.5q0 -83 -30.5 -146.5t-83 -101t-117.5 -56t-140 -18.5q-106 0 -199.5 41.5
t-152.5 118.5l131 105q103 -109 223 -109q80 0 132.5 41t52.5 117q0 19 -6.5 36t-23.5 32t-29.5 24.5t-42.5 23.5t-44 20t-51 21q-41 16 -60 24t-56.5 26t-56.5 31.5t-46 37.5t-40.5 48t-23.5 58t-10 72q0 75 27.5 134.5t74 96.5t105 56t123.5 19q89 0 171.5 -29t143.5 -84z
" />
    <glyph glyph-name="t" unicode="t" horiz-adv-x="708" 
d="M655 860h-286v-463q0 -49 2 -80q5 -86 37.5 -129t105.5 -43q55 0 115 29l51 -149q-85 -45 -191 -45q-203 0 -274 159q-33 75 -33 213v508h-137v164h137v246h187v-246h286v-164z" />
    <glyph glyph-name="u" unicode="u" horiz-adv-x="1241" 
d="M883 0v168q-57 -91 -144.5 -142t-189.5 -51q-202 0 -297 129q-92 124 -92 388v532h186v-512q0 -95 10 -164t43 -119q55 -82 179 -82q87 0 167.5 54t137.5 143v680h186v-1024h-186z" />
    <glyph glyph-name="v" unicode="v" horiz-adv-x="980" 
d="M770 1024h199l-398 -1024h-168l-387 1024h207l273 -793h4z" />
    <glyph glyph-name="w" unicode="w" horiz-adv-x="1501" 
d="M858 1024l207 -788h6l209 788h188l-294 -1024h-201l-219 797h-4l-226 -797h-209l-282 1024h200l193 -788h4l227 788h201z" />
    <glyph glyph-name="x" unicode="x" horiz-adv-x="1003" 
d="M983 1024l-362 -498l370 -526h-237l-256 381l-256 -381h-230l377 510l-356 514h235l246 -365l244 365h225z" />
    <glyph glyph-name="y" unicode="y" horiz-adv-x="976" 
d="M12 1024h207l266 -776h4l273 776h203l-576 -1485l-164 64l162 428z" />
    <glyph glyph-name="z" unicode="z" horiz-adv-x="929" 
d="M121 84l452 776h-475v164h723v-82l-452 -778h487v-164h-735v84z" />
    <glyph glyph-name="braceleft" unicode="{" horiz-adv-x="636" 
d="M18 532l5 168q83 19 122 99.5t39 199.5v154q0 180 102.5 294t268.5 114q39 0 59 -2v-162q-36 4 -51 4q-110 0 -160.5 -83.5t-50.5 -219.5v-154q0 -103 -36 -188t-101 -140q137 -118 137 -327v-199q0 -136 50.5 -219.5t160.5 -83.5q19 0 51 4v-162q-20 -2 -59 -2
q-166 0 -268.5 114t-102.5 294v223q0 108 -41.5 182.5t-124.5 91.5z" />
    <glyph glyph-name="bar" unicode="|" horiz-adv-x="651" 
d="M406 -348h-160v2105h160v-2105z" />
    <glyph glyph-name="braceright" unicode="}" horiz-adv-x="636" 
d="M612 700l4 -168q-83 -17 -124 -91t-41 -183v-223q0 -180 -102.5 -294t-268.5 -114q-40 0 -60 2v162q32 -4 52 -4q110 0 160.5 83.5t50.5 219.5v199q0 209 137 327q-65 55 -101 140t-36 188v154q0 136 -50.5 219.5t-160.5 83.5q-16 0 -52 -4v162q20 2 60 2
q166 0 268.5 -114t102.5 -294v-154q0 -119 39 -199.5t122 -99.5z" />
    <glyph glyph-name="asciitilde" unicode="~" 
d="M903 797l156 16q4 -32 4 -65q0 -115 -77.5 -182.5t-201.5 -67.5q-70 0 -139 29t-114 63t-99 63t-98 29q-43 0 -78 -27t-35 -67q0 -23 4 -35l-155 -16q-4 32 -4 65q0 115 77 182.5t201 67.5q70 0 139 -29t114.5 -63t99.5 -63t98 -29q42 0 77 28t35 66q0 23 -4 35z" />
    <glyph glyph-name="uni00A0" unicode="&#xa0;" horiz-adv-x="512" 
 />
    <glyph glyph-name="exclamdown" unicode="&#xa1;" horiz-adv-x="649" 
d="M213 -410v228l20 776h183l20 -776v-228h-223zM217 1024h215v-238h-215v238z" />
    <glyph glyph-name="cent" unicode="&#xa2;" 
d="M901 354l92 -143q-110 -86 -266 -98v-179h-131v183q-194 28 -317 171.5t-123 358.5q0 199 124.5 347t315.5 182v184h131v-178q135 -9 252 -86l-88 -154q-93 70 -209 70q-138 0 -237 -106.5t-99 -258.5q0 -161 100 -262.5t238 -101.5q51 0 113.5 20t103.5 51z" />
    <glyph glyph-name="sterling" unicode="&#xa3;" 
d="M995 0h-831v176h117v471h-117v172h117v111q0 198 116 326t297 128q179 0 301 -75l-80 -160q-71 63 -213 63q-123 0 -179 -92t-56 -246v-55h276v-172h-276v-471h528v-176z" />
    <glyph glyph-name="currency" unicode="&#xa4;" 
d="M121 666q0 137 82 256l-107 106l105 105l106 -107q116 82 256 82q137 0 256 -82l107 107l104 -105l-106 -106q82 -119 82 -256q0 -140 -82 -256l106 -107l-104 -104l-107 106q-119 -82 -256 -82q-140 0 -256 82l-106 -106l-105 104l107 107q-82 116 -82 256zM281 666
q0 -117 82.5 -200t199.5 -83t200 83t83 200t-83 199.5t-200 82.5t-199.5 -82.5t-82.5 -199.5z" />
    <glyph glyph-name="yen" unicode="&#xa5;" 
d="M113 524v152h305l-383 684h221l311 -572h4l301 572h218l-390 -684h304v-152h-349v-131h349v-151h-353v-242h-186v242h-352v151h348v131h-348z" />
    <glyph glyph-name="brokenbar" unicode="&#xa6;" horiz-adv-x="651" 
d="M406 -410h-160v768h160v-768zM406 768h-160v768h160v-768z" />
    <glyph glyph-name="section" unicode="&#xa7;" 
d="M913 1356l-100 -129q-126 76 -270 76q-51 0 -97 -14t-80 -49.5t-34 -86.5q0 -22 8.5 -41.5t20.5 -34t36 -30t42.5 -25t54 -23t57 -20.5t64 -20.5t63.5 -20.5q59 -20 102.5 -38t92 -47t79 -62.5t50.5 -82.5t20 -108q0 -87 -55.5 -164t-143.5 -119q160 -85 160 -247
q0 -91 -34 -161t-95 -112t-139 -63t-172 -21q-129 0 -243 39.5t-196 114.5l111 131q144 -129 328 -129q105 0 177.5 47.5t72.5 132.5q0 43 -31.5 76.5t-74.5 53t-112 40.5q-21 6 -61.5 18t-65 19t-63 20t-63 24t-57 27.5t-53 33.5t-43 40t-35 48.5t-20.5 57.5t-8 68
q0 104 54.5 183.5t148.5 118.5q-155 91 -155 251q0 108 58 184.5t145.5 111t193.5 34.5q209 0 362 -102zM668 381q68 27 115.5 80t47.5 117q0 25 -9 47t-21.5 38.5t-37.5 33t-45 27t-56.5 24t-59.5 20.5t-66 20.5t-65 20.5q-78 -25 -126 -79t-48 -116q0 -30 10 -55
t33.5 -45.5t44.5 -34.5t63 -29.5t66.5 -23.5t77.5 -23t76 -22z" />
    <glyph glyph-name="dieresis" unicode="&#xa8;" horiz-adv-x="737" 
d="M256 1225h-190v209h190v-209zM672 1225h-191v209h191v-209z" />
    <glyph glyph-name="copyright" unicode="&#xa9;" horiz-adv-x="1636" 
d="M113 682q0 144 56 275t150 225.5t225 150.5t275 56t275 -56t225.5 -150.5t150.5 -225.5t56 -275t-56 -275t-150.5 -225.5t-225.5 -150.5t-275 -56t-275 56t-225 150.5t-150 225.5t-56 275zM268 682q0 -112 43.5 -215t117 -177.5t176 -118.5t214.5 -44t214.5 44t176 118.5
t117 177.5t43.5 215t-43.5 215t-117 177.5t-176 118.5t-214.5 44t-214.5 -44t-176 -118.5t-117 -177.5t-43.5 -215zM600 682q0 -115 65 -179.5t169 -64.5q81 0 149 51l78 -118q-111 -72 -221 -72q-169 0 -284.5 106t-115.5 277q0 162 116.5 271.5t283.5 109.5q110 0 207 -62
l-72 -118q-77 41 -141 41q-101 0 -167.5 -68t-66.5 -174z" />
    <glyph glyph-name="ordfeminine" unicode="&#xaa;" horiz-adv-x="780" 
d="M520 1202v21q0 77 -36.5 116t-116.5 39q-109 0 -217 -59l-44 117q145 67 283 67q279 0 279 -293v-419h-133l-9 69q-72 -86 -198 -86q-104 0 -177 56t-73 159q0 63 26.5 109t71.5 71.5t98 37.5t113 12q55 0 133 -17zM520 1102q-63 14 -112 14q-46 0 -84.5 -9t-69.5 -37
t-31 -73q0 -54 36 -80t93 -26q80 0 168 74v137z" />
    <glyph glyph-name="guillemotleft" unicode="&#xab;" horiz-adv-x="1085" 
d="M575 680l297 307l91 -180l-261 -250l261 -248l-91 -180l-297 307v244zM123 680l297 307l90 -180l-260 -250l260 -248l-90 -180l-297 307v244z" />
    <glyph glyph-name="logicalnot" unicode="&#xac;" 
d="M49 860h1026v-594h-160v434h-866v160z" />
    <glyph glyph-name="uni00AD" unicode="&#xad;" horiz-adv-x="942" 
d="M737 487h-532v168h532v-168z" />
    <glyph glyph-name="registered" unicode="&#xae;" horiz-adv-x="1177" 
d="M113 991q0 97 37.5 185.5t101.5 152.5t151.5 101.5t184.5 37.5q198 0 337.5 -139.5t139.5 -337.5q0 -97 -37.5 -184.5t-101.5 -151.5t-152.5 -101.5t-185.5 -37.5t-184.5 37.5t-151.5 101.5t-101.5 151.5t-37.5 184.5zM236 991q0 -147 103 -251.5t249 -104.5
q147 0 250.5 104.5t103.5 251.5q0 149 -103 254t-251 105q-146 0 -249 -105t-103 -254zM817 743h-135l-133 187h-27v-187h-110v494h120q123 0 178.5 -36t55.5 -114q0 -48 -26.5 -86t-71.5 -55zM651 1083q0 38 -26 51t-103 13v-127q68 0 98.5 11.5t30.5 51.5z" />
    <glyph glyph-name="macron" unicode="&#xaf;" horiz-adv-x="737" 
d="M672 1245h-606v144h606v-144z" />
    <glyph glyph-name="degree" unicode="&#xb0;" horiz-adv-x="946" 
d="M303 1112q0 -71 49 -121.5t119 -50.5q71 0 121.5 51t50.5 121q0 71 -51 123.5t-121 52.5t-119 -52.5t-49 -123.5zM164 1112q0 125 90 216t217 91q125 0 218 -91.5t93 -215.5q0 -126 -92.5 -214.5t-218.5 -88.5q-128 0 -217.5 88t-89.5 215z" />
    <glyph glyph-name="plusminus" unicode="&#xb1;" 
d="M51 160h1024v-160h-1024v160zM643 1292v-432h432v-160h-432v-430h-160v430h-432v160h432v432h160z" />
    <glyph glyph-name="twosuperior" unicode="&#xb2;" horiz-adv-x="653" 
d="M78 870q155 161 280 336q66 90 66 158q0 43 -31.5 69.5t-77.5 26.5q-48 0 -78 -32.5t-30 -86.5l-148 25q7 98 84 159.5t176 61.5q103 0 179.5 -61t76.5 -160q0 -107 -83 -227q-70 -100 -218 -260h338v-127h-534v118z" />
    <glyph glyph-name="threesuperior" unicode="&#xb3;" horiz-adv-x="653" 
d="M201 1106v131q75 4 104 12q43 11 69.5 40t26.5 67q0 45 -32 74.5t-84 29.5q-42 0 -74.5 -23t-42.5 -63l-123 53q25 74 90 117t150 43q113 0 189.5 -60t76.5 -159q0 -54 -27.5 -101.5t-72.5 -72.5q62 -22 100.5 -77t38.5 -124q0 -116 -82.5 -184t-202.5 -68
q-87 0 -161 40.5t-109 115.5l121 59q45 -88 147 -88q56 0 95.5 31t39.5 88q0 59 -45 93t-114 34q-47 0 -78 -8z" />
    <glyph glyph-name="acute" unicode="&#xb4;" horiz-adv-x="737" 
d="M621 1487l-275 -328l-113 86l252 346z" />
    <glyph glyph-name="mu" unicode="&#xb5;" 
d="M831 0v168q-57 -91 -144 -142t-189 -51q-121 0 -203 45v-532h-186v1536h186v-512q0 -44 1 -73.5t6 -71.5t13.5 -70t26 -59t41.5 -49t60.5 -30t82.5 -12q87 0 167.5 54t137.5 143v680h187v-1024h-187z" />
    <glyph glyph-name="paragraph" unicode="&#xb6;" 
d="M1020 -358h-197v1792h197v-1792zM707 -358h-197v936q-83 10 -156 39t-134.5 78.5t-97.5 129.5t-36 181q0 90 30.5 164t80.5 122t117 81t136.5 47t141.5 14h115v-1792zM283 1006q0 -110 65 -173t162 -73v493q-97 -11 -162 -74t-65 -173z" />
    <glyph glyph-name="periodcentered" unicode="&#xb7;" horiz-adv-x="512" 
d="M362 530h-215v238h215v-238z" />
    <glyph glyph-name="cedilla" unicode="&#xb8;" horiz-adv-x="737" 
d="M356 -2l-49 -131l2 -2q44 33 99 33q71 0 124.5 -55t53.5 -136q0 -83 -65 -146t-159 -63q-142 0 -210 121l116 57q23 -65 94 -65q39 0 64 27t25 63q0 40 -26 68t-67 28q-58 0 -79 -49l-125 66l86 206z" />
    <glyph glyph-name="onesuperior" unicode="&#xb9;" horiz-adv-x="442" 
d="M332 752h-148v653q-47 -23 -118 -53v135q15 8 170 90h96v-825z" />
    <glyph glyph-name="ordmasculine" unicode="&#xba;" horiz-adv-x="839" 
d="M420 1503q154 0 256 -104.5t102 -259.5q0 -154 -102 -259.5t-256 -105.5t-256.5 105.5t-102.5 259.5q0 155 102.5 259.5t256.5 104.5zM627 1139q0 98 -58.5 164.5t-148.5 66.5t-148.5 -66.5t-58.5 -164.5t58.5 -165t148.5 -67t148.5 67t58.5 165z" />
    <glyph glyph-name="guillemotright" unicode="&#xbb;" horiz-adv-x="1085" 
d="M213 965l297 -287v-244l-297 -287l-90 160l260 248l-260 250zM666 965l297 -287v-244l-297 -287l-91 160l261 248l-261 250z" />
    <glyph glyph-name="onequarter" unicode="&#xbc;" horiz-adv-x="1525" 
d="M1182 1458l112 -82l-1018 -1401l-112 82zM459 692h-142v580q-74 -34 -108 -47v127q14 8 71.5 36.5t86.5 45.5h92v-742zM797 307q164 216 315 428h143v-436h107v-117h-107v-182h-139v182h-319v125zM1116 299v250q-154 -230 -170 -250h170z" />
    <glyph glyph-name="onehalf" unicode="&#xbd;" horiz-adv-x="1576" 
d="M1182 1458l112 -82l-1018 -1401l-112 82zM459 692h-142v580q-74 -34 -108 -47v127q14 8 71.5 36.5t86.5 45.5h92v-742zM922 109q144 147 256 301q57 77 57 137q0 37 -26.5 59.5t-67.5 22.5q-42 0 -68 -29t-26 -78l-142 25q6 90 77 146.5t165 56.5t164.5 -56t70.5 -147
t-79 -203q-63 -89 -191 -225h301v-119h-491v109z" />
    <glyph glyph-name="threequarters" unicode="&#xbe;" horiz-adv-x="1662" 
d="M1319 1458l113 -82l-1018 -1401l-113 82zM322 1012v123q61 0 92 8q84 23 84 96q0 38 -28.5 63t-76.5 25q-36 0 -62.5 -20.5t-35.5 -57.5l-121 54q24 68 84.5 106.5t136.5 38.5q103 0 174.5 -55.5t71.5 -143.5q0 -46 -25.5 -88.5t-66.5 -66.5q57 -20 92 -70t35 -113
q0 -102 -76 -163.5t-186 -61.5q-80 0 -148 37t-102 108l119 56q39 -82 131 -82q49 0 82.5 27t33.5 77q0 51 -40 80t-103 29q-40 0 -65 -6zM934 307q164 216 315 428h144v-436h106v-117h-106v-182h-140v182h-319v125zM1253 299v250q-154 -230 -170 -250h170z" />
    <glyph glyph-name="questiondown" unicode="&#xbf;" horiz-adv-x="1107" 
d="M465 596h199v-340q-48 -16 -81.5 -29.5t-75 -33.5t-69 -43t-52.5 -52.5t-37.5 -68t-12.5 -84.5q0 -86 61.5 -147.5t153.5 -61.5q100 0 159.5 62t59.5 167v17h186v-9q0 -176 -119 -290.5t-286 -114.5q-85 0 -161.5 33t-128 86t-81.5 119t-30 133q0 74 18.5 135.5t46.5 103
t73 78.5t83.5 59t93.5 47v234zM457 1026h215v-238h-215v238z" />
    <glyph glyph-name="Agrave" unicode="&#xc0;" horiz-adv-x="1337" 
d="M1307 0h-228l-112 305h-611l-110 -305h-215l555 1434h172zM662 1135l-240 -654h481l-239 654h-2zM719 1516l-359 258l107 135l338 -283z" />
    <glyph glyph-name="Aacute" unicode="&#xc1;" horiz-adv-x="1337" 
d="M1307 0h-228l-112 305h-611l-110 -305h-215l555 1434h172zM662 1135l-240 -654h481l-239 654h-2zM983 1774l-358 -258l-86 110l338 283z" />
    <glyph glyph-name="Acircumflex" unicode="&#xc2;" horiz-adv-x="1337" 
d="M1307 0h-228l-112 305h-611l-110 -305h-215l555 1434h172zM662 1135l-240 -654h481l-239 654h-2zM573 1888h195l219 -274l-110 -86l-209 237l-207 -237l-113 86z" />
    <glyph glyph-name="Atilde" unicode="&#xc3;" horiz-adv-x="1337" 
d="M1307 0h-228l-112 305h-611l-110 -305h-215l555 1434h172zM662 1135l-240 -654h481l-239 654h-2zM918 1774l133 14q4 -24 4 -55q0 -88 -56 -141.5t-145 -53.5q-48 0 -94.5 20.5t-76.5 45t-66 45t-66 20.5q-29 0 -48 -16t-20 -45q0 -15 2 -21l-133 -14q-4 24 -4 55
q0 88 56 141.5t145 53.5q47 0 93 -20.5t77 -45t67.5 -45t65.5 -20.5t48 16t20 45q0 15 -2 21z" />
    <glyph glyph-name="Adieresis" unicode="&#xc4;" horiz-adv-x="1337" 
d="M1307 0h-228l-112 305h-611l-110 -305h-215l555 1434h172zM662 1135l-240 -654h481l-239 654h-2zM498 1565h-209v227h209v-227zM1051 1565h-209v227h209v-227z" />
    <glyph glyph-name="Aring" unicode="&#xc5;" horiz-adv-x="1337" 
d="M1307 0h-228l-112 305h-611l-110 -305h-215l555 1434h172zM662 1135l-240 -654h481l-239 654h-2zM483 1677q0 78 56.5 134.5t134.5 56.5t134 -56.5t56 -134.5t-56 -134t-134 -56t-134.5 56t-56.5 134zM584 1677q0 -37 26.5 -63.5t63.5 -26.5t63.5 26.5t26.5 63.5
t-26.5 63.5t-63.5 26.5t-63.5 -26.5t-26.5 -63.5z" />
    <glyph glyph-name="AE" unicode="&#xc6;" horiz-adv-x="2019" 
d="M1886 0h-860v305h-586l-215 -305h-245l1048 1434h858v-177h-663v-430h663v-176h-663v-475h663v-176zM563 481h463v658z" />
    <glyph glyph-name="Ccedilla" unicode="&#xc7;" horiz-adv-x="1380" 
d="M1278 1348l-92 -152q-140 86 -293 86q-243 0 -402 -159.5t-159 -405.5q0 -258 156 -411.5t405 -153.5q170 0 317 100l105 -146q-192 -131 -422 -131q-60 0 -119 9l-49 -117l4 -2q37 33 98 33q80 0 129.5 -55.5t49.5 -135.5q0 -83 -65 -146t-159 -63q-143 0 -211 121
l117 57q23 -65 94 -65q39 0 63.5 26.5t24.5 63.5q0 39 -23.5 67.5t-64.5 28.5q-58 0 -84 -49l-127 68l88 190q-241 65 -388.5 253.5t-147.5 457.5q0 156 61 294t164.5 236t245.5 154.5t299 56.5q207 0 385 -110z" />
    <glyph glyph-name="Egrave" unicode="&#xc8;" horiz-adv-x="1187" 
d="M1055 0h-860v1434h860v-177h-664v-430h664v-176h-664v-475h664v-176zM705 1516l-359 258l107 135l338 -283z" />
    <glyph glyph-name="Eacute" unicode="&#xc9;" horiz-adv-x="1187" 
d="M1055 0h-860v1434h860v-177h-664v-430h664v-176h-664v-475h664v-176zM915 1774l-358 -258l-86 110l338 283z" />
    <glyph glyph-name="Ecircumflex" unicode="&#xca;" horiz-adv-x="1187" 
d="M1055 0h-860v1434h860v-177h-664v-430h664v-176h-664v-475h664v-176zM541 1888h194l219 -274l-110 -86l-209 237l-207 -237l-113 86z" />
    <glyph glyph-name="Edieresis" unicode="&#xcb;" horiz-adv-x="1187" 
d="M508 1565h-205v227h205v-227zM979 1565h-205v227h205v-227zM1055 0h-860v1434h860v-177h-664v-430h664v-176h-664v-475h664v-176z" />
    <glyph glyph-name="Igrave" unicode="&#xcc;" horiz-adv-x="585" 
d="M391 0h-196v1434h196v-1434zM344 1516l-358 258l106 135l338 -283z" />
    <glyph glyph-name="Iacute" unicode="&#xcd;" horiz-adv-x="585" 
d="M391 0h-196v1434h196v-1434zM608 1774l-358 -258l-86 110l338 283z" />
    <glyph glyph-name="Icircumflex" unicode="&#xce;" horiz-adv-x="585" 
d="M391 0h-196v1434h196v-1434zM199 1888h194l219 -274l-110 -86l-209 237l-207 -237l-113 86z" />
    <glyph glyph-name="Idieresis" unicode="&#xcf;" horiz-adv-x="585" 
d="M164 1565h-209v227h209v-227zM631 1565h-209v227h209v-227zM391 0h-196v1434h196v-1434z" />
    <glyph glyph-name="Eth" unicode="&#xd0;" horiz-adv-x="1474" 
d="M1352 723q0 -154 -45 -278t-121 -206t-179 -137t-214 -78.5t-232 -23.5h-366v657h-144v162h144v615h387q114 0 220.5 -23.5t207.5 -78t176 -135t120.5 -202.5t45.5 -272zM1143 705q0 269 -156 410.5t-442 141.5h-154v-438h246v-162h-246v-481h68q127 0 229 16.5t188.5 55
t144.5 98.5t90 150.5t32 208.5z" />
    <glyph glyph-name="Ntilde" unicode="&#xd1;" horiz-adv-x="1546" 
d="M1352 0h-174l-787 1069v-1069h-196v1434h172l788 -1069v1069h197v-1434zM1006 1774l133 14q4 -24 4 -55q0 -88 -56 -141.5t-145 -53.5q-48 0 -94.5 20.5t-76.5 45t-66 45t-66 20.5q-29 0 -48 -16t-20 -45q0 -15 2 -21l-133 -14q-4 24 -4 55q0 88 56 141.5t145 53.5
q47 0 93 -20.5t77 -45t67.5 -45t65.5 -20.5t48 16t20 45q0 15 -2 21z" />
    <glyph glyph-name="Ograve" unicode="&#xd2;" horiz-adv-x="1720" 
d="M1389 717q0 157 -68 286t-189.5 204t-271.5 75t-271 -75t-189 -204t-68 -286t68 -286t189 -204t271 -75t271.5 75t189.5 204t68 286zM1597 717q0 -152 -57 -289t-154.5 -236.5t-234.5 -158t-291 -58.5t-291 58.5t-234.5 158t-154.5 236.5t-57 289t57 288.5t154.5 236
t234.5 158t291 58.5t291 -58.5t234.5 -158t154.5 -236t57 -288.5zM911 1516l-358 258l106 135l338 -283z" />
    <glyph glyph-name="Oacute" unicode="&#xd3;" horiz-adv-x="1720" 
d="M1389 717q0 157 -68 286t-189.5 204t-271.5 75t-271 -75t-189 -204t-68 -286t68 -286t189 -204t271 -75t271.5 75t189.5 204t68 286zM1597 717q0 -152 -57 -289t-154.5 -236.5t-234.5 -158t-291 -58.5t-291 58.5t-234.5 158t-154.5 236.5t-57 289t57 288.5t154.5 236
t234.5 158t291 58.5t291 -58.5t234.5 -158t154.5 -236t57 -288.5zM1176 1774l-359 -258l-86 110l338 283z" />
    <glyph glyph-name="Ocircumflex" unicode="&#xd4;" horiz-adv-x="1720" 
d="M1389 717q0 157 -68 286t-189.5 204t-271.5 75t-271 -75t-189 -204t-68 -286t68 -286t189 -204t271 -75t271.5 75t189.5 204t68 286zM1597 717q0 -152 -57 -289t-154.5 -236.5t-234.5 -158t-291 -58.5t-291 58.5t-234.5 158t-154.5 236.5t-57 289t57 288.5t154.5 236
t234.5 158t291 58.5t291 -58.5t234.5 -158t154.5 -236t57 -288.5zM762 1888h194l220 -274l-111 -86l-209 237l-207 -237l-112 86z" />
    <glyph glyph-name="Otilde" unicode="&#xd5;" horiz-adv-x="1720" 
d="M1389 717q0 157 -68 286t-189.5 204t-271.5 75t-271 -75t-189 -204t-68 -286t68 -286t189 -204t271 -75t271.5 75t189.5 204t68 286zM1597 717q0 -152 -57 -289t-154.5 -236.5t-234.5 -158t-291 -58.5t-291 58.5t-234.5 158t-154.5 236.5t-57 289t57 288.5t154.5 236
t234.5 158t291 58.5t291 -58.5t234.5 -158t154.5 -236t57 -288.5zM1118 1774l133 14q4 -24 4 -55q0 -88 -55.5 -141.5t-144.5 -53.5q-48 0 -94.5 20.5t-76.5 45t-66 45t-66 20.5q-29 0 -48 -16t-20 -45q0 -15 2 -21l-133 -14q-4 24 -4 55q0 88 56 141.5t145 53.5
q47 0 93 -20.5t77 -45t67.5 -45t65.5 -20.5q28 0 47 16t20 45q0 15 -2 21z" />
    <glyph glyph-name="Odieresis" unicode="&#xd6;" horiz-adv-x="1720" 
d="M1389 717q0 157 -68 286t-189.5 204t-271.5 75t-271 -75t-189 -204t-68 -286t68 -286t189 -204t271 -75t271.5 75t189.5 204t68 286zM1597 717q0 -152 -57 -289t-154.5 -236.5t-234.5 -158t-291 -58.5t-291 58.5t-234.5 158t-154.5 236.5t-57 289t57 288.5t154.5 236
t234.5 158t291 58.5t291 -58.5t234.5 -158t154.5 -236t57 -288.5zM688 1565h-209v227h209v-227zM1241 1565h-209v227h209v-227z" />
    <glyph glyph-name="multiply" unicode="&#xd7;" 
d="M258 1057l305 -307l307 307l113 -115l-305 -305l303 -303l-113 -115l-305 305l-305 -305l-113 113l306 305l-306 305z" />
    <glyph glyph-name="Oslash" unicode="&#xd8;" horiz-adv-x="1720" 
d="M1393 1376l-60 -88q123 -103 193.5 -252.5t70.5 -318.5q0 -152 -57 -289t-154.5 -236.5t-234.5 -158t-291 -58.5q-193 0 -354 88l-68 -100l-137 86l72 107q-118 102 -184 248t-66 313q0 152 57 288.5t154.5 236t234.5 158t291 58.5q177 0 338 -82l57 86zM1389 717
q0 122 -42.5 228.5t-119.5 184.5l-619 -915q114 -63 252 -63q150 0 271.5 75t189.5 204t68 286zM332 717q0 -243 149 -402l615 912q-110 55 -236 55q-150 0 -271 -75t-189 -204t-68 -286z" />
    <glyph glyph-name="Ugrave" unicode="&#xd9;" horiz-adv-x="1478" 
d="M1294 1434v-760q0 -346 -135 -522.5t-424 -176.5q-283 0 -417 177t-134 522v760h197v-811q0 -233 94 -352t264 -119t264.5 119t94.5 352v811h196zM791 1516l-359 258l107 135l338 -283z" />
    <glyph glyph-name="Uacute" unicode="&#xda;" horiz-adv-x="1478" 
d="M1294 1434v-760q0 -346 -135 -522.5t-424 -176.5q-283 0 -417 177t-134 522v760h197v-811q0 -233 94 -352t264 -119t264.5 119t94.5 352v811h196zM1055 1774l-359 -258l-86 110l338 283z" />
    <glyph glyph-name="Ucircumflex" unicode="&#xdb;" horiz-adv-x="1478" 
d="M1294 1434v-760q0 -346 -135 -522.5t-424 -176.5q-283 0 -417 177t-134 522v760h197v-811q0 -233 94 -352t264 -119t264.5 119t94.5 352v811h196zM662 1888h194l219 -274l-110 -86l-209 237l-207 -237l-113 86z" />
    <glyph glyph-name="Udieresis" unicode="&#xdc;" horiz-adv-x="1478" 
d="M1294 1434v-760q0 -346 -135 -522.5t-424 -176.5q-283 0 -417 177t-134 522v760h197v-811q0 -233 94 -352t264 -119t264.5 119t94.5 352v811h196zM567 1565h-209v227h209v-227zM1120 1565h-209v227h209v-227z" />
    <glyph glyph-name="Yacute" unicode="&#xdd;" horiz-adv-x="1136" 
d="M664 0h-197v623l-457 811h244l319 -603h7l317 603h229l-462 -822v-612zM864 1774l-358 -258l-86 110l338 283z" />
    <glyph glyph-name="Thorn" unicode="&#xde;" horiz-adv-x="1230" 
d="M195 1436h196v-281h232q72 0 141.5 -14t136 -47t116.5 -81t80.5 -122t30.5 -164q0 -92 -30.5 -166.5t-80 -123t-116 -81.5t-136 -47t-142.5 -14h-232v-295h-196v1436zM920 721q0 120 -84.5 189t-223.5 69h-221v-508h180q77 0 139 13.5t110 42t74 78t26 116.5z" />
    <glyph glyph-name="germandbls" unicode="&#xdf;" horiz-adv-x="1280" 
d="M350 0h-186v1108q0 203 129.5 328t322.5 125q192 0 317.5 -114.5t125.5 -301.5q0 -85 -43.5 -159t-112.5 -120q133 -43 209 -148.5t76 -268.5q0 -214 -140 -344t-348 -130q-118 0 -217 54l70 159q66 -41 154 -41q146 0 218 81.5t72 220.5q0 157 -97 236t-251 79
q-61 0 -90 -4v147h41q103 0 187.5 65.5t84.5 168.5q0 113 -68.5 180.5t-182.5 67.5q-133 0 -202 -85t-69 -237v-1067z" />
    <glyph glyph-name="agrave" unicode="&#xe0;" horiz-adv-x="1118" 
d="M958 0h-178v109q-63 -70 -136 -102t-171 -32t-177.5 31t-132 103.5t-52.5 177.5q0 75 26 134.5t69.5 97.5t103.5 63t123 35t134 10q93 0 205 -23v37q0 246 -242 246q-161 0 -325 -90l-55 155q86 42 194.5 69.5t208.5 27.5q214 0 309.5 -109t95.5 -317v-623zM772 254v211
q-95 20 -184 20q-42 0 -80 -4t-78.5 -16.5t-69.5 -32t-48 -53.5t-19 -78q0 -88 56.5 -129t146.5 -41q132 0 276 123zM553 1159l-274 328l135 104l252 -346z" />
    <glyph glyph-name="aacute" unicode="&#xe1;" horiz-adv-x="1118" 
d="M958 0h-178v109q-63 -70 -136 -102t-171 -32t-177.5 31t-132 103.5t-52.5 177.5q0 75 26 134.5t69.5 97.5t103.5 63t123 35t134 10q93 0 205 -23v37q0 246 -242 246q-161 0 -325 -90l-55 155q86 42 194.5 69.5t208.5 27.5q214 0 309.5 -109t95.5 -317v-623zM772 254v211
q-95 20 -184 20q-42 0 -80 -4t-78.5 -16.5t-69.5 -32t-48 -53.5t-19 -78q0 -88 56.5 -129t146.5 -41q132 0 276 123zM809 1487l-274 -328l-113 86l252 346z" />
    <glyph glyph-name="acircumflex" unicode="&#xe2;" horiz-adv-x="1118" 
d="M958 0h-178v109q-63 -70 -136 -102t-171 -32t-177.5 31t-132 103.5t-52.5 177.5q0 75 26 134.5t69.5 97.5t103.5 63t123 35t134 10q93 0 205 -23v37q0 246 -242 246q-161 0 -325 -90l-55 155q86 42 194.5 69.5t208.5 27.5q214 0 309.5 -109t95.5 -317v-623zM772 254v211
q-95 20 -184 20q-42 0 -80 -4t-78.5 -16.5t-69.5 -32t-48 -53.5t-19 -78q0 -88 56.5 -129t146.5 -41q132 0 276 123zM834 1233l-109 -74l-190 264l-191 -264l-113 74l213 321h181z" />
    <glyph glyph-name="atilde" unicode="&#xe3;" horiz-adv-x="1118" 
d="M958 0h-178v109q-63 -70 -136 -102t-171 -32t-177.5 31t-132 103.5t-52.5 177.5q0 75 26 134.5t69.5 97.5t103.5 63t123 35t134 10q93 0 205 -23v37q0 246 -242 246q-161 0 -325 -90l-55 155q86 42 194.5 69.5t208.5 27.5q214 0 309.5 -109t95.5 -317v-623zM772 254v211
q-95 20 -184 20q-42 0 -80 -4t-78.5 -16.5t-69.5 -32t-48 -53.5t-19 -78q0 -88 56.5 -129t146.5 -41q132 0 276 123zM889 1434q4 -24 4 -48q0 -88 -56 -141t-145 -53q-50 0 -96.5 20.5t-76.5 45t-65.5 45t-64.5 20.5q-28 0 -47 -16t-20 -45q0 -15 2 -21l-134 -14
q-4 24 -4 47q0 88 56 141t145 53q48 0 94 -20.5t76.5 -45t67 -45t65.5 -20.5q28 0 47.5 16.5t20.5 45.5q0 14 -2 20z" />
    <glyph glyph-name="adieresis" unicode="&#xe4;" horiz-adv-x="1118" 
d="M958 0h-178v109q-63 -70 -136 -102t-171 -32t-177.5 31t-132 103.5t-52.5 177.5q0 75 26 134.5t69.5 97.5t103.5 63t123 35t134 10q93 0 205 -23v37q0 246 -242 246q-161 0 -325 -90l-55 155q86 42 194.5 69.5t208.5 27.5q214 0 309.5 -109t95.5 -317v-623zM772 254v211
q-95 20 -184 20q-42 0 -80 -4t-78.5 -16.5t-69.5 -32t-48 -53.5t-19 -78q0 -88 56.5 -129t146.5 -41q132 0 276 123zM424 1225h-191v209h191v-209zM840 1225h-191v209h191v-209z" />
    <glyph glyph-name="aring" unicode="&#xe5;" horiz-adv-x="1118" 
d="M958 0h-178v109q-63 -70 -136 -102t-171 -32t-177.5 31t-132 103.5t-52.5 177.5q0 75 26 134.5t69.5 97.5t103.5 63t123 35t134 10q93 0 205 -23v37q0 246 -242 246q-161 0 -325 -90l-55 155q86 42 194.5 69.5t208.5 27.5q214 0 309.5 -109t95.5 -317v-623zM772 254v211
q-95 20 -184 20q-42 0 -80 -4t-78.5 -16.5t-69.5 -32t-48 -53.5t-19 -78q0 -88 56.5 -129t146.5 -41q132 0 276 123zM352 1348q0 78 56.5 134t134.5 56t134 -56t56 -134t-56 -134.5t-134 -56.5t-134.5 56.5t-56.5 134.5zM453 1348q0 -37 26.5 -64t63.5 -27t63.5 27t26.5 64
t-26.5 63.5t-63.5 26.5t-63.5 -26.5t-26.5 -63.5z" />
    <glyph glyph-name="ae" unicode="&#xe6;" horiz-adv-x="1824" 
d="M1546 614q-6 112 -83 193.5t-189 81.5q-119 0 -199.5 -76.5t-109.5 -198.5h581zM803 287q-33 92 -39 180q-93 18 -176 18q-42 0 -80 -4t-78.5 -16.5t-69.5 -32t-48 -53.5t-19 -78q0 -88 56.5 -129t146.5 -41q165 0 307 156zM1585 301l135 -86q-77 -123 -185 -181.5
t-263 -58.5q-255 0 -395 177q-150 -177 -404 -177q-98 0 -177.5 31t-132 103.5t-52.5 177.5q0 75 26 134.5t69.5 97.5t103.5 63t123 35t134 10q93 0 205 -23v37q0 246 -242 246q-161 0 -325 -90l-55 155q86 42 194.5 69.5t208.5 27.5q263 0 350 -172q146 172 369 172
q202 0 334.5 -136t132.5 -342q0 -52 -8 -106h-781q9 -139 98.5 -234.5t231.5 -95.5q218 0 305 166z" />
    <glyph glyph-name="ccedilla" unicode="&#xe7;" horiz-adv-x="972" 
d="M831 219l93 -143q-58 -47 -140.5 -74t-173.5 -27q-22 0 -32 2l-41 -110l2 -2q44 33 98 33q71 0 124.5 -55t53.5 -136q0 -84 -65 -146.5t-158 -62.5q-143 0 -211 121l117 57q23 -65 94 -65q39 0 63.5 26.5t24.5 63.5q0 41 -25.5 68.5t-66.5 27.5q-59 0 -80 -49l-125 66
l76 182q-167 45 -270 183t-103 333q0 147 71 270.5t194 195t270 71.5q157 0 288 -88l-88 -154q-93 70 -209 70q-138 0 -237 -106.5t-99 -258.5q0 -161 100 -263t238 -102q51 0 113.5 20.5t103.5 51.5z" />
    <glyph glyph-name="egrave" unicode="&#xe8;" horiz-adv-x="1146" 
d="M1053 465h-781q9 -139 98.5 -234.5t231.5 -95.5q218 0 305 166l135 -86q-77 -123 -185 -181.5t-263 -58.5q-158 0 -275 72.5t-175 193t-58 271.5q0 228 147 382.5t361 154.5q202 0 334.5 -136t132.5 -342q0 -52 -8 -106zM596 889q-119 0 -199.5 -76.5t-109.5 -198.5h581
q-6 112 -83 193.5t-189 81.5zM588 1159l-275 328l136 104l251 -346z" />
    <glyph glyph-name="eacute" unicode="&#xe9;" horiz-adv-x="1146" 
d="M1053 465h-781q9 -139 98.5 -234.5t231.5 -95.5q218 0 305 166l135 -86q-77 -123 -185 -181.5t-263 -58.5q-158 0 -275 72.5t-175 193t-58 271.5q0 228 147 382.5t361 154.5q202 0 334.5 -136t132.5 -342q0 -52 -8 -106zM596 889q-119 0 -199.5 -76.5t-109.5 -198.5h581
q-6 112 -83 193.5t-189 81.5zM874 1487l-274 -328l-113 86l252 346z" />
    <glyph glyph-name="ecircumflex" unicode="&#xea;" horiz-adv-x="1146" 
d="M1053 465h-781q9 -139 98.5 -234.5t231.5 -95.5q218 0 305 166l135 -86q-77 -123 -185 -181.5t-263 -58.5q-158 0 -275 72.5t-175 193t-58 271.5q0 228 147 382.5t361 154.5q202 0 334.5 -136t132.5 -342q0 -52 -8 -106zM596 889q-119 0 -199.5 -76.5t-109.5 -198.5h581
q-6 112 -83 193.5t-189 81.5zM893 1233l-109 -74l-190 264l-191 -264l-112 74l213 321h180z" />
    <glyph glyph-name="edieresis" unicode="&#xeb;" horiz-adv-x="1146" 
d="M1053 465h-781q9 -139 98.5 -234.5t231.5 -95.5q218 0 305 166l135 -86q-77 -123 -185 -181.5t-263 -58.5q-158 0 -275 72.5t-175 193t-58 271.5q0 228 147 382.5t361 154.5q202 0 334.5 -136t132.5 -342q0 -52 -8 -106zM596 889q-119 0 -199.5 -76.5t-109.5 -198.5h581
q-6 112 -83 193.5t-189 81.5zM481 1225h-190v209h190v-209zM897 1225h-190v209h190v-209z" />
    <glyph glyph-name="igrave" unicode="&#xec;" horiz-adv-x="530" 
d="M358 0h-186v1024h186v-1024zM254 1159l-274 328l135 104l252 -346z" />
    <glyph glyph-name="iacute" unicode="&#xed;" horiz-adv-x="530" 
d="M358 0h-186v1024h186v-1024zM547 1487l-275 -328l-112 86l252 346z" />
    <glyph glyph-name="icircumflex" unicode="&#xee;" horiz-adv-x="530" 
d="M358 0h-186v1024h186v-1024zM565 1233l-108 -74l-191 264l-190 -264l-113 74l213 321h180z" />
    <glyph glyph-name="idieresis" unicode="&#xef;" horiz-adv-x="530" 
d="M154 1225h-191v209h191v-209zM569 1225h-190v209h190v-209zM358 0h-186v1024h186v-1024z" />
    <glyph glyph-name="eth" unicode="&#xf0;" horiz-adv-x="1175" 
d="M672 1571l-113 -195q265 -171 398 -393t133 -508q0 -100 -35.5 -190t-100 -159t-164 -110t-219.5 -41q-109 0 -201.5 42t-153.5 113t-95.5 162.5t-34.5 190.5q0 126 60 235t163.5 173.5t225.5 64.5q83 0 140 -16t120 -53q-109 189 -326 336l-117 -201l-129 78l117 200
q-78 44 -203 97l70 162q123 -55 221 -107l113 195zM866 721q-120 65 -268 65q-139 0 -230.5 -80.5t-91.5 -226.5q0 -138 87.5 -235t224.5 -97q82 0 143 28.5t96.5 79t52.5 112.5t17 135q0 102 -31 219z" />
    <glyph glyph-name="ntilde" unicode="&#xf1;" horiz-adv-x="1241" 
d="M172 1024h186v-168q57 91 144.5 142t189.5 51q202 0 297 -129q92 -124 92 -388v-532h-186v512q0 95 -10 164t-43 119q-55 82 -178 82q-87 0 -168 -54t-138 -143v-680h-186v1024zM1008 1434q4 -24 4 -48q0 -88 -56 -141t-145 -53q-50 0 -96.5 20.5t-76.5 45t-65.5 45
t-64.5 20.5t-48 -16t-20 -45q0 -15 2 -21l-133 -14q-4 24 -4 47q0 88 56 141t145 53q48 0 94 -20.5t76.5 -45t67 -45t65.5 -20.5q28 0 47.5 16.5t20.5 45.5q0 11 -3 20z" />
    <glyph glyph-name="ograve" unicode="&#xf2;" horiz-adv-x="1216" 
d="M608 1049q147 0 267 -71.5t187.5 -194.5t67.5 -271t-67.5 -271t-187.5 -194.5t-267 -71.5t-267 71.5t-187.5 194.5t-67.5 271t67.5 271t187.5 194.5t267 71.5zM940 512q0 152 -94.5 258.5t-237.5 106.5t-237.5 -106.5t-94.5 -258.5t94.5 -258.5t237.5 -106.5t237.5 106.5
t94.5 258.5zM588 1159l-275 328l136 104l251 -346z" />
    <glyph glyph-name="oacute" unicode="&#xf3;" horiz-adv-x="1216" 
d="M608 1049q147 0 267 -71.5t187.5 -194.5t67.5 -271t-67.5 -271t-187.5 -194.5t-267 -71.5t-267 71.5t-187.5 194.5t-67.5 271t67.5 271t187.5 194.5t267 71.5zM940 512q0 152 -94.5 258.5t-237.5 106.5t-237.5 -106.5t-94.5 -258.5t94.5 -258.5t237.5 -106.5t237.5 106.5
t94.5 258.5zM897 1487l-274 -328l-113 86l252 346z" />
    <glyph glyph-name="ocircumflex" unicode="&#xf4;" horiz-adv-x="1216" 
d="M608 1049q147 0 267 -71.5t187.5 -194.5t67.5 -271t-67.5 -271t-187.5 -194.5t-267 -71.5t-267 71.5t-187.5 194.5t-67.5 271t67.5 271t187.5 194.5t267 71.5zM940 512q0 152 -94.5 258.5t-237.5 106.5t-237.5 -106.5t-94.5 -258.5t94.5 -258.5t237.5 -106.5t237.5 106.5
t94.5 258.5zM907 1233l-108 -74l-191 264l-190 -264l-113 74l213 321h180z" />
    <glyph glyph-name="otilde" unicode="&#xf5;" horiz-adv-x="1216" 
d="M608 1049q147 0 267 -71.5t187.5 -194.5t67.5 -271t-67.5 -271t-187.5 -194.5t-267 -71.5t-267 71.5t-187.5 194.5t-67.5 271t67.5 271t187.5 194.5t267 71.5zM940 512q0 152 -94.5 258.5t-237.5 106.5t-237.5 -106.5t-94.5 -258.5t94.5 -258.5t237.5 -106.5t237.5 106.5
t94.5 258.5zM971 1434q4 -24 4 -48q0 -88 -56 -141t-145 -53q-50 0 -96.5 20.5t-76.5 45t-65.5 45t-64.5 20.5t-48 -16t-20 -45q0 -12 3 -21l-134 -14q-4 24 -4 47q0 88 56 141t145 53q48 0 94 -20.5t76.5 -45t67 -45t65.5 -20.5q28 0 47.5 16.5t20.5 45.5q0 14 -2 20z" />
    <glyph glyph-name="odieresis" unicode="&#xf6;" horiz-adv-x="1216" 
d="M608 1049q147 0 267 -71.5t187.5 -194.5t67.5 -271t-67.5 -271t-187.5 -194.5t-267 -71.5t-267 71.5t-187.5 194.5t-67.5 271t67.5 271t187.5 194.5t267 71.5zM940 512q0 152 -94.5 258.5t-237.5 106.5t-237.5 -106.5t-94.5 -258.5t94.5 -258.5t237.5 -106.5t237.5 106.5
t94.5 258.5zM496 1225h-191v209h191v-209zM911 1225h-190v209h190v-209z" />
    <glyph glyph-name="divide" unicode="&#xf7;" 
d="M49 557v160h1026v-160h-1026zM670 125h-215v237h215v-237zM670 911h-215v238h215v-238z" />
    <glyph glyph-name="oslash" unicode="&#xf8;" horiz-adv-x="1216" 
d="M1008 995l-54 -77q83 -75 129.5 -180.5t46.5 -225.5q0 -148 -67.5 -271t-187.5 -194.5t-267 -71.5q-132 0 -250 62l-53 -80l-110 72l57 86q-78 73 -122 176t-44 221q0 148 67.5 271t187.5 194.5t267 71.5q128 0 238 -58l51 76zM940 512q0 148 -90 252l-391 -580
q64 -37 149 -37q143 0 237.5 106.5t94.5 258.5zM276 512q0 -140 80 -244l389 576q-68 33 -137 33q-143 0 -237.5 -106.5t-94.5 -258.5z" />
    <glyph glyph-name="ugrave" unicode="&#xf9;" horiz-adv-x="1241" 
d="M883 0v168q-57 -91 -144.5 -142t-189.5 -51q-202 0 -297 129q-92 124 -92 388v532h186v-512q0 -95 10 -164t43 -119q55 -82 179 -82q87 0 167.5 54t137.5 143v680h186v-1024h-186zM631 1159l-275 328l136 104l251 -346z" />
    <glyph glyph-name="uacute" unicode="&#xfa;" horiz-adv-x="1241" 
d="M883 0v168q-57 -91 -144.5 -142t-189.5 -51q-202 0 -297 129q-92 124 -92 388v532h186v-512q0 -95 10 -164t43 -119q55 -82 179 -82q87 0 167.5 54t137.5 143v680h186v-1024h-186zM903 1487l-274 -328l-113 86l252 346z" />
    <glyph glyph-name="ucircumflex" unicode="&#xfb;" horiz-adv-x="1241" 
d="M883 0v168q-57 -91 -144.5 -142t-189.5 -51q-202 0 -297 129q-92 124 -92 388v532h186v-512q0 -95 10 -164t43 -119q55 -82 179 -82q87 0 167.5 54t137.5 143v680h186v-1024h-186zM930 1233l-109 -74l-190 264l-191 -264l-112 74l213 321h180z" />
    <glyph glyph-name="udieresis" unicode="&#xfc;" horiz-adv-x="1241" 
d="M883 0v168q-57 -91 -144.5 -142t-189.5 -51q-202 0 -297 129q-92 124 -92 388v532h186v-512q0 -95 10 -164t43 -119q55 -82 179 -82q87 0 167.5 54t137.5 143v680h186v-1024h-186zM504 1225h-191v209h191v-209zM920 1225h-191v209h191v-209z" />
    <glyph glyph-name="yacute" unicode="&#xfd;" horiz-adv-x="976" 
d="M12 1024h207l266 -776h4l273 776h203l-576 -1485l-164 64l162 428zM748 1487l-275 -328l-113 86l252 346z" />
    <glyph glyph-name="thorn" unicode="&#xfe;" horiz-adv-x="1282" 
d="M172 1536h186v-649q54 77 142.5 119.5t183.5 42.5q145 0 262.5 -71.5t183.5 -195t66 -272.5q0 -101 -37 -197.5t-103 -171.5t-164 -120.5t-212 -45.5q-90 0 -175 36t-147 100v-623h-186v2048zM358 682v-379q51 -73 133 -114.5t164 -41.5q86 0 155 32.5t110.5 85.5
t63.5 117t22 132q0 148 -96.5 255.5t-250.5 107.5q-90 0 -177.5 -52.5t-123.5 -142.5z" />
    <glyph glyph-name="ydieresis" unicode="&#xff;" horiz-adv-x="976" 
d="M12 1024h207l266 -776h4l273 776h203l-576 -1485l-164 64l162 428zM381 1225h-191v209h191v-209zM797 1225h-191v209h191v-209z" />
    <glyph glyph-name="Amacron" unicode="&#x100;" horiz-adv-x="1337" 
d="M1307 0h-228l-112 305h-611l-110 -305h-215l555 1434h172zM662 1135l-240 -654h481l-239 654h-2zM1006 1585h-676v146h676v-146z" />
    <glyph glyph-name="amacron" unicode="&#x101;" horiz-adv-x="1118" 
d="M958 0h-178v109q-63 -70 -136 -102t-171 -32t-177.5 31t-132 103.5t-52.5 177.5q0 75 26 134.5t69.5 97.5t103.5 63t123 35t134 10q93 0 205 -23v37q0 246 -242 246q-161 0 -325 -90l-55 155q86 42 194.5 69.5t208.5 27.5q214 0 309.5 -109t95.5 -317v-623zM772 254v211
q-95 20 -184 20q-42 0 -80 -4t-78.5 -16.5t-69.5 -32t-48 -53.5t-19 -78q0 -88 56.5 -129t146.5 -41q132 0 276 123zM860 1245h-606v144h606v-144z" />
    <glyph glyph-name="Abreve" unicode="&#x102;" horiz-adv-x="1337" 
d="M1307 0h-228l-112 305h-611l-110 -305h-215l555 1434h172zM662 1135l-240 -654h481l-239 654h-2zM834 1831h131v-12q0 -121 -84 -196t-209 -75q-133 0 -213 74t-80 197v12h137v-12q0 -66 43.5 -103t112.5 -37q68 0 115 37t47 103v12z" />
    <glyph glyph-name="abreve" unicode="&#x103;" horiz-adv-x="1118" 
d="M958 0h-178v109q-63 -70 -136 -102t-171 -32t-177.5 31t-132 103.5t-52.5 177.5q0 75 26 134.5t69.5 97.5t103.5 63t123 35t134 10q93 0 205 -23v37q0 246 -242 246q-161 0 -325 -90l-55 155q86 42 194.5 69.5t208.5 27.5q214 0 309.5 -109t95.5 -317v-623zM772 254v211
q-95 20 -184 20q-42 0 -80 -4t-78.5 -16.5t-69.5 -32t-48 -53.5t-19 -78q0 -88 56.5 -129t146.5 -41q132 0 276 123zM741 1485h131v-29q0 -123 -84.5 -208t-207.5 -85t-208 85t-85 208v29h135v-29q0 -68 45.5 -115t112.5 -47q65 0 113 47t48 115v29z" />
    <glyph glyph-name="Aogonek" unicode="&#x104;" horiz-adv-x="1337" 
d="M662 1135l-240 -654h481l-239 654h-2zM1307 0q-86 -21 -142 -59.5t-78 -79.5t-22 -86q0 -42 22.5 -66t63.5 -24q45 0 90 28l66 -104q-70 -64 -183 -64q-93 0 -160 54t-67 149q0 159 182 252l-112 305h-611l-110 -305h-215l555 1434h172z" />
    <glyph glyph-name="aogonek" unicode="&#x105;" horiz-adv-x="1118" 
d="M958 623v-623q-105 -32 -156.5 -93.5t-51.5 -131.5q0 -42 22.5 -66t63.5 -24q45 0 90 28l65 -104q-70 -64 -182 -64q-93 0 -160 54t-67 149q0 177 198 264v97q-63 -70 -136 -102t-171 -32t-177.5 31t-132 103.5t-52.5 177.5q0 75 26 134.5t69.5 97.5t103.5 63t123 35
t134 10q93 0 205 -23v37q0 246 -242 246q-161 0 -325 -90l-55 155q86 42 194.5 69.5t208.5 27.5q214 0 309.5 -109t95.5 -317zM772 254v211q-95 20 -184 20q-42 0 -80 -4t-78.5 -16.5t-69.5 -32t-48 -53.5t-19 -78q0 -88 56.5 -129t146.5 -41q132 0 276 123z" />
    <glyph glyph-name="Cacute" unicode="&#x106;" horiz-adv-x="1380" 
d="M1315 106q-192 -131 -422 -131q-160 0 -301 53t-245 147.5t-164 235t-60 306.5q0 156 61 294t164.5 236t245.5 154.5t299 56.5q207 0 385 -110l-92 -152q-140 86 -293 86q-243 0 -402 -159.5t-159 -405.5q0 -258 156 -411.5t405 -153.5q170 0 317 100zM1176 1774
l-359 -258l-86 110l338 283z" />
    <glyph glyph-name="cacute" unicode="&#x107;" horiz-adv-x="972" 
d="M831 219l93 -143q-58 -47 -140.5 -74t-173.5 -27q-146 0 -265 66t-189 189.5t-70 281.5q0 147 71 270.5t194 195t270 71.5q157 0 288 -88l-88 -154q-93 70 -209 70q-138 0 -237 -106.5t-99 -258.5q0 -161 100 -263t238 -102q51 0 113.5 20.5t103.5 51.5zM897 1487
l-274 -328l-113 86l252 346z" />
    <glyph glyph-name="Ccircumflex" unicode="&#x108;" horiz-adv-x="1380" 
d="M1315 106q-192 -131 -422 -131q-160 0 -301 53t-245 147.5t-164 235t-60 306.5q0 156 61 294t164.5 236t245.5 154.5t299 56.5q207 0 385 -110l-92 -152q-140 86 -293 86q-243 0 -402 -159.5t-159 -405.5q0 -258 156 -411.5t405 -153.5q170 0 317 100zM772 1888h195
l219 -274l-111 -86l-209 237l-207 -237l-112 86z" />
    <glyph glyph-name="ccircumflex" unicode="&#x109;" horiz-adv-x="972" 
d="M831 219l93 -143q-58 -47 -140.5 -74t-173.5 -27q-146 0 -265 66t-189 189.5t-70 281.5q0 147 71 270.5t194 195t270 71.5q157 0 288 -88l-88 -154q-93 70 -209 70q-138 0 -237 -106.5t-99 -258.5q0 -161 100 -263t238 -102q51 0 113.5 20.5t103.5 51.5zM895 1233
l-109 -74l-190 264l-190 -264l-113 74l213 321h180z" />
    <glyph glyph-name="Cdotaccent" unicode="&#x10a;" horiz-adv-x="1380" 
d="M1315 106q-192 -131 -422 -131q-160 0 -301 53t-245 147.5t-164 235t-60 306.5q0 156 61 294t164.5 236t245.5 154.5t299 56.5q207 0 385 -110l-92 -152q-140 86 -293 86q-243 0 -402 -159.5t-159 -405.5q0 -258 156 -411.5t405 -153.5q170 0 317 100zM965 1565h-209v227
h209v-227z" />
    <glyph glyph-name="cdotaccent" unicode="&#x10b;" horiz-adv-x="972" 
d="M831 219l93 -143q-58 -47 -140.5 -74t-173.5 -27q-146 0 -265 66t-189 189.5t-70 281.5q0 147 71 270.5t194 195t270 71.5q157 0 288 -88l-88 -154q-93 70 -209 70q-138 0 -237 -106.5t-99 -258.5q0 -161 100 -263t238 -102q51 0 113.5 20.5t103.5 51.5zM670 1225h-187
v209h187v-209z" />
    <glyph glyph-name="Ccaron" unicode="&#x10c;" horiz-adv-x="1380" 
d="M1315 106q-192 -131 -422 -131q-160 0 -301 53t-245 147.5t-164 235t-60 306.5q0 156 61 294t164.5 236t245.5 154.5t299 56.5q207 0 385 -110l-92 -152q-140 86 -293 86q-243 0 -402 -159.5t-159 -405.5q0 -258 156 -411.5t405 -153.5q170 0 317 100zM963 1540h-195
l-219 275l113 86l208 -238l207 238l111 -86z" />
    <glyph glyph-name="ccaron" unicode="&#x10d;" horiz-adv-x="972" 
d="M831 219l93 -143q-58 -47 -140.5 -74t-173.5 -27q-146 0 -265 66t-189 189.5t-70 281.5q0 147 71 270.5t194 195t270 71.5q157 0 288 -88l-88 -154q-93 70 -209 70q-138 0 -237 -106.5t-99 -258.5q0 -161 100 -263t238 -102q51 0 113.5 20.5t103.5 51.5zM295 1487l111 74
l190 -265l190 265l111 -74l-213 -322h-180z" />
    <glyph glyph-name="Dcaron" unicode="&#x10e;" horiz-adv-x="1474" 
d="M195 0v1434h387q114 0 220.5 -23.5t207.5 -78t176 -135t120.5 -202.5t45.5 -272q0 -154 -45 -278t-121 -206t-179 -137t-214 -78.5t-232 -23.5h-366zM1143 705q0 269 -156 410.5t-442 141.5h-154v-1081h68q127 0 229 16.5t188.5 55t144.5 98.5t90 150.5t32 208.5z
M762 1540h-195l-219 275l113 86l209 -238l207 238l110 -86z" />
    <glyph glyph-name="dcaron" unicode="&#x10f;" horiz-adv-x="1282" 
d="M598 -25q-145 0 -262.5 71.5t-183.5 194.5t-66 271q0 137 62.5 259t182.5 200t271 78q88 0 174 -37t148 -101v625h186v-1536h-186v137q-54 -79 -142 -120.5t-184 -41.5zM623 147q89 0 176 52t125 141v381q-52 73 -134 114.5t-163 41.5q-86 0 -155 -32.5t-110.5 -85.5
t-63.5 -117.5t-22 -133.5q0 -147 96.5 -254t250.5 -107zM1327 1126h-156l82 410h183z" />
    <glyph glyph-name="Dcroat" unicode="&#x110;" horiz-adv-x="1474" 
d="M195 0v657h-144v162h144v615h387q114 0 220.5 -23.5t207.5 -78t176 -135t120.5 -202.5t45.5 -272q0 -154 -45 -278t-121 -206t-179 -137t-214 -78.5t-232 -23.5h-366zM1143 705q0 269 -156 410.5t-442 141.5h-154v-438h246v-162h-246v-481h68q127 0 229 16.5t188.5 55
t144.5 98.5t90 150.5t32 208.5z" />
    <glyph glyph-name="dcroat" unicode="&#x111;" horiz-adv-x="1282" 
d="M598 -25q-145 0 -262.5 71.5t-183.5 194.5t-66 271q0 137 62.5 259t182.5 200t271 78q88 0 174 -37t148 -101v293h-336v148h336v184h186v-184h143v-148h-143v-1204h-186v137q-54 -79 -142 -120.5t-184 -41.5zM623 147q89 0 176 52t125 141v381q-52 73 -134 114.5
t-163 41.5q-86 0 -155 -32.5t-110.5 -85.5t-63.5 -117.5t-22 -133.5q0 -147 96.5 -254t250.5 -107z" />
    <glyph glyph-name="Emacron" unicode="&#x112;" horiz-adv-x="1187" 
d="M1055 0h-860v1434h860v-177h-664v-430h664v-176h-664v-475h664v-176zM979 1585h-676v146h676v-146z" />
    <glyph glyph-name="emacron" unicode="&#x113;" horiz-adv-x="1146" 
d="M1053 465h-781q9 -139 98.5 -234.5t231.5 -95.5q218 0 305 166l135 -86q-77 -123 -185 -181.5t-263 -58.5q-158 0 -275 72.5t-175 193t-58 271.5q0 228 147 382.5t361 154.5q202 0 334.5 -136t132.5 -342q0 -52 -8 -106zM596 889q-119 0 -199.5 -76.5t-109.5 -198.5h581
q-6 112 -83 193.5t-189 81.5zM897 1245h-606v144h606v-144z" />
    <glyph glyph-name="Ebreve" unicode="&#x114;" horiz-adv-x="1187" 
d="M1055 0h-860v1434h860v-177h-664v-430h664v-176h-664v-475h664v-176zM834 1831h131v-12q0 -121 -84 -196t-209 -75q-133 0 -213 74t-80 197v12h137v-12q0 -66 43.5 -103t112.5 -37q68 0 115 37t47 103v12z" />
    <glyph glyph-name="ebreve" unicode="&#x115;" horiz-adv-x="1146" 
d="M1053 465h-781q9 -139 98.5 -234.5t231.5 -95.5q218 0 305 166l135 -86q-77 -123 -185 -181.5t-263 -58.5q-158 0 -275 72.5t-175 193t-58 271.5q0 228 147 382.5t361 154.5q202 0 334.5 -136t132.5 -342q0 -52 -8 -106zM596 889q-119 0 -199.5 -76.5t-109.5 -198.5h581
q-6 112 -83 193.5t-189 81.5zM756 1485h131v-29q0 -123 -85 -208t-208 -85t-208 85t-85 208v29h135v-29q0 -68 45.5 -115t112.5 -47q66 0 114 47t48 115v29z" />
    <glyph glyph-name="Edotaccent" unicode="&#x116;" horiz-adv-x="1187" 
d="M1055 0h-860v1434h860v-177h-664v-430h664v-176h-664v-475h664v-176zM750 1565h-209v227h209v-227z" />
    <glyph glyph-name="edotaccent" unicode="&#x117;" horiz-adv-x="1146" 
d="M1053 465h-781q9 -139 98.5 -234.5t231.5 -95.5q218 0 305 166l135 -86q-77 -123 -185 -181.5t-263 -58.5q-158 0 -275 72.5t-175 193t-58 271.5q0 228 147 382.5t361 154.5q202 0 334.5 -136t132.5 -342q0 -52 -8 -106zM596 889q-119 0 -199.5 -76.5t-109.5 -198.5h581
q-6 112 -83 193.5t-189 81.5zM676 1225h-187v209h187v-209z" />
    <glyph glyph-name="Eogonek" unicode="&#x118;" horiz-adv-x="1187" 
d="M1055 176v-176q-64 -9 -114.5 -35.5t-77.5 -60.5t-40.5 -67t-13.5 -62q0 -42 22.5 -66t63.5 -24q45 0 90 28l66 -104q-70 -64 -183 -64q-93 0 -160 54t-67 149q0 78 45 144.5t127 107.5h-618v1434h860v-177h-664v-430h664v-176h-664v-475h664z" />
    <glyph glyph-name="eogonek" unicode="&#x119;" horiz-adv-x="1146" 
d="M596 889q-119 0 -199.5 -76.5t-109.5 -198.5h581q-6 112 -83 193.5t-189 81.5zM1053 465h-781q9 -139 98.5 -234.5t231.5 -95.5q218 0 305 166l135 -86q-100 -163 -264 -215q-108 -34 -159.5 -95.5t-51.5 -129.5q0 -42 22.5 -66t63.5 -24q45 0 90 28l66 -104
q-70 -64 -182 -64q-93 0 -160.5 54t-67.5 149q0 70 38.5 130.5t105.5 103.5q-212 20 -334.5 167t-122.5 363q0 228 147 382.5t361 154.5q202 0 334.5 -136t132.5 -342q0 -52 -8 -106z" />
    <glyph glyph-name="Ecaron" unicode="&#x11a;" horiz-adv-x="1187" 
d="M1055 0h-860v1434h860v-177h-664v-430h664v-176h-664v-475h664v-176zM729 1540h-194l-220 275l113 86l209 -238l207 238l110 -86z" />
    <glyph glyph-name="ecaron" unicode="&#x11b;" horiz-adv-x="1146" 
d="M1053 465h-781q9 -139 98.5 -234.5t231.5 -95.5q218 0 305 166l135 -86q-77 -123 -185 -181.5t-263 -58.5q-158 0 -275 72.5t-175 193t-58 271.5q0 228 147 382.5t361 154.5q202 0 334.5 -136t132.5 -342q0 -52 -8 -106zM596 889q-119 0 -199.5 -76.5t-109.5 -198.5h581
q-6 112 -83 193.5t-189 81.5zM293 1487l110 74l191 -265l190 265l111 -74l-213 -322h-180z" />
    <glyph glyph-name="Gcircumflex" unicode="&#x11c;" horiz-adv-x="1644" 
d="M1284 618h-364v177h561v-545q-103 -131 -257 -203t-331 -72q-218 0 -393 92t-276 262t-101 388q0 156 61 294t164.5 236t245.5 154.5t299 56.5q163 0 306.5 -67.5t248.5 -186.5l-139 -114q-77 88 -186.5 140t-229.5 52q-243 0 -402 -159.5t-159 -405.5q0 -258 156 -411.5
t405 -153.5q114 0 215 38.5t176 110.5v317zM793 1888h194l219 -274l-110 -86l-209 237l-207 -237l-113 86z" />
    <glyph glyph-name="gcircumflex" unicode="&#x11d;" horiz-adv-x="1269" 
d="M1110 1024v-967q0 -165 -53 -268q-66 -127 -187 -185.5t-276 -58.5q-122 0 -242.5 35t-210.5 101l72 159q73 -53 178 -88t199 -35q68 0 126.5 17t106 52t74.5 95t27 139v142q-53 -79 -142 -120.5t-186 -41.5q-143 0 -260 69t-183.5 189t-66.5 266q0 135 62.5 254
t182.5 195t271 76q88 0 174 -37t148 -101v113h186zM924 362v359q-52 73 -134 114.5t-163 41.5q-86 0 -155 -31t-110.5 -82.5t-63.5 -114t-22 -129.5q0 -143 96.5 -245.5t248.5 -102.5q89 0 177 51t126 139zM899 1233l-108 -74l-191 264l-190 -264l-113 74l213 321h180z" />
    <glyph glyph-name="Gbreve" unicode="&#x11e;" horiz-adv-x="1644" 
d="M1284 618h-364v177h561v-545q-103 -131 -257 -203t-331 -72q-218 0 -393 92t-276 262t-101 388q0 156 61 294t164.5 236t245.5 154.5t299 56.5q163 0 306.5 -67.5t248.5 -186.5l-139 -114q-77 88 -186.5 140t-229.5 52q-243 0 -402 -159.5t-159 -405.5q0 -258 156 -411.5
t405 -153.5q114 0 215 38.5t176 110.5v317zM1053 1831h131v-12q0 -121 -84 -196t-209 -75q-133 0 -213 74t-80 197v12h137v-12q0 -66 43.5 -103t112.5 -37q68 0 115 37t47 103v12z" />
    <glyph glyph-name="gbreve" unicode="&#x11f;" horiz-adv-x="1269" 
d="M1110 1024v-967q0 -165 -53 -268q-66 -127 -187 -185.5t-276 -58.5q-122 0 -242.5 35t-210.5 101l72 159q73 -53 178 -88t199 -35q68 0 126.5 17t106 52t74.5 95t27 139v142q-53 -79 -142 -120.5t-186 -41.5q-143 0 -260 69t-183.5 189t-66.5 266q0 135 62.5 254
t182.5 195t271 76q88 0 174 -37t148 -101v113h186zM924 362v359q-52 73 -134 114.5t-163 41.5q-86 0 -155 -31t-110.5 -82.5t-63.5 -114t-22 -129.5q0 -143 96.5 -245.5t248.5 -102.5q89 0 177 51t126 139zM782 1485h131v-29q0 -123 -84.5 -208t-207.5 -85t-208 85t-85 208
v29h135v-29q0 -68 45.5 -115t112.5 -47q65 0 113 47t48 115v29z" />
    <glyph glyph-name="Gdotaccent" unicode="&#x120;" horiz-adv-x="1644" 
d="M1284 618h-364v177h561v-545q-103 -131 -257 -203t-331 -72q-218 0 -393 92t-276 262t-101 388q0 156 61 294t164.5 236t245.5 154.5t299 56.5q163 0 306.5 -67.5t248.5 -186.5l-139 -114q-77 88 -186.5 140t-229.5 52q-243 0 -402 -159.5t-159 -405.5q0 -258 156 -411.5
t405 -153.5q114 0 215 38.5t176 110.5v317zM967 1565h-209v227h209v-227z" />
    <glyph glyph-name="gdotaccent" unicode="&#x121;" horiz-adv-x="1269" 
d="M1110 1024v-967q0 -165 -53 -268q-66 -127 -187 -185.5t-276 -58.5q-122 0 -242.5 35t-210.5 101l72 159q73 -53 178 -88t199 -35q68 0 126.5 17t106 52t74.5 95t27 139v142q-53 -79 -142 -120.5t-186 -41.5q-143 0 -260 69t-183.5 189t-66.5 266q0 135 62.5 254
t182.5 195t271 76q88 0 174 -37t148 -101v113h186zM924 362v359q-52 73 -134 114.5t-163 41.5q-86 0 -155 -31t-110.5 -82.5t-63.5 -114t-22 -129.5q0 -143 96.5 -245.5t248.5 -102.5q89 0 177 51t126 139zM692 1225h-186v209h186v-209z" />
    <glyph glyph-name="Gcommaaccent" unicode="&#x122;" horiz-adv-x="1644" 
d="M1284 618h-364v177h561v-545q-103 -131 -257 -203t-331 -72q-218 0 -393 92t-276 262t-101 388q0 156 61 294t164.5 236t245.5 154.5t299 56.5q163 0 306.5 -67.5t248.5 -186.5l-139 -114q-77 88 -186.5 140t-229.5 52q-243 0 -402 -159.5t-159 -405.5q0 -258 156 -411.5
t405 -153.5q114 0 215 38.5t176 110.5v317zM834 -473h-154l74 358h174z" />
    <glyph glyph-name="gcommaaccent" unicode="&#x123;" horiz-adv-x="1269" 
d="M625 1528h161l-75 -367h-183zM1110 1024v-967q0 -165 -53 -268q-66 -127 -187 -185.5t-276 -58.5q-122 0 -242.5 35t-210.5 101l72 159q73 -53 178 -88t199 -35q68 0 126.5 17t106 52t74.5 95t27 139v142q-53 -79 -142 -120.5t-186 -41.5q-143 0 -260 69t-183.5 189
t-66.5 266q0 135 62.5 254t182.5 195t271 76q88 0 174 -37t148 -101v113h186zM924 362v359q-52 73 -134 114.5t-163 41.5q-86 0 -155 -31t-110.5 -82.5t-63.5 -114t-22 -129.5q0 -143 96.5 -245.5t248.5 -102.5q89 0 177 51t126 139z" />
    <glyph glyph-name="Hcircumflex" unicode="&#x124;" horiz-adv-x="1540" 
d="M1346 0h-197v651h-758v-651h-196v1434h196v-607h758v607h197v-1434zM676 1888h194l220 -274l-111 -86l-209 237l-207 -237l-112 86z" />
    <glyph glyph-name="hcircumflex" unicode="&#x125;" horiz-adv-x="1241" 
d="M358 1536v-680q57 91 144.5 142t189.5 51q202 0 297 -129q92 -124 92 -388v-532h-186v512q0 95 -10 164t-43 119q-55 82 -178 82q-87 0 -168 -54t-138 -143v-680h-186v1536h186zM168 1888h194l220 -274l-111 -86l-209 237l-207 -237l-112 86z" />
    <glyph glyph-name="Hbar" unicode="&#x126;" horiz-adv-x="1540" 
d="M1346 0h-197v651h-758v-651h-196v1057h-185v153h185v224h196v-224h758v224h197v-224h184v-153h-184v-1057zM391 827h758v230h-758v-230z" />
    <glyph glyph-name="hbar" unicode="&#x127;" horiz-adv-x="1241" 
d="M358 1536v-184h336v-148h-336v-348q57 91 144.5 142t189.5 51q202 0 297 -129q92 -124 92 -388v-532h-186v512q0 95 -10 164t-43 119q-55 82 -178 82q-87 0 -168 -54t-138 -143v-680h-186v1204h-143v148h143v184h186z" />
    <glyph glyph-name="Itilde" unicode="&#x128;" horiz-adv-x="585" 
d="M391 0h-196v1434h196v-1434zM510 1774l133 14q4 -24 4 -55q0 -88 -56 -141.5t-145 -53.5q-48 0 -94.5 20.5t-76.5 45t-66 45t-66 20.5q-28 0 -47 -16t-20 -45q0 -15 2 -21l-133 -14q-4 24 -4 55q0 88 55.5 141.5t144.5 53.5q47 0 93 -20.5t77 -45t67.5 -45t65.5 -20.5
t48 16t20 45q0 15 -2 21z" />
    <glyph glyph-name="itilde" unicode="&#x129;" horiz-adv-x="530" 
d="M358 0h-186v1024h186v-1024zM614 1434q4 -24 4 -48q0 -88 -55.5 -141t-144.5 -53q-50 0 -96.5 20.5t-76.5 45t-65.5 45t-64.5 20.5t-48 -16t-20 -45q0 -15 2 -21l-133 -14q-4 24 -4 47q0 88 56 141t145 53q48 0 94 -20.5t76.5 -45t67 -45t65.5 -20.5q28 0 47 16.5
t20 45.5q0 14 -2 20z" />
    <glyph glyph-name="Imacron" unicode="&#x12a;" horiz-adv-x="585" 
d="M391 0h-196v1434h196v-1434zM631 1585h-676v146h676v-146z" />
    <glyph glyph-name="imacron" unicode="&#x12b;" horiz-adv-x="530" 
d="M358 0h-186v1024h186v-1024zM569 1245h-606v144h606v-144z" />
    <glyph glyph-name="Ibreve" unicode="&#x12c;" horiz-adv-x="585" 
d="M391 0h-196v1434h196v-1434zM455 1831h131v-12q0 -121 -84 -196t-209 -75q-133 0 -213 74t-80 197v12h137v-12q0 -66 43.5 -103t112.5 -37q68 0 115 37t47 103v12z" />
    <glyph glyph-name="ibreve" unicode="&#x12d;" horiz-adv-x="530" 
d="M358 0h-186v1024h186v-1024zM428 1485h131v-29q0 -123 -85 -208t-208 -85t-208 85t-85 208v29h136v-29q0 -68 45 -115t112 -47q66 0 114 47t48 115v29z" />
    <glyph glyph-name="Iogonek" unicode="&#x12e;" horiz-adv-x="585" 
d="M391 1434v-1434q-57 -16 -98.5 -43.5t-62.5 -59.5t-30.5 -62t-9.5 -60q0 -42 22.5 -66t63.5 -24q46 0 91 28l65 -104q-70 -64 -182 -64q-93 0 -160 54t-67 149q0 81 45 149t127 107v1430h196z" />
    <glyph glyph-name="iogonek" unicode="&#x12f;" horiz-adv-x="530" 
d="M358 1225h-186v209h186v-209zM358 1024v-1024q-103 -31 -146.5 -92.5t-43.5 -132.5q0 -42 22.5 -66t63.5 -24q45 0 90 28l66 -104q-70 -64 -183 -64q-93 0 -160 54t-67 149q0 174 172 256v1020h186z" />
    <glyph glyph-name="Idotaccent" unicode="&#x130;" horiz-adv-x="585" 
d="M397 1565h-209v227h209v-227zM391 0h-196v1434h196v-1434z" />
    <glyph glyph-name="dotlessi" unicode="&#x131;" horiz-adv-x="530" 
d="M358 0h-186v1024h186v-1024z" />
    <glyph glyph-name="IJ" unicode="&#x132;" horiz-adv-x="1314" 
d="M391 0h-196v1434h196v-1434zM1130 1434v-1072q0 -177 -65 -272q-80 -115 -274 -115q-101 0 -207 45l53 160q61 -28 125 -28q102 0 137 49q35 45 35 188v1045h196z" />
    <glyph glyph-name="ij" unicode="&#x133;" horiz-adv-x="1077" 
d="M358 0h-186v1024h186v-1024zM358 1225h-186v209h186v-209zM905 1225h-186v209h186v-209zM905 1024v-1114q0 -126 -28 -195q-31 -79 -99 -124.5t-174 -45.5q-116 0 -196 45l53 152q56 -29 114 -29q39 0 66 12.5t42 31.5t23.5 52t10.5 63t2 75v1077h186z" />
    <glyph glyph-name="Jcircumflex" unicode="&#x134;" horiz-adv-x="688" 
d="M514 1434v-1072q0 -177 -65 -272q-80 -115 -275 -115q-101 0 -207 45l53 160q61 -28 125 -28q103 0 138 49q34 43 34 188v1045h197zM322 1888h194l219 -274l-110 -86l-209 237l-207 -237l-113 86z" />
    <glyph glyph-name="jcircumflex" unicode="&#x135;" horiz-adv-x="546" 
d="M375 1024v-1114q0 -123 -29 -195q-31 -79 -98.5 -124.5t-173.5 -45.5q-117 0 -197 45l53 152q56 -29 115 -29q39 0 66 12.5t42 31.5t23 52t10 62.5t2 75.5v1077h187zM582 1233l-109 -74l-190 264l-191 -264l-112 74l213 321h180z" />
    <glyph glyph-name="Kcommaaccent" unicode="&#x136;" horiz-adv-x="1271" 
d="M1233 1434l-477 -566l506 -868h-230l-409 709l-232 -277v-432h-196v1434h196v-732l602 732h240zM670 -473h-154l74 358h174z" />
    <glyph glyph-name="kcommaaccent" unicode="&#x137;" horiz-adv-x="1052" 
d="M1040 0h-227l-293 459l-162 -189v-270h-186v1536h186v-1024l4 -2l414 514h230l-359 -418zM549 -473h-154l74 358h174z" />
    <glyph glyph-name="kgreenlandic" unicode="&#x138;" horiz-adv-x="1052" 
d="M172 1024h186v-512l4 -2l414 514h230l-359 -418l393 -606h-227l-293 459l-162 -189v-270h-186v1024z" />
    <glyph glyph-name="Lacute" unicode="&#x139;" horiz-adv-x="1024" 
d="M1014 0h-819v1434h196v-1258h623v-176zM614 1774l-358 -258l-86 110l338 283z" />
    <glyph glyph-name="lacute" unicode="&#x13a;" horiz-adv-x="530" 
d="M358 1536v-1536h-186v1536h186zM582 1864l-359 -258l-86 110l338 283z" />
    <glyph glyph-name="Lcommaaccent" unicode="&#x13b;" horiz-adv-x="1024" 
d="M1014 0h-819v1434h196v-1258h623v-176zM625 -473h-154l74 358h174z" />
    <glyph glyph-name="lcommaaccent" unicode="&#x13c;" horiz-adv-x="530" 
d="M358 1536v-1536h-186v1536h186zM254 -473h-154l74 358h174z" />
    <glyph glyph-name="Lcaron" unicode="&#x13d;" horiz-adv-x="1024" 
d="M1014 0h-819v1434h196v-1258h623v-176zM680 1024h-156l82 410h182z" />
    <glyph glyph-name="lcaron" unicode="&#x13e;" horiz-adv-x="530" 
d="M358 1536v-1536h-186v1536h186zM575 1126h-155l82 410h182z" />
    <glyph glyph-name="Ldot" unicode="&#x13f;" horiz-adv-x="1024" 
d="M1014 0h-819v1434h196v-1258h623v-176zM915 643h-208v227h208v-227z" />
    <glyph glyph-name="ldot" unicode="&#x140;" horiz-adv-x="653" 
d="M358 1536v-1536h-186v1536h186zM639 643h-209v227h209v-227z" />
    <glyph glyph-name="Lslash" unicode="&#x141;" horiz-adv-x="1024" 
d="M1014 0h-819v575l-185 -118v182l185 119v676h196v-588l305 198v-182l-305 -198v-488h623v-176z" />
    <glyph glyph-name="lslash" unicode="&#x142;" horiz-adv-x="530" 
d="M358 1536v-621l144 95v-181l-144 -94v-735h-186v657l-135 -88v176l135 89v702h186z" />
    <glyph glyph-name="Nacute" unicode="&#x143;" horiz-adv-x="1546" 
d="M1352 0h-174l-787 1069v-1069h-196v1434h172l788 -1069v1069h197v-1434zM1108 1774l-358 -258l-86 110l337 283z" />
    <glyph glyph-name="nacute" unicode="&#x144;" horiz-adv-x="1241" 
d="M172 1024h186v-168q57 91 144.5 142t189.5 51q202 0 297 -129q92 -124 92 -388v-532h-186v512q0 95 -10 164t-43 119q-55 82 -178 82q-87 0 -168 -54t-138 -143v-680h-186v1024zM926 1487l-275 -328l-112 86l252 346z" />
    <glyph glyph-name="Ncommaaccent" unicode="&#x145;" horiz-adv-x="1546" 
d="M1352 0h-174l-787 1069v-1069h-196v1434h172l788 -1069v1069h197v-1434zM793 -473h-154l74 358h174z" />
    <glyph glyph-name="ncommaaccent" unicode="&#x146;" horiz-adv-x="1241" 
d="M172 1024h186v-168q57 91 144.5 142t189.5 51q202 0 297 -129q92 -124 92 -388v-532h-186v512q0 95 -10 164t-43 119q-55 82 -178 82q-87 0 -168 -54t-138 -143v-680h-186v1024zM621 -473h-154l74 358h174z" />
    <glyph glyph-name="Ncaron" unicode="&#x147;" horiz-adv-x="1546" 
d="M1352 0h-174l-787 1069v-1069h-196v1434h172l788 -1069v1069h197v-1434zM883 1540h-195l-219 275l113 86l209 -238l206 238l111 -86z" />
    <glyph glyph-name="ncaron" unicode="&#x148;" horiz-adv-x="1241" 
d="M172 1024h186v-168q57 91 144.5 142t189.5 51q202 0 297 -129q92 -124 92 -388v-532h-186v512q0 95 -10 164t-43 119q-55 82 -178 82q-87 0 -168 -54t-138 -143v-680h-186v1024zM362 1487l111 74l191 -265l190 265l111 -74l-213 -322h-181z" />
    <glyph glyph-name="napostrophe" unicode="&#x149;" horiz-adv-x="1294" 
d="M145 1024h-178l105 512h209zM225 1024h187v-168q57 91 144 142t189 51q202 0 297 -129q93 -125 93 -388v-532h-187v512q0 95 -10 164t-43 119q-55 82 -178 82q-87 0 -167.5 -54t-137.5 -143v-680h-187v1024z" />
    <glyph glyph-name="Eng" unicode="&#x14a;" horiz-adv-x="1546" 
d="M1352 1434v-1502q0 -175 -66 -272q-80 -115 -274 -115q-101 0 -207 45l53 160q63 -29 125 -29q101 0 137 50q35 45 35 188v72l-764 1038v-1069h-196v1434h172l788 -1069v1069h197z" />
    <glyph glyph-name="eng" unicode="&#x14b;" horiz-adv-x="1241" 
d="M1081 532v-622q0 -126 -28 -195q-31 -79 -99 -124.5t-174 -45.5q-116 0 -196 45l53 152q56 -29 115 -29q39 0 66 12.5t42 31.5t23 52t10 62.5t2 75.5v565q0 95 -10 164t-43 119q-55 82 -178 82q-87 0 -168 -54t-138 -143v-680h-186v1024h186v-168q57 91 144.5 142
t189.5 51q202 0 297 -129q92 -124 92 -388z" />
    <glyph glyph-name="Omacron" unicode="&#x14c;" horiz-adv-x="1720" 
d="M1389 717q0 157 -68 286t-189.5 204t-271.5 75t-271 -75t-189 -204t-68 -286t68 -286t189 -204t271 -75t271.5 75t189.5 204t68 286zM1597 717q0 -152 -57 -289t-154.5 -236.5t-234.5 -158t-291 -58.5t-291 58.5t-234.5 158t-154.5 236.5t-57 289t57 288.5t154.5 236
t234.5 158t291 58.5t291 -58.5t234.5 -158t154.5 -236t57 -288.5zM1198 1585h-676v146h676v-146z" />
    <glyph glyph-name="omacron" unicode="&#x14d;" horiz-adv-x="1216" 
d="M608 1049q147 0 267 -71.5t187.5 -194.5t67.5 -271t-67.5 -271t-187.5 -194.5t-267 -71.5t-267 71.5t-187.5 194.5t-67.5 271t67.5 271t187.5 194.5t267 71.5zM940 512q0 152 -94.5 258.5t-237.5 106.5t-237.5 -106.5t-94.5 -258.5t94.5 -258.5t237.5 -106.5t237.5 106.5
t94.5 258.5zM911 1245h-606v144h606v-144z" />
    <glyph glyph-name="Obreve" unicode="&#x14e;" horiz-adv-x="1720" 
d="M1389 717q0 157 -68 286t-189.5 204t-271.5 75t-271 -75t-189 -204t-68 -286t68 -286t189 -204t271 -75t271.5 75t189.5 204t68 286zM1597 717q0 -152 -57 -289t-154.5 -236.5t-234.5 -158t-291 -58.5t-291 58.5t-234.5 158t-154.5 236.5t-57 289t57 288.5t154.5 236
t234.5 158t291 58.5t291 -58.5t234.5 -158t154.5 -236t57 -288.5zM1022 1831h131v-12q0 -121 -84 -196t-209 -75q-133 0 -213 74t-80 197v12h138v-12q0 -66 43 -103t112 -37q68 0 115 37t47 103v12z" />
    <glyph glyph-name="obreve" unicode="&#x14f;" horiz-adv-x="1216" 
d="M608 1049q147 0 267 -71.5t187.5 -194.5t67.5 -271t-67.5 -271t-187.5 -194.5t-267 -71.5t-267 71.5t-187.5 194.5t-67.5 271t67.5 271t187.5 194.5t267 71.5zM940 512q0 152 -94.5 258.5t-237.5 106.5t-237.5 -106.5t-94.5 -258.5t94.5 -258.5t237.5 -106.5t237.5 106.5
t94.5 258.5zM791 1485h131v-29q0 -123 -85 -208t-208 -85t-208 85t-85 208v29h135v-29q0 -68 45.5 -115t112.5 -47q66 0 114 47t48 115v29z" />
    <glyph glyph-name="Ohungarumlaut" unicode="&#x150;" horiz-adv-x="1720" 
d="M1389 717q0 157 -68 286t-189.5 204t-271.5 75t-271 -75t-189 -204t-68 -286t68 -286t189 -204t271 -75t271.5 75t189.5 204t68 286zM1597 717q0 -152 -57 -289t-154.5 -236.5t-234.5 -158t-291 -58.5t-291 58.5t-234.5 158t-154.5 236.5t-57 289t57 288.5t154.5 236
t234.5 158t291 58.5t291 -58.5t234.5 -158t154.5 -236t57 -288.5zM958 1774l-358 -258l-86 110l338 283zM1389 1763l-345 -247l-86 110l324 272z" />
    <glyph glyph-name="ohungarumlaut" unicode="&#x151;" horiz-adv-x="1216" 
d="M608 1049q147 0 267 -71.5t187.5 -194.5t67.5 -271t-67.5 -271t-187.5 -194.5t-267 -71.5t-267 71.5t-187.5 194.5t-67.5 271t67.5 271t187.5 194.5t267 71.5zM940 512q0 152 -94.5 258.5t-237.5 106.5t-237.5 -106.5t-94.5 -258.5t94.5 -258.5t237.5 -106.5t237.5 106.5
t94.5 258.5zM1071 1487l-276 -330l-115 88l256 346zM758 1518l-287 -340l-113 82l263 364z" />
    <glyph glyph-name="OE" unicode="&#x152;" horiz-adv-x="2177" 
d="M2044 0h-860v68q-154 -93 -324 -93q-154 0 -291 58.5t-234.5 158t-154.5 236.5t-57 289t57 288.5t154.5 236t234.5 158t291 58.5q172 0 324 -92v68h860v-177h-664v-430h664v-176h-664v-475h664v-176zM860 152q186 0 324 110v909q-140 111 -324 111q-150 0 -271 -75
t-189 -204t-68 -286t68 -286t189 -204t271 -75z" />
    <glyph glyph-name="oe" unicode="&#x153;" horiz-adv-x="1992" 
d="M1898 465h-780q9 -139 98.5 -234.5t231.5 -95.5q218 0 305 166l135 -86q-77 -123 -185 -181.5t-263 -58.5q-279 0 -416 222q-70 -103 -177.5 -162.5t-238.5 -59.5q-147 0 -267 72t-187.5 195t-67.5 270q0 148 67.5 271.5t187.5 195.5t267 72q133 0 243 -61.5t179 -168.5
q68 107 174.5 168.5t235.5 61.5q202 0 334.5 -136t132.5 -342q0 -47 -9 -108zM940 514q0 150 -95 257.5t-235 107.5q-144 0 -239 -107t-95 -258q0 -152 95 -259.5t239 -107.5q141 0 235.5 108t94.5 259zM1442 891q-119 0 -199.5 -76.5t-109.5 -198.5h581q-6 112 -83 193.5
t-189 81.5z" />
    <glyph glyph-name="Racute" unicode="&#x154;" horiz-adv-x="1255" 
d="M1214 0h-245l-430 606h-148v-606h-196v1434h426q68 0 135 -14t131.5 -46t113.5 -78.5t79 -117t30 -156.5q0 -88 -29.5 -160t-80 -120t-111 -78.5t-129.5 -45.5zM901 1016q0 109 -80 175t-211 66h-219v-475h178q151 0 241.5 58t90.5 176zM897 1774l-358 -258l-86 110
l338 283z" />
    <glyph glyph-name="racute" unicode="&#x155;" horiz-adv-x="731" 
d="M358 1024v-170q49 88 117 141.5t148 53.5q47 0 110 -13l-35 -198q-44 20 -96 20q-146 0 -244 -172v-686h-186v1024h186zM705 1487l-275 -328l-113 86l252 346z" />
    <glyph glyph-name="Rcommaaccent" unicode="&#x156;" horiz-adv-x="1255" 
d="M1214 0h-245l-430 606h-148v-606h-196v1434h426q68 0 135 -14t131.5 -46t113.5 -78.5t79 -117t30 -156.5q0 -88 -29.5 -160t-80 -120t-111 -78.5t-129.5 -45.5zM901 1016q0 109 -80 175t-211 66h-219v-475h178q151 0 241.5 58t90.5 176zM657 -473h-153l74 358h174z" />
    <glyph glyph-name="rcommaaccent" unicode="&#x157;" horiz-adv-x="731" 
d="M358 1024v-170q49 88 117 141.5t148 53.5q47 0 110 -13l-35 -198q-44 20 -96 20q-146 0 -244 -172v-686h-186v1024h186zM254 -473h-154l74 358h174z" />
    <glyph glyph-name="Rcaron" unicode="&#x158;" horiz-adv-x="1255" 
d="M1214 0h-245l-430 606h-148v-606h-196v1434h426q68 0 135 -14t131.5 -46t113.5 -78.5t79 -117t30 -156.5q0 -88 -29.5 -160t-80 -120t-111 -78.5t-129.5 -45.5zM901 1016q0 109 -80 175t-211 66h-219v-475h178q151 0 241.5 58t90.5 176zM688 1540h-194l-220 275l113 86
l209 -238l207 238l110 -86z" />
    <glyph glyph-name="rcaron" unicode="&#x159;" horiz-adv-x="731" 
d="M358 1024v-170q49 88 117 141.5t148 53.5q47 0 110 -13l-35 -198q-44 20 -96 20q-146 0 -244 -172v-686h-186v1024h186zM143 1487l111 74l190 -265l191 265l110 -74l-213 -322h-180z" />
    <glyph glyph-name="Sacute" unicode="&#x15a;" horiz-adv-x="1247" 
d="M938 1167q-53 49 -136 82t-165 33q-116 0 -186 -52.5t-70 -146.5q0 -23 5.5 -43t20 -38t26.5 -31t39 -28t43 -23.5t52.5 -22.5t53 -20t59.5 -21q53 -19 89 -33t85 -37.5t82.5 -46.5t70 -56.5t58 -70t35.5 -85.5t14 -105q0 -93 -31.5 -170t-82.5 -127t-118 -85t-135.5 -50
t-136.5 -15q-157 0 -280.5 51.5t-237.5 163.5l139 132q98 -97 184 -133.5t197 -36.5q122 0 207.5 62t85.5 185q0 33 -9.5 62t-24 50.5t-40.5 42.5t-49 35t-61 30.5t-64.5 26t-70.5 24.5q-68 24 -118 45.5t-107.5 56.5t-93.5 73.5t-60.5 95t-24.5 122.5q0 98 34.5 175
t94.5 124t137 71.5t166 24.5q252 0 445 -147zM954 1774l-358 -258l-86 110l338 283z" />
    <glyph glyph-name="sacute" unicode="&#x15b;" horiz-adv-x="923" 
d="M782 936l-110 -119q-36 32 -94 54t-109 22q-70 0 -112 -37.5t-42 -97.5q0 -23 12.5 -43t27.5 -34t46.5 -30.5t51 -24.5t59.5 -24q48 -19 83 -34.5t79 -43.5t71 -57.5t46.5 -74t19.5 -95.5q0 -83 -30.5 -146.5t-83 -101t-117.5 -56t-140 -18.5q-106 0 -199.5 41.5
t-152.5 118.5l131 105q103 -109 223 -109q80 0 132.5 41t52.5 117q0 19 -6.5 36t-23.5 32t-29.5 24.5t-42.5 23.5t-44 20t-51 21q-41 16 -60 24t-56.5 26t-56.5 31.5t-46 37.5t-40.5 48t-23.5 58t-10 72q0 75 27.5 134.5t74 96.5t105 56t123.5 19q89 0 171.5 -29t143.5 -84z
M786 1487l-274 -328l-113 86l252 346z" />
    <glyph glyph-name="Scircumflex" unicode="&#x15c;" horiz-adv-x="1247" 
d="M938 1167q-53 49 -136 82t-165 33q-116 0 -186 -52.5t-70 -146.5q0 -23 5.5 -43t20 -38t26.5 -31t39 -28t43 -23.5t52.5 -22.5t53 -20t59.5 -21q53 -19 89 -33t85 -37.5t82.5 -46.5t70 -56.5t58 -70t35.5 -85.5t14 -105q0 -93 -31.5 -170t-82.5 -127t-118 -85t-135.5 -50
t-136.5 -15q-157 0 -280.5 51.5t-237.5 163.5l139 132q98 -97 184 -133.5t197 -36.5q122 0 207.5 62t85.5 185q0 33 -9.5 62t-24 50.5t-40.5 42.5t-49 35t-61 30.5t-64.5 26t-70.5 24.5q-68 24 -118 45.5t-107.5 56.5t-93.5 73.5t-60.5 95t-24.5 122.5q0 98 34.5 175
t94.5 124t137 71.5t166 24.5q252 0 445 -147zM543 1888h194l219 -274l-110 -86l-209 237l-207 -237l-113 86z" />
    <glyph glyph-name="scircumflex" unicode="&#x15d;" horiz-adv-x="923" 
d="M782 936l-110 -119q-36 32 -94 54t-109 22q-70 0 -112 -37.5t-42 -97.5q0 -23 12.5 -43t27.5 -34t46.5 -30.5t51 -24.5t59.5 -24q48 -19 83 -34.5t79 -43.5t71 -57.5t46.5 -74t19.5 -95.5q0 -83 -30.5 -146.5t-83 -101t-117.5 -56t-140 -18.5q-106 0 -199.5 41.5
t-152.5 118.5l131 105q103 -109 223 -109q80 0 132.5 41t52.5 117q0 19 -6.5 36t-23.5 32t-29.5 24.5t-42.5 23.5t-44 20t-51 21q-41 16 -60 24t-56.5 26t-56.5 31.5t-46 37.5t-40.5 48t-23.5 58t-10 72q0 75 27.5 134.5t74 96.5t105 56t123.5 19q89 0 171.5 -29t143.5 -84z
M780 1233l-108 -74l-191 264l-190 -264l-113 74l213 321h180z" />
    <glyph glyph-name="Scedilla" unicode="&#x15e;" horiz-adv-x="1247" 
d="M938 1167q-53 49 -136 82t-165 33q-116 0 -186 -52.5t-70 -146.5q0 -23 5.5 -43t20 -38t26.5 -31t39 -28t43 -23.5t52.5 -22.5t53 -20t59.5 -21q53 -19 89 -33t85 -37.5t82.5 -46.5t70 -56.5t58 -70t35.5 -85.5t14 -105q0 -90 -29.5 -165t-77.5 -125t-112 -85.5
t-129.5 -52.5t-132.5 -19l-47 -108l4 -2q37 33 98 33q80 0 129 -55.5t49 -135.5q0 -84 -65 -146.5t-158 -62.5q-143 0 -211 121l117 57q23 -65 94 -65q39 0 63.5 26.5t24.5 63.5q0 39 -23.5 67.5t-64.5 28.5q-58 0 -84 -49l-127 68l78 166q-236 26 -418 208l139 132
q98 -97 184 -133.5t197 -36.5q122 0 207.5 62t85.5 185q0 33 -9.5 62t-24 50.5t-40.5 42.5t-49 35t-61 30.5t-64.5 26t-70.5 24.5q-68 24 -118 45.5t-107.5 56.5t-93.5 73.5t-60.5 95t-24.5 122.5q0 98 34.5 175t94.5 124t137 71.5t166 24.5q252 0 445 -147z" />
    <glyph glyph-name="scedilla" unicode="&#x15f;" horiz-adv-x="923" 
d="M782 936l-110 -119q-36 32 -94 54t-109 22q-70 0 -112 -37.5t-42 -97.5q0 -23 12.5 -43t27.5 -34t46.5 -30.5t51 -24.5t59.5 -24q48 -19 83 -34.5t79 -43.5t71 -57.5t46.5 -74t19.5 -95.5q0 -79 -27.5 -140t-75.5 -98.5t-107 -57.5t-128 -24l-41 -110l2 -2q44 33 98 33
q71 0 125 -55t54 -136q0 -83 -65 -146t-159 -63q-143 0 -211 121l117 57q23 -65 94 -65q39 0 63.5 26.5t24.5 63.5q0 41 -25.5 68.5t-66.5 27.5q-59 0 -80 -49l-124 66l69 170q-169 29 -260 151l131 105q103 -109 223 -109q80 0 132.5 41t52.5 117q0 19 -6.5 36t-23.5 32
t-29.5 24.5t-42.5 23.5t-44 20t-51 21q-41 16 -60 24t-56.5 26t-56.5 31.5t-46 37.5t-40.5 48t-23.5 58t-10 72q0 75 27.5 134.5t74 96.5t105 56t123.5 19q89 0 171.5 -29t143.5 -84z" />
    <glyph glyph-name="Scaron" unicode="&#x160;" horiz-adv-x="1247" 
d="M938 1167q-53 49 -136 82t-165 33q-116 0 -186 -52.5t-70 -146.5q0 -23 5.5 -43t20 -38t26.5 -31t39 -28t43 -23.5t52.5 -22.5t53 -20t59.5 -21q53 -19 89 -33t85 -37.5t82.5 -46.5t70 -56.5t58 -70t35.5 -85.5t14 -105q0 -93 -31.5 -170t-82.5 -127t-118 -85t-135.5 -50
t-136.5 -15q-157 0 -280.5 51.5t-237.5 163.5l139 132q98 -97 184 -133.5t197 -36.5q122 0 207.5 62t85.5 185q0 33 -9.5 62t-24 50.5t-40.5 42.5t-49 35t-61 30.5t-64.5 26t-70.5 24.5q-68 24 -118 45.5t-107.5 56.5t-93.5 73.5t-60.5 95t-24.5 122.5q0 98 34.5 175
t94.5 124t137 71.5t166 24.5q252 0 445 -147zM731 1540h-194l-220 275l113 86l209 -238l207 238l110 -86z" />
    <glyph glyph-name="scaron" unicode="&#x161;" horiz-adv-x="923" 
d="M782 936l-110 -119q-36 32 -94 54t-109 22q-70 0 -112 -37.5t-42 -97.5q0 -23 12.5 -43t27.5 -34t46.5 -30.5t51 -24.5t59.5 -24q48 -19 83 -34.5t79 -43.5t71 -57.5t46.5 -74t19.5 -95.5q0 -83 -30.5 -146.5t-83 -101t-117.5 -56t-140 -18.5q-106 0 -199.5 41.5
t-152.5 118.5l131 105q103 -109 223 -109q80 0 132.5 41t52.5 117q0 19 -6.5 36t-23.5 32t-29.5 24.5t-42.5 23.5t-44 20t-51 21q-41 16 -60 24t-56.5 26t-56.5 31.5t-46 37.5t-40.5 48t-23.5 58t-10 72q0 75 27.5 134.5t74 96.5t105 56t123.5 19q89 0 171.5 -29t143.5 -84z
M182 1487l111 74l190 -265l191 265l110 -74l-213 -322h-180z" />
    <glyph glyph-name="uni0162" unicode="&#x162;" horiz-adv-x="999" 
d="M958 1257h-360v-1257h-39l-57 -133l4 -2q37 33 98 33q80 0 129 -55.5t49 -135.5q0 -84 -65 -146.5t-158 -62.5q-143 0 -211 121l117 57q23 -65 94 -65q39 0 63.5 26.5t24.5 63.5q0 39 -23.5 67.5t-64.5 28.5q-58 0 -84 -49l-127 68l86 184h-33v1257h-360v177h917v-177z
" />
    <glyph glyph-name="uni0163" unicode="&#x163;" horiz-adv-x="708" 
d="M655 860h-286v-463q0 -49 2 -80q5 -86 37.5 -129t105.5 -43q55 0 115 29l51 -149q-85 -45 -191 -45q-37 0 -55 4l-43 -117l2 -2q44 33 99 33q71 0 124.5 -55t53.5 -136q0 -83 -65 -146t-159 -63q-142 0 -210 121l116 57q23 -65 94 -65q39 0 64 27t25 63q0 40 -26 68
t-67 28q-59 0 -80 -49l-124 66l86 204q-72 40 -109 121q-33 75 -33 213v508h-137v164h137v246h187v-246h286v-164z" />
    <glyph glyph-name="Tcaron" unicode="&#x164;" horiz-adv-x="999" 
d="M958 1257h-360v-1257h-197v1257h-360v177h917v-177zM594 1540h-195l-219 275l113 86l209 -238l207 238l110 -86z" />
    <glyph glyph-name="tcaron" unicode="&#x165;" horiz-adv-x="708" 
d="M655 860h-286v-463q0 -49 2 -80q5 -86 37.5 -129t105.5 -43q55 0 115 29l51 -149q-85 -45 -191 -45q-203 0 -274 159q-33 75 -33 213v508h-137v164h137v246h187v-246h286v-164zM641 1126h-156l82 410h183z" />
    <glyph glyph-name="Tbar" unicode="&#x166;" horiz-adv-x="999" 
d="M958 1257h-360v-438h225v-162h-225v-657h-197v657h-225v162h225v438h-360v177h917v-177z" />
    <glyph glyph-name="tbar" unicode="&#x167;" horiz-adv-x="708" 
d="M655 467h-286v-70q0 -49 2 -80q5 -86 37.5 -129t105.5 -43q55 0 115 29l51 -149q-85 -45 -191 -45q-203 0 -274 159q-33 75 -33 213v115h-137v147h137v246h-137v164h137v246h187v-246h286v-164h-286v-246h286v-147z" />
    <glyph glyph-name="Utilde" unicode="&#x168;" horiz-adv-x="1478" 
d="M1294 1434v-760q0 -346 -135 -522.5t-424 -176.5q-283 0 -417 177t-134 522v760h197v-811q0 -233 94 -352t264 -119t264.5 119t94.5 352v811h196zM954 1774l133 14q5 -30 5 -55q0 -88 -56 -141.5t-145 -53.5q-48 0 -94.5 20.5t-76.5 45t-66 45t-66 20.5q-29 0 -48 -16
t-20 -45q0 -15 2 -21l-133 -14q-4 24 -4 55q0 88 56 141.5t145 53.5q47 0 93 -20.5t77 -45t67.5 -45t65.5 -20.5q28 0 47 16t20 45q0 15 -2 21z" />
    <glyph glyph-name="utilde" unicode="&#x169;" horiz-adv-x="1241" 
d="M883 0v168q-57 -91 -144.5 -142t-189.5 -51q-202 0 -297 129q-92 124 -92 388v532h186v-512q0 -95 10 -164t43 -119q55 -82 179 -82q87 0 167.5 54t137.5 143v680h186v-1024h-186zM987 1434q4 -24 4 -48q0 -88 -55.5 -141t-144.5 -53q-50 0 -97 20.5t-76.5 45t-65.5 45
t-65 20.5q-28 0 -47 -16t-20 -45q0 -15 2 -21l-133 -14q-4 24 -4 47q0 88 55.5 141t144.5 53q48 0 94 -20.5t76.5 -45t67 -45t65.5 -20.5q28 0 47.5 16.5t20.5 45.5q0 14 -2 20z" />
    <glyph glyph-name="Umacron" unicode="&#x16a;" horiz-adv-x="1478" 
d="M1294 1434v-760q0 -346 -135 -522.5t-424 -176.5q-283 0 -417 177t-134 522v760h197v-811q0 -233 94 -352t264 -119t264.5 119t94.5 352v811h196zM1077 1585h-676v146h676v-146z" />
    <glyph glyph-name="umacron" unicode="&#x16b;" horiz-adv-x="1241" 
d="M883 0v168q-57 -91 -144.5 -142t-189.5 -51q-202 0 -297 129q-92 124 -92 388v532h186v-512q0 -95 10 -164t43 -119q55 -82 179 -82q87 0 167.5 54t137.5 143v680h186v-1024h-186zM918 1245h-607v144h607v-144z" />
    <glyph glyph-name="Ubreve" unicode="&#x16c;" horiz-adv-x="1478" 
d="M1294 1434v-760q0 -346 -135 -522.5t-424 -176.5q-283 0 -417 177t-134 522v760h197v-811q0 -233 94 -352t264 -119t264.5 119t94.5 352v811h196zM903 1831h131v-12q0 -121 -84 -196t-209 -75q-133 0 -212.5 74t-79.5 197v12h137v-12q0 -66 43 -103t112 -37q68 0 115 37
t47 103v12z" />
    <glyph glyph-name="ubreve" unicode="&#x16d;" horiz-adv-x="1241" 
d="M883 0v168q-57 -91 -144.5 -142t-189.5 -51q-202 0 -297 129q-92 124 -92 388v532h186v-512q0 -95 10 -164t43 -119q55 -82 179 -82q87 0 167.5 54t137.5 143v680h186v-1024h-186zM786 1485h132v-29q0 -123 -85 -208t-208 -85t-208 85t-85 208v29h135v-29
q0 -68 45.5 -115t112.5 -47q65 0 113 47t48 115v29z" />
    <glyph glyph-name="Uring" unicode="&#x16e;" horiz-adv-x="1478" 
d="M1294 1434v-760q0 -346 -135 -522.5t-424 -176.5q-283 0 -417 177t-134 522v760h197v-811q0 -233 94 -352t264 -119t264.5 119t94.5 352v811h196zM549 1677q0 78 56 134.5t134 56.5t134.5 -56.5t56.5 -134.5t-56.5 -134t-134.5 -56t-134 56t-56 134zM649 1677
q0 -37 26.5 -63.5t63.5 -26.5t63.5 26.5t26.5 63.5t-26.5 63.5t-63.5 26.5t-63.5 -26.5t-26.5 -63.5z" />
    <glyph glyph-name="uring" unicode="&#x16f;" horiz-adv-x="1241" 
d="M883 0v168q-57 -91 -144.5 -142t-189.5 -51q-202 0 -297 129q-92 124 -92 388v532h186v-512q0 -95 10 -164t43 -119q55 -82 179 -82q87 0 167.5 54t137.5 143v680h186v-1024h-186zM432 1337q0 78 56.5 134.5t134.5 56.5t134 -56.5t56 -134.5t-56 -134t-134 -56t-134.5 56
t-56.5 134zM532 1337q0 -37 27 -63.5t64 -26.5t63.5 26.5t26.5 63.5t-26.5 63.5t-63.5 26.5t-64 -26.5t-27 -63.5z" />
    <glyph glyph-name="Uhungarumlaut" unicode="&#x170;" horiz-adv-x="1478" 
d="M1294 1434v-760q0 -346 -135 -522.5t-424 -176.5q-283 0 -417 177t-134 522v760h197v-811q0 -233 94 -352t264 -119t264.5 119t94.5 352v811h196zM838 1774l-359 -258l-86 110l338 283zM1268 1763l-344 -247l-86 110l323 272z" />
    <glyph glyph-name="uhungarumlaut" unicode="&#x171;" horiz-adv-x="1241" 
d="M883 0v168q-57 -91 -144.5 -142t-189.5 -51q-202 0 -297 129q-92 124 -92 388v532h186v-512q0 -95 10 -164t43 -119q55 -82 179 -82q87 0 167.5 54t137.5 143v680h186v-1024h-186zM1049 1487l-277 -330l-115 88l256 346zM735 1518l-286 -340l-113 82l262 364z" />
    <glyph glyph-name="Uogonek" unicode="&#x172;" horiz-adv-x="1478" 
d="M1294 1434v-760q0 -283 -89 -452t-277 -222q-81 -23 -147 -85t-66 -140q0 -42 22.5 -66t63.5 -24q45 0 90 28l65 -104q-70 -64 -182 -64q-93 0 -160 54t-67 149q0 68 34.5 129t98.5 100q-255 17 -375.5 193t-120.5 504v760h197v-811q0 -233 94 -352t264 -119t264.5 119
t94.5 352v811h196z" />
    <glyph glyph-name="uogonek" unicode="&#x173;" horiz-adv-x="1241" 
d="M690 -252q0 149 193 254v166q-57 -91 -144.5 -142t-189.5 -51q-202 0 -297 129q-92 124 -92 388v532h186v-512q0 -95 10 -164t43 -119q55 -82 179 -82q87 0 167.5 54t137.5 143v680h186v-1024q-106 -32 -158.5 -93.5t-52.5 -131.5q0 -42 22.5 -66t63.5 -24q45 0 90 28
l66 -104q-70 -64 -182 -64q-93 0 -160.5 54t-67.5 149z" />
    <glyph glyph-name="Wcircumflex" unicode="&#x174;" horiz-adv-x="1814" 
d="M1004 1434l286 -1082h4l301 1082h209l-409 -1434h-197l-287 1092h-4l-311 -1092h-193l-393 1434h217l287 -1082h4l301 1082h185zM815 1888h195l219 -274l-111 -86l-209 237l-207 -237l-112 86z" />
    <glyph glyph-name="wcircumflex" unicode="&#x175;" horiz-adv-x="1501" 
d="M858 1024l207 -788h6l209 788h188l-294 -1024h-201l-219 797h-4l-226 -797h-209l-282 1024h200l193 -788h4l227 788h201zM1057 1233l-109 -74l-190 264l-191 -264l-112 74l213 321h180z" />
    <glyph glyph-name="Ycircumflex" unicode="&#x176;" horiz-adv-x="1136" 
d="M664 0h-197v623l-457 811h244l319 -603h7l317 603h229l-462 -822v-612zM475 1888h195l219 -274l-111 -86l-209 237l-207 -237l-112 86z" />
    <glyph glyph-name="ycircumflex" unicode="&#x177;" horiz-adv-x="976" 
d="M12 1024h207l266 -776h4l273 776h203l-576 -1485l-164 64l162 428zM807 1233l-109 -74l-190 264l-191 -264l-112 74l213 321h180z" />
    <glyph glyph-name="Ydieresis" unicode="&#x178;" horiz-adv-x="1136" 
d="M664 0h-197v623l-457 811h244l319 -603h7l317 603h229l-462 -822v-612zM453 1565h-205v227h205v-227zM924 1565h-205v227h205v-227z" />
    <glyph glyph-name="Zacute" unicode="&#x179;" horiz-adv-x="1120" 
d="M1028 1327l-674 -1151h725v-176h-997v104l678 1153h-662v177h930v-107zM850 1774l-358 -258l-86 110l337 283z" />
    <glyph glyph-name="zacute" unicode="&#x17a;" horiz-adv-x="929" 
d="M121 84l452 776h-475v164h723v-82l-452 -778h487v-164h-735v84zM745 1487l-274 -328l-113 86l252 346z" />
    <glyph glyph-name="Zdotaccent" unicode="&#x17b;" horiz-adv-x="1120" 
d="M1028 1327l-674 -1151h725v-176h-997v104l678 1153h-662v177h930v-107zM655 1565h-209v227h209v-227z" />
    <glyph glyph-name="zdotaccent" unicode="&#x17c;" horiz-adv-x="929" 
d="M121 84l452 776h-475v164h723v-82l-452 -778h487v-164h-735v84zM547 1225h-187v209h187v-209z" />
    <glyph glyph-name="Zcaron" unicode="&#x17d;" horiz-adv-x="1120" 
d="M1028 1327l-674 -1151h725v-176h-997v104l678 1153h-662v177h930v-107zM657 1540h-194l-219 275l112 86l209 -238l207 238l111 -86z" />
    <glyph glyph-name="zcaron" unicode="&#x17e;" horiz-adv-x="929" 
d="M121 84l452 776h-475v164h723v-82l-452 -778h487v-164h-735v84zM186 1487l111 74l190 -265l191 265l110 -74l-213 -322h-180z" />
    <glyph glyph-name="longs" unicode="&#x17f;" horiz-adv-x="630" 
d="M705 1516l-54 -156q-63 29 -127 29q-102 0 -137 -51.5t-35 -184.5v-1153h-188v1171q0 193 80 291.5t258 98.5q97 0 203 -45z" />
    <glyph glyph-name="florin" unicode="&#x192;" 
d="M805 647h-268l-84 -743q-18 -163 -98 -250.5t-201 -87.5q-75 0 -166 24l41 162q54 -14 102 -14q71 0 98 47t39 158l80 704h-164v172h183l26 228q19 162 106.5 249.5t227.5 87.5q125 0 262 -65l-74 -156q-70 49 -170 49q-87 0 -121 -49t-46 -155l-23 -189h250v-172z" />
    <glyph glyph-name="Aringacute" unicode="&#x1fa;" horiz-adv-x="1337" 
d="M1307 0h-228l-112 305h-611l-110 -305h-215l555 1434h172zM662 1135l-240 -654h481l-239 654h-2zM946 2073l-385 -215l-69 114l368 242zM483 1659q0 78 56.5 134t134.5 56t134 -56t56 -134t-56 -134.5t-134 -56.5t-134.5 56.5t-56.5 134.5zM584 1659q0 -37 26.5 -63.5
t63.5 -26.5t63.5 26.5t26.5 63.5t-26.5 63.5t-63.5 26.5t-63.5 -26.5t-26.5 -63.5z" />
    <glyph glyph-name="aringacute" unicode="&#x1fb;" horiz-adv-x="1118" 
d="M846 1757l-367 -217l-65 102l358 234zM958 0h-178v109q-63 -70 -136 -102t-171 -32t-177.5 31t-132 103.5t-52.5 177.5q0 75 26 134.5t69.5 97.5t103.5 63t123 35t134 10q93 0 205 -23v37q0 246 -242 246q-161 0 -325 -90l-55 155q86 42 194.5 69.5t208.5 27.5
q214 0 309.5 -109t95.5 -317v-623zM772 254v211q-95 20 -184 20q-42 0 -80 -4t-78.5 -16.5t-69.5 -32t-48 -53.5t-19 -78q0 -88 56.5 -129t146.5 -41q132 0 276 123zM352 1309q0 78 56.5 134t134.5 56t134 -56t56 -134t-56 -134.5t-134 -56.5t-134.5 56.5t-56.5 134.5z
M453 1309q0 -37 26.5 -63.5t63.5 -26.5t63.5 26.5t26.5 63.5t-26.5 63.5t-63.5 26.5t-63.5 -26.5t-26.5 -63.5z" />
    <glyph glyph-name="AEacute" unicode="&#x1fc;" horiz-adv-x="2019" 
d="M1886 0h-860v305h-586l-215 -305h-245l1048 1434h858v-177h-663v-430h663v-176h-663v-475h663v-176zM563 481h463v658zM1493 1774l-358 -258l-86 110l337 283z" />
    <glyph glyph-name="aeacute" unicode="&#x1fd;" horiz-adv-x="1824" 
d="M1546 614q-6 112 -83 193.5t-189 81.5q-119 0 -199.5 -76.5t-109.5 -198.5h581zM803 287q-33 92 -39 180q-93 18 -176 18q-42 0 -80 -4t-78.5 -16.5t-69.5 -32t-48 -53.5t-19 -78q0 -88 56.5 -129t146.5 -41q165 0 307 156zM1585 301l135 -86q-77 -123 -185 -181.5
t-263 -58.5q-255 0 -395 177q-150 -177 -404 -177q-98 0 -177.5 31t-132 103.5t-52.5 177.5q0 75 26 134.5t69.5 97.5t103.5 63t123 35t134 10q93 0 205 -23v37q0 246 -242 246q-161 0 -325 -90l-55 155q86 42 194.5 69.5t208.5 27.5q263 0 350 -172q146 172 369 172
q202 0 334.5 -136t132.5 -342q0 -52 -8 -106h-781q9 -139 98.5 -234.5t231.5 -95.5q218 0 305 166zM1200 1487l-274 -328l-113 86l252 346z" />
    <glyph glyph-name="Oslashacute" unicode="&#x1fe;" horiz-adv-x="1720" 
d="M1393 1376l-60 -88q123 -103 193.5 -252.5t70.5 -318.5q0 -152 -57 -289t-154.5 -236.5t-234.5 -158t-291 -58.5q-193 0 -354 88l-68 -100l-137 86l72 107q-118 102 -184 248t-66 313q0 152 57 288.5t154.5 236t234.5 158t291 58.5q177 0 338 -82l57 86zM1389 717
q0 122 -42.5 228.5t-119.5 184.5l-619 -915q114 -63 252 -63q150 0 271.5 75t189.5 204t68 286zM332 717q0 -243 149 -402l615 912q-110 55 -236 55q-150 0 -271 -75t-189 -204t-68 -286zM1176 1774l-359 -258l-86 110l338 283z" />
    <glyph glyph-name="oslashacute" unicode="&#x1ff;" horiz-adv-x="1216" 
d="M1008 995l-54 -77q83 -75 129.5 -180.5t46.5 -225.5q0 -148 -67.5 -271t-187.5 -194.5t-267 -71.5q-132 0 -250 62l-53 -80l-110 72l57 86q-78 73 -122 176t-44 221q0 148 67.5 271t187.5 194.5t267 71.5q128 0 238 -58l51 76zM940 512q0 148 -90 252l-391 -580
q64 -37 149 -37q143 0 237.5 106.5t94.5 258.5zM276 512q0 -140 80 -244l389 576q-68 33 -137 33q-143 0 -237.5 -106.5t-94.5 -258.5zM897 1487l-274 -328l-113 86l252 346z" />
    <glyph glyph-name="Scommaaccent" unicode="&#x218;" horiz-adv-x="1247" 
d="M938 1167q-53 49 -136 82t-165 33q-116 0 -186 -52.5t-70 -146.5q0 -23 5.5 -43t20 -38t26.5 -31t39 -28t43 -23.5t52.5 -22.5t53 -20t59.5 -21q53 -19 89 -33t85 -37.5t82.5 -46.5t70 -56.5t58 -70t35.5 -85.5t14 -105q0 -93 -31.5 -170t-82.5 -127t-118 -85t-135.5 -50
t-136.5 -15q-157 0 -280.5 51.5t-237.5 163.5l139 132q98 -97 184 -133.5t197 -36.5q122 0 207.5 62t85.5 185q0 33 -9.5 62t-24 50.5t-40.5 42.5t-49 35t-61 30.5t-64.5 26t-70.5 24.5q-68 24 -118 45.5t-107.5 56.5t-93.5 73.5t-60.5 95t-24.5 122.5q0 98 34.5 175
t94.5 124t137 71.5t166 24.5q252 0 445 -147zM537 -473h-154l74 358h174z" />
    <glyph glyph-name="scommaaccent" unicode="&#x219;" horiz-adv-x="923" 
d="M782 936l-110 -119q-36 32 -94 54t-109 22q-70 0 -112 -37.5t-42 -97.5q0 -23 12.5 -43t27.5 -34t46.5 -30.5t51 -24.5t59.5 -24q48 -19 83 -34.5t79 -43.5t71 -57.5t46.5 -74t19.5 -95.5q0 -83 -30.5 -146.5t-83 -101t-117.5 -56t-140 -18.5q-106 0 -199.5 41.5
t-152.5 118.5l131 105q103 -109 223 -109q80 0 132.5 41t52.5 117q0 19 -6.5 36t-23.5 32t-29.5 24.5t-42.5 23.5t-44 20t-51 21q-41 16 -60 24t-56.5 26t-56.5 31.5t-46 37.5t-40.5 48t-23.5 58t-10 72q0 75 27.5 134.5t74 96.5t105 56t123.5 19q89 0 171.5 -29t143.5 -84z
M403 -473h-153l74 358h174z" />
    <glyph glyph-name="uni021A" unicode="&#x21a;" horiz-adv-x="999" 
d="M958 1257h-360v-1257h-197v1257h-360v177h917v-177zM483 -473h-153l73 358h175z" />
    <glyph glyph-name="uni021B" unicode="&#x21b;" horiz-adv-x="708" 
d="M655 860h-286v-463q0 -49 2 -80q5 -86 37.5 -129t105.5 -43q55 0 115 29l51 -149q-85 -45 -191 -45q-203 0 -274 159q-33 75 -33 213v508h-137v164h137v246h187v-246h286v-164zM365 -473h-154l74 358h174z" />
    <glyph glyph-name="dotlessj" unicode="&#x237;" horiz-adv-x="546" 
d="M375 1024v-1114q0 -123 -29 -195q-31 -79 -98.5 -124.5t-173.5 -45.5q-117 0 -197 45l53 152q56 -29 115 -29q39 0 66 12.5t42 31.5t23 52t10 62.5t2 75.5v1077h187z" />
    <glyph glyph-name="apostrophe" unicode="&#x2bc;" horiz-adv-x="737" 
d="M315 1458h203l-119 -434h-163z" />
    <glyph glyph-name="circumflex" unicode="&#x2c6;" horiz-adv-x="737" 
d="M668 1233l-109 -74l-190 264l-191 -264l-112 74l213 321h180z" />
    <glyph glyph-name="caron" unicode="&#x2c7;" horiz-adv-x="737" 
d="M66 1487l110 74l191 -265l190 265l111 -74l-213 -322h-181z" />
    <glyph glyph-name="uni02C9" unicode="&#x2c9;" horiz-adv-x="737" 
d="M672 1245h-606v144h606v-144z" />
    <glyph glyph-name="breve" unicode="&#x2d8;" horiz-adv-x="737" 
d="M530 1485h132v-29q0 -123 -85 -208t-208 -85t-208 85t-85 208v29h135v-29q0 -68 45.5 -115t112.5 -47q65 0 113 47t48 115v29z" />
    <glyph glyph-name="dotaccent" unicode="&#x2d9;" horiz-adv-x="737" 
d="M463 1225h-187v209h187v-209z" />
    <glyph glyph-name="ring" unicode="&#x2da;" horiz-adv-x="737" 
d="M178 1378q0 78 56.5 134.5t134.5 56.5t134 -56.5t56 -134.5t-56 -134t-134 -56t-134.5 56t-56.5 134zM279 1378q0 -37 26.5 -63.5t63.5 -26.5t63.5 26.5t26.5 63.5t-26.5 63.5t-63.5 26.5t-63.5 -26.5t-26.5 -63.5z" />
    <glyph glyph-name="ogonek" unicode="&#x2db;" horiz-adv-x="737" 
d="M330 25l141 -15l8 -10q-106 -32 -158.5 -94t-52.5 -131q0 -42 22.5 -66t63.5 -24q45 0 90 28l66 -104q-70 -64 -182 -64q-93 0 -160.5 54t-67.5 149t60 165t170 112z" />
    <glyph glyph-name="tilde" unicode="&#x2dc;" horiz-adv-x="737" 
d="M719 1434q4 -24 4 -48q0 -88 -56 -141t-145 -53q-50 0 -96.5 20.5t-76.5 45t-65.5 45t-64.5 20.5q-28 0 -47 -16t-20 -45q0 -15 2 -21l-134 -14q-4 24 -4 47q0 88 56 141t145 53q48 0 94 -20.5t76.5 -45t67 -45t65.5 -20.5q28 0 47.5 16.5t20.5 45.5q0 14 -2 20z" />
    <glyph glyph-name="hungarumlaut" unicode="&#x2dd;" horiz-adv-x="737" 
d="M795 1487l-277 -330l-115 88l256 346zM481 1518l-286 -340l-113 82l262 364z" />
    <glyph glyph-name="uni0394" unicode="&#x394;" 
d="M1106 0h-1088l453 1167h188zM834 166l-275 754h-4l-276 -754h555z" />
    <glyph glyph-name="uni03A9" unicode="&#x3a9;" horiz-adv-x="1626" 
d="M41 176h377q-157 110 -236.5 263.5t-79.5 320.5q0 107 29.5 209t89.5 190.5t143.5 155t199.5 105t249 38.5t249 -38.5t199.5 -105t143.5 -155t89.5 -190.5t29.5 -209q0 -167 -79.5 -320.5t-236.5 -263.5h377v-176h-651v193q121 41 208.5 131.5t129 201.5t41.5 230
q0 104 -29.5 196t-88.5 167t-157 119t-225 44t-225 -44t-157 -119t-88.5 -167t-29.5 -196q0 -119 41.5 -230t129 -201.5t208.5 -131.5v-193h-651v176z" />
    <glyph glyph-name="uni03BC" unicode="&#x3bc;" 
d="M831 0v168q-57 -91 -144 -142t-189 -51q-121 0 -203 45v-532h-186v1536h186v-512q0 -44 1 -73.5t6 -71.5t13.5 -70t26 -59t41.5 -49t60.5 -30t82.5 -12q87 0 167.5 54t137.5 143v680h187v-1024h-187z" />
    <glyph glyph-name="pi" unicode="&#x3c0;" 
d="M1100 860h-193v-500q0 -49 2 -69q3 -74 26 -112t73 -48l-78 -164q-186 48 -205 295q-4 50 -4 80v518h-350v-735q0 -50 -11 -125h-190q14 52 14 143v717h-123v164h1039v-164z" />
    <glyph glyph-name="Wgrave" unicode="&#x1e80;" horiz-adv-x="1814" 
d="M1004 1434l286 -1082h4l301 1082h209l-409 -1434h-197l-287 1092h-4l-311 -1092h-193l-393 1434h217l287 -1082h4l301 1082h185zM963 1516l-359 258l107 135l338 -283z" />
    <glyph glyph-name="wgrave" unicode="&#x1e81;" horiz-adv-x="1501" 
d="M858 1024l207 -788h6l209 788h188l-294 -1024h-201l-219 797h-4l-226 -797h-209l-282 1024h200l193 -788h4l227 788h201zM745 1159l-274 328l135 104l252 -346z" />
    <glyph glyph-name="Wacute" unicode="&#x1e82;" horiz-adv-x="1814" 
d="M1004 1434l286 -1082h4l301 1082h209l-409 -1434h-197l-287 1092h-4l-311 -1092h-193l-393 1434h217l287 -1082h4l301 1082h185zM1227 1774l-359 -258l-86 110l338 283z" />
    <glyph glyph-name="wacute" unicode="&#x1e83;" horiz-adv-x="1501" 
d="M858 1024l207 -788h6l209 788h188l-294 -1024h-201l-219 797h-4l-226 -797h-209l-282 1024h200l193 -788h4l227 788h201zM1038 1487l-274 -328l-113 86l252 346z" />
    <glyph glyph-name="Wdieresis" unicode="&#x1e84;" horiz-adv-x="1814" 
d="M1004 1434l286 -1082h4l301 1082h209l-409 -1434h-197l-287 1092h-4l-311 -1092h-193l-393 1434h217l287 -1082h4l301 1082h185zM739 1565h-209v227h209v-227zM1292 1565h-209v227h209v-227z" />
    <glyph glyph-name="wdieresis" unicode="&#x1e85;" horiz-adv-x="1501" 
d="M858 1024l207 -788h6l209 788h188l-294 -1024h-201l-219 797h-4l-226 -797h-209l-282 1024h200l193 -788h4l227 788h201zM645 1225h-190v209h190v-209zM1061 1225h-191v209h191v-209z" />
    <glyph glyph-name="Ygrave" unicode="&#x1ef2;" horiz-adv-x="1136" 
d="M664 0h-197v623l-457 811h244l319 -603h7l317 603h229l-462 -822v-612zM676 1516l-359 258l107 135l338 -283z" />
    <glyph glyph-name="ygrave" unicode="&#x1ef3;" horiz-adv-x="976" 
d="M12 1024h207l266 -776h4l273 776h203l-576 -1485l-164 64l162 428zM535 1159l-275 328l135 104l252 -346z" />
    <glyph glyph-name="thinspace" unicode="&#x2009;" horiz-adv-x="256" 
 />
    <glyph glyph-name="endash" unicode="&#x2013;" horiz-adv-x="1228" 
d="M1126 547h-1024v170h1024v-170z" />
    <glyph glyph-name="emdash" unicode="&#x2014;" horiz-adv-x="1843" 
d="M1741 547h-1639v170h1639v-170z" />
    <glyph glyph-name="quoteleft" unicode="&#x2018;" horiz-adv-x="559" 
d="M436 1434l-104 -512h-209l135 512h178z" />
    <glyph glyph-name="quoteright" unicode="&#x2019;" horiz-adv-x="559" 
d="M436 1434l-135 -512h-178l104 512h209z" />
    <glyph glyph-name="quotesinglbase" unicode="&#x201a;" horiz-adv-x="559" 
d="M436 238l-135 -512h-178l104 512h209z" />
    <glyph glyph-name="quotedblleft" unicode="&#x201c;" horiz-adv-x="1071" 
d="M907 1434l-104 -512h-209l135 512h178zM477 1434l-104 -512h-209l135 512h178z" />
    <glyph glyph-name="quotedblright" unicode="&#x201d;" horiz-adv-x="1071" 
d="M477 1434l-135 -512h-178l104 512h209zM907 1434l-135 -512h-178l104 512h209z" />
    <glyph glyph-name="quotedblbase" unicode="&#x201e;" horiz-adv-x="1071" 
d="M477 238l-135 -512h-178l104 512h209zM907 238l-135 -512h-178l104 512h209z" />
    <glyph glyph-name="dagger" unicode="&#x2020;" horiz-adv-x="843" 
d="M143 1083h74l143 -6l-8 258v99h140v-99l-9 -258l144 6h73v-135h-73l-144 6l9 -342v-329h-140v329l8 342l-143 -6h-74v135z" />
    <glyph glyph-name="daggerdbl" unicode="&#x2021;" horiz-adv-x="843" 
d="M143 864h74l141 -6l-2 47v105l2 90l-141 -4h-74v135h74l141 -6l-6 135v74h140v-74l-7 -135l142 6h73v-135h-73l-142 4l2 -90v-105l-2 -47l142 6h73v-135h-73l-142 4l7 -158v-292h-140v292l6 158l-141 -4h-74v135z" />
    <glyph glyph-name="bullet" unicode="&#x2022;" horiz-adv-x="651" 
d="M72 592q0 106 74 180t180 74t180 -74t74 -180t-74 -180t-180 -74t-180 74t-74 180z" />
    <glyph glyph-name="ellipsis" unicode="&#x2026;" horiz-adv-x="1536" 
d="M362 0h-215v238h215v-238zM1386 0h-215v238h215v-238zM874 0h-215v238h215v-238z" />
    <glyph glyph-name="perthousand" unicode="&#x2030;" horiz-adv-x="2531" 
d="M2087 641q136 0 231 -95.5t95 -232.5q0 -135 -95 -230t-231 -95t-232 95t-96 230q0 137 95.5 232.5t232.5 95.5zM2089 496q-75 0 -125.5 -52t-50.5 -129q0 -78 50.5 -130t125.5 -52q72 0 121 52t49 130q0 77 -49 129t-121 52zM446 1446q136 0 231 -95.5t95 -232.5
q0 -135 -95 -230t-231 -95t-231.5 95t-95.5 230q0 137 95.5 232.5t231.5 95.5zM449 1300q-75 0 -126 -52t-51 -128q0 -78 51 -130t126 -52q72 0 120.5 52t48.5 130q0 77 -48.5 128.5t-120.5 51.5zM1296 641q136 0 231 -95.5t95 -232.5q0 -135 -95 -230t-231 -95t-231.5 95
t-95.5 230q0 137 95.5 232.5t231.5 95.5zM1298 496q-75 0 -125.5 -52t-50.5 -129q0 -78 50.5 -130t125.5 -52q72 0 121 52t49 130q0 77 -49 129t-121 52zM1327 1458l113 -82l-1018 -1401l-113 82z" />
    <glyph glyph-name="guilsinglleft" unicode="&#x2039;" horiz-adv-x="632" 
d="M123 680l297 307l90 -180l-260 -250l260 -248l-90 -180l-297 307v244z" />
    <glyph glyph-name="guilsinglright" unicode="&#x203a;" horiz-adv-x="632" 
d="M213 985l297 -307v-244l-297 -307l-90 180l260 248l-260 250z" />
    <glyph glyph-name="fraction" unicode="&#x2044;" horiz-adv-x="270" 
d="M588 1458l112 -82l-1017 -1401l-113 82z" />
    <glyph glyph-name="zerosuperior" unicode="&#x2070;" horiz-adv-x="692" 
d="M346 870q72 0 110 73.5t38 219.5q0 147 -38 221t-110 74q-147 0 -147 -295q0 -293 147 -293zM346 1587q142 0 220.5 -112.5t78.5 -311.5q0 -198 -78.5 -310t-220.5 -112t-220.5 112t-78.5 310q0 199 78.5 311.5t220.5 112.5z" />
    <glyph glyph-name="foursuperior" unicode="&#x2074;" horiz-adv-x="684" 
d="M41 1100q36 46 85.5 112t86 116.5t95.5 131.5t85 117h150v-490h119v-124h-119v-211h-146v211h-356v137zM397 1087v291q-128 -202 -200 -291h200z" />
    <glyph glyph-name="fivesuperior" unicode="&#x2075;" horiz-adv-x="645" 
d="M551 1450h-295q-2 -79 -14 -197q50 21 106 21q102 0 173 -73.5t71 -176.5q0 -120 -81 -201.5t-202 -81.5q-85 0 -158.5 41.5t-109.5 112.5l123 63q41 -88 137 -88q63 0 101 43t38 103q0 58 -38.5 95.5t-98.5 37.5q-72 0 -115 -51l-100 65q19 189 27 414h436v-127z" />
    <glyph glyph-name="sixsuperior" unicode="&#x2076;" horiz-adv-x="679" 
d="M469 1622l53 -121q-115 -50 -191 -116.5t-108 -163.5q65 59 158 59q109 0 180.5 -76t71.5 -186q0 -117 -78 -197t-197 -80q-141 0 -226 97t-85 235q0 188 119 331.5t303 217.5zM348 1155q-45 0 -85.5 -23t-63.5 -61q0 -88 36 -146.5t113 -58.5q61 0 97 43t36 105
q0 64 -37 102.5t-96 38.5z" />
    <glyph glyph-name="sevensuperior" unicode="&#x2077;" horiz-adv-x="571" 
d="M549 1577v-98q-197 -416 -336 -752l-133 59q82 195 301 662h-369v129h537z" />
    <glyph glyph-name="eightsuperior" unicode="&#x2078;" horiz-adv-x="706" 
d="M616 1362q0 -113 -102 -176q125 -72 125 -203q0 -103 -79.5 -172.5t-205.5 -69.5t-206 69.5t-80 172.5q0 131 125 203q-101 65 -101 176q0 95 73.5 160t188.5 65t188.5 -65t73.5 -160zM354 1116q-56 0 -95.5 -36t-39.5 -89q0 -52 39.5 -87.5t95.5 -35.5t94.5 35.5
t38.5 87.5q0 54 -38.5 89.5t-94.5 35.5zM354 1460q-48 0 -81 -30.5t-33 -75.5q0 -46 33.5 -78.5t80.5 -32.5t81 32.5t34 78.5q0 45 -33.5 75.5t-81.5 30.5z" />
    <glyph glyph-name="ninesuperior" unicode="&#x2079;" horiz-adv-x="679" 
d="M211 707l-53 120q241 104 299 281q-65 -59 -158 -59q-109 0 -180.5 76t-71.5 186q0 117 78 196.5t197 79.5q141 0 226 -97t85 -235q0 -188 -119 -331t-303 -217zM332 1174q46 0 86 22.5t63 60.5q0 88 -36 146.5t-113 58.5q-61 0 -97 -42.5t-36 -104.5q0 -64 37 -102.5
t96 -38.5z" />
    <glyph glyph-name="plussuperior" unicode="&#x207a;" horiz-adv-x="684" 
d="M279 825v246h-244v125h244v246h124v-246h246v-125h-246v-246h-124z" />
    <glyph glyph-name="minussuperior" unicode="&#x207b;" horiz-adv-x="698" 
d="M63 1196h572v-125h-572v125z" />
    <glyph glyph-name="equalsuperior" unicode="&#x207c;" horiz-adv-x="698" 
d="M63 1307h572v-123h-572v123zM63 1085h572v-124h-572v124z" />
    <glyph glyph-name="parenleftsuperior" unicode="&#x207d;" horiz-adv-x="444" 
d="M453 639l-52 -102q-342 211 -342 591q0 377 342 588l54 -102q-112 -72 -182 -192.5t-70 -293.5q0 -330 250 -489z" />
    <glyph glyph-name="parenrightsuperior" unicode="&#x207e;" horiz-adv-x="444" 
d="M41 537l-51 102q252 161 252 489q0 172 -70.5 292.5t-181.5 193.5l53 102q342 -211 342 -588q0 -382 -344 -591z" />
    <glyph glyph-name="Euro" unicode="&#x20ac;" horiz-adv-x="1331" 
d="M20 766v152h185q66 214 240 340t421 126q101 0 203.5 -27.5t181.5 -76.5l-88 -152q-59 37 -139.5 58.5t-157.5 21.5q-166 0 -284 -75.5t-174 -214.5h557v-152h-596q-4 -58 -4 -86q0 -55 4 -82h596v-152h-559q55 -139 173 -216.5t287 -77.5q83 0 168 24t152 70l102 -144
q-88 -60 -199 -93.5t-223 -33.5q-247 0 -422.5 126t-240.5 345h-183v152h154q-4 54 -4 82t4 86h-154z" />
    <glyph glyph-name="afii61352" unicode="&#x2116;" horiz-adv-x="2312" 
d="M1352 0h-174l-787 1069v-1069h-196v1434h172l788 -1069v1069h197v-1434zM1892 1458q154 0 256.5 -104.5t102.5 -259.5q0 -154 -102.5 -259.5t-256.5 -105.5t-256 105.5t-102 259.5q0 155 102 259.5t256 104.5zM2099 1094q0 98 -58.5 164.5t-148.5 66.5t-148 -66.5
t-58 -164.5t58 -165t148 -67t148.5 67t58.5 165z" />
    <glyph glyph-name="trademark" unicode="&#x2122;" horiz-adv-x="2004" 
d="M717 1298h-201v-696h-151v696h-201v136h553v-136zM1690 1262l-269 -660h-143l-264 658v-658h-152v832h240l248 -639l252 639h239v-832h-151v660z" />
    <glyph glyph-name="Omega" unicode="&#x2126;" horiz-adv-x="1626" 
d="M41 176h377q-157 110 -236.5 263.5t-79.5 320.5q0 107 29.5 209t89.5 190.5t143.5 155t199.5 105t249 38.5t249 -38.5t199.5 -105t143.5 -155t89.5 -190.5t29.5 -209q0 -167 -79.5 -320.5t-236.5 -263.5h377v-176h-651v193q121 41 208.5 131.5t129 201.5t41.5 230
q0 104 -29.5 196t-88.5 167t-157 119t-225 44t-225 -44t-157 -119t-88.5 -167t-29.5 -196q0 -119 41.5 -230t129 -201.5t208.5 -131.5v-193h-651v176z" />
    <glyph glyph-name="onethird" unicode="&#x2153;" horiz-adv-x="1576" 
d="M1182 1458l112 -82l-1018 -1401l-112 82zM459 692h-142v580q-74 -34 -108 -47v127q14 8 71.5 36.5t86.5 45.5h92v-742zM1059 311v123q61 0 92 8q39 11 61.5 36t22.5 61q0 38 -28.5 63t-76.5 25q-36 0 -62.5 -20.5t-35.5 -57.5l-121 53q24 68 85 107t137 39q103 0 174 -55
t71 -144q0 -47 -26 -89.5t-66 -66.5q57 -20 92 -69.5t35 -112.5q0 -102 -76 -163.5t-186 -61.5q-80 0 -148 37t-102 108l119 55q39 -82 131 -82q49 0 83 27.5t34 77.5q0 51 -40 79.5t-104 28.5q-40 0 -65 -6z" />
    <glyph glyph-name="twothirds" unicode="&#x2154;" horiz-adv-x="1757" 
d="M1362 1458l113 -82l-1018 -1401l-113 82zM180 807q144 147 256 301q58 78 58 137q0 37 -27 59.5t-68 22.5q-42 0 -68 -28.5t-26 -77.5l-141 24q6 90 77 146.5t165 56.5t164.5 -56t70.5 -147q0 -90 -80 -203q-66 -93 -190 -225h301v-119h-492v109zM1239 311v123q61 0 92 8
q39 11 61.5 36t22.5 61q0 38 -28 63t-76 25q-36 0 -63 -20.5t-36 -57.5l-120 53q24 68 84.5 107t136.5 39q103 0 174.5 -55.5t71.5 -143.5q0 -46 -26 -89t-67 -67q57 -20 92 -69.5t35 -112.5q0 -102 -76 -163.5t-186 -61.5q-80 0 -148 37t-102 108l119 55q39 -82 131 -82
q49 0 83 27.5t34 77.5q0 51 -40 79.5t-103 28.5q-41 0 -66 -6z" />
    <glyph glyph-name="oneeighth" unicode="&#x215b;" horiz-adv-x="1605" 
d="M1182 1458l112 -82l-1018 -1401l-112 82zM459 692h-142v580q-74 -34 -108 -47v127q14 8 71.5 36.5t86.5 45.5h92v-742zM1331 385q56 -30 83.5 -73.5t27.5 -108.5q0 -92 -73.5 -154.5t-186.5 -62.5q-115 0 -187.5 62.5t-72.5 154.5q0 119 110 182q-92 59 -92 158
q0 86 68 145.5t174 59.5q105 0 173 -59.5t68 -145.5q0 -99 -92 -158zM1081 535q0 -40 29.5 -68.5t71.5 -28.5q41 0 70.5 28.5t29.5 68.5q0 41 -29 68.5t-71 27.5q-43 0 -72 -27.5t-29 -68.5zM1065 211q0 -46 33 -77.5t84 -31.5q50 0 83 31.5t33 77.5t-33 78.5t-83 32.5
t-83.5 -32.5t-33.5 -78.5z" />
    <glyph glyph-name="threeeighths" unicode="&#x215c;" horiz-adv-x="1742" 
d="M1319 1458l113 -82l-1018 -1401l-113 82zM322 1012v123q61 0 92 8q84 23 84 96q0 38 -28.5 63t-76.5 25q-36 0 -62.5 -20.5t-35.5 -57.5l-121 54q24 68 84.5 106.5t136.5 38.5q103 0 174.5 -55.5t71.5 -143.5q0 -46 -25.5 -88.5t-66.5 -66.5q57 -20 92 -70t35 -113
q0 -102 -76 -163.5t-186 -61.5q-80 0 -148 37t-102 108l119 56q39 -82 131 -82q49 0 82.5 27t33.5 77q0 51 -40 80t-103 29q-40 0 -65 -6zM1468 385q56 -30 83.5 -73.5t27.5 -108.5q0 -92 -73.5 -154.5t-186.5 -62.5q-115 0 -187.5 62.5t-72.5 154.5q0 119 110 182
q-92 59 -92 158q0 86 68 145.5t174 59.5t174 -59.5t68 -145.5q0 -99 -93 -158zM1219 535q0 -40 29 -68.5t71 -28.5q41 0 70.5 28.5t29.5 68.5q0 41 -29 68.5t-71 27.5q-43 0 -71.5 -27.5t-28.5 -68.5zM1202 211q0 -46 33 -77.5t84 -31.5t84 31.5t33 77.5t-33.5 78.5
t-83.5 32.5t-83.5 -32.5t-33.5 -78.5z" />
    <glyph glyph-name="fiveeighths" unicode="&#x215d;" horiz-adv-x="1716" 
d="M1292 1458l113 -82l-1018 -1401l-113 82zM635 1315h-266q-1 -34 -6.5 -97.5t-6.5 -72.5q37 18 95 18q92 0 155.5 -66t63.5 -159q0 -108 -74.5 -180t-183.5 -72q-80 0 -146.5 36.5t-101.5 102.5l119 60q35 -80 123 -80q55 0 86.5 36t31.5 89q0 51 -33 84t-85 33
q-63 0 -103 -48l-92 64q18 187 25 371h399v-119zM1442 385q56 -30 83 -73t27 -109q0 -92 -73.5 -154.5t-186.5 -62.5q-115 0 -187.5 62.5t-72.5 154.5q0 118 111 182q-92 59 -92 158q0 86 68 145.5t173 59.5q106 0 174 -59.5t68 -145.5q0 -99 -92 -158zM1192 535
q0 -40 29 -68.5t71 -28.5q41 0 71 28.5t30 68.5q0 41 -29.5 68.5t-71.5 27.5q-43 0 -71.5 -27.5t-28.5 -68.5zM1176 211q0 -46 33 -77.5t83 -31.5q51 0 84 31.5t33 77.5t-33.5 78.5t-83.5 32.5t-83 -32.5t-33 -78.5z" />
    <glyph glyph-name="seveneighths" unicode="&#x215e;" horiz-adv-x="1605" 
d="M1182 1458l112 -82l-1018 -1401l-112 82zM680 1343q-169 -350 -305 -677l-129 59q94 217 278 588h-338v121h494v-91zM1331 385q56 -30 83.5 -73.5t27.5 -108.5q0 -92 -73.5 -154.5t-186.5 -62.5q-115 0 -187.5 62.5t-72.5 154.5q0 119 110 182q-92 59 -92 158
q0 86 68 145.5t174 59.5q105 0 173 -59.5t68 -145.5q0 -99 -92 -158zM1081 535q0 -40 29.5 -68.5t71.5 -28.5q41 0 70.5 28.5t29.5 68.5q0 41 -29 68.5t-71 27.5q-43 0 -72 -27.5t-29 -68.5zM1065 211q0 -46 33 -77.5t84 -31.5q50 0 83 31.5t33 77.5t-33 78.5t-83 32.5
t-83.5 -32.5t-33.5 -78.5z" />
    <glyph glyph-name="uni2192" unicode="&#x2192;" horiz-adv-x="1939" 
d="M1196 -57l-104 106l424 418h-1373v147h1373l-424 418l104 105l600 -596z" />
    <glyph glyph-name="uni2194" unicode="&#x2194;" horiz-adv-x="2287" 
d="M848 1032l-426 -418h1442l-424 418l104 105l600 -596l-600 -598l-104 106l424 418h-1442l426 -418l-105 -106l-600 598l600 596z" />
    <glyph glyph-name="uni21D2" unicode="&#x21d2;" horiz-adv-x="1939" 
d="M1591 541l-75 73h-1373v148h1223l-274 270l104 105l600 -596l-600 -598l-104 106l274 270h-1223v148h1373z" />
    <glyph glyph-name="uni21D4" unicode="&#x21d4;" horiz-adv-x="2514" 
d="M848 1032l-277 -270h1371l-275 270l105 105l600 -596l-600 -598l-105 106l275 270h-1369l275 -270l-105 -106l-600 598l600 596zM2167 541l-76 73h-1669l-74 -73l74 -74h1669z" />
    <glyph glyph-name="uni21FD" unicode="&#x21fd;" horiz-adv-x="1941" 
d="M719 1110v-496h1079v-147h-1079v-498l-576 572zM344 541l229 -228v451z" />
    <glyph glyph-name="uni21FE" unicode="&#x21fe;" horiz-adv-x="1939" 
d="M1223 -31v498h-1080v147h1080v496l573 -569zM1366 313l229 228l-229 223v-451z" />
    <glyph glyph-name="uni21FF" unicode="&#x21ff;" horiz-adv-x="2514" 
d="M719 1110v-496h1079v496l574 -569l-574 -572v498h-1079v-498l-576 572zM344 541l229 -228v451zM1942 313l229 228l-229 223v-451z" />
    <glyph glyph-name="uni2200" unicode="&#x2200;" horiz-adv-x="1337" 
d="M31 1434h227l113 -306h610l111 306h215l-555 -1434h-172zM676 299l239 653h-481l240 -653h2z" />
    <glyph glyph-name="partialdiff" unicode="&#x2202;" 
d="M66 1432l65 159q236 -98 409.5 -205t301.5 -239.5t192 -293t64 -351.5q0 -109 -36.5 -204.5t-104 -167.5t-170.5 -113.5t-228 -41.5q-151 0 -271.5 76.5t-184.5 199t-64 263.5q0 139 65 256t182 185.5t261 68.5q93 0 194 -33q-107 133 -274 237.5t-401 203.5zM850 807
q-99 47 -213 47q-185 0 -296.5 -84.5t-111.5 -251.5q0 -152 97.5 -261.5t246.5 -109.5q150 0 242 101.5t92 243.5q0 173 -57 315z" />
    <glyph glyph-name="uni2203" unicode="&#x2203;" horiz-adv-x="1187" 
d="M133 1434h860v-1434h-860v176h664v430h-664v176h664v475h-664v177z" />
    <glyph glyph-name="uni2204" unicode="&#x2204;" horiz-adv-x="1187" 
d="M133 1434h496l49 168l156 -41l-37 -127h196v-1434h-608l-47 -168l-156 41l37 127h-86v176h135l123 430h-258v176h309l136 475h-445v177zM797 606h-238l-123 -430h361v430zM797 1257h-52l-135 -475h187v475z" />
    <glyph glyph-name="Delta" unicode="&#x2206;" horiz-adv-x="1296" 
d="M1286 0h-1276l555 1434h172zM993 176l-350 959h-2l-352 -959h704z" />
    <glyph glyph-name="uni2208" unicode="&#x2208;" 
d="M995 0h-243q-170 0 -297 37.5t-203 107.5t-113 161.5t-37 205.5t37 205.5t113 161.5t203 107.5t297 37.5h243v-164h-290q-181 0 -282 -73.5t-126 -192.5h698v-164h-698q25 -121 125.5 -193.5t282.5 -72.5h290v-164z" />
    <glyph glyph-name="uni2209" unicode="&#x2209;" 
d="M752 1294l155 -41l-65 -229h153v-164h-200l-76 -266h276v-164h-323l-74 -260q50 -6 107 -6h290v-164h-243q-116 0 -199 14l-82 -284l-156 41l82 286q-295 120 -295 455q0 221 139.5 357t432.5 153zM551 594l74 262q-144 -16 -225 -86.5t-103 -175.5h254zM504 430h-207
q27 -140 147 -207z" />
    <glyph glyph-name="product" unicode="&#x220f;" 
d="M1112 991h-184v-991h-197v991h-336v-991h-196v991h-185v176h1098v-176z" />
    <glyph glyph-name="summation" unicode="&#x2211;" 
d="M811 748l-446 -572h725v-176h-1049v104l522 637l-500 586v107h975v-177h-661z" />
    <glyph glyph-name="minus" unicode="&#x2212;" 
d="M111 717h903v-160h-903v160z" />
    <glyph glyph-name="uni2215" unicode="&#x2215;" horiz-adv-x="743" 
d="M743 1505l-598 -1614l-145 56l598 1614z" />
    <glyph glyph-name="uni2219" unicode="&#x2219;" 
d="M670 518h-215v238h215v-238z" />
    <glyph glyph-name="radical" unicode="&#x221a;" 
d="M1126 1536l-495 -1536h-195l-260 858h-176v166h336l203 -780h4l383 1292h200z" />
    <glyph glyph-name="infinity" unicode="&#x221e;" horiz-adv-x="1593" 
d="M1511 504q0 -138 -100 -237t-242 -99q-94 0 -177.5 51.5t-194.5 169.5q-113 -118 -197 -169.5t-176 -51.5q-144 0 -243 99.5t-99 240.5q0 138 100 237t242 99q92 0 176 -51.5t197 -169.5q111 118 194.5 169.5t177.5 51.5q144 0 243 -99.5t99 -240.5zM1169 326
q70 0 117 53.5t47 126.5q0 71 -47.5 125.5t-116.5 54.5q-97 0 -266 -180q166 -180 266 -180zM424 686q-70 0 -117 -53.5t-47 -126.5q0 -71 47.5 -125.5t116.5 -54.5q97 0 266 180q-166 180 -266 180z" />
    <glyph glyph-name="uni2229" unicode="&#x2229;" 
d="M102 0v399q0 340 116 495t345 155t345 -155t116 -495v-399h-164v469q0 218 -76.5 317t-220.5 99t-220.5 -99t-76.5 -317v-469h-164z" />
    <glyph glyph-name="uni222A" unicode="&#x222a;" 
d="M1024 1024v-399q0 -340 -116 -495t-345 -155t-345 155t-116 495v399h164v-469q0 -218 76.5 -317t220.5 -99t220.5 99t76.5 317v469h164z" />
    <glyph glyph-name="integral" unicode="&#x222b;" 
d="M1010 1516l-54 -156q-63 29 -127 29q-90 0 -127 -37q-17 -17 -25.5 -50t-10 -57t-4.5 -88l-54 -1233q-9 -205 -88 -293q-76 -84 -223 -84q-76 0 -182 45l53 156q63 -29 106 -29q42 0 64.5 8.5t42.5 28.5q17 18 25.5 49.5t10.5 58t5 87.5l53 1233q9 205 88 293
q76 84 244 84q97 0 203 -45z" />
    <glyph glyph-name="uni2234" unicode="&#x2234;" 
d="M350 0h-215v238h215v-238zM993 0h-215v238h215v-238zM672 582h-215v237h215v-237z" />
    <glyph glyph-name="approxequal" unicode="&#x2248;" 
d="M897 907l117 -78q-76 -159 -271 -159q-62 0 -126.5 23.5t-125.5 47t-112 23.5q-105 0 -152 -76l-116 78q76 160 270 160q49 0 101 -15t89 -32.5t85 -32.5t89 -15q105 0 152 76zM897 586l117 -78q-76 -160 -271 -160q-62 0 -126.5 23.5t-125.5 47t-112 23.5
q-106 0 -152 -75l-116 77q76 160 270 160q62 0 126.5 -23.5t125.5 -47t112 -23.5q105 0 152 76z" />
    <glyph glyph-name="notequal" unicode="&#x2260;" 
d="M111 557h292l107 160h-399v160h507l216 319l127 -90l-156 -229h209v-160h-318l-106 -160h424v-160h-533l-215 -319l-125 90l154 229h-184v160z" />
    <glyph glyph-name="lessequal" unicode="&#x2264;" 
d="M49 700v160l1026 410v-160l-827 -330l827 -329v-160zM49 160h1026v-160h-1026v160z" />
    <glyph glyph-name="greaterequal" unicode="&#x2265;" 
d="M1075 860v-160l-1026 -409v160l828 329l-828 330v160zM49 160h1026v-160h-1026v160z" />
    <glyph glyph-name="uni2282" unicode="&#x2282;" 
d="M995 0h-243q-170 0 -297 37.5t-203 107.5t-113 161.5t-37 205.5t37 205.5t113 161.5t203 107.5t297 37.5h243v-164h-290q-109 0 -191.5 -28t-130 -77.5t-71 -110t-23.5 -132.5t23.5 -132.5t71 -110t130 -77.5t191.5 -28h290v-164z" />
    <glyph glyph-name="uni2283" unicode="&#x2283;" 
d="M375 0h-244v164h291q109 0 191.5 28t130 77.5t71 110t23.5 132.5t-23.5 132.5t-71 110t-130 77.5t-191.5 28h-291v164h244q137 0 246 -25t183.5 -69.5t124.5 -109t72.5 -141t22.5 -167.5t-22.5 -167.5t-72.5 -141t-124.5 -109t-183.5 -69.5t-246 -25z" />
    <glyph glyph-name="uni2284" unicode="&#x2284;" 
d="M752 1294l155 -41l-65 -229h153v-164h-200l-197 -690q50 -6 107 -6h290v-164h-243q-116 0 -199 14l-82 -284l-156 41l82 286q-295 120 -295 455q0 221 139.5 357t432.5 153zM444 223l181 633q-171 -19 -253.5 -114t-82.5 -230q0 -201 155 -289z" />
    <glyph glyph-name="uni2285" unicode="&#x2285;" 
d="M655 1294l156 -41l-84 -286q152 -61 224.5 -178t72.5 -277q0 -222 -139 -357.5t-432 -152.5l-78 -272l-156 41l66 229h-154v164h201l196 688q-44 8 -106 8h-291v164h244q104 0 198 -16zM680 801l-180 -633q173 18 255.5 112.5t82.5 231.5q0 92 -39 168t-119 121z" />
    <glyph glyph-name="uni2286" unicode="&#x2286;" 
d="M995 328h-243q-170 0 -297 37.5t-203 107.5t-113 161.5t-37 205.5t37 205.5t113 161.5t203 107.5t297 37.5h243v-164h-290q-109 0 -191.5 -28t-130 -77.5t-71 -110t-23.5 -132.5t23.5 -132.5t71 -110t130 -77.5t191.5 -28h290v-164zM127 0v164h868v-164h-868z" />
    <glyph glyph-name="uni2287" unicode="&#x2287;" 
d="M375 328h-244v164h291q109 0 191.5 28t130 77.5t71 110t23.5 132.5t-23.5 132.5t-71 110t-130 77.5t-191.5 28h-291v164h244q137 0 246 -25t183.5 -69.5t124.5 -109t72.5 -141t22.5 -167.5t-22.5 -167.5t-72.5 -141t-124.5 -109t-183.5 -69.5t-246 -25zM131 0v164h868
v-164h-868z" />
    <glyph glyph-name="uni22C4" unicode="&#x22c4;" 
d="M780 512l-217 348l-217 -348l217 -348zM563 1137l391 -625l-391 -625l-393 625z" />
    <glyph glyph-name="triangle" unicode="&#x25b3;" horiz-adv-x="815" 
d="M754 586l-631 -359v713z" />
    <glyph glyph-name="lozenge" unicode="&#x25ca;" 
d="M76 717l401 717h174l402 -717l-402 -717h-174zM879 717l-316 561l-313 -561l313 -561z" />
    <glyph glyph-name="circle" unicode="&#x25cb;" horiz-adv-x="749" 
d="M72 592q0 126 88.5 214.5t214.5 88.5t214.5 -88.5t88.5 -214.5t-88.5 -214.5t-214.5 -88.5t-214.5 88.5t-88.5 214.5z" />
    <glyph glyph-name="uni25FB" unicode="&#x25fb;" 
d="M932 70h-737v737h737v-737zM342 659v-442h442v442h-442z" />
    <glyph glyph-name="commainferior" unicode="&#xf6e1;" horiz-adv-x="339" 
d="M252 -201l-86 -323h-139l65 323h160z" />
    <glyph glyph-name="commasuperior" unicode="&#xf6e2;" horiz-adv-x="339" 
d="M252 915l-86 -323h-139l65 323h160z" />
    <glyph glyph-name="hypheninferior" unicode="&#xf6e5;" horiz-adv-x="565" 
d="M442 -78h-319v127h319v-127z" />
    <glyph glyph-name="hyphensuperior" unicode="&#xf6e6;" horiz-adv-x="565" 
d="M442 1038h-319v127h319v-127z" />
    <glyph glyph-name="periodinferior" unicode="&#xf6e7;" horiz-adv-x="327" 
d="M244 -365h-160v164h160v-164z" />
    <glyph glyph-name="periodsuperior" unicode="&#xf6e8;" horiz-adv-x="327" 
d="M244 752h-160v163h160v-163z" />
    <glyph glyph-name="s_t" unicode="&#xfb06;" horiz-adv-x="1632" 
d="M782 936l-110 -119q-36 32 -94 54t-109 22q-70 0 -112 -37.5t-42 -97.5q0 -23 12.5 -43t27.5 -34t46.5 -30.5t51 -24.5t59.5 -24q48 -19 83 -34.5t79 -43.5t71 -57.5t46.5 -74t19.5 -95.5q0 -83 -30.5 -146.5t-83 -101t-117.5 -56t-140 -18.5q-106 0 -199.5 41.5
t-152.5 118.5l131 105q103 -109 223 -109q80 0 132.5 41t52.5 117q0 19 -6.5 36t-23.5 32t-29.5 24.5t-42.5 23.5t-44 20t-51 21q-41 16 -60 24t-56.5 26t-56.5 31.5t-46 37.5t-40.5 48t-23.5 58t-10 72q0 75 27.5 134.5t74 96.5t105 56t123.5 19q89 0 171.5 -29t143.5 -84z
M1579 860h-287v-463q0 -49 2 -80q5 -86 38 -129t106 -43q54 0 114 29l52 -149q-85 -45 -191 -45q-203 0 -274 159q-33 75 -33 213v508h-137v164h137v246h186v-246h287v-164z" />
    <glyph glyph-name="M.salt" horiz-adv-x="1710" 
d="M918 326h-127l-404 821v-1147h-192v1434h258l401 -830h2l404 830h256v-1434h-193v1147z" />
    <glyph glyph-name="trademark.salt" horiz-adv-x="1804" 
d="M862 1434h182l207 -439l211 439h178v-832h-151v555l-193 -387h-90l-192 387v-555h-152v832zM717 1298h-201v-696h-151v696h-201v136h553v-136z" />
    <glyph glyph-name="hyphen.case" horiz-adv-x="942" 
d="M737 600h-532v168h532v-168z" />
    <glyph glyph-name="germandbls.cap" horiz-adv-x="2494" 
d="M2185 1167q-53 49 -136 82t-165 33q-116 0 -186 -52.5t-70 -146.5q0 -23 5.5 -43t20 -38t26.5 -31t39 -28t43 -23.5t52.5 -22.5t53 -20t59.5 -21q53 -19 89 -33t85 -37.5t82.5 -46.5t70 -56.5t58 -70t35.5 -85.5t14 -105q0 -93 -31.5 -170t-82.5 -127t-117.5 -85
t-135 -50t-136.5 -15q-157 0 -281 51.5t-238 163.5l140 132q98 -97 184 -133.5t197 -36.5q122 0 207 62t85 185q0 33 -9.5 62t-24 50.5t-40.5 42.5t-49 35t-61 30.5t-64.5 26t-70.5 24.5q-68 24 -118 45.5t-107 56.5t-93.5 73.5t-60.5 95t-24 122.5q0 98 34.5 175t94.5 124
t137 71.5t166 24.5q250 0 444 -147zM938 1167q-53 49 -136 82t-165 33q-116 0 -186 -52.5t-70 -146.5q0 -23 5.5 -43t20 -38t26.5 -31t39 -28t43 -23.5t52.5 -22.5t53 -20t59.5 -21q53 -19 89 -33t85 -37.5t82.5 -46.5t70 -56.5t58 -70t35.5 -85.5t14 -105q0 -93 -31.5 -170
t-82.5 -127t-118 -85t-135.5 -50t-136.5 -15q-157 0 -280.5 51.5t-237.5 163.5l139 132q98 -97 184 -133.5t197 -36.5q122 0 207.5 62t85.5 185q0 33 -9.5 62t-24 50.5t-40.5 42.5t-49 35t-61 30.5t-64.5 26t-70.5 24.5q-68 24 -118 45.5t-107.5 56.5t-93.5 73.5t-60.5 95
t-24.5 122.5q0 98 34.5 175t94.5 124t137 71.5t166 24.5q252 0 445 -147z" />
    <glyph glyph-name="idotaccent" horiz-adv-x="530" 
d="M358 0h-186v1024h186v-1024zM358 1225h-186v209h186v-209z" />
    <glyph glyph-name="s_p" horiz-adv-x="2205" 
d="M782 936l-110 -119q-36 32 -94 54t-109 22q-70 0 -112 -37.5t-42 -97.5q0 -23 12.5 -43t27.5 -34t46.5 -30.5t51 -24.5t59.5 -24q48 -19 83 -34.5t79 -43.5t71 -57.5t46.5 -74t19.5 -95.5q0 -83 -30.5 -146.5t-83 -101t-117.5 -56t-140 -18.5q-106 0 -199.5 41.5
t-152.5 118.5l131 105q103 -109 223 -109q80 0 132.5 41t52.5 117q0 19 -6.5 36t-23.5 32t-29.5 24.5t-42.5 23.5t-44 20t-51 21q-41 16 -60 24t-56.5 26t-56.5 31.5t-46 37.5t-40.5 48t-23.5 58t-10 72q0 75 27.5 134.5t74 96.5t105 56t123.5 19q89 0 171.5 -29t143.5 -84z
M1096 1024h186v-137q54 77 142.5 119.5t183.5 42.5q145 0 262.5 -71.5t183.5 -195t66 -272.5q0 -101 -37 -197.5t-103 -171.5t-164 -120.5t-212 -45.5q-90 0 -175 36t-147 100v-623h-186v1536zM1282 682v-379q51 -73 133 -114.5t164 -41.5q86 0 154.5 32.5t110 85.5
t63.5 117t22 132q0 149 -96 256t-250 107q-90 0 -177.5 -52.5t-123.5 -142.5z" />
    <glyph glyph-name="c_t" horiz-adv-x="1712" 
d="M831 219l93 -143q-58 -47 -140.5 -74t-173.5 -27q-146 0 -265 66t-189 189.5t-70 281.5q0 147 71 270.5t194 195t270 71.5q157 0 288 -88l-88 -154q-93 70 -209 70q-138 0 -237 -106.5t-99 -258.5q0 -161 100 -263t238 -102q51 0 113.5 20.5t103.5 51.5zM1659 860h-287
v-463q0 -49 2 -80q5 -86 38 -129t106 -43q54 0 114 29l51 -149q-85 -45 -190 -45q-203 0 -274 159q-33 75 -33 213v508h-137v164h137v246h186v-246h287v-164z" />
    <glyph glyph-name="c_h" horiz-adv-x="2213" 
d="M831 219l93 -143q-58 -47 -140.5 -74t-173.5 -27q-146 0 -265 66t-189 189.5t-70 281.5q0 147 71 270.5t194 195t270 71.5q157 0 288 -88l-88 -154q-93 70 -209 70q-138 0 -237 -106.5t-99 -258.5q0 -161 100 -263t238 -102q51 0 113.5 20.5t103.5 51.5zM1331 1536v-680
q57 91 144.5 142t189.5 51q202 0 297 -129q92 -124 92 -388v-532h-186v512q0 95 -10 164t-43 119q-55 82 -179 82q-87 0 -167.5 -54t-137.5 -143v-680h-186v1536h186z" />
    <glyph glyph-name="c_k" horiz-adv-x="2025" 
d="M831 219l93 -143q-58 -47 -140.5 -74t-173.5 -27q-146 0 -265 66t-189 189.5t-70 281.5q0 147 71 270.5t194 195t270 71.5q157 0 288 -88l-88 -154q-93 70 -209 70q-138 0 -237 -106.5t-99 -258.5q0 -161 100 -263t238 -102q51 0 113.5 20.5t103.5 51.5zM2013 0h-227
l-293 459l-162 -189v-270h-186v1536h186v-1024l4 -2l414 514h229l-358 -418z" />
    <glyph glyph-name="T_h" horiz-adv-x="2240" 
d="M958 1257h-360v-1257h-197v1257h-360v177h917v-177zM1358 1536v-680q57 91 144.5 142t189.5 51q202 0 297 -129q92 -124 92 -388v-532h-187v512q0 95 -10 164t-43 119q-55 82 -178 82q-87 0 -167.5 -54t-137.5 -143v-680h-187v1536h187z" />
    <glyph glyph-name="a.sup" horiz-adv-x="696" 
d="M342 1141q48 0 119 -15v17q0 137 -135 137q-98 0 -195 -55l-41 110q128 64 262 64q130 0 192 -69t62 -195v-383h-129l-8 59q-63 -74 -178 -74q-95 0 -161.5 52t-66.5 145q0 57 24 98.5t65.5 64.5t88.5 33.5t101 10.5zM461 1032q-59 12 -96 12q-40 0 -73.5 -8.5t-59 -33
t-25.5 -62.5q0 -47 31 -70.5t77 -23.5q73 0 146 63v123z" />
    <glyph glyph-name="b.sup" horiz-adv-x="788" 
d="M434 737q-56 0 -109 22t-87 66l-7 -73h-133v921h146v-364q32 44 85 67t107 23q129 0 216 -96.5t87 -235.5q0 -134 -86.5 -232t-218.5 -98zM408 1270q-48 0 -93.5 -25.5t-70.5 -75.5v-223q60 -80 162 -80q88 0 136 61t48 142q0 82 -49.5 141.5t-132.5 59.5z" />
    <glyph glyph-name="c.sup" horiz-adv-x="602" 
d="M508 913l76 -104q-81 -72 -213 -72q-139 0 -230.5 92t-91.5 238q0 139 94 235.5t234 96.5q113 0 203 -68l-74 -108q-57 47 -125 47q-76 0 -129 -59t-53 -144q0 -88 52.5 -144.5t127.5 -56.5q73 0 129 47z" />
    <glyph glyph-name="d.sup" horiz-adv-x="788" 
d="M557 752l-8 82q-30 -49 -84.5 -73t-112.5 -24q-129 0 -216 96.5t-87 235.5q0 133 87 231.5t218 98.5q52 0 104 -21t87 -59v354h145v-921h-133zM381 866q48 0 93.5 25t70.5 74v225q-63 80 -162 80q-88 0 -136 -62t-48 -143t49.5 -140t132.5 -59z" />
    <glyph glyph-name="e.sup" horiz-adv-x="714" 
d="M551 954l100 -65q-54 -79 -120.5 -115.5t-163.5 -36.5q-144 0 -231 92t-87 234t92.5 239t227.5 97q128 0 212.5 -83.5t84.5 -209.5q0 -24 -9 -76h-460q8 -74 56 -123t122 -49q119 0 176 96zM371 1280q-66 0 -108 -39t-58 -104h311q-5 62 -45.5 102.5t-99.5 40.5z" />
    <glyph glyph-name="f.sup" horiz-adv-x="450" 
d="M485 1657l-43 -117q-43 19 -84 19q-53 0 -69.5 -28t-16.5 -89v-60h164v-122h-164v-508h-145v508h-70v122h70v70q0 117 49.5 176.5t167.5 59.5q67 0 141 -31z" />
    <glyph glyph-name="g.sup" horiz-adv-x="780" 
d="M690 1382v-598q0 -82 -25.5 -143.5t-70.5 -97t-100.5 -53t-120.5 -17.5q-163 0 -287 86l55 123q49 -37 111.5 -58.5t116.5 -21.5q79 0 127.5 41.5t48.5 124.5v72q-34 -43 -86 -65.5t-107 -22.5q-130 0 -216.5 93.5t-86.5 229.5q0 132 86.5 228t218.5 96q55 0 108 -22.5
t87 -65.5l8 71h133zM545 979v211q-63 80 -162 80q-88 0 -136 -59t-48 -138t49.5 -135.5t130.5 -56.5q49 0 95 24.5t71 73.5z" />
    <glyph glyph-name="h.sup" horiz-adv-x="759" 
d="M244 1673v-377q74 103 194 103q232 0 232 -320v-327h-146v317q0 35 -1.5 58.5t-8.5 53t-19.5 47t-36 30t-57.5 12.5q-44 0 -86.5 -27t-70.5 -72v-419h-146v921h146z" />
    <glyph glyph-name="i.sup" horiz-adv-x="342" 
d="M244 752h-146v630h146v-630zM244 1487h-146v139h146v-139z" />
    <glyph glyph-name="j.sup" horiz-adv-x="376" 
d="M-55 502l41 116q37 -14 61 -14q86 0 86 115v663h146v-680q0 -109 -46.5 -168t-158.5 -59q-63 0 -129 27zM279 1487h-146v139h146v-139z" />
    <glyph glyph-name="k.sup" horiz-adv-x="667" 
d="M244 1673v-573h2l227 282h172l-225 -260l242 -370h-179l-161 256l-78 -93v-163h-146v921h146z" />
    <glyph glyph-name="l.sup" horiz-adv-x="342" 
d="M244 1673v-921h-146v921h146z" />
    <glyph glyph-name="m.sup" horiz-adv-x="1144" 
d="M244 752h-146v630h133l7 -84q36 48 87 74.5t103 26.5q126 0 184 -111q77 111 215 111q228 0 228 -320v-327h-146v317q0 37 -1 59t-7.5 52.5t-18.5 47.5t-35 29.5t-56 12.5q-38 0 -79 -24t-69 -62q6 -47 6 -105v-327h-145v317q0 30 -1 47.5t-4 44.5t-10.5 43.5t-19.5 33
t-32.5 24.5t-47.5 8q-36 0 -75.5 -25t-69.5 -61v-432z" />
    <glyph glyph-name="n.sup" horiz-adv-x="759" 
d="M244 752h-146v630h133l7 -94q73 111 188 111q131 0 187.5 -82t56.5 -234v-331h-146v325q0 36 -1 58t-8 51t-19 45t-35.5 27.5t-57.5 11.5q-44 0 -87.5 -27.5t-71.5 -71.5v-419z" />
    <glyph glyph-name="o.sup" horiz-adv-x="751" 
d="M375 1399q141 0 234 -95.5t93 -236.5q0 -139 -93 -234.5t-234 -95.5q-140 0 -233 95.5t-93 234.5q0 140 93 236t233 96zM553 1067q0 86 -50 144.5t-128 58.5q-77 0 -126.5 -58.5t-49.5 -144.5q0 -85 49.5 -143t126.5 -58q78 0 128 58t50 143z" />
    <glyph glyph-name="p.sup" horiz-adv-x="788" 
d="M231 1382l9 -79q30 48 84 72t112 24q129 0 216 -96.5t87 -235.5q0 -134 -86.5 -232t-218.5 -98q-52 0 -103.5 20t-86.5 58v-371h-146v938h133zM408 1270q-48 0 -93.5 -25.5t-70.5 -75.5v-223q60 -80 162 -80q88 0 136 61t48 142q0 82 -49.5 141.5t-132.5 59.5z" />
    <glyph glyph-name="q.sup" horiz-adv-x="788" 
d="M354 1399q55 0 108 -22.5t87 -65.5l8 71h133v-938h-145v381q-33 -45 -85 -66.5t-108 -21.5q-129 0 -216 96.5t-87 235.5q0 133 87 231.5t218 98.5zM381 866q48 0 93.5 25t70.5 74v225q-63 80 -162 80q-88 0 -136 -62t-48 -143t49.5 -140t132.5 -59z" />
    <glyph glyph-name="r.sup" horiz-adv-x="464" 
d="M244 752h-146v630h133l7 -90q63 107 153 107q35 0 76 -13l-33 -137q-27 15 -59 15q-83 0 -131 -86v-426z" />
    <glyph glyph-name="s.sup" horiz-adv-x="589" 
d="M516 1321l-82 -90q-55 51 -125 51q-35 0 -56.5 -17.5t-21.5 -45.5q0 -29 28 -48t83 -41q39 -16 64.5 -29t56.5 -36t47 -55t16 -72q0 -99 -68.5 -150t-166.5 -51q-149 0 -240 105l90 84q69 -72 146 -72q41 0 67.5 19.5t26.5 56.5q0 28 -25.5 45.5t-77.5 39.5q-2 0 -3 0.5
t-2.5 1t-2.5 1.5q-32 13 -50.5 21.5t-46.5 26t-43 35t-26.5 45.5t-11.5 62q0 91 62.5 141t152.5 50q125 0 209 -78z" />
    <glyph glyph-name="t.sup" horiz-adv-x="471" 
d="M406 883l43 -111q-56 -35 -134 -35q-196 0 -196 234v289h-80v122h80l16 146h129v-146h168v-122h-168v-263q0 -25 0.5 -38.5t4 -34.5t10.5 -32t21 -19.5t34 -8.5q34 0 72 19z" />
    <glyph glyph-name="u.sup" horiz-adv-x="759" 
d="M516 1382h146v-630h-134l-6 94q-74 -111 -188 -111q-131 0 -187.5 82t-56.5 234v331h146v-325q0 -36 1 -57.5t7.5 -51t18.5 -45t35.5 -27.5t57.5 -12q44 0 88 27.5t72 71.5v419z" />
    <glyph glyph-name="v.sup" horiz-adv-x="630" 
d="M315 948h2l146 434h160l-252 -630h-123l-240 630h162z" />
    <glyph glyph-name="w.sup" horiz-adv-x="923" 
d="M463 1169h-2l-119 -417h-160l-174 630h158l104 -434h2l123 434h140l112 -432h4l113 432h151l-184 -630h-153z" />
    <glyph glyph-name="x.sup" horiz-adv-x="675" 
d="M27 1382h184l137 -200l137 200h183l-236 -309l234 -321h-187l-143 211l-146 -211h-182l244 317z" />
    <glyph glyph-name="y.sup" horiz-adv-x="626" 
d="M311 963h2l146 417h159l-352 -909l-131 49l98 260l-225 600h160z" />
    <glyph glyph-name="z.sup" horiz-adv-x="583" 
d="M68 819l258 441h-271v122h465v-63l-260 -442h281v-125h-473v67z" />
    <glyph glyph-name="zeroinferior" horiz-adv-x="690" 
d="M346 -244q72 0 110 73.5t38 219.5q0 147 -38 221t-110 74q-147 0 -147 -295q0 -293 147 -293zM346 473q142 0 220.5 -112.5t78.5 -311.5q0 -198 -78.5 -310t-220.5 -112t-220.5 112t-78.5 310q0 199 78.5 311.5t220.5 112.5z" />
    <glyph glyph-name="oneinferior" horiz-adv-x="442" 
d="M332 -365h-148v654q-47 -23 -118 -53v135q15 8 170 90h96v-826z" />
    <glyph glyph-name="twoinferior" horiz-adv-x="653" 
d="M78 -246q155 161 280 336q66 90 66 158q0 43 -31.5 69.5t-77.5 26.5q-48 0 -78 -32.5t-30 -86.5l-148 25q7 98 84 159.5t176 61.5q103 0 179.5 -61t76.5 -160q0 -107 -83 -227q-73 -104 -218 -261h338v-127h-534v119z" />
    <glyph glyph-name="threeinferior" horiz-adv-x="653" 
d="M201 -10v131q75 4 104 12q43 11 69.5 40t26.5 67q0 45 -32 74.5t-84 29.5q-42 0 -74.5 -23t-42.5 -63l-123 53q25 74 90 117t150 43q113 0 189.5 -60t76.5 -159q0 -54 -27.5 -101.5t-72.5 -72.5q62 -22 100.5 -77t38.5 -124q0 -116 -82.5 -184t-202.5 -68
q-87 0 -161 40.5t-109 115.5l121 59q45 -88 147 -88q56 0 95.5 31t39.5 88q0 59 -45 93t-114 34q-47 0 -78 -8z" />
    <glyph glyph-name="fourinferior" horiz-adv-x="684" 
d="M41 -16q36 46 85.5 112t86 116.5t95.5 131.5t85 117h150v-490h119v-125h-119v-211h-146v211h-356v138zM397 -29v291q-128 -202 -200 -291h200z" />
    <glyph glyph-name="fiveinferior" horiz-adv-x="645" 
d="M551 334h-295q-2 -79 -14 -197q50 21 106 21q102 0 173 -73.5t71 -176.5q0 -120 -81 -201.5t-202 -81.5q-85 0 -158.5 41.5t-109.5 112.5l123 63q41 -88 137 -88q63 0 101 43t38 103q0 58 -38.5 95.5t-98.5 37.5q-72 0 -115 -51l-100 65q19 189 27 414h436v-127z" />
    <glyph glyph-name="sixinferior" horiz-adv-x="675" 
d="M467 506l53 -121q-241 -104 -299 -281q66 60 158 60q109 0 180.5 -76t71.5 -186q0 -117 -78 -197t-197 -80q-141 0 -226 97t-85 235q0 188 119 331.5t303 217.5zM346 39q-45 0 -85.5 -23t-63.5 -61q0 -88 36 -146.5t113 -58.5q61 0 97 43t36 105q0 64 -37 102.5t-96 38.5
z" />
    <glyph glyph-name="seveninferior" horiz-adv-x="571" 
d="M549 461v-99q-201 -423 -336 -751l-133 59q82 195 301 662h-369v129h537z" />
    <glyph glyph-name="eightinferior" horiz-adv-x="706" 
d="M616 246q0 -113 -102 -176q125 -72 125 -203q0 -103 -79.5 -172.5t-205.5 -69.5t-206 69.5t-80 172.5q0 131 125 203q-101 65 -101 176q0 95 73.5 160t188.5 65t188.5 -65t73.5 -160zM354 0q-56 0 -95.5 -36t-39.5 -89q0 -52 39.5 -87.5t95.5 -35.5t94.5 35.5t38.5 87.5
q0 54 -38.5 89.5t-94.5 35.5zM354 344q-48 0 -81 -30.5t-33 -75.5q0 -46 33.5 -78.5t80.5 -32.5t81 32.5t34 78.5q0 45 -33.5 75.5t-81.5 30.5z" />
    <glyph glyph-name="nineinferior" horiz-adv-x="675" 
d="M211 -410l-53 121q241 104 299 281q-66 -60 -158 -60q-109 0 -180.5 76.5t-71.5 186.5q0 117 78 196.5t197 79.5q141 0 226 -97t85 -235q0 -188 -119 -331.5t-303 -217.5zM332 57q45 0 85.5 23t63.5 61q0 88 -36 146.5t-113 58.5q-61 0 -97 -42.5t-36 -104.5
q0 -64 37 -103t96 -39z" />
    <glyph glyph-name="parenleftinferior" horiz-adv-x="444" 
d="M453 -477l-52 -103q-342 211 -342 592q0 377 342 588l54 -102q-112 -72 -182 -192.5t-70 -293.5q0 -330 250 -489z" />
    <glyph glyph-name="parenrightinferior" horiz-adv-x="444" 
d="M41 -580l-51 103q252 161 252 489q0 172 -70.5 292.5t-181.5 193.5l53 102q342 -211 342 -588q0 -383 -344 -592z" />
    <glyph glyph-name="minusinferior" horiz-adv-x="698" 
d="M63 80h572v-125h-572v125z" />
    <glyph glyph-name="plusinferior" horiz-adv-x="684" 
d="M279 -291v246h-244v125h244v246h124v-246h246v-125h-246v-246h-124z" />
    <glyph glyph-name="equalinferior" horiz-adv-x="698" 
d="M63 190h572v-122h-572v122zM63 -31h572v-125h-572v125z" />
    <glyph glyph-name="a.sinf" horiz-adv-x="696" 
d="M342 25q48 0 119 -15v17q0 137 -135 137q-98 0 -195 -55l-41 110q128 64 262 64q129 0 191.5 -69.5t62.5 -195.5v-383h-129l-8 60q-63 -74 -178 -74q-95 0 -161.5 52t-66.5 145q0 57 24 98.5t65.5 64.5t88.5 33.5t101 10.5zM461 -84q-59 12 -96 12q-40 0 -73.5 -8.5
t-59 -33t-25.5 -62.5q0 -47 31 -70.5t77 -23.5q73 0 146 63v123z" />
    <glyph glyph-name="b.sinf" horiz-adv-x="788" 
d="M434 -379q-56 0 -109 22t-87 66l-7 -74h-133v922h146v-364q32 44 85 67t107 23q129 0 216 -96.5t87 -235.5q0 -134 -86.5 -232t-218.5 -98zM408 154q-48 0 -93.5 -25.5t-70.5 -75.5v-223q60 -80 162 -80q88 0 136 61t48 142q0 82 -49.5 141.5t-132.5 59.5z" />
    <glyph glyph-name="c.sinf" horiz-adv-x="602" 
d="M508 -203l76 -104q-81 -72 -213 -72q-139 0 -230.5 92t-91.5 238q0 139 94 235.5t234 96.5q113 0 203 -68l-74 -109q-58 48 -125 48q-76 0 -129 -59t-53 -144q0 -88 52.5 -144.5t127.5 -56.5q73 0 129 47z" />
    <glyph glyph-name="d.sinf" horiz-adv-x="788" 
d="M557 -365l-8 82q-30 -49 -84 -72.5t-113 -23.5q-129 0 -216 96.5t-87 235.5q0 133 87 231.5t218 98.5q52 0 104 -21t87 -59v354h145v-922h-133zM381 -250q49 0 94 24.5t70 73.5v226q-63 80 -162 80q-88 0 -136 -62t-48 -143t49.5 -140t132.5 -59z" />
    <glyph glyph-name="e.sinf" horiz-adv-x="714" 
d="M551 -162l100 -65q-54 -79 -120.5 -115.5t-163.5 -36.5q-144 0 -231 92t-87 234t92.5 239t227.5 97q128 0 212.5 -83.5t84.5 -209.5q0 -24 -9 -76h-460q8 -74 56 -123t122 -49q119 0 176 96zM371 164q-66 0 -108 -39.5t-58 -104.5h311q-5 62 -45.5 103t-99.5 41z" />
    <glyph glyph-name="f.sinf" horiz-adv-x="450" 
d="M485 541l-43 -117q-40 18 -84 18q-53 0 -69.5 -27.5t-16.5 -88.5v-60h164v-123h-164v-508h-145v508h-70v123h70v70q0 116 49.5 175.5t167.5 59.5q69 0 141 -30z" />
    <glyph glyph-name="g.sinf" horiz-adv-x="780" 
d="M690 266v-598q0 -82 -25.5 -143.5t-70.5 -97t-100.5 -53t-120.5 -17.5q-163 0 -287 86l55 123q49 -37 111.5 -58.5t116.5 -21.5q79 0 127.5 41.5t48.5 124.5v72q-34 -44 -86.5 -66.5t-106.5 -22.5q-130 0 -216.5 94t-86.5 230q0 132 86.5 228t218.5 96q55 0 108 -22.5
t87 -65.5l8 71h133zM545 -137v211q-63 80 -162 80q-88 0 -136 -59t-48 -138q0 -80 49.5 -136.5t130.5 -56.5q49 0 95 25t71 74z" />
    <glyph glyph-name="h.sinf" horiz-adv-x="759" 
d="M244 557v-377q74 103 194 103q232 0 232 -320v-328h-146v318q0 35 -1.5 58.5t-8.5 53t-19.5 47t-36 30t-57.5 12.5q-44 0 -86.5 -27t-70.5 -72v-420h-146v922h146z" />
    <glyph glyph-name="i.sinf" horiz-adv-x="342" 
d="M244 -365h-146v631h146v-631zM244 371h-146v139h146v-139z" />
    <glyph glyph-name="j.sinf" horiz-adv-x="376" 
d="M-55 -614l41 116q37 -14 61 -14q86 0 86 115v663h146v-680q0 -109 -46.5 -168t-158.5 -59q-63 0 -129 27zM279 371h-146v139h146v-139z" />
    <glyph glyph-name="k.sinf" horiz-adv-x="667" 
d="M244 557v-573h2l227 282h172l-225 -260l242 -371h-179l-161 256l-78 -92v-164h-146v922h146z" />
    <glyph glyph-name="l.sinf" horiz-adv-x="342" 
d="M244 557v-922h-146v922h146z" />
    <glyph glyph-name="m.sinf" horiz-adv-x="1144" 
d="M244 -365h-146v631h133l7 -84q36 48 87 74.5t103 26.5q126 0 184 -111q77 111 215 111q228 0 228 -320v-328h-146v318q0 37 -1 59t-7.5 52.5t-18.5 47.5t-35 29.5t-56 12.5q-38 0 -79 -24t-69 -62q6 -47 6 -105v-328h-145v318q0 30 -1 47.5t-4 44.5t-10.5 43.5t-19.5 33
t-32.5 24.5t-47.5 8q-36 0 -75.5 -25t-69.5 -61v-433z" />
    <glyph glyph-name="n.sinf" horiz-adv-x="759" 
d="M244 -365h-146v631h133l7 -94q74 111 188 111q131 0 187.5 -82t56.5 -234v-332h-146v326q0 36 -1 58t-8 51t-19 45t-35.5 27.5t-57.5 11.5q-44 0 -87.5 -27.5t-71.5 -71.5v-420z" />
    <glyph glyph-name="o.sinf" horiz-adv-x="751" 
d="M375 283q141 0 234 -95.5t93 -236.5q0 -139 -93 -234.5t-234 -95.5q-140 0 -233 95.5t-93 234.5q0 140 93 236t233 96zM553 -49q0 86 -50 144.5t-128 58.5q-77 0 -126.5 -58.5t-49.5 -144.5q0 -85 49.5 -143t126.5 -58q78 0 128 58t50 143z" />
    <glyph glyph-name="p.sinf" horiz-adv-x="788" 
d="M231 266l9 -80q30 48 84.5 72.5t111.5 24.5q129 0 216 -96.5t87 -235.5q0 -134 -86.5 -232t-218.5 -98q-52 0 -103.5 20t-86.5 58v-371h-146v938h133zM408 154q-48 0 -93.5 -25.5t-70.5 -75.5v-223q60 -80 162 -80q88 0 136 61t48 142q0 82 -49.5 141.5t-132.5 59.5z" />
    <glyph glyph-name="q.sinf" horiz-adv-x="788" 
d="M354 283q55 0 108 -22.5t87 -65.5l8 71h133v-938h-145v381q-33 -45 -85 -66.5t-108 -21.5q-129 0 -216 96.5t-87 235.5q0 133 87 231.5t218 98.5zM381 -250q49 0 94 24.5t70 73.5v226q-63 80 -162 80q-88 0 -136 -62t-48 -143t49.5 -140t132.5 -59z" />
    <glyph glyph-name="r.sinf" horiz-adv-x="464" 
d="M244 -365h-146v631h133l7 -90q63 107 153 107q35 0 76 -13l-33 -137q-25 14 -59 14q-83 0 -131 -86v-426z" />
    <glyph glyph-name="s.sinf" horiz-adv-x="589" 
d="M516 205l-82 -90q-55 51 -125 51q-35 0 -56.5 -18t-21.5 -46q0 -20 18 -37.5t37 -26.5t56 -24q39 -16 64.5 -29t56.5 -36t47 -55t16 -72q0 -99 -68.5 -150t-166.5 -51q-149 0 -240 105l90 84q69 -72 146 -72q41 0 67.5 19.5t26.5 56.5q0 28 -25.5 45.5t-77.5 39.5
q-5 2 -8 3q-32 13 -50.5 21.5t-46.5 26t-43 35t-26.5 45.5t-11.5 62q0 91 62.5 141t152.5 50q125 0 209 -78z" />
    <glyph glyph-name="t.sinf" horiz-adv-x="471" 
d="M406 -233l43 -111q-56 -35 -134 -35q-196 0 -196 234v288h-80v123h80l16 146h129v-146h168v-123h-168v-262q0 -25 0.5 -38.5t4 -34.5t10.5 -32t21 -19.5t34 -8.5q34 0 72 19z" />
    <glyph glyph-name="u.sinf" horiz-adv-x="759" 
d="M516 266h146v-631h-134l-6 95q-74 -111 -188 -111q-131 0 -187.5 81.5t-56.5 233.5v332h146v-325q0 -36 1 -57.5t7.5 -51t18.5 -45t35.5 -27.5t57.5 -12q44 0 88 27t72 71v420z" />
    <glyph glyph-name="v.sinf" horiz-adv-x="630" 
d="M315 -168h2l146 434h160l-252 -631h-123l-240 631h162z" />
    <glyph glyph-name="w.sinf" horiz-adv-x="923" 
d="M463 53h-2l-119 -418h-160l-174 631h158l104 -434h2l123 434h140l112 -432h4l113 432h151l-184 -631h-153z" />
    <glyph glyph-name="x.sinf" horiz-adv-x="675" 
d="M27 266h184l137 -200l137 200h183l-236 -309l234 -322h-187l-143 211l-146 -211h-182l244 318z" />
    <glyph glyph-name="y.sinf" horiz-adv-x="626" 
d="M311 -154h2l146 418h159l-352 -909l-131 49l98 260l-225 600h160z" />
    <glyph glyph-name="z.sinf" horiz-adv-x="583" 
d="M68 -297l258 440h-271v123h465v-63l-260 -443h281v-125h-473v68z" />
    <glyph glyph-name="zero.num" horiz-adv-x="643" 
d="M322 1327q-127 0 -127 -260t127 -260t127 260t-127 260zM594 1067q0 -180 -71 -280.5t-201 -100.5t-201.5 101t-71.5 280t71.5 280t201.5 101t201 -100.5t71 -280.5z" />
    <glyph glyph-name="one.num" horiz-adv-x="456" 
d="M340 692h-141v580q-69 -31 -109 -47v127q14 8 71.5 36.5t86.5 45.5h92v-742z" />
    <glyph glyph-name="two.num" horiz-adv-x="612" 
d="M78 807q144 147 256 301q57 77 57 137q0 37 -26.5 59.5t-67.5 22.5q-42 0 -68 -28.5t-26 -77.5l-142 24q6 90 77 146.5t165 56.5t165 -56t71 -147q0 -90 -80 -203q-63 -89 -191 -225h301v-119h-491v109z" />
    <glyph glyph-name="three.num" horiz-adv-x="616" 
d="M195 1012v123q61 0 92 8q84 23 84 96q0 38 -28.5 63t-76.5 25q-36 0 -62.5 -20.5t-35.5 -57.5l-121 54q24 68 84.5 106.5t136.5 38.5q103 0 174.5 -55.5t71.5 -143.5q0 -46 -25.5 -88.5t-66.5 -66.5q57 -20 92 -70t35 -113q0 -102 -76 -163.5t-186 -61.5q-80 0 -148 37
t-102 108l119 56q39 -82 131 -82q49 0 82.5 27t33.5 77q0 51 -40 80t-103 29q-40 0 -65 -6z" />
    <glyph glyph-name="four.num" horiz-adv-x="632" 
d="M43 1006q164 216 315 428h144v-437h106v-116h-106v-183h-140v183h-319v125zM362 997v250q-15 -22 -53.5 -81t-67.5 -101.5t-48 -67.5h169z" />
    <glyph glyph-name="five.num" horiz-adv-x="604" 
d="M514 1315h-266q0 -10 -12 -170q37 18 94 18q92 0 155.5 -66t63.5 -159q0 -108 -74.5 -180t-183.5 -72q-80 0 -146.5 36.5t-101.5 102.5l119 60q35 -80 123 -80q55 0 86.5 36t31.5 89q0 51 -33 84t-85 33q-63 0 -103 -48l-92 64q18 187 25 371h399v-119z" />
    <glyph glyph-name="six.num" horiz-adv-x="632" 
d="M434 1479l51 -113q-105 -45 -172.5 -102.5t-97.5 -141.5q58 49 137 49q101 0 166.5 -67.5t65.5 -165.5q0 -109 -70.5 -181.5t-181.5 -72.5q-129 0 -206 88t-77 213q0 170 108 298t277 196zM193 983q0 -78 32 -130t99 -52q54 0 85 37t31 92q0 58 -32.5 91.5t-85.5 33.5
q-39 0 -74 -19.5t-55 -52.5z" />
    <glyph glyph-name="seven.num" horiz-adv-x="530" 
d="M506 1343q-169 -350 -305 -677l-129 59q94 217 278 588h-338v121h494v-91z" />
    <glyph glyph-name="eight.num" horiz-adv-x="667" 
d="M483 1085q56 -30 83.5 -73.5t27.5 -108.5q0 -92 -73.5 -154.5t-186.5 -62.5q-115 0 -187.5 62.5t-72.5 154.5q0 119 110 182q-92 59 -92 158q0 86 68 145.5t174 59.5q105 0 173 -59.5t68 -145.5q0 -99 -92 -158zM233 1235q0 -40 29 -68t72 -28q41 0 70.5 28t29.5 68
q0 41 -29 68.5t-71 27.5q-43 0 -72 -27.5t-29 -68.5zM217 911q0 -46 33 -77t84 -31t84 31t33 77t-33.5 78.5t-83.5 32.5t-83.5 -32.5t-33.5 -78.5z" />
    <glyph glyph-name="nine.num" horiz-adv-x="632" 
d="M199 653l-52 113q105 45 173 102.5t98 141.5q-58 -49 -137 -49q-101 0 -166.5 67.5t-65.5 165.5q0 109 70.5 181.5t181.5 72.5q129 0 206 -88t77 -213q0 -170 -108 -298t-277 -196zM440 1149q0 78 -32 130t-99 52q-54 0 -85 -37t-31 -92q0 -58 32.5 -91.5t85.5 -33.5
q39 0 74 19.5t55 52.5z" />
    <glyph glyph-name="parenleft.ordn" horiz-adv-x="501" 
d="M500 657l-51 -104q-375 229 -375 653q0 120 27.5 222t79.5 181.5t116 140t147 112.5l58 -105q-283 -181 -283 -551q0 -197 77.5 -333t203.5 -216z" />
    <glyph glyph-name="parenright.ordn" horiz-adv-x="501" 
d="M53 553l-51 104q126 80 203.5 216t77.5 333q0 370 -283 551l57 105q83 -52 147 -112.5t116 -140t80 -181.5t28 -222q0 -424 -375 -653z" />
    <glyph glyph-name="hyphen.ordn" horiz-adv-x="630" 
d="M494 1114h-357v129h357v-129z" />
    <glyph glyph-name="comma.ordn" horiz-adv-x="376" 
d="M266 965l-92 -353h-141l71 353h162z" />
    <glyph glyph-name="period.ordn" horiz-adv-x="378" 
d="M272 791h-166v174h166v-174z" />
    <glyph glyph-name="minus.ordn" horiz-adv-x="782" 
d="M80 1280h622v-127h-622v127z" />
    <glyph glyph-name="plus.ordn" horiz-adv-x="755" 
d="M313 874v279h-276v127h276v276h127v-276h279v-127h-279v-279h-127z" />
    <glyph glyph-name="equal.ordn" horiz-adv-x="782" 
d="M80 1395h622v-123h-622v123zM80 1161h622v-127h-622v127z" />
    <glyph glyph-name="a.ordn" horiz-adv-x="780" 
d="M520 1202v21q0 77 -36.5 116t-116.5 39q-109 0 -217 -59l-44 117q145 67 283 67q279 0 279 -293v-419h-133l-9 69q-72 -86 -198 -86q-104 0 -177 56t-73 159q0 63 26.5 109t71.5 71.5t98 37.5t113 12q55 0 133 -17zM520 1102q-63 14 -112 14q-46 0 -84.5 -9t-69.5 -37
t-31 -73q0 -54 36 -80t93 -26q80 0 168 74v137z" />
    <glyph glyph-name="b.ordn" horiz-adv-x="886" 
d="M123 791v1024h147v-416q35 51 93.5 77.5t121.5 26.5q145 0 242.5 -106.5t97.5 -259.5q0 -94 -42 -176.5t-121.5 -134.5t-178.5 -52q-62 0 -120.5 24.5t-96.5 71.5l-4 -79h-139zM270 1253v-252q34 -46 84.5 -70t104.5 -24q102 0 158.5 70.5t56.5 163.5q0 94 -59 161.5
t-154 67.5q-56 0 -110.5 -30.5t-80.5 -86.5z" />
    <glyph glyph-name="c.ordn" horiz-adv-x="665" 
d="M567 958l76 -108q-88 -76 -225 -76q-153 0 -255 102t-102 263q0 153 105 258.5t258 105.5q123 0 213 -69l-72 -115q-60 51 -143 51q-88 0 -148.5 -67t-60.5 -164q0 -101 61 -166.5t148 -65.5q85 0 145 51z" />
    <glyph glyph-name="d.ordn" horiz-adv-x="886" 
d="M616 1411v404h148v-1024h-139l-7 92q-36 -54 -95.5 -81.5t-123.5 -27.5q-144 0 -241 106.5t-97 258.5q0 146 96.5 255t245.5 109q57 0 114 -24t99 -68zM428 1370q-102 0 -158.5 -70t-56.5 -163t59 -161.5t154 -68.5q56 0 109 30.5t81 86.5v252q-36 46 -86 70t-102 24z
" />
    <glyph glyph-name="e.ordn" horiz-adv-x="792" 
d="M614 1008l103 -68q-57 -85 -130.5 -125.5t-178.5 -40.5q-159 0 -253 102t-94 261q0 155 100.5 260.5t248.5 105.5q139 0 230 -91.5t91 -231.5q0 -18 -6 -78h-514q8 -88 62.5 -145.5t142.5 -57.5q135 0 198 109zM412 1380q-76 0 -125.5 -46.5t-67.5 -121.5h361
q-3 71 -50.5 119.5t-117.5 48.5z" />
    <glyph glyph-name="f.ordn" horiz-adv-x="507" 
d="M532 1796l-43 -117q-43 21 -90 21q-63 0 -82.5 -34t-19.5 -107v-72h184v-127h-184v-569h-147v569h-78v127h78v84q0 128 53 194t180 66q74 0 149 -35z" />
    <glyph glyph-name="g.ordn" horiz-adv-x="876" 
d="M399 791q-144 0 -241 102.5t-97 253.5q0 94 42 175t121.5 131t178.5 50q59 0 117 -25t98 -71l7 80h139v-658q0 -92 -28.5 -160.5t-78.5 -108t-111 -58.5t-132 -19q-174 0 -314 95l56 124q55 -39 124 -62.5t130 -23.5q90 0 148 47.5t58 143.5v86q-38 -51 -96.5 -76.5
t-120.5 -25.5zM428 1370q-102 0 -158.5 -67t-56.5 -158q0 -92 58.5 -156.5t152.5 -64.5q57 0 110.5 29.5t81.5 86.5v236q-36 46 -86 70t-102 24z" />
    <glyph glyph-name="h.ordn" horiz-adv-x="858" 
d="M270 791h-147v1024h147v-433q38 58 96 89.5t123 31.5q256 0 256 -350v-362h-147v350q0 42 -1.5 67.5t-9 60t-21.5 54t-41.5 33.5t-67.5 14q-53 0 -103.5 -32t-83.5 -85v-462z" />
    <glyph glyph-name="i.ordn" horiz-adv-x="393" 
d="M270 791h-147v696h147v-696zM270 1608h-147v149h147v-149z" />
    <glyph glyph-name="j.ordn" horiz-adv-x="403" 
d="M-74 516l41 117q38 -17 68 -17q61 0 79.5 33.5t18.5 104.5v733h148v-754q0 -117 -49.5 -182.5t-168.5 -65.5q-73 0 -137 31zM281 1608h-148v149h148v-149z" />
    <glyph glyph-name="k.ordn" horiz-adv-x="737" 
d="M270 1815v-656l262 328h177l-244 -287l264 -409h-180l-184 292l-95 -110v-182h-147v1024h147z" />
    <glyph glyph-name="l.ordn" horiz-adv-x="393" 
d="M270 1815v-1024h-147v1024h147z" />
    <glyph glyph-name="m.ordn" horiz-adv-x="1284" 
d="M270 791h-147v696h137l4 -101q39 55 97 86t116 31q145 0 205 -125q85 125 240 125q59 0 103 -19t71.5 -50.5t44.5 -77.5t23.5 -95t6.5 -108v-362h-147v350q0 33 -1 54.5t-5 51.5t-13 49t-23.5 37.5t-38.5 27.5t-56 9q-45 0 -92.5 -28t-81.5 -74q8 -47 8 -115v-362h-148
v350q0 39 -1.5 64t-8.5 60t-20.5 55t-39.5 35t-63 15q-43 0 -90 -31t-80 -75v-473z" />
    <glyph glyph-name="n.ordn" horiz-adv-x="858" 
d="M270 791h-147v696h137l6 -109q39 61 97.5 93t125.5 32q60 0 105.5 -18.5t73.5 -49.5t45.5 -77t24.5 -95.5t7 -109.5v-362h-147v350q0 42 -1.5 67.5t-9 60t-21.5 54t-41.5 33.5t-67.5 14q-53 0 -103.5 -32t-83.5 -85v-462z" />
    <glyph glyph-name="o.ordn" horiz-adv-x="839" 
d="M420 1503q154 0 256 -104.5t102 -259.5q0 -154 -102 -259.5t-256 -105.5t-256.5 105.5t-102.5 259.5q0 155 102.5 259.5t256.5 104.5zM627 1139q0 98 -58.5 164.5t-148.5 66.5t-148.5 -66.5t-58.5 -164.5t58.5 -165t148.5 -67t148.5 67t58.5 165z" />
    <glyph glyph-name="p.ordn" horiz-adv-x="886" 
d="M270 451h-147v1036h139l4 -92q35 53 95.5 80.5t123.5 27.5q145 0 242.5 -106.5t97.5 -259.5q0 -94 -42 -176.5t-121.5 -134.5t-178.5 -52q-59 0 -116.5 23.5t-96.5 66.5v-413zM459 907q102 0 158.5 70.5t56.5 163.5q0 94 -59 161.5t-154 67.5q-56 0 -110.5 -30.5
t-80.5 -86.5v-252q34 -46 84.5 -70t104.5 -24z" />
    <glyph glyph-name="q.ordn" horiz-adv-x="886" 
d="M403 1503q59 0 117 -25t98 -71l7 80h139v-1036h-148v428q-38 -53 -96 -79t-121 -26q-144 0 -241 106.5t-97 258.5q0 146 96.5 255t245.5 109zM426 907q56 0 109 30.5t81 86.5v252q-36 46 -86 70t-102 24q-102 0 -158.5 -70t-56.5 -163t59 -161.5t154 -68.5z" />
    <glyph glyph-name="r.ordn" horiz-adv-x="534" 
d="M438 1503q35 0 80 -10l-31 -145q-30 12 -65 12q-96 0 -152 -100v-469h-147v696h139l4 -107q70 123 172 123z" />
    <glyph glyph-name="s.ordn" horiz-adv-x="655" 
d="M561 1419l-86 -90q-25 24 -62 38.5t-73 14.5q-41 0 -66.5 -21t-25.5 -56q0 -17 9 -31.5t31.5 -28t36.5 -20.5t48 -21q44 -18 71 -32t62 -39.5t52 -60.5t17 -79q0 -108 -74 -163.5t-182 -55.5q-155 0 -256 113l97 86q75 -78 157 -78q47 0 79 24t32 66q0 25 -21.5 46
t-43 31t-68.5 30q-36 15 -54.5 23.5t-49 27.5t-45.5 37.5t-27.5 48.5t-12.5 65q0 99 67.5 154t164.5 55q139 0 223 -84z" />
    <glyph glyph-name="t.ordn" horiz-adv-x="505" 
d="M426 924l45 -117q-64 -33 -143 -33q-211 0 -211 258v328h-88v127h88l12 160h135v-160h189v-127h-189v-299q0 -32 2.5 -55t10.5 -49t26.5 -40t46.5 -14q36 0 76 21z" />
    <glyph glyph-name="u.ordn" horiz-adv-x="858" 
d="M588 1024v463h147v-696h-137l-6 108q-39 -61 -97.5 -93t-125.5 -32q-60 0 -105.5 18.5t-73.5 49.5t-45.5 77t-24.5 95.5t-7 109.5v363h147v-350q0 -42 1.5 -67.5t9 -60.5t21.5 -54t41.5 -33.5t67.5 -14.5q53 0 103.5 32t83.5 85z" />
    <glyph glyph-name="v.ordn" horiz-adv-x="690" 
d="M678 1487l-277 -696h-127l-262 696h166l168 -504h4l166 504h162z" />
    <glyph glyph-name="w.ordn" horiz-adv-x="1013" 
d="M584 1487l131 -502h4l129 502h153l-202 -696h-156l-135 491h-2l-139 -491h-164l-191 696h158l121 -502h4l141 502h148z" />
    <glyph glyph-name="x.ordn" horiz-adv-x="722" 
d="M711 791h-189l-162 243l-163 -243h-185l262 350l-245 346h188l158 -232l153 232h183l-254 -340z" />
    <glyph glyph-name="y.ordn" horiz-adv-x="684" 
d="M672 1487l-387 -1006l-129 51l106 287l-250 668h164l164 -490h4l168 490h160z" />
    <glyph glyph-name="z.ordn" horiz-adv-x="649" 
d="M86 860l291 500h-307v127h503v-68l-294 -501h317v-127h-510v69z" />
    <glyph glyph-name="zero.denom" horiz-adv-x="643" 
d="M322 627q-127 0 -127 -260q0 -261 127 -261t127 261q0 260 -127 260zM594 367q0 -180 -71 -280.5t-201 -100.5t-201.5 101t-71.5 280t71.5 280t201.5 101t201 -100.5t71 -280.5z" />
    <glyph glyph-name="one.denom" horiz-adv-x="456" 
d="M340 0h-141v580q-83 -38 -109 -48v127q14 8 71.5 36.5t86.5 45.5h92v-741z" />
    <glyph glyph-name="two.denom" horiz-adv-x="612" 
d="M78 109q144 147 256 301q57 77 57 137q0 37 -26.5 59.5t-67.5 22.5q-42 0 -68 -29t-26 -78l-142 25q6 90 77 146.5t165 56.5t165 -56t71 -147q0 -90 -80 -203q-63 -89 -191 -225h301v-119h-491v109z" />
    <glyph glyph-name="three.denom" horiz-adv-x="616" 
d="M195 311v123q61 0 92 8q39 11 61.5 36t22.5 61q0 38 -28.5 63t-76.5 25q-36 0 -62.5 -20.5t-35.5 -57.5l-121 53q24 68 84.5 107t136.5 39q103 0 174.5 -55.5t71.5 -143.5q0 -47 -26 -89.5t-66 -66.5q57 -20 92 -69.5t35 -112.5q0 -102 -76 -163.5t-186 -61.5
q-80 0 -148 37t-102 108l119 55q39 -82 131 -82q49 0 82.5 27.5t33.5 77.5q0 51 -40 79.5t-103 28.5q-40 0 -65 -6z" />
    <glyph glyph-name="four.denom" horiz-adv-x="632" 
d="M43 307q164 216 315 428h144v-436h106v-117h-106v-182h-140v182h-319v125zM362 299v250q-15 -22 -53.5 -81t-67.5 -101.5t-48 -67.5h169z" />
    <glyph glyph-name="five.denom" horiz-adv-x="604" 
d="M514 614h-266q0 -10 -12 -170q39 19 94 19q92 0 155.5 -66t63.5 -159q0 -108 -74.5 -180t-183.5 -72q-80 0 -146.5 36.5t-101.5 102.5l119 59q35 -80 123 -80q55 0 86.5 36t31.5 89q0 51 -33 84t-85 33q-64 0 -103 -47l-92 63q18 187 25 371h399v-119z" />
    <glyph glyph-name="six.denom" horiz-adv-x="632" 
d="M434 778l51 -112q-105 -45 -172.5 -102.5t-97.5 -141.5q58 49 137 49q101 0 166.5 -67.5t65.5 -165.5q0 -109 -70.5 -181.5t-181.5 -72.5q-129 0 -206 88t-77 213q0 170 108 297.5t277 195.5zM193 283q0 -78 32 -130.5t99 -52.5q54 0 85 37t31 92q0 58 -32.5 91.5
t-85.5 33.5q-39 0 -74 -19t-55 -52z" />
    <glyph glyph-name="seven.denom" horiz-adv-x="530" 
d="M506 643q-166 -344 -305 -678l-129 60q90 209 278 587h-338v121h494v-90z" />
    <glyph glyph-name="eight.denom" horiz-adv-x="667" 
d="M483 385q56 -30 83.5 -73.5t27.5 -108.5q0 -92 -73.5 -154.5t-186.5 -62.5q-115 0 -187.5 62.5t-72.5 154.5q0 119 110 182q-92 59 -92 158q0 86 68 145.5t174 59.5q105 0 173 -59.5t68 -145.5q0 -99 -92 -158zM233 535q0 -40 29.5 -68.5t71.5 -28.5q41 0 70.5 28.5
t29.5 68.5q0 41 -29 68.5t-71 27.5q-43 0 -72 -27.5t-29 -68.5zM217 211q0 -46 33 -77.5t84 -31.5t84 31.5t33 77.5t-33.5 78.5t-83.5 32.5t-83.5 -32.5t-33.5 -78.5z" />
    <glyph glyph-name="nine.denom" horiz-adv-x="632" 
d="M199 -47l-52 113q105 45 173 102t98 141q-58 -49 -137 -49q-101 0 -166.5 68t-65.5 166q0 109 70.5 181.5t181.5 72.5q129 0 206 -88.5t77 -213.5q0 -170 -108 -297.5t-277 -195.5zM440 449q0 78 -32 130t-99 52q-54 0 -85 -37t-31 -92q0 -58 32.5 -91.5t85.5 -33.5
q39 0 74 19.5t55 52.5z" />
    <glyph glyph-name="onefifth" horiz-adv-x="1595" 
d="M1182 1458l112 -82l-1018 -1401l-112 82zM459 692h-142v580q-74 -34 -108 -47v127q14 8 71.5 36.5t86.5 45.5h92v-742zM1397 614h-267q0 -10 -12 -170q39 19 94 19q92 0 156 -66t64 -159q0 -108 -74.5 -180t-183.5 -72q-80 0 -146.5 36.5t-101.5 102.5l118 59
q35 -80 123 -80q55 0 87 36t32 89q0 51 -33.5 84t-85.5 33q-63 0 -102 -47l-92 63q16 169 24 371h400v-119z" />
    <glyph glyph-name="twofifths" horiz-adv-x="1775" 
d="M1362 1458l113 -82l-1018 -1401l-113 82zM180 807q144 147 256 301q58 78 58 137q0 37 -27 59.5t-68 22.5q-42 0 -68 -28.5t-26 -77.5l-141 24q6 90 77 146.5t165 56.5t164.5 -56t70.5 -147q0 -90 -80 -203q-66 -93 -190 -225h301v-119h-492v109zM1577 614h-266
q-1 -34 -6.5 -97.5t-6.5 -72.5q39 19 95 19q92 0 155.5 -66t63.5 -159q0 -108 -74.5 -180t-183.5 -72q-80 0 -146.5 36.5t-101.5 102.5l119 59q35 -80 123 -80q55 0 86.5 36t31.5 89q0 51 -33 84t-85 33q-64 0 -103 -47l-92 63q18 187 25 371h399v-119z" />
    <glyph glyph-name="threefifths" horiz-adv-x="1732" 
d="M1319 1458l113 -82l-1018 -1401l-113 82zM322 1012v123q61 0 92 8q84 23 84 96q0 38 -28.5 63t-76.5 25q-36 0 -62.5 -20.5t-35.5 -57.5l-121 54q24 68 84.5 106.5t136.5 38.5q103 0 174.5 -55.5t71.5 -143.5q0 -46 -25.5 -88.5t-66.5 -66.5q57 -20 92 -70t35 -113
q0 -102 -76 -163.5t-186 -61.5q-80 0 -148 37t-102 108l119 56q39 -82 131 -82q49 0 82.5 27t33.5 77q0 51 -40 80t-103 29q-40 0 -65 -6zM1534 614h-266q-1 -34 -6.5 -97.5t-6.5 -72.5q39 19 95 19q92 0 155.5 -66t63.5 -159q0 -108 -74.5 -180t-183.5 -72
q-80 0 -146.5 36.5t-101.5 102.5l119 59q35 -80 123 -80q55 0 86.5 36t31.5 89q0 51 -33 84t-85 33q-64 0 -103 -47l-92 63q18 187 25 371h399v-119z" />
    <glyph glyph-name="fourfifths" horiz-adv-x="1826" 
d="M1413 1458l113 -82l-1018 -1401l-113 82zM164 1006q164 216 315 428h144v-437h106v-116h-106v-183h-140v183h-319v125zM483 997v250q-154 -230 -170 -250h170zM1628 614h-266q0 -10 -12 -170q39 19 94 19q92 0 155.5 -66t63.5 -159q0 -108 -74.5 -180t-183.5 -72
q-80 0 -146.5 36.5t-101.5 102.5l119 59q35 -80 123 -80q55 0 87 36t32 89q0 51 -33.5 84t-85.5 33q-64 0 -103 -47l-92 63q18 187 25 371h399v-119z" />
    <glyph glyph-name="onesixth" horiz-adv-x="1531" 
d="M1182 1458l112 -82l-1018 -1401l-112 82zM459 692h-142v580q-74 -34 -108 -47v127q14 8 71.5 36.5t86.5 45.5h92v-742zM1219 778l51 -112q-105 -45 -173 -102.5t-98 -141.5q58 49 138 49q101 0 166 -67.5t65 -165.5q0 -109 -70.5 -181.5t-181.5 -72.5q-129 0 -205.5 88
t-76.5 213q0 170 108 297.5t277 195.5zM977 283q0 -78 32 -130.5t99 -52.5q54 0 85.5 37t31.5 92q0 58 -33 91.5t-86 33.5q-39 0 -74 -19t-55 -52z" />
    <glyph glyph-name="fivesixths" horiz-adv-x="1642" 
d="M1292 1458l113 -82l-1018 -1401l-113 82zM635 1315h-266q-1 -34 -6.5 -97.5t-6.5 -72.5q37 18 95 18q92 0 155.5 -66t63.5 -159q0 -108 -74.5 -180t-183.5 -72q-80 0 -146.5 36.5t-101.5 102.5l119 60q35 -80 123 -80q55 0 86.5 36t31.5 89q0 51 -33 84t-85 33
q-63 0 -103 -48l-92 64q18 187 25 371h399v-119zM1329 778l51 -112q-105 -45 -172.5 -102.5t-97.5 -141.5q58 49 137 49q101 0 166.5 -67.5t65.5 -165.5q0 -109 -70.5 -181.5t-181.5 -72.5q-129 0 -206 88t-77 213q0 170 108 297.5t277 195.5zM1087 283q0 -78 32.5 -130.5
t99.5 -52.5q54 0 85 37t31 92q0 58 -32.5 91.5t-85.5 33.5q-39 0 -74.5 -19t-55.5 -52z" />
    <glyph glyph-name="oneseventh" horiz-adv-x="1630" 
d="M1182 1458l112 -82l-1018 -1401l-112 82zM459 692h-142v580q-74 -34 -108 -47v127q14 8 71.5 36.5t86.5 45.5h92v-742zM1466 643q-166 -344 -305 -678l-129 60q84 193 279 587h-338v121h493v-90z" />
    <glyph glyph-name="twosevenths" horiz-adv-x="1810" 
d="M1362 1458l113 -82l-1018 -1401l-113 82zM180 807q144 147 256 301q58 78 58 137q0 37 -27 59.5t-68 22.5q-42 0 -68 -28.5t-26 -77.5l-141 24q6 90 77 146.5t165 56.5t164.5 -56t70.5 -147q0 -90 -80 -203q-66 -93 -190 -225h301v-119h-492v109zM1647 643
q-173 -358 -306 -678l-129 60q84 193 279 587h-338v121h494v-90z" />
    <glyph glyph-name="threesevenths" horiz-adv-x="1767" 
d="M1319 1458l113 -82l-1018 -1401l-113 82zM322 1012v123q61 0 92 8q84 23 84 96q0 38 -28.5 63t-76.5 25q-36 0 -62.5 -20.5t-35.5 -57.5l-121 54q24 68 84.5 106.5t136.5 38.5q103 0 174.5 -55.5t71.5 -143.5q0 -46 -25.5 -88.5t-66.5 -66.5q57 -20 92 -70t35 -113
q0 -102 -76 -163.5t-186 -61.5q-80 0 -148 37t-102 108l119 56q39 -82 131 -82q49 0 82.5 27t33.5 77q0 51 -40 80t-103 29q-40 0 -65 -6zM1604 643q-173 -358 -306 -678l-129 60q84 193 279 587h-338v121h494v-90z" />
    <glyph glyph-name="foursevenths" horiz-adv-x="1861" 
d="M1413 1458l113 -82l-1018 -1401l-113 82zM164 1006q164 216 315 428h144v-437h106v-116h-106v-183h-140v183h-319v125zM483 997v250q-154 -230 -170 -250h170zM1698 643q-166 -344 -305 -678l-129 60q90 209 278 587h-338v121h494v-90z" />
    <glyph glyph-name="fivesevenths" horiz-adv-x="1740" 
d="M1292 1458l113 -82l-1018 -1401l-113 82zM635 1315h-266q-1 -34 -6.5 -97.5t-6.5 -72.5q37 18 95 18q92 0 155.5 -66t63.5 -159q0 -108 -74.5 -180t-183.5 -72q-80 0 -146.5 36.5t-101.5 102.5l119 60q35 -80 123 -80q55 0 86.5 36t31.5 89q0 51 -33 84t-85 33
q-63 0 -103 -48l-92 64q18 187 25 371h399v-119zM1577 643q-166 -344 -305 -678l-129 60q90 209 278 587h-338v121h494v-90z" />
    <glyph glyph-name="sixsevenths" horiz-adv-x="1775" 
d="M1327 1458l113 -82l-1018 -1401l-113 82zM549 1479l51 -113q-105 -45 -172.5 -102.5t-97.5 -141.5q58 49 137 49q101 0 166 -67.5t65 -165.5q0 -109 -70.5 -181.5t-181.5 -72.5q-129 0 -205.5 88t-76.5 213q0 170 108 298t277 196zM307 983q0 -78 32 -130t99 -52
q54 0 85.5 37t31.5 92q0 58 -33 91.5t-86 33.5q-39 0 -74 -19.5t-55 -52.5zM1612 643q-166 -344 -305 -678l-129 60q90 209 278 587h-338v121h494v-90z" />
    <glyph glyph-name="oneninth" horiz-adv-x="1644" 
d="M1182 1458l112 -82l-1018 -1401l-112 82zM459 692h-142v580q-74 -34 -108 -47v127q14 8 71.5 36.5t86.5 45.5h92v-742zM1096 -47l-52 113q105 45 173 102t98 141q-58 -49 -137 -49q-101 0 -166.5 68t-65.5 166q0 109 70.5 181.5t181.5 72.5q129 0 206 -88.5t77 -213.5
q0 -170 -108 -297.5t-277 -195.5zM1337 449q0 78 -32 130t-99 52q-54 0 -85 -37t-31 -92q0 -58 32.5 -91.5t85.5 -33.5q39 0 74 19.5t55 52.5z" />
    <glyph glyph-name="twoninths" horiz-adv-x="1824" 
d="M1362 1458l113 -82l-1018 -1401l-113 82zM180 807q144 147 256 301q58 78 58 137q0 37 -27 59.5t-68 22.5q-42 0 -68 -28.5t-26 -77.5l-141 24q6 90 77 146.5t165 56.5t164.5 -56t70.5 -147q0 -90 -80 -203q-66 -93 -190 -225h301v-119h-492v109zM1276 -47l-51 113
q105 45 172.5 102t97.5 141q-58 -49 -137 -49q-101 0 -166.5 68t-65.5 166q0 109 70.5 181.5t181.5 72.5q129 0 206 -88.5t77 -213.5q0 -170 -108 -297.5t-277 -195.5zM1518 449q0 78 -32.5 130t-99.5 52q-54 0 -85 -37t-31 -92q0 -58 33 -91.5t86 -33.5q39 0 74 19.5
t55 52.5z" />
    <glyph glyph-name="fourninths" horiz-adv-x="1875" 
d="M1413 1458l113 -82l-1018 -1401l-113 82zM164 1006q164 216 315 428h144v-437h106v-116h-106v-183h-140v183h-319v125zM483 997v250q-154 -230 -170 -250h170zM1327 -47l-51 113q105 45 172.5 102t97.5 141q-58 -49 -137 -49q-101 0 -166 68t-65 166q0 109 70.5 181.5
t181.5 72.5q129 0 205.5 -88t76.5 -214q0 -170 -108 -297.5t-277 -195.5zM1569 449q0 78 -32 130t-99 52q-54 0 -85.5 -37t-31.5 -92q0 -58 33 -91.5t86 -33.5q39 0 74 19.5t55 52.5z" />
    <glyph glyph-name="fiveninths" horiz-adv-x="1755" 
d="M1292 1458l113 -82l-1018 -1401l-113 82zM635 1315h-266q-1 -34 -6.5 -97.5t-6.5 -72.5q37 18 95 18q92 0 155.5 -66t63.5 -159q0 -108 -74.5 -180t-183.5 -72q-80 0 -146.5 36.5t-101.5 102.5l119 60q35 -80 123 -80q55 0 86.5 36t31.5 89q0 51 -33 84t-85 33
q-63 0 -103 -48l-92 64q18 187 25 371h399v-119zM1206 -47l-51 113q105 45 172.5 102t97.5 141q-58 -49 -137 -49q-101 0 -166 68t-65 166q0 109 70.5 181.5t181.5 72.5q129 0 205.5 -88t76.5 -214q0 -170 -108 -297.5t-277 -195.5zM1448 449q0 78 -32 130t-99 52
q-54 0 -85.5 -37t-31.5 -92q0 -58 33 -91.5t86 -33.5q39 0 74 19.5t55 52.5z" />
    <glyph glyph-name="sevenninths" horiz-adv-x="1644" 
d="M1182 1458l112 -82l-1018 -1401l-112 82zM680 1343q-169 -350 -305 -677l-129 59q94 217 278 588h-338v121h494v-91zM1096 -47l-52 113q105 45 173 102t98 141q-58 -49 -137 -49q-101 0 -166.5 68t-65.5 166q0 109 70.5 181.5t181.5 72.5q129 0 206 -88.5t77 -213.5
q0 -170 -108 -297.5t-277 -195.5zM1337 449q0 78 -32 130t-99 52q-54 0 -85 -37t-31 -92q0 -58 32.5 -91.5t85.5 -33.5q39 0 74 19.5t55 52.5z" />
    <glyph glyph-name="eightninths" horiz-adv-x="1800" 
d="M1337 1458l113 -82l-1018 -1401l-113 82zM573 1085q56 -30 83.5 -73.5t27.5 -108.5q0 -92 -73.5 -154.5t-186.5 -62.5q-115 0 -187.5 62.5t-72.5 154.5q0 119 110 182q-92 59 -92 158q0 86 68 145.5t174 59.5t174 -59.5t68 -145.5q0 -99 -93 -158zM324 1235q0 -40 29 -68
t71 -28q41 0 70.5 28t29.5 68q0 41 -29 68.5t-71 27.5q-43 0 -71.5 -27.5t-28.5 -68.5zM307 911q0 -46 33 -77t84 -31t84 31t33 77t-33.5 78.5t-83.5 32.5t-83.5 -32.5t-33.5 -78.5zM1251 -47l-51 113q105 45 172.5 102t97.5 141q-58 -49 -137 -49q-101 0 -166 68t-65 166
q0 109 70.5 181.5t181.5 72.5q129 0 205.5 -88t76.5 -214q0 -170 -108 -297.5t-277 -195.5zM1493 449q0 78 -32 130t-99 52q-54 0 -85.5 -37t-31.5 -92q0 -58 33 -91.5t86 -33.5q39 0 74 19.5t55 52.5z" />
    <glyph glyph-name="commaaccent" horiz-adv-x="737" 
d="M352 -473h-153l73 358h174z" />
    <glyph glyph-name="revcommaaccent" horiz-adv-x="737" 
d="M383 1528h162l-76 -367h-182z" />
    <glyph glyph-name="tilde.cap" horiz-adv-x="737" 
d="M584 1774l133 14q4 -24 4 -55q0 -88 -56 -141.5t-145 -53.5q-48 0 -94.5 20.5t-76.5 45t-66 45t-66 20.5q-28 0 -47 -16t-20 -45q0 -15 2 -21l-134 -14q-4 24 -4 55q0 88 56 141.5t145 53.5q47 0 93 -20.5t77 -45t67.5 -45t65.5 -20.5t48 16t20 45q0 15 -2 21z" />
    <glyph glyph-name="ring.cap" horiz-adv-x="737" 
d="M178 1677q0 78 56.5 134.5t134.5 56.5t134 -56.5t56 -134.5t-56 -134t-134 -56t-134.5 56t-56.5 134zM279 1677q0 -37 26.5 -63.5t63.5 -26.5t63.5 26.5t26.5 63.5t-26.5 63.5t-63.5 26.5t-63.5 -26.5t-26.5 -63.5z" />
    <glyph glyph-name="circumflex.cap" horiz-adv-x="737" 
d="M270 1888h195l219 -274l-111 -86l-208 237l-207 -237l-113 86z" />
    <glyph glyph-name="acute.cap" horiz-adv-x="737" 
d="M653 1774l-358 -258l-86 110l338 283z" />
    <glyph glyph-name="grave.cap" horiz-adv-x="737" 
d="M442 1516l-358 258l106 135l338 -283z" />
    <glyph glyph-name="dieresis.cap" horiz-adv-x="737" 
d="M197 1565h-209v227h209v-227zM750 1565h-209v227h209v-227z" />
    <glyph glyph-name="caron.cap" horiz-adv-x="737" 
d="M459 1540h-195l-219 275l113 86l209 -238l206 238l111 -86z" />
    <glyph glyph-name="macron.cap" horiz-adv-x="737" 
d="M707 1585h-676v146h676v-146z" />
    <glyph glyph-name="dotaccent.cap" horiz-adv-x="737" 
d="M473 1565h-209v227h209v-227z" />
    <glyph glyph-name="cedilla.cap" horiz-adv-x="737" 
d="M403 0l-57 -133l4 -2q37 33 99 33q80 0 129 -55.5t49 -135.5q0 -83 -65 -146t-159 -63q-142 0 -210 121l116 57q23 -65 94 -65q39 0 64 27t25 63q0 39 -24 67.5t-65 28.5q-58 0 -84 -49l-126 68l96 204z" />
    <glyph glyph-name="hungarumlaut.cap" horiz-adv-x="737" 
d="M465 1774l-359 -258l-86 110l338 283zM895 1763l-344 -247l-86 110l323 272z" />
    <glyph glyph-name="commaaccent.cap" horiz-adv-x="737" 
d="M352 -473h-153l73 358h174z" />
    <glyph glyph-name="breve.cap" horiz-adv-x="737" 
d="M530 1831h132v-12q0 -121 -84 -196t-209 -75q-133 0 -213 74t-80 197v12h137v-12q0 -66 43.5 -103t112.5 -37q68 0 114.5 37t46.5 103v12z" />
    <glyph glyph-name="caron.alt" horiz-adv-x="737" 
d="M340 1024h-156l82 410h183z" />
    <glyph glyph-name="ogonek.cap" horiz-adv-x="737" 
d="M330 25l141 -15l8 -10q-106 -32 -158.5 -94t-52.5 -131q0 -42 22.5 -66t63.5 -24q45 0 90 28l66 -104q-70 -64 -182 -64q-93 0 -160.5 54t-67.5 149t60 165t170 112z" />
    <glyph glyph-name="square" horiz-adv-x="794" 
d="M123 317v549h549v-549h-549z" />
    <glyph glyph-name="square.open" horiz-adv-x="794" 
d="M123 317v549h549v-549h-549zM283 707v-230h229v230h-229z" />
    <glyph glyph-name="circle.open" horiz-adv-x="749" 
d="M72 592q0 126 88.5 214.5t214.5 88.5t214.5 -88.5t88.5 -214.5t-88.5 -214.5t-214.5 -88.5t-214.5 88.5t-88.5 214.5zM248 592q0 -52 37 -89.5t90 -37.5t90 37.5t37 89.5t-37 89.5t-90 37.5t-90 -37.5t-37 -89.5z" />
    <glyph glyph-name="doublecircle" horiz-adv-x="749" 
d="M80 580q0 121 86.5 207.5t208.5 86.5t208.5 -86.5t86.5 -207.5q0 -122 -87 -208.5t-208 -86.5t-208 86.5t-87 208.5zM262 580q0 46 33.5 79t79.5 33t79 -33t33 -79t-33 -79.5t-79 -33.5t-79.5 33.5t-33.5 79.5zM154 580q0 -91 65 -156.5t156 -65.5t156 65.5t65 156.5
t-65 156t-156 65t-156 -65t-65 -156z" />
    <glyph glyph-name="triangle.left" horiz-adv-x="815" 
d="M692 227l-631 359l631 354v-713z" />
    <glyph glyph-name="raute" horiz-adv-x="729" 
d="M365 1049l303 -484l-303 -483l-304 483z" />
    <glyph glyph-name="triangleWhiteLeft" horiz-adv-x="1003" 
d="M881 121l-820 463l820 463v-926zM737 801l-383 -217l383 -215v432z" />
    <glyph glyph-name="triangleWhiteRight" horiz-adv-x="1003" 
d="M942 584l-819 -463v926zM649 584l-383 217v-432z" />
    <glyph glyph-name="arrow.right" horiz-adv-x="2048" 
d="M82 645v186h1575l-533 523l131 131l752 -746l-752 -745l-131 131l531 520h-1573z" />
    <glyph glyph-name="arrow.left" horiz-adv-x="2048" 
d="M1966 831v-186h-1573l531 -520l-131 -131l-752 745l752 746l131 -131l-533 -523h1575z" />
    <glyph glyph-name="arrow.up" horiz-adv-x="1843" 
d="M1014 -203h-187v1573l-520 -530l-131 131l746 751l745 -751l-131 -131l-522 532v-1575z" />
    <glyph glyph-name="arrow.down" horiz-adv-x="1843" 
d="M827 1681h187v-1575l522 533l131 -131l-745 -752l-746 752l131 131l520 -530v1572z" />
    <glyph glyph-name="arrow.leftup" horiz-adv-x="2048" 
d="M324 1419l1058 -4v-184l-747 6l1114 -1114l-131 -131l-1112 1112l6 -744h-184z" />
    <glyph glyph-name="arrow.rightup" horiz-adv-x="2048" 
d="M690 1415l1059 4l-4 -1059h-184l6 744l-1112 -1112l-131 131l1114 1114l-748 -6v184z" />
    <glyph glyph-name="arrowleft.down" horiz-adv-x="2048" 
d="M1618 1427l131 -131l-1114 -1114l747 6v-184l-1058 -4l4 1059h184l-6 -744z" />
    <glyph glyph-name="arrowright.down" horiz-adv-x="2048" 
d="M324 1296l131 131l1112 -1112l-6 744h184l4 -1059l-1059 4v184l748 -6z" />
    <glyph glyph-name="arrowright.alt" horiz-adv-x="960" 
d="M797 584l-527 -391l-106 151l348 240l-348 239l106 152z" />
    <glyph glyph-name="arrowleft.alt" horiz-adv-x="960" 
d="M690 193l-526 391l526 391l107 -152l-348 -239l348 -240z" />
    <glyph glyph-name="arrowup.alt" horiz-adv-x="1110" 
d="M555 975l391 -526l-151 -107l-240 348l-240 -348l-151 107z" />
    <glyph glyph-name="arrowdown.alt" horiz-adv-x="1110" 
d="M946 719l-391 -526l-391 526l151 106l240 -348l240 348z" />
    <glyph glyph-name="arrowleftup.alt" horiz-adv-x="976" 
d="M164 883l649 -97l-33 -182l-415 76l77 -414l-184 -33z" />
    <glyph glyph-name="arrowrightup.alt" horiz-adv-x="976" 
d="M164 786l649 97l-94 -650l-184 33l77 414l-415 -76z" />
    <glyph glyph-name="arrowleftdown.alt" horiz-adv-x="976" 
d="M813 330l-649 -97l94 650l184 -33l-77 -414l415 76z" />
    <glyph glyph-name="arrowrightdown.alt" horiz-adv-x="976" 
d="M813 233l-649 97l33 182l415 -76l-77 414l184 33z" />
    <glyph glyph-name="arrowlong.left" horiz-adv-x="2457" 
d="M848 1032l-426 -418h1892v-147h-1892l426 -418l-105 -106l-600 598l600 596z" />
    <glyph glyph-name="arrowlong.right" horiz-adv-x="2457" 
d="M1714 -57l-104 106l424 418h-1891v147h1891l-424 418l104 105l600 -596z" />
    <glyph glyph-name="arrowlong.up" horiz-adv-x="1480" 
d="M1231 1018l-418 424v-1891h-147v1891l-418 -424l-105 104l596 600l598 -600z" />
    <glyph glyph-name="arrowlong.down" horiz-adv-x="1480" 
d="M248 219l418 -424v1891h147v-1891l418 424l106 -104l-598 -600l-596 600z" />
    <glyph glyph-name="arrowlong.leftup" horiz-adv-x="1873" 
d="M989 1253l-596 4l1338 -1337l-105 -104l-1337 1337l6 -596h-148l-4 846h848z" />
    <glyph glyph-name="arrowlong.leftdown" horiz-adv-x="1873" 
d="M295 662l-6 -599l1337 1340l105 -105l-1338 -1337l596 4l2 -149h-848l4 846h148z" />
    <glyph glyph-name="arrowlong.rightup" horiz-adv-x="1873" 
d="M1579 557l4 596l-1335 -1337l-105 104l1336 1337l-594 -4l-2 150h848l-5 -846h-147z" />
    <glyph glyph-name="arrowlong.rightdown" horiz-adv-x="1873" 
d="M883 -184l2 149l594 -4l-1336 1337l105 105l1335 -1340l-4 599h147l5 -846h-848z" />
    <glyph glyph-name="ornm1" horiz-adv-x="1363" 
d="M492 799q0 -40 30 -70h-411q-29 0 -49.5 20.5t-20.5 49.5t20.5 49t49.5 20h409q-28 -28 -28 -69zM680 315q0 -28 -19 -46.5t-47 -18.5h-165q-28 0 -47 18.5t-19 46.5t19 47t47 19h165q28 0 47 -19t19 -47zM680 475q0 -28 -19 -46.5t-47 -18.5h-165q-28 0 -47 18.5
t-19 46.5t19 47t47 19h165q28 0 47 -19t19 -47zM680 635q0 -28 -19 -47t-47 -19h-165q-28 0 -47 19t-19 47t19 46.5t47 18.5h165q28 0 47 -18.5t19 -46.5zM879 250h-197q27 27 27 65q0 53 -45 80q45 27 45 80t-45 80q45 27 45 80q0 38 -29 67h129v27h-219q-29 0 -49.5 20.5
t-20.5 49.5t20.5 49t49.5 20h305q28 0 46 -19t26.5 -42.5t29 -42.5t52.5 -19h233v-403h-233q-32 0 -53 -14.5t-30.5 -31.5t-31.5 -31.5t-55 -14.5z" />
    <glyph glyph-name="ornm2" horiz-adv-x="1363" 
d="M872 799q0 41 -28 69h409q29 0 49.5 -20t20.5 -49t-20.5 -49.5t-49.5 -20.5h-411q30 30 30 70zM682 250h-197q-33 0 -55 14.5t-31.5 31.5t-30.5 31.5t-53 14.5h-233v403h233q32 0 52.5 19t29 42.5t26.5 42.5t46 19h305q29 0 49.5 -20t20.5 -49t-20.5 -49.5t-49.5 -20.5
h-219v-27h129q-29 -29 -29 -67q0 -53 45 -80q-45 -27 -45 -80t45 -80q-45 -27 -45 -80q0 -38 27 -65zM684 315q0 28 19 47t47 19h165q28 0 47 -19t19 -47t-19 -46.5t-47 -18.5h-165q-28 0 -47 18.5t-19 46.5zM684 475q0 28 19 47t47 19h165q28 0 47 -19t19 -47t-19 -46.5
t-47 -18.5h-165q-28 0 -47 18.5t-19 46.5zM684 635q0 28 19 46.5t47 18.5h165q28 0 47 -18.5t19 -46.5t-19 -47t-47 -19h-165q-28 0 -47 19t-19 47z" />
    <glyph glyph-name="ornm3" horiz-adv-x="2252" 
d="M1327 1204l-125 25l64 315l125 -24zM1063 1231h127v-322h-127v322zM926 -160l125 -24l-64 -316l-125 25zM1190 -186h-127v321h127v-321zM1808 322l25 124l315 -63l-24 -125zM1835 586v-127h-322v127h322zM444 723l-24 -125l-316 64l25 124zM418 459v127h321v-127h-321z
M1751 864l-70 105l267 180l71 -107zM1583 1069l90 -90l-227 -227l-90 90zM502 180l69 -104l-266 -180l-72 106zM670 -25l-90 91l227 227l90 -90zM1468 -102l105 69l180 -266l-106 -72zM1673 66l-90 -91l-227 228l90 90zM784 1147l-104 -70l-180 266l106 72zM580 979l90 90
l227 -227l-90 -90zM1567 1079l-105 70l176 270l107 -69zM1333 1202l117 -47l-119 -297l-119 47zM686 -35l105 -69l-177 -271l-106 70zM920 -158l-117 47l119 297l118 -47zM1683 82l70 104l270 -176l-69 -106zM1806 315l-47 -116l-297 118l47 119zM569 963l-69 -105l-271 176
l70 107zM446 729l48 117l297 -119l-48 -119zM1057 1229l-125 -23l-60 318l123 22zM803 1155l117 47l120 -297l-118 -47zM1196 -184l125 22l59 -317l-123 -23zM1450 -111l-117 -47l-121 297l119 47zM1833 592l-23 125l318 59l22 -123zM1759 846l47 -117l-297 -121l-47 119z
M420 453l22 -125l-317 -60l-23 123zM494 199l-48 116l297 121l48 -119z" />
    <glyph glyph-name="ornm4" horiz-adv-x="2410" 
d="M647 522q0 148 73 273.5t198.5 198.5t273.5 73t273.5 -73t198.5 -198.5t73 -273.5t-73 -273.5t-198.5 -198.5t-273.5 -73t-273.5 73t-198.5 198.5t-73 273.5zM762 522q0 -178 126 -304t304 -126t304 126t126 304t-126 304t-304 126t-304 -126t-126 -304zM877 522
q0 131 92.5 223.5t222.5 92.5t222.5 -92.5t92.5 -223.5q0 -130 -92.5 -222.5t-222.5 -92.5t-222.5 92.5t-92.5 222.5zM991 522q0 -83 59 -141.5t142 -58.5t142 58.5t59 141.5t-59 142t-142 59t-142 -59t-59 -142zM1479 1167q0 35 25.5 60.5t60.5 25.5t60.5 -25.5t25.5 -60.5
t-25.5 -60.5t-60.5 -25.5t-60.5 25.5t-25.5 60.5zM1493 -145q0 35 25.5 60.5t60.5 25.5t60.5 -25.5t25.5 -60.5t-25.5 -60.5t-60.5 -25.5t-60.5 25.5t-25.5 60.5zM1622 -369q0 35 25.5 60.5t60.5 25.5t60.5 -25.5t25.5 -60.5t-25.5 -60.5t-60.5 -25.5t-60.5 25.5t-25.5 60.5
zM1774 135q0 35 25.5 60.5t60.5 25.5t60.5 -25.5t25.5 -60.5t-25.5 -60.5t-60.5 -25.5t-60.5 25.5t-25.5 60.5zM1997 6q0 35 25.5 60.5t60.5 25.5t60.5 -25.5t25.5 -60.5t-25.5 -60.5t-60.5 -25.5t-60.5 25.5t-25.5 60.5zM604 1391q0 35 25.5 60.5t60.5 25.5t60.5 -25.5
t25.5 -60.5t-25.5 -60.5t-60.5 -25.5t-60.5 25.5t-25.5 60.5zM733 1167q0 35 25.5 60.5t60.5 25.5t60.5 -25.5t25.5 -60.5t-25.5 -60.5t-60.5 -25.5t-60.5 25.5t-25.5 60.5zM238 1024q0 35 25.5 60.5t60.5 25.5t60.5 -25.5t25.5 -60.5t-25.5 -60.5t-60.5 -25.5t-60.5 25.5
t-25.5 60.5zM461 895q0 35 25.5 60.5t60.5 25.5t60.5 -25.5t25.5 -60.5t-25.5 -60.5t-60.5 -25.5t-60.5 25.5t-25.5 60.5zM1878 522q0 35 25.5 60.5t60.5 25.5t60.5 -25.5t25.5 -60.5t-25.5 -60.5t-60.5 -25.5t-60.5 25.5t-25.5 60.5zM2136 522q0 35 25.5 60.5t60.5 25.5
t60.5 -25.5t25.5 -60.5t-25.5 -60.5t-60.5 -25.5t-60.5 25.5t-25.5 60.5zM1751 895q0 35 25.5 60.5t60.5 25.5t60.5 -25.5t25.5 -60.5t-25.5 -60.5t-60.5 -25.5t-60.5 25.5t-25.5 60.5zM604 -346q0 35 25.5 60.5t60.5 25.5t60.5 -25.5t25.5 -60.5t-25.5 -60.5t-60.5 -25.5
t-60.5 25.5t-25.5 60.5zM102 522q0 35 25.5 60.5t60.5 25.5t60.5 -25.5t25.5 -60.5t-25.5 -60.5t-60.5 -25.5t-60.5 25.5t-25.5 60.5zM1608 1391q0 35 25.5 60.5t60.5 25.5t60.5 -25.5t25.5 -60.5t-25.5 -60.5t-60.5 -25.5t-60.5 25.5t-25.5 60.5zM1106 1268q0 35 25.5 60.5
t60.5 25.5t60.5 -25.5t25.5 -60.5t-25.5 -60.5t-60.5 -25.5t-60.5 25.5t-25.5 60.5zM1106 1526q0 35 25.5 60.5t60.5 25.5t60.5 -25.5t25.5 -60.5t-25.5 -60.5t-60.5 -25.5t-60.5 25.5t-25.5 60.5zM1106 -481q0 35 25.5 60.5t60.5 25.5t60.5 -25.5t25.5 -60.5t-25.5 -60.5
t-60.5 -25.5t-60.5 25.5t-25.5 60.5zM1106 -223q0 35 25.5 60.5t60.5 25.5t60.5 -25.5t25.5 -60.5t-25.5 -60.5t-60.5 -25.5t-60.5 25.5t-25.5 60.5zM1974 1024q0 35 25.5 60.5t60.5 25.5t60.5 -25.5t25.5 -60.5t-25.5 -60.5t-60.5 -25.5t-60.5 25.5t-25.5 60.5zM1106 522
q0 35 25.5 60.5t60.5 25.5t60.5 -25.5t25.5 -60.5t-25.5 -60.5t-60.5 -25.5t-60.5 25.5t-25.5 60.5zM238 20q0 35 25.5 60.5t60.5 25.5t60.5 -25.5t25.5 -60.5t-25.5 -60.5t-60.5 -25.5t-60.5 25.5t-25.5 60.5zM461 150q0 35 25.5 60.5t60.5 25.5t60.5 -25.5t25.5 -60.5
t-25.5 -61t-60.5 -26t-60.5 26t-25.5 61zM733 -123q0 35 25.5 60.5t60.5 25.5t60.5 -25.5t25.5 -60.5t-25.5 -60.5t-60.5 -25.5t-60.5 25.5t-25.5 60.5zM360 522q0 35 25.5 60.5t60.5 25.5t60.5 -25.5t25.5 -60.5t-25.5 -60.5t-60.5 -25.5t-60.5 25.5t-25.5 60.5z" />
    <glyph glyph-name="ornm5" horiz-adv-x="2166" 
d="M481 1034l90 90l174 -174q36 28 76 49l-184 457l119 47l184 -456q27 9 80 16v248h127v-248q36 -5 88 -19l192 453l117 -51l-192 -451q14 -7 69 -45l174 174l91 -90l-175 -174q38 -53 50 -76l456 185l47 -119l-456 -184q8 -28 16 -80h248v-127h-248q-6 -47 -18 -90
l452 -191l-51 -117l-451 191q-18 -34 -45 -68l175 -174l-91 -90l-174 174q-60 -43 -75 -51l184 -455l-119 -47l-184 457q-28 -8 -80 -16v-248h-127v248q-46 6 -90 18l-191 -453l-116 52l190 448q-49 30 -68 47l-174 -174l-90 90l174 174q-34 44 -51 76l-454 -184l-48 119
l455 184q-12 50 -14 80h-248v127h248q3 39 16 88l-450 192l51 117l448 -192q18 31 47 69zM653 522q0 -178 125.5 -304t304.5 -126t304.5 126t125.5 304t-125.5 304t-304.5 126t-304.5 -126t-125.5 -304zM768 522q0 131 92.5 223.5t222.5 92.5q131 0 223.5 -93t92.5 -223
t-92.5 -222.5t-223.5 -92.5t-223 92.5t-92 222.5zM883 522q0 -83 58.5 -141.5t141.5 -58.5t142 58.5t59 141.5t-59 142t-142 59t-141.5 -59t-58.5 -142zM997 522q0 35 25.5 60.5t60.5 25.5t60.5 -25.5t25.5 -60.5t-25.5 -60.5t-60.5 -25.5t-60.5 25.5t-25.5 60.5z" />
    <glyph glyph-name="ornm6" horiz-adv-x="2269" 
d="M451 -252l-91 90l347 346q-37 48 -52 76l-454 -184l-47 119l454 182q-12 54 -14 82h-492v127h492q3 39 16 88l-450 192l51 117l451 -190q13 27 45 67l-347 346l91 90l346 -346q38 30 75 49l-184 457l119 47l182 -456q30 9 82 16v491h127v-491q36 -5 88 -19l193 453
l116 -51l-190 -451q39 -22 68 -45l346 346l90 -90l-346 -346q31 -42 49 -78l456 187l48 -119l-457 -184q8 -28 16 -80h492v-127h-492q-6 -43 -18 -88l452 -193l-51 -117l-450 189q-25 -41 -45 -66l346 -346l-90 -90l-346 346q-52 -38 -78 -51l186 -455l-119 -47l-184 457
q-28 -8 -80 -16v-492h-127v492q-43 6 -88 18l-192 -453l-117 52l188 450q-25 13 -65 45zM705 522q0 -178 125.5 -304t304.5 -126t304.5 126t125.5 304t-125.5 304t-304.5 126t-304.5 -126t-125.5 -304zM819 522q0 130 92.5 223t223.5 93q130 0 222.5 -92.5t92.5 -223.5
q0 -130 -92 -222.5t-223 -92.5t-223.5 92.5t-92.5 222.5zM934 522q0 -83 59 -141.5t142 -58.5t141.5 58.5t58.5 141.5t-58.5 142t-141.5 59t-142 -59t-59 -142z" />
    <glyph glyph-name="ornm7" horiz-adv-x="2211" 
d="M102 522q0 204 79.5 389.5t214.5 320.5t320.5 214.5t389.5 79.5t389.5 -79.5t320 -214.5t214 -320.5t79.5 -389.5t-79.5 -389.5t-214 -320t-320 -214t-389.5 -79.5t-389.5 79.5t-320.5 214t-214.5 320t-79.5 389.5zM217 522q0 -242 119 -446.5t323.5 -323.5t446.5 -119
t446.5 119t323.5 323.5t119 446.5t-119 446.5t-323.5 323.5t-446.5 119t-446.5 -119t-323.5 -323.5t-119 -446.5zM332 522q0 158 61 301t165 247t247 165t301 61t301 -61t247 -165t165 -247t61 -301t-61 -301t-165 -247t-247 -165t-301 -61t-301 61t-247 165t-165 247
t-61 301zM446 522q0 -134 52 -256.5t140.5 -210.5t211 -140t256.5 -52t256.5 52t210.5 140t140 210.5t52 256.5t-52 256.5t-140 211t-210.5 140.5t-256.5 52t-256.5 -52t-211 -140.5t-140.5 -211t-52 -256.5zM561 522q0 148 73 273.5t198.5 198.5t273.5 73t273.5 -73
t198.5 -198.5t73 -273.5t-73 -273.5t-198.5 -198.5t-273.5 -73t-273.5 73t-198.5 198.5t-73 273.5zM676 522q0 -178 126 -304t304 -126t304 126t126 304t-126 304t-304 126t-304 -126t-126 -304zM791 522q0 131 92.5 223.5t222.5 92.5t222.5 -92.5t92.5 -223.5
q0 -130 -92.5 -222.5t-222.5 -92.5t-222.5 92.5t-92.5 222.5zM905 522q0 -83 59 -141.5t142 -58.5t142 58.5t59 141.5t-59 142t-142 59t-142 -59t-59 -142zM1020 522q0 35 25.5 60.5t60.5 25.5t60.5 -25.5t25.5 -60.5t-25.5 -60.5t-60.5 -25.5t-60.5 25.5t-25.5 60.5z" />
    <glyph glyph-name="ornm8" horiz-adv-x="2265" 
d="M1196 909h-127v643h127v-643zM1196 -508h-127v643h127v-643zM1520 459v127h643v-127h-643zM102 459v127h643v-127h-643zM1452 752l-90 90l455 454l90 -90zM449 -252l-91 90l455 455l90 -90zM1362 203l90 90l455 -455l-90 -90zM358 1206l91 90l454 -454l-90 -90zM1337 858
l-118 47l241 596l117 -47zM805 -457l-117 47l240 596l119 -47zM1468 317l48 119l595 -241l-47 -117zM154 850l47 117l596 -240l-47 -119zM1516 614l-52 119l592 250l51 -117zM209 61l-51 117l592 252l51 -119zM1225 139l118 51l250 -591l-116 -52zM672 1446l116 51l252 -592
l-118 -51z" />
    <glyph glyph-name="ornm9" horiz-adv-x="1228" 
d="M1126 1024v-1024h-1024v1024h1024z" />
    <glyph glyph-name="zero.alt" 
d="M563 1384q229 0 355 -187.5t126 -516.5q0 -330 -126 -517.5t-355 -187.5t-355 187.5t-126 517.5q0 329 126 516.5t355 187.5zM563 1208q-137 0 -210.5 -133t-73.5 -395t73.5 -395t210.5 -133t211 133t74 395t-74 395t-211 133z" />
    <glyph glyph-name="one.alt" horiz-adv-x="704" 
d="M113 1217q167 83 272 143h125v-1360h-193v1126q-28 -15 -64 -31t-79.5 -34t-60.5 -25v181z" />
    <glyph glyph-name="two.alt" horiz-adv-x="1042" 
d="M983 0h-864v174q337 354 479 561q125 182 125 289q0 86 -67 137t-156 51q-87 0 -150.5 -59.5t-64.5 -151.5l-191 39q12 149 137 246.5t277 97.5q166 0 290 -101.5t124 -258.5q0 -167 -146 -375q-148 -210 -399 -477h606v-172z" />
    <glyph glyph-name="three.alt" horiz-adv-x="1021" 
d="M326 631l-97 153l392 404h-523v172h795v-154l-365 -368q112 -7 202.5 -67t140 -155t49.5 -206q0 -182 -135 -308.5t-332 -126.5q-126 0 -229.5 61t-162.5 165l154 86q39 -66 101 -103t139 -37q109 0 188.5 77.5t79.5 185.5q0 107 -79 184.5t-187 77.5q-76 0 -131 -41z
" />
    <glyph glyph-name="four.alt" horiz-adv-x="1101" 
d="M674 1360h184v-830h203v-172h-203v-358h-188v358h-598v207q404 523 602 795zM276 530h394v537q-255 -359 -394 -537z" />
    <glyph glyph-name="five.alt" horiz-adv-x="1021" 
d="M369 1188q-10 -202 -29 -381q78 37 186 37q109 0 201 -53t147.5 -150.5t55.5 -218.5q0 -189 -132 -318t-335 -129q-126 0 -229 61t-162 165l153 86q39 -66 101 -103t139 -37q108 0 188 77t80 182q0 122 -67.5 194t-194.5 72q-113 0 -197 -84l-141 76q40 404 55 696h674
v-172h-493z" />
    <glyph glyph-name="six.alt" horiz-adv-x="1060" 
d="M530 655q-114 0 -182.5 -73t-68.5 -181q0 -104 74 -179t177 -75q114 0 183 73t69 181q0 104 -74.5 179t-177.5 75zM477 815q40 12 92 12q105 0 199 -55.5t152.5 -153t58.5 -212.5q0 -118 -62 -218t-166 -156.5t-225 -56.5q-183 0 -313.5 125.5t-130.5 305.5q0 108 72 245
q39 74 213.5 351.5t271.5 416.5l156 -96q-206 -309 -318 -508z" />
    <glyph glyph-name="seven.alt" horiz-adv-x="925" 
d="M885 1360v-141q-127 -264 -291.5 -632t-274.5 -632l-178 80q82 193 178.5 403.5t221.5 472t131 273.5h-652v176h865z" />
    <glyph glyph-name="eight.alt" horiz-adv-x="1150" 
d="M1028 383q0 -168 -132.5 -288t-320.5 -120t-320 120t-132 288q0 104 56 192.5t151 141.5q-78 47 -123 121t-45 166q0 156 120.5 268t292.5 112t293 -112t121 -268q0 -92 -45 -166t-123 -121q95 -53 151 -141.5t56 -192.5zM354 1004q0 -88 64.5 -149.5t156.5 -61.5
t157 61.5t65 149.5q0 86 -65 147t-157 61t-156.5 -61t-64.5 -147zM319 383q0 -97 74.5 -166.5t181.5 -69.5t181.5 69.5t74.5 166.5q0 99 -74.5 168.5t-181.5 69.5t-181.5 -69.5t-74.5 -168.5z" />
    <glyph glyph-name="nine.alt" horiz-adv-x="1060" 
d="M530 705q114 0 183 73t69 180q0 104 -74.5 179t-177.5 75q-114 0 -182.5 -73t-68.5 -181q0 -104 74 -178.5t177 -74.5zM584 545q-44 -13 -92 -13q-105 0 -199 55.5t-152.5 153.5t-58.5 213q0 118 62 217.5t166 156t225 56.5q183 0 313.5 -125t130.5 -305q0 -108 -72 -245
q-39 -74 -213.5 -351.5t-271.5 -416.5l-156 96q206 309 318 508z" />
    <glyph glyph-name="zero.lf" 
d="M563 1384q229 0 355 -187.5t126 -516.5q0 -330 -126 -517.5t-355 -187.5t-355 187.5t-126 517.5q0 329 126 516.5t355 187.5zM563 1208q-137 0 -210.5 -133t-73.5 -395t73.5 -395t210.5 -133t211 133t74 395t-74 395t-211 133z" />
    <glyph glyph-name="one.lf" horiz-adv-x="704" 
d="M510 0h-193v1126q-28 -15 -64 -31t-79.5 -34t-60.5 -25v181q167 83 272 143h125v-1360z" />
    <glyph glyph-name="two.lf" horiz-adv-x="1042" 
d="M983 0h-864v174q337 354 479 561q125 182 125 289q0 86 -67 137t-156 51q-87 0 -150.5 -59.5t-64.5 -151.5l-191 39q12 149 137 246.5t277 97.5q166 0 290 -101.5t124 -258.5q0 -167 -146 -375q-148 -210 -399 -477h606v-172z" />
    <glyph glyph-name="three.lf" horiz-adv-x="1062" 
d="M315 598v197q131 3 195 20q81 22 131.5 76.5t50.5 126.5q0 85 -63.5 139.5t-163.5 54.5q-77 0 -138 -38.5t-85 -108.5l-164 68q41 113 145 182t246 69q188 0 304 -99.5t116 -264.5q0 -92 -46.5 -170.5t-123.5 -118.5q106 -36 172.5 -127.5t66.5 -208.5q0 -128 -62 -225
t-164.5 -146t-227.5 -49q-135 0 -254 59t-178 169l151 84q41 -70 111.5 -105t154.5 -35q114 0 193.5 60t79.5 172q0 101 -83.5 167t-205.5 66q-95 0 -158 -14z" />
    <glyph glyph-name="four.lf" horiz-adv-x="1101" 
d="M856 0h-188v342h-615v207q222 288 604 811h199v-846h203v-172h-203v-342zM258 514h410v576q-157 -228 -410 -576z" />
    <glyph glyph-name="five.lf" horiz-adv-x="1021" 
d="M887 1360v-172h-518q-14 -273 -25 -381q82 39 201 39q171 0 293.5 -121t122.5 -297q0 -195 -128 -324t-325 -129q-129 0 -252.5 63t-179.5 165l153 86q38 -68 105.5 -105t148.5 -37q128 0 204.5 78.5t76.5 196.5q0 113 -77.5 182.5t-197.5 69.5q-127 0 -210 -86l-140 76
q24 239 47 696h701z" />
    <glyph glyph-name="six.lf" horiz-adv-x="1093" 
d="M752 1436l77 -172q-207 -93 -340 -218.5t-184 -310.5q125 125 307 125q177 0 288.5 -126.5t111.5 -311.5q0 -190 -123 -318.5t-309 -128.5q-114 0 -209.5 44.5t-157.5 120t-96.5 173.5t-34.5 205q0 158 52.5 304.5t144.5 262t212.5 205t260.5 146.5zM571 688
q-91 0 -172 -46.5t-123 -125.5q0 -58 10 -110.5t32 -100.5t54.5 -82.5t81.5 -55t109 -20.5q114 0 183 79.5t69 199.5q0 116 -66 189t-178 73z" />
    <glyph glyph-name="seven.lf" horiz-adv-x="925" 
d="M885 1360v-141q-127 -264 -291.5 -632t-274.5 -632l-178 80q82 193 178.5 403.5t221.5 472t131 273.5h-652v176h865z" />
    <glyph glyph-name="eight.lf" horiz-adv-x="1150" 
d="M575 -25q-202 0 -331 115t-129 285q0 228 211 342q-170 100 -170 295q0 158 116.5 265t302.5 107t303 -107t117 -265q0 -195 -170 -295q211 -114 211 -342q0 -170 -129 -285t-332 -115zM575 621q-109 0 -186.5 -70t-77.5 -168q0 -101 77 -168.5t187 -67.5t187.5 67.5
t77.5 168.5q0 98 -78 168t-187 70zM575 1212q-95 0 -161 -58.5t-66 -149.5q0 -88 66.5 -149.5t160.5 -61.5t161 61.5t67 149.5q0 91 -66.5 149.5t-161.5 58.5z" />
    <glyph glyph-name="nine.lf" horiz-adv-x="1093" 
d="M342 -76l-78 172q207 93 340 218.5t184 310.5q-125 -125 -307 -125q-177 0 -288 126.5t-111 311.5q0 190 123 318t309 128q114 0 209.5 -44.5t157.5 -119.5t96.5 -173t34.5 -205q0 -158 -52.5 -304.5t-144.5 -262t-212.5 -205t-260.5 -146.5zM522 672q91 0 172 46.5
t123 125.5q0 100 -27.5 180t-94 134t-165.5 54q-114 0 -182.5 -79t-68.5 -199q0 -116 65.5 -189t177.5 -73z" />
    </font>
</defs>
</svg>
