<?xml version="1.0" encoding="utf-8"?>
<!-- Generator: Adobe Illustrator 16.0.3, SVG Export Plug-In . SVG Version: 6.00 Build 0)  -->
<!DOCTYPE svg PUBLIC "-//W3C//DTD SVG 1.1//EN" "http://www.w3.org/Graphics/SVG/1.1/DTD/svg11.dtd">
<svg version="1.1" id="Layer_1" xmlns="http://www.w3.org/2000/svg" xmlns:xlink="http://www.w3.org/1999/xlink" x="0px" y="0px"
	 width="152.084px" height="120.055px" viewBox="0 0 152.084 120.055" enable-background="new 0 0 152.084 120.055"
	 xml:space="preserve">
<g>
	<path fill="#FFFFFF" d="M120.055,95.494c0,13.549-11,24.561-24.563,24.561H24.555C10.995,120.055,0,109.042,0,95.494V24.555
		C0,11,10.995,0,24.555,0h70.938c3.406,0,6.823,0.686,9.982,2.132c0.758,0.343,1.354,1.107,1.528,1.958
		c0.176,0.939-0.086,1.795-0.771,2.476l-4.175,4.181c-0.772,0.764-1.794,1.021-2.724,0.678c-1.279-0.343-2.561-0.511-3.842-0.511
		H24.555c-7.508,0-13.635,6.142-13.635,13.641v70.939c0,7.508,6.127,13.647,13.635,13.647h70.938c7.51,0,13.648-6.139,13.648-13.647
		V84.752c0-0.683,0.249-1.366,0.758-1.876l5.456-5.455c0.858-0.856,1.966-1.026,2.983-0.597c1.031,0.421,1.717,1.36,1.717,2.467
		V95.494z M136.412,40.925L79.123,98.229H54.576V73.665l57.287-57.294L136.412,40.925z M85.598,80.15L72.647,67.187l-9.896,9.891
		v4.772h8.18v8.186h4.787L85.598,80.15z M110.41,28.731L80.578,58.578c-0.77,0.764-0.858,2.043-0.086,2.813
		c0.758,0.766,2.037,0.68,2.808-0.084l29.845-29.846c0.771-0.764,0.846-2.043,0.086-2.808
		C112.459,27.881,111.178,27.967,110.41,28.731z M141.882,35.47l-24.562-24.556l7.842-7.842c3.159-3.158,8.441-3.158,11.599,0
		l12.962,12.958c3.148,3.156,3.148,8.439,0,11.597L141.882,35.47z"/>
</g>
</svg>
