<?xml version="1.0" encoding="utf-8"?>
<!-- Generator: Adobe Illustrator 16.0.3, SVG Export Plug-In . SVG Version: 6.00 Build 0)  -->
<!DOCTYPE svg PUBLIC "-//W3C//DTD SVG 1.1//EN" "http://www.w3.org/Graphics/SVG/1.1/DTD/svg11.dtd">
<svg version="1.1" id="Layer_1" xmlns="http://www.w3.org/2000/svg" xmlns:xlink="http://www.w3.org/1999/xlink" x="0px" y="0px"
	 width="187.018px" height="58.75px" viewBox="0 0 187.018 58.75" enable-background="new 0 0 187.018 58.75" xml:space="preserve">
<g>
	<rect x="0" y="0.003" fill="#FFFFFF" width="187.017" height="58.748"/>
	<rect x="1.001" y="0.914" fill="#041E41" width="185.014" height="56.927"/>
	<path fill="#FFFFFF" d="M64.798,19.577c-0.458,0.458-1.175,0.817-2.251,0.817c-0.879,0-1.721-0.271-2.289-0.841
		c-0.743-0.743-0.718-1.683-0.718-2.499v-5.072h1.114v5.196c0,0.631-0.025,1.25,0.471,1.744c0.333,0.334,0.853,0.52,1.458,0.52
		c0.607,0,1.064-0.21,1.361-0.508c0.557-0.556,0.508-1.188,0.508-2.585v-4.367h1.089v4.194
		C65.542,17.709,65.591,18.786,64.798,19.577"/>
	<polygon fill="#FFFFFF" points="73.494,20.233 69.597,13.664 69.622,20.233 68.606,20.233 68.606,11.981 69.708,11.981 
		73.605,18.575 73.58,11.981 74.594,11.981 74.594,20.233 	"/>
	<rect x="77.923" y="11.981" fill="#FFFFFF" width="1.112" height="8.251"/>
	<polygon fill="#FFFFFF" points="85.224,20.233 83.999,20.233 81.154,11.981 82.304,11.981 84.642,19.095 87.042,11.981 
		88.119,11.981 	"/>
	<polygon fill="#FFFFFF" points="90.281,20.233 90.281,11.981 94.847,11.981 94.847,12.896 91.37,12.896 91.37,15.495 
		94.636,15.495 94.636,16.385 91.37,16.385 91.37,19.292 94.945,19.292 94.945,20.233 	"/>
	<path fill="#FFFFFF" d="M102.002,20.233l-0.951-2.152c-0.57-1.275-0.843-1.385-1.955-1.385h-0.52v3.538h-1.089v-8.251h1.831
		c1.102,0,1.954-0.012,2.622,0.656c0.408,0.407,0.644,0.952,0.644,1.645c0,0.57-0.161,1.052-0.507,1.423
		c-0.298,0.322-0.78,0.594-1.323,0.656c0.271,0.011,0.543,0.172,0.705,0.334c0.246,0.247,0.42,0.643,0.643,1.15l1.064,2.387H102.002
		z M101.125,13.292c-0.445-0.445-1.027-0.433-1.695-0.433h-0.854v2.957h0.384c0.79,0,1.596,0.024,2.115-0.496
		c0.259-0.26,0.407-0.643,0.407-1.039C101.482,13.837,101.309,13.479,101.125,13.292"/>
	<path fill="#FFFFFF" d="M107.416,20.406c-1.459,0-2.438-0.792-2.535-0.891l0.531-0.767c0.148,0.1,0.953,0.706,1.955,0.706
		c1.014,0,1.607-0.606,1.607-1.361c0-0.903-1.01-1.349-1.9-1.782c-1.052-0.507-1.959-1.051-1.959-2.264
		c0-1.311,1.064-2.226,2.586-2.226s2.276,0.754,2.351,0.841l-0.558,0.717c-0.099-0.086-0.754-0.618-1.719-0.618
		c-0.903,0-1.547,0.445-1.547,1.188c0,0.78,0.73,1.068,1.547,1.489c0.73,0.371,2.35,0.936,2.35,2.556
		C110.125,19.354,109.124,20.406,107.416,20.406"/>
	<rect x="112.734" y="11.981" fill="#FFFFFF" width="1.113" height="8.251"/>
	<polygon fill="#FFFFFF" points="119.533,12.896 119.533,20.233 118.42,20.233 118.42,12.896 115.994,12.896 115.994,11.981 
		121.945,11.981 121.945,12.896 	"/>
	<polygon fill="#FFFFFF" points="126.749,16.967 126.749,20.233 125.648,20.233 125.648,16.967 123.037,11.981 124.254,11.981 
		126.268,15.864 128.24,11.981 129.359,11.981 	"/>
	<path fill="#FFFFFF" d="M138.592,20.395c-2.177,0-3.748-1.77-3.748-4.269c0-2.548,1.559-4.305,3.811-4.305
		c2.202,0,3.736,1.757,3.736,4.243C142.391,18.638,140.844,20.395,138.592,20.395 M138.58,12.761c-1.572,0-2.599,1.324-2.599,3.34
		c0,2.004,1.151,3.34,2.66,3.34c1.72,0,2.61-1.472,2.61-3.414C141.252,14.06,140.151,12.761,138.58,12.761"/>
	<polygon fill="#FFFFFF" points="146.131,12.896 146.131,15.495 149.298,15.495 149.298,16.385 146.131,16.385 146.131,20.233 
		145.029,20.233 145.029,11.981 149.496,11.981 149.496,12.896 	"/>
	<path fill="#FFFFFF" d="M76.264,36.452c0,5.283-4.07,9.111-9.16,9.111c-5.182,0-9.16-3.877-9.16-8.917
		c0-5.28,4.075-9.111,9.16-9.111C72.292,27.535,76.264,31.409,76.264,36.452 M73.314,36.547c0-4.797-2.28-8.04-6.211-8.04
		c-4.263,0-6.201,3.924-6.201,8.04c0,4.801,2.278,8.061,6.201,8.061C71.374,44.608,73.314,40.675,73.314,36.547"/>
	<path fill="#FFFFFF" d="M132.2,36.452c0,5.283-4.071,9.111-9.16,9.111c-5.183,0-9.161-3.877-9.161-8.917
		c0-5.28,4.074-9.111,9.161-9.111C128.225,27.535,132.2,31.409,132.2,36.452 M129.246,36.547c0-4.797-2.278-8.04-6.206-8.04
		c-4.267,0-6.204,3.924-6.204,8.04c0,4.801,2.277,8.061,6.204,8.061C127.305,44.608,129.246,40.675,129.246,36.547"/>
	<path fill="#FFFFFF" d="M139.277,36.596h2.18c3.297,0,3.977-2.025,3.977-4.016c0-1.492-0.631-2.71-2.18-3.391
		c-0.828-0.34-1.604-0.388-2.667-0.388h-1.31V36.596z M143.254,39.468c-1.02-1.46-1.408-1.899-2.667-1.899h-1.31v5.824
		c0,0.488,0.145,0.727,0.727,0.826l1.988,0.389v0.684h-7.85v-0.684l1.791-0.389c0.584-0.147,0.725-0.338,0.725-0.826V29.727
		c0-0.487-0.189-0.732-0.725-0.829l-1.791-0.391v-0.679h7.655c1.602,0,2.716,0.144,3.636,0.486c1.889,0.728,2.953,2.529,2.953,4.215
		c0,2.138-1.596,3.921-4.264,4.555v0.098c0.536,0.24,0.824,0.586,2.717,3.062l2.423,3.149c0.337,0.488,0.728,0.826,1.354,0.926
		l1.65,0.289v0.684h-4.215c-0.486,0-0.73-0.147-1.166-0.734L143.254,39.468z"/>
	<path fill="#FFFFFF" d="M109.081,33.843h0.824v5.773h-0.824l-0.341-1.658c-0.141-0.629-0.529-0.875-1.113-0.875h-4.215v6.311
		c0,0.487,0.146,0.727,0.725,0.825l1.99,0.389v0.684h-7.854v-0.684l1.79-0.389c0.585-0.147,0.73-0.338,0.73-0.825V29.727
		c0-0.488-0.194-0.732-0.73-0.829l-1.79-0.391v-0.678h13.232v4.359h-0.821l-0.682-2.461c-0.193-0.685-0.584-0.925-1.164-0.925
		h-5.426v7.308h4.215c0.584,0,0.973-0.229,1.113-0.856L109.081,33.843z"/>
	<path fill="#FFFFFF" d="M153.673,45.292v-0.685l1.792-0.388c0.582-0.148,0.729-0.338,0.729-0.826V29.727
		c0-0.487-0.195-0.732-0.729-0.829l-1.792-0.391v-0.679h8.192c2.229,0,3.829,0.288,5.134,0.875c3.3,1.509,4.8,4.75,4.8,7.942
		c0,3.112-1.159,6.014-4.118,7.573c-1.356,0.727-3.247,1.072-5.718,1.072H153.673z M158.764,28.802v14.733
		c0,0.634,0.145,0.782,0.775,0.782h2.132c2.034,0,3.538-0.247,4.604-1.022c1.795-1.313,2.57-3.582,2.57-6.6
		c0-2.952-0.775-5.755-3.199-7.167c-1.023-0.583-2.328-0.727-4.363-0.727H158.764z"/>
	<path fill="#FFFFFF" d="M83.15,44.608v0.684h-6.256v-0.684l1.55-0.34c0.582-0.148,1.02-0.338,1.362-0.783l5.238-6.691l-5.238-7.066
		c-0.342-0.487-0.78-0.732-1.313-0.877l-1.451-0.343v-0.678h7.708v0.678l-1.65,0.295c-0.531,0.096-0.482,0.24-0.188,0.63
		l3.872,5.482h0.099l4.021-5.385c0.292-0.389,0.292-0.583-0.146-0.679l-1.549-0.343v-0.678h6.25v0.678l-1.547,0.343
		c-0.585,0.145-1.023,0.34-1.36,0.777l-4.987,6.254l5.569,7.512c0.34,0.488,0.779,0.727,1.314,0.875l1.449,0.34v0.684h-7.709v-0.684
		l1.654-0.289c0.527-0.1,0.477-0.248,0.193-0.637l-4.223-5.914h-0.095l-4.313,5.914c-0.293,0.389-0.34,0.487,0.193,0.586
		L83.15,44.608z"/>
	<path fill="#FFFFFF" d="M29.096,23.227c0-0.717-0.243-1.294-0.768-1.603c-0.329-0.193-0.774-0.256-1.323-0.256l-3.975,0v8.06h4.328
		c1.001,0,1.59,0.226,1.642,1.124h0.096L29.096,23.227z"/>
	<path fill="#FFFFFF" d="M29.789,23.227c0-0.717,0.243-1.294,0.767-1.603c0.329-0.193,0.774-0.256,1.323-0.256l4.002,0v8.06h-4.355
		c-1.001,0-1.591,0.226-1.642,1.124h-0.096L29.789,23.227z"/>
	<path fill="#FFFFFF" d="M36.76,21.881v8.639h-6.284l-0.086,0.215c-0.102,0.252-0.287,0.486-0.941,0.486
		c-0.654,0-0.838-0.234-0.94-0.486l-0.086-0.215h-6.271v-8.639h-0.683v0.223l-0.479-0.147c-0.07-0.212-0.269-0.366-0.504-0.366
		c-0.294,0-0.534,0.238-0.534,0.532c0,0.295,0.24,0.534,0.534,0.534c0.122,0,0.234-0.042,0.324-0.112l0.659,0.203v0.659
		l-0.474-0.085c-0.082-0.173-0.251-0.297-0.455-0.307c-0.294-0.014-0.545,0.214-0.559,0.508c-0.014,0.294,0.213,0.544,0.507,0.558
		c0.155,0.008,0.296-0.053,0.398-0.153l0.582,0.104v0.675l-0.497-0.022c-0.095-0.148-0.26-0.246-0.449-0.246
		c-0.294,0-0.533,0.239-0.533,0.533s0.239,0.534,0.533,0.534c0.172,0,0.322-0.082,0.42-0.208l0.525,0.023v0.733l-0.514,0.019
		c-0.098-0.127-0.25-0.211-0.422-0.211c-0.294,0-0.533,0.239-0.533,0.533c0,0.295,0.239,0.534,0.533,0.534
		c0.187,0,0.351-0.096,0.446-0.242l0.49-0.018v0.676L20.9,27.442c-0.097-0.096-0.23-0.156-0.378-0.156
		c-0.294,0-0.533,0.239-0.533,0.533c0,0.295,0.239,0.533,0.533,0.533c0.212,0,0.394-0.124,0.48-0.303l0.466-0.081v0.661l-0.63,0.193
		c-0.09-0.069-0.202-0.113-0.324-0.113c-0.294,0-0.534,0.238-0.534,0.533c0,0.295,0.239,0.535,0.534,0.535
		c0.236,0,0.434-0.155,0.504-0.367l0.451-0.138v0.636l-0.704,0.304c-0.087-0.053-0.19-0.082-0.3-0.078
		c-0.294,0.012-0.524,0.26-0.512,0.555c0.012,0.295,0.261,0.523,0.555,0.512c0.249-0.01,0.449-0.189,0.499-0.423l0.463-0.199v0.626
		H28c0.277,0.461,0.746,0.7,1.448,0.7c0.704,0,1.171-0.239,1.448-0.7h6.546v-9.322H36.76z"/>
	<path fill="#FFFFFF" d="M25.167,19.078c-1.315,0-2.382,0.204-2.382,0.457s1.066,0.457,2.382,0.457c1.314,0,2.381-0.205,2.381-0.457
		S26.481,19.078,25.167,19.078"/>
	<path fill="#FFFFFF" d="M28.446,16.129l-1.375,0.965l-0.011,0.099l0.326,0.146c0.065,0.033,0.065,0.084,0.032,0.116l-0.863,0.729
		l-0.083-0.008l-0.612-0.901c-0.042-0.059-0.027-0.117,0.047-0.129l0.411-0.067v-0.104l-1.064-1.504H25.08l-1.064,1.504v0.104
		l0.411,0.067c0.074,0.012,0.089,0.071,0.046,0.129l-0.611,0.901l-0.083,0.008l-0.806-0.729c-0.033-0.032-0.032-0.083,0.032-0.116
		l0.327-0.146l-0.012-0.099l-1.432-0.965l-0.116,0.044l0.841,2.569c0.427-0.191,1.407-0.327,2.555-0.333
		c1.147,0.005,2.128,0.141,2.554,0.333l0.841-2.569L28.446,16.129z"/>
	<path fill="#FFFFFF" d="M29.438,36.303c-1.315,0-2.382,0.205-2.382,0.459c0,0.252,1.067,0.455,2.382,0.455s2.381-0.203,2.381-0.455
		C31.82,36.508,30.753,36.303,29.438,36.303"/>
	<path fill="#FFFFFF" d="M32.717,33.354l-1.375,0.967l-0.011,0.098l0.327,0.146c0.064,0.033,0.065,0.084,0.032,0.115l-0.863,0.729
		l-0.083-0.007L30.132,34.5c-0.042-0.059-0.027-0.117,0.047-0.129l0.41-0.066v-0.104l-1.064-1.505h-0.175l-1.064,1.505v0.104
		l0.41,0.066c0.074,0.012,0.089,0.07,0.047,0.129l-0.612,0.902L28.05,35.41l-0.807-0.729c-0.033-0.031-0.032-0.082,0.032-0.115
		l0.328-0.146l-0.013-0.098l-1.432-0.967l-0.116,0.045l0.841,2.57c0.427-0.192,1.407-0.328,2.554-0.333
		c1.148,0.005,2.128,0.141,2.555,0.333l0.841-2.57L32.717,33.354z"/>
	<path fill="#FFFFFF" d="M33.699,19.078c-1.315,0-2.382,0.204-2.382,0.457s1.067,0.457,2.382,0.457c1.314,0,2.381-0.205,2.381-0.457
		S35.014,19.078,33.699,19.078"/>
	<path fill="#FFFFFF" d="M36.978,16.129l-1.375,0.965l-0.012,0.099l0.326,0.146c0.065,0.033,0.066,0.084,0.033,0.116l-0.864,0.729
		l-0.082-0.008l-0.612-0.901c-0.042-0.059-0.026-0.117,0.047-0.129l0.411-0.067v-0.104l-1.064-1.504h-0.176l-1.064,1.504v0.104
		l0.411,0.067c0.074,0.012,0.089,0.071,0.046,0.129l-0.612,0.901l-0.082,0.008l-0.806-0.739c-0.033-0.031-0.033-0.083,0.032-0.116
		l0.328-0.137l-0.013-0.099l-1.432-0.965l-0.115,0.044l0.84,2.569c0.427-0.191,1.407-0.327,2.555-0.333
		c1.148,0.005,2.128,0.141,2.555,0.333l0.841-2.569L36.978,16.129z"/>
	<path fill="#FFFFFF" d="M29.908,9.213c0,0.27-0.219,0.488-0.488,0.488c-0.27,0-0.489-0.219-0.489-0.488
		c0-0.27,0.219-0.488,0.489-0.488C29.689,8.725,29.908,8.943,29.908,9.213"/>
	<path fill="#FFFFFF" d="M41.312,13.766c-0.015,0.27-0.244,0.478-0.513,0.463c-0.27-0.014-0.476-0.244-0.463-0.513
		c0.014-0.268,0.244-0.476,0.514-0.462C41.119,13.267,41.326,13.497,41.312,13.766"/>
	<path fill="#041E41" d="M24.044,22.609c0.219,0,0.4,0.042,0.519,0.157c0.083,0.08,0.153,0.212,0.153,0.365
		c0,0.442-0.336,0.633-0.747,0.633h-0.458v-0.069c0.13-0.01,0.144-0.023,0.144-0.215v-0.586c0-0.192-0.014-0.204-0.13-0.215v-0.069
		H24.044z M23.957,23.481c0,0.158,0.04,0.188,0.125,0.188c0.153,0,0.308-0.169,0.308-0.483c0-0.383-0.194-0.489-0.345-0.489
		c-0.041,0-0.064,0.005-0.077,0.013c-0.009,0.003-0.011,0.044-0.011,0.088V23.481z"/>
	<path fill="#041E41" d="M26.063,23.172c0,0.38-0.26,0.619-0.601,0.619c-0.359,0-0.592-0.262-0.592-0.589
		c0-0.288,0.192-0.62,0.617-0.62C25.813,22.582,26.063,22.82,26.063,23.172 M25.202,23.141c0,0.322,0.121,0.557,0.294,0.557
		c0.153,0,0.236-0.148,0.236-0.469c0-0.357-0.128-0.555-0.281-0.555C25.314,22.674,25.202,22.83,25.202,23.141"/>
	<path fill="#041E41" d="M27.632,22.609v0.068c-0.135,0.014-0.142,0.02-0.137,0.207l0.018,0.595
		c0.005,0.198,0.008,0.203,0.137,0.216v0.068h-0.556v-0.068c0.133-0.013,0.139-0.019,0.137-0.216l-0.005-0.625h-0.007l-0.343,0.89
		h-0.096l-0.325-0.828h-0.003l-0.013,0.395c-0.005,0.153-0.003,0.239,0.003,0.292c0.007,0.067,0.046,0.083,0.161,0.093v0.068h-0.438
		v-0.068c0.085-0.008,0.119-0.026,0.129-0.093c0.009-0.053,0.02-0.149,0.029-0.31l0.02-0.359c0.013-0.224-0.001-0.243-0.142-0.256
		v-0.068h0.417l0.311,0.703l0.272-0.703H27.632z"/>
	<path fill="#041E41" d="M28.21,23.479c0,0.192,0.014,0.204,0.137,0.215v0.069h-0.576v-0.069c0.123-0.011,0.136-0.023,0.136-0.215
		v-0.586c0-0.192-0.014-0.204-0.136-0.215v-0.068h0.576v0.068c-0.123,0.011-0.137,0.023-0.137,0.215V23.479z"/>
	<path fill="#041E41" d="M25.347,25.909h-0.153l-0.657-0.839h-0.003v0.327c0,0.187,0.007,0.284,0.014,0.339
		c0.009,0.063,0.057,0.085,0.174,0.091v0.069H24.28v-0.069c0.078-0.003,0.124-0.029,0.133-0.091
		c0.007-0.055,0.014-0.153,0.014-0.339v-0.327c0-0.131-0.004-0.155-0.039-0.204c-0.026-0.038-0.071-0.05-0.135-0.056v-0.069h0.393
		l0.592,0.738h0.003V25.24c0-0.187-0.006-0.284-0.014-0.339c-0.009-0.062-0.057-0.085-0.174-0.091v-0.069h0.453v0.069
		c-0.089,0.003-0.135,0.029-0.144,0.091c-0.006,0.055-0.015,0.153-0.015,0.339V25.909z"/>
	<path fill="#041E41" d="M26.067,25.909c-0.123-0.32-0.29-0.759-0.354-0.926c-0.058-0.153-0.094-0.162-0.179-0.172v-0.069h0.574
		v0.069l-0.061,0.007c-0.066,0.007-0.066,0.023-0.046,0.086c0.032,0.099,0.173,0.449,0.239,0.623
		c0.054-0.151,0.168-0.491,0.196-0.574c0.038-0.109,0.027-0.128-0.053-0.137L26.33,24.81v-0.069h0.431v0.069
		c-0.102,0.013-0.126,0.022-0.196,0.184c-0.01,0.024-0.227,0.552-0.36,0.915H26.067z"/>
	<path fill="#041E41" d="M26.869,25.53c0.037,0.103,0.142,0.3,0.316,0.3c0.093,0,0.164-0.061,0.164-0.176
		c0-0.105-0.069-0.163-0.178-0.213l-0.026-0.013c-0.146-0.067-0.311-0.16-0.311-0.35c0-0.2,0.146-0.364,0.425-0.364
		c0.054,0,0.112,0.008,0.164,0.022c0.041,0.01,0.069,0.017,0.092,0.025c0.007,0.069,0.02,0.156,0.04,0.277l-0.079,0.012
		c-0.039-0.117-0.101-0.243-0.242-0.243c-0.09,0-0.154,0.069-0.154,0.155c0,0.088,0.069,0.14,0.183,0.192l0.039,0.018
		c0.164,0.075,0.304,0.166,0.304,0.373c0,0.218-0.175,0.379-0.451,0.379c-0.071,0-0.144-0.014-0.193-0.03
		c-0.052-0.018-0.09-0.031-0.111-0.043c-0.014-0.082-0.038-0.177-0.059-0.296L26.869,25.53z"/>
	<path fill="#041E41" d="M24.557,27.744c0,0.192,0.014,0.205,0.137,0.215v0.069h-0.576v-0.069c0.123-0.011,0.137-0.023,0.137-0.215
		v-0.586c0-0.192-0.015-0.204-0.137-0.215v-0.069h0.576v0.069c-0.123,0.011-0.137,0.023-0.137,0.215V27.744z"/>
	<path fill="#041E41" d="M25.261,27.767c0,0.093,0.003,0.137,0.035,0.153c0.029,0.014,0.07,0.017,0.125,0.017
		c0.057,0,0.133-0.006,0.17-0.052c0.029-0.034,0.059-0.082,0.087-0.176l0.076,0.013c-0.011,0.067-0.048,0.252-0.064,0.307h-0.88
		V27.96c0.135-0.011,0.148-0.023,0.148-0.216v-0.586c0-0.192-0.014-0.204-0.133-0.215v-0.07h0.578v0.07
		c-0.128,0.011-0.142,0.022-0.142,0.215V27.767z"/>
	<path fill="#041E41" d="M26.252,27.767c0,0.093,0.004,0.137,0.036,0.153c0.028,0.014,0.069,0.017,0.124,0.017
		c0.057,0,0.133-0.006,0.171-0.052c0.029-0.034,0.059-0.082,0.087-0.176l0.077,0.013c-0.01,0.067-0.048,0.252-0.064,0.307h-0.881
		V27.96c0.136-0.011,0.15-0.023,0.15-0.216v-0.586c0-0.192-0.014-0.204-0.134-0.215v-0.07h0.578v0.07
		c-0.128,0.011-0.142,0.022-0.142,0.215V27.767z"/>
	<path fill="#041E41" d="M27.102,28.041c-0.123-0.319-0.29-0.759-0.354-0.925c-0.059-0.153-0.094-0.162-0.179-0.173v-0.07h0.574
		v0.07l-0.061,0.007c-0.066,0.007-0.066,0.023-0.046,0.086c0.032,0.1,0.173,0.449,0.239,0.623c0.055-0.151,0.168-0.49,0.197-0.574
		c0.037-0.109,0.026-0.128-0.053-0.137l-0.054-0.005v-0.07h0.431v0.07c-0.102,0.012-0.127,0.021-0.196,0.184
		c-0.01,0.024-0.228,0.553-0.36,0.915H27.102z"/>
	<path fill="#041E41" d="M32.011,22.646v0.07c-0.135,0.012-0.143,0.02-0.138,0.206l0.018,0.595c0.006,0.197,0.01,0.203,0.137,0.216
		v0.068h-0.556v-0.068c0.132-0.013,0.139-0.019,0.136-0.216l-0.006-0.625h-0.006l-0.344,0.891h-0.095l-0.325-0.829h-0.003
		l-0.013,0.395c-0.005,0.153-0.003,0.238,0.004,0.293c0.007,0.066,0.046,0.083,0.161,0.092v0.068h-0.438v-0.068
		c0.085-0.008,0.119-0.025,0.129-0.092c0.009-0.055,0.02-0.149,0.028-0.311l0.02-0.358c0.012-0.224-0.001-0.244-0.142-0.256v-0.07
		h0.417l0.312,0.704l0.272-0.704H32.011z"/>
	<path fill="#041E41" d="M32.588,23.518c0,0.192,0.014,0.204,0.136,0.215v0.069h-0.576v-0.069c0.123-0.011,0.137-0.023,0.137-0.215
		v-0.586c0-0.193-0.014-0.205-0.137-0.215v-0.07h0.576v0.07c-0.123,0.01-0.136,0.022-0.136,0.215V23.518z"/>
	<path fill="#041E41" d="M33.91,23.814h-0.152l-0.658-0.838h-0.003v0.327c0,0.186,0.006,0.284,0.014,0.339
		c0.009,0.063,0.056,0.086,0.174,0.091v0.069h-0.442v-0.069c0.078-0.004,0.124-0.028,0.132-0.091
		c0.007-0.055,0.015-0.153,0.015-0.339v-0.327c0-0.132-0.004-0.155-0.04-0.205c-0.026-0.037-0.071-0.049-0.134-0.054v-0.07h0.393
		l0.592,0.738h0.003v-0.238c0-0.187-0.007-0.285-0.014-0.339c-0.009-0.063-0.057-0.085-0.174-0.09v-0.07h0.453v0.07
		c-0.089,0.003-0.135,0.028-0.144,0.09c-0.006,0.055-0.014,0.152-0.014,0.339V23.814z"/>
	<path fill="#041E41" d="M34.652,23.733l0.054-0.007c0.065-0.008,0.068-0.026,0.045-0.09l-0.063-0.181h-0.292l-0.053,0.17
		c-0.023,0.077-0.023,0.095,0.059,0.104l0.051,0.005v0.069H34.04v-0.069c0.09-0.013,0.118-0.02,0.176-0.169l0.355-0.918l0.123-0.025
		l0.12,0.335c0.077,0.211,0.154,0.421,0.221,0.603c0.057,0.154,0.089,0.164,0.176,0.174v0.069h-0.558V23.733z M34.427,23.347h0.228
		l-0.112-0.339h-0.006L34.427,23.347z"/>
	<path fill="#041E41" d="M31.996,25.65c0,0.191,0.015,0.204,0.163,0.215v0.069h-0.622v-0.069c0.143-0.011,0.156-0.024,0.156-0.215
		v-0.778h-0.03c-0.119,0-0.167,0.021-0.195,0.053c-0.021,0.026-0.042,0.072-0.066,0.172h-0.074c0.007-0.149,0.018-0.272,0.021-0.362
		h0.055c0.027,0.04,0.045,0.044,0.093,0.044h0.708c0.046,0,0.055-0.011,0.084-0.044h0.055c0.001,0.074,0.011,0.225,0.019,0.356
		l-0.078,0.006c-0.027-0.106-0.046-0.153-0.073-0.183c-0.03-0.032-0.089-0.042-0.175-0.042h-0.042V25.65z"/>
	<path fill="#041E41" d="M32.927,25.65c0,0.191,0.013,0.204,0.136,0.215v0.069h-0.576v-0.069c0.123-0.011,0.137-0.024,0.137-0.215
		v-0.586c0-0.192-0.014-0.205-0.137-0.215v-0.069h0.576v0.069c-0.123,0.011-0.136,0.023-0.136,0.215V25.65z"/>
	<path fill="#041E41" d="M34.404,25.343c0,0.381-0.259,0.618-0.601,0.618c-0.358,0-0.592-0.261-0.592-0.588
		c0-0.288,0.192-0.62,0.617-0.62C34.154,24.753,34.404,24.991,34.404,25.343 M33.542,25.313c0,0.322,0.121,0.557,0.294,0.557
		c0.154,0,0.237-0.148,0.237-0.47c0-0.357-0.127-0.554-0.281-0.554C33.656,24.846,33.542,25.001,33.542,25.313"/>
	<path fill="#041E41" d="M32.521,26.912v0.069c-0.135,0.012-0.142,0.02-0.138,0.207l0.019,0.595
		c0.005,0.197,0.009,0.202,0.136,0.215v0.069h-0.557v-0.069c0.134-0.013,0.139-0.018,0.137-0.215l-0.005-0.625h-0.007l-0.343,0.89
		h-0.096l-0.325-0.828h-0.003l-0.013,0.395c-0.005,0.153-0.003,0.238,0.004,0.293c0.007,0.066,0.045,0.082,0.161,0.091v0.069h-0.438
		v-0.069c0.085-0.007,0.119-0.024,0.13-0.091c0.008-0.055,0.019-0.149,0.028-0.311l0.02-0.359c0.012-0.224-0.002-0.244-0.142-0.256
		v-0.069h0.417l0.311,0.704l0.272-0.704H32.521z"/>
	<path fill="#041E41" d="M32.795,27.196c0-0.191-0.014-0.204-0.133-0.215v-0.069h0.842c0.002,0.03,0.011,0.16,0.019,0.292
		l-0.077,0.006c-0.018-0.086-0.038-0.137-0.066-0.165c-0.028-0.031-0.087-0.041-0.181-0.041h-0.03c-0.068,0-0.071,0-0.071,0.062
		v0.343h0.089c0.152,0,0.157-0.011,0.176-0.146h0.078v0.419h-0.078c-0.019-0.156-0.023-0.167-0.176-0.167h-0.089v0.29
		c0,0.093,0.003,0.137,0.036,0.153c0.028,0.015,0.069,0.016,0.124,0.016c0.071,0,0.149-0.01,0.188-0.053
		c0.03-0.032,0.061-0.098,0.087-0.183l0.078,0.013c-0.009,0.087-0.046,0.268-0.062,0.316h-0.904v-0.069
		c0.136-0.011,0.15-0.023,0.15-0.215V27.196z"/>
	<path fill="#041E41" d="M34.236,27.998l0.053-0.007c0.065-0.009,0.069-0.027,0.046-0.09l-0.065-0.181h-0.291l-0.054,0.17
		c-0.023,0.076-0.023,0.094,0.059,0.103l0.051,0.005v0.069h-0.414v-0.069c0.091-0.013,0.117-0.021,0.176-0.169l0.355-0.918
		l0.123-0.025l0.121,0.336c0.076,0.211,0.152,0.421,0.22,0.602c0.057,0.154,0.089,0.164,0.176,0.174v0.069h-0.558V27.998z
		 M34.01,27.612h0.227l-0.112-0.34H34.12L34.01,27.612z"/>
	<path fill="#FFFFFF" d="M27.817,42.7c0,0.27-0.219,0.487-0.489,0.487c-0.27,0-0.489-0.218-0.489-0.487
		c0-0.271,0.219-0.49,0.489-0.49C27.598,42.209,27.817,42.428,27.817,42.7"/>
	<path fill="#FFFFFF" d="M32.626,43.487c0,0.271-0.219,0.489-0.489,0.489c-0.269,0-0.488-0.219-0.488-0.489
		c0-0.27,0.219-0.488,0.488-0.488C32.408,42.999,32.626,43.217,32.626,43.487"/>
	<path fill="#FFFFFF" d="M14.183,16.837"/>
	<path fill="#FFFFFF" d="M33.195,11.483"/>
	<path fill="#FFFFFF" d="M34.111,8.266"/>
	<path fill="#FFFFFF" d="M41.764,17.688"/>
	<path fill="#FFFFFF" d="M47.125,28.29"/>
	<path fill="#FFFFFF" d="M45.452,33.113"/>
	<path fill="#FFFFFF" d="M16.36,33.498c0.167,0.001,0.64,0.046,1.04,0.616c0.165,0.233,0.282,0.51,0.281,0.799
		c-0.001,0.479-0.234,0.754-0.795,1.149l-1.488,1.05l-0.405-0.576l1.667-1.175c0.154-0.108,0.36-0.287,0.36-0.517
		c0-0.125-0.017-0.228-0.131-0.391c-0.177-0.251-0.362-0.271-0.479-0.271c-0.177,0-0.345,0.105-0.703,0.358l-1.444,0.941
		l-0.393-0.56l1.534-1.004C15.809,33.633,16.07,33.497,16.36,33.498"/>
	<polygon fill="#FFFFFF" points="13.71,32.137 15.748,31.337 15.967,31.909 12.891,33.1 12.673,32.504 14.265,30.479 12.212,31.196 
		11.994,30.594 15.098,29.509 15.304,30.073 	"/>
	
		<rect x="11.533" y="27.792" transform="matrix(-0.9886 0.1506 -0.1506 -0.9886 30.4586 53.982)" fill="#FFFFFF" width="3.305" height="0.704"/>
	<polygon fill="#FFFFFF" points="14.65,25.378 11.299,26.382 11.329,25.674 13.842,24.997 11.396,24.096 11.425,23.407 
		14.679,24.695 	"/>
	<polygon fill="#FFFFFF" points="11.775,21.618 12.323,19.693 12.866,19.847 12.508,21.105 13.247,21.315 13.583,20.133 
		14.117,20.285 13.781,21.467 14.591,21.697 14.96,20.401 15.513,20.559 14.954,22.522 	"/>
	<path fill="#FFFFFF" d="M16.823,17.91l-0.979-0.086c-0.464-0.043-0.509,0.068-0.639,0.302l-0.039,0.069l1.162,0.618l-0.345,0.611
		l-2.906-1.591l0.476-0.836c0.215-0.385,0.444-0.795,1.025-0.795c0.365,0,0.874,0.307,0.874,0.859c0,0.098-0.024,0.201-0.065,0.31
		c0.131-0.188,0.368-0.216,0.583-0.214c0.12,0.001,0.237,0.019,0.333,0.028l0.882,0.077L16.823,17.91z M14.382,16.91
		c-0.168,0.047-0.256,0.177-0.381,0.403l-0.108,0.186l0.801,0.434l0.135-0.244c0.113-0.203,0.138-0.319,0.098-0.46
		c-0.031-0.108-0.131-0.222-0.231-0.278C14.579,16.885,14.463,16.886,14.382,16.91"/>
	
		<rect x="19.21" y="10.858" transform="matrix(-0.7985 0.602 -0.602 -0.7985 42.7122 10.7243)" fill="#FFFFFF" width="0.703" height="3.305"/>
	<polygon fill="#FFFFFF" points="21.995,9.764 23.251,12.2 22.625,12.522 21.37,10.086 20.563,10.502 20.305,10 22.538,8.849 
		22.797,9.351 	"/>
	<polygon fill="#FFFFFF" points="25.863,9.941 26.182,11.22 25.528,11.382 25.209,10.103 23.72,8.427 24.412,8.254 25.397,9.407 
		25.729,7.923 26.393,7.761 	"/>
	<polygon fill="#FFFFFF" points="37.827,11.127 38.871,11.749 38.586,12.226 37.543,11.604 36.818,12.823 36.222,12.467 
		37.914,9.627 39.608,10.636 39.319,11.122 38.221,10.468 	"/>
	<polygon fill="#FFFFFF" points="43.768,21.866 44.671,20.871 43.358,20.561 43.143,19.87 45.094,20.381 46.316,18.948 
		46.543,19.672 45.704,20.589 46.923,20.882 47.134,21.558 45.32,21.073 43.992,22.584 	"/>
	<polygon fill="#FFFFFF" points="46.929,24.222 46.162,24.284 46.244,25.504 45.69,25.542 45.608,24.33 44.195,24.425 
		44.147,23.762 47.446,23.492 47.578,25.479 47.014,25.517 	"/>
	<path fill="#FFFFFF" d="M49.251,25.843c0.089-10.904-8.725-19.847-19.647-19.935C24.5,5.867,19.638,7.761,15.913,11.24
		c-4.004,3.739-6.233,8.812-6.277,14.283c-0.053,6.524,3.111,12.63,8.468,16.372c0.508,2.12,2.42,3.7,4.703,3.7
		c0.652,0,1.285-0.127,1.881-0.377c0.635,0.201,1.286,0.371,1.936,0.507c-0.21,0.581-0.51,1.128-0.801,1.622l0.475,0.475
		c0.113-0.075,0.246-0.112,0.38-0.113c0.363,0,0.71,0.248,0.707,0.695c0,0.365-0.245,0.706-0.755,0.705
		c-0.276,0-0.635-0.146-0.828-0.561c0,0-0.128,0.404-0.128,0.89c0,1.47,1.598,3.089,3.736,3.767c2.15-0.672,3.742-2.297,3.742-3.767
		c0-0.485-0.129-0.89-0.129-0.89c-0.193,0.415-0.551,0.561-0.828,0.561c-0.509,0.001-0.755-0.34-0.755-0.705
		c-0.003-0.447,0.344-0.695,0.707-0.695c0.133,0.001,0.267,0.038,0.381,0.113l0.436-0.434l0.011-0.006l0.018-0.022
		c0.002,0.002,0.005,0.002,0.006,0.003l0-0.012l0.002-0.004l-0.001-0.003v-0.001c-0.214-0.512-0.371-0.98-0.48-1.426
		c3.546-0.485,6.54-1.992,8.923-4.496l-0.004-0.004C46.354,37.676,49.201,32.02,49.251,25.843 M22.806,44.93
		c-2.282,0-4.139-1.864-4.139-4.154c0-0.716,0.181-1.391,0.5-1.979c0.212,0.192,0.438,0.393,0.673,0.594
		c-0.202,0.426-0.317,0.898-0.317,1.398c0,1.244,0.626,2.271,1.812,2.97c0.688,0.406,1.468,0.772,2.294,1.089
		C23.36,44.902,23.084,44.93,22.806,44.93 M29.443,38.866c-0.775,0-1.537-0.07-2.287-0.201c-0.807-1.646-2.511-2.708-4.351-2.708
		c-0.472,0-0.927,0.071-1.358,0.196c-3.247-2.487-5.18-6.374-5.18-10.47c0-7.269,5.91-13.182,13.175-13.182
		s13.175,5.914,13.175,13.182C42.619,32.952,36.708,38.866,29.443,38.866 M32.255,39.245c-0.341,0.551-0.55,1.266-0.623,1.99
		c-1.207-0.316-2.304-0.734-3.266-1.17c0.133-0.279,0.445-0.537,0.978-0.537c0.034,0,0.066,0.004,0.1,0.004
		C30.406,39.532,31.347,39.432,32.255,39.245 M28.041,39.461c-0.109,0.096-0.2,0.204-0.274,0.32
		c-0.423-0.18-1.239-0.561-1.503-0.719C26.682,39.198,27.617,39.418,28.041,39.461 M22.806,36.622c1.386,0,2.685,0.713,3.445,1.853
		c-0.669-0.166-1.327-0.386-1.967-0.658l-0.002,0.004l-0.019-0.011c-0.446-0.211-0.925-0.317-1.422-0.317
		c-1.104,0-2.081,0.54-2.685,1.367c-0.252-0.141-0.505-0.288-0.752-0.442C20.151,37.334,21.396,36.622,22.806,36.622 M32.085,47.095
		c-0.759,0-1.323,0.592-1.323,1.323c0,0.854,0.597,1.367,1.367,1.367c0.096,0,0.189-0.012,0.279-0.03
		c-0.229,1.063-1.487,2.216-3.001,2.73c-1.489-0.515-2.767-1.667-2.996-2.73c0.09,0.019,0.184,0.03,0.279,0.03
		c0.77,0,1.367-0.514,1.367-1.367c0-0.731-0.564-1.323-1.323-1.323c0.191-0.353,0.408-0.786,0.569-1.241
		c0.894,0.154,1.774,0.237,2.594,0.237c0.661,0,1.305-0.034,1.933-0.097c0.085,0.324,0.289,0.944,0.343,1.105
		C32.146,47.098,32.118,47.095,32.085,47.095 M29.897,45.426c-2.638,0-5.931-0.896-8.193-2.23c-0.676-0.4-1.481-1.141-1.481-2.406
		c0-0.328,0.063-0.642,0.172-0.932c0.854,0.703,1.73,1.357,2.284,1.66c0.13,0.072,0.206,0.106,0.357,0.106
		c0.363,0,0.658-0.296,0.658-0.661c0-0.277-0.151-0.504-0.401-0.613c-0.474-0.208-1.458-0.615-2.523-1.164
		c0.479-0.624,1.228-1.028,2.071-1.028c0.388,0,0.761,0.083,1.11,0.247l0.72,0.421c2.289,1.398,8.141,4.972,15.233,3.115
		C37.226,44.28,33.939,45.426,29.897,45.426 M40.979,40.913c-3.169,1.116-6.129,1.045-8.661,0.486
		c0.081-1.083,0.484-2.285,1.152-2.465c5.693-1.727,9.85-7.014,9.85-13.251c0-7.636-6.225-13.847-13.876-13.847
		c-7.652,0-13.876,6.211-13.876,13.847c0,4.17,1.911,8.138,5.142,10.757c-0.757,0.364-1.403,0.92-1.879,1.602
		c-0.227-0.158-0.446-0.322-0.651-0.49l-0.129,0.131c0.14,0.17,0.349,0.388,0.603,0.633c-0.434,0.721-0.686,1.562-0.686,2.461
		c0,0.063,0.007,0.123,0.009,0.184c-4.844-3.641-7.688-9.347-7.639-15.432c0.043-5.293,2.198-10.199,6.068-13.814
		c3.592-3.354,8.277-5.18,13.194-5.14c10.536,0.085,19.038,8.728,18.952,19.265C48.502,31.821,45.744,37.299,40.979,40.913"/>
	<path fill="#FFFFFF" d="M18.886,14.951c0,0.283-0.124,0.582-0.371,0.853c-0.475,0.519-0.982,0.567-1.035,0.565l-0.143-0.548
		c0.08-0.021,0.452-0.098,0.716-0.387c0.119-0.13,0.181-0.27,0.181-0.393c0-0.129-0.086-0.357-0.355-0.357
		c-0.288,0-0.768,0.417-1.26,0.417c-0.189,0-0.399-0.027-0.618-0.228c-0.211-0.193-0.309-0.44-0.309-0.691
		c0-0.274,0.125-0.562,0.357-0.816c0.441-0.482,0.928-0.522,0.97-0.523l0.118,0.538c-0.056,0.01-0.417,0.089-0.641,0.334
		c-0.115,0.126-0.176,0.263-0.176,0.383c0,0.131,0.083,0.29,0.298,0.292c0.236,0.003,0.83-0.431,1.314-0.431
		c0.224,0,0.387,0.04,0.614,0.247C18.772,14.414,18.886,14.675,18.886,14.951"/>
	<path fill="#FFFFFF" d="M34.112,11.627c-0.843,0-1.608-0.642-1.608-1.608c0-0.862,0.578-1.863,1.628-1.863
		c0.854,0,1.645,0.604,1.645,1.575C35.777,10.462,35.284,11.627,34.112,11.627 M35.073,9.722c0-0.228-0.052-0.467-0.19-0.652
		c-0.143-0.192-0.379-0.327-0.658-0.327c-0.592,0-1.026,0.735-1.026,1.341c0,0.564,0.38,0.947,0.892,0.947
		C34.76,11.031,35.073,10.16,35.073,9.722"/>
	<path fill="#FFFFFF" d="M43.282,18.689c-1.006,0-1.561-0.969-1.561-1.62c0-0.986,1.061-1.739,1.89-1.739
		c0.904,0,1.567,0.859,1.567,1.638C45.178,17.854,44.253,18.689,43.282,18.689 M43.164,18.019c0.58,0,1.385-0.502,1.385-1.178
		c0-0.466-0.361-0.829-0.826-0.829c-0.542,0-1.371,0.482-1.371,1.165C42.353,17.541,42.631,18.019,43.164,18.019"/>
	<path fill="#FFFFFF" d="M43.932,28.426c0-0.816,0.553-1.618,1.651-1.618c0.924,0,1.817,0.569,1.817,1.592
		c0,0.839-0.538,1.647-1.63,1.647C44.837,30.047,43.932,29.458,43.932,28.426 M45.807,29.341c0.585,0,1.015-0.359,1.015-0.885
		c0-0.628-0.728-0.947-1.289-0.947c-0.719,0-1.011,0.467-1.011,0.907C44.522,29.104,45.366,29.341,45.807,29.341"/>
	<path fill="#FFFFFF" d="M42.675,32.323l0.983,0.004c0.466,0.004,0.501-0.111,0.612-0.354l0.033-0.072l-1.183-0.549l0.284-0.628
		l2.992,1.382l-0.383,0.86c-0.263,0.579-0.487,0.871-1.035,0.871c-0.352,0-0.87-0.292-0.866-0.831
		c0.001-0.083,0.012-0.172,0.039-0.266c-0.176,0.305-0.619,0.263-0.896,0.263L42.369,33L42.675,32.323z M44.592,32.691
		c0,0.252,0.212,0.454,0.448,0.454c0.211,0,0.343-0.117,0.467-0.393l0.104-0.246l-0.818-0.385l-0.135,0.306
		C44.613,32.528,44.592,32.616,44.592,32.691"/>
	<path fill="#FFFFFF" d="M40.663,35.977c0-0.676,0.314-1.043,0.71-1.532l0.429-0.526l2.563,2.086l-0.576,0.707
		c-0.325,0.4-0.708,0.891-1.443,0.891c-0.418,0-0.786-0.193-1.047-0.405C40.975,36.932,40.663,36.483,40.663,35.977 M42.424,36.948
		c0.349,0,0.551-0.105,0.952-0.598l0.126-0.154l-1.704-1.386l-0.209,0.257c-0.205,0.253-0.312,0.501-0.312,0.74
		c0,0.317,0.157,0.598,0.479,0.861C41.989,36.856,42.202,36.948,42.424,36.948"/>
	<rect fill="none" width="187.018" height="58.749"/>
</g>
</svg>
