<svg version="1.1" id="Layer_1" xmlns="http://www.w3.org/2000/svg" xmlns:xlink="http://www.w3.org/1999/xlink" x="0px" y="0px"
	 width="30.439px" height="30px" viewBox="0 0 30.439 30" enable-background="new 0 0 30.439 30" xml:space="preserve">
<g>
	<g>
		<path fill="#FFFFFF" d="M15.393,28.266c-0.695,0-1.432-0.063-2.183-0.189l-0.092-0.016c-0.414-0.068-0.93-0.153-1.199-0.604
			c-0.173-0.29-0.172-0.657-0.028-0.954c-0.051-0.052-0.083-0.118-0.092-0.19c-0.03-0.269,0.008-0.539,0.109-0.787
			c-0.092-0.176-0.113-0.367-0.125-0.486l-0.052-0.484c-0.024-0.227-0.022-0.428-0.021-0.613c0.004-0.355,0.008-0.592-0.182-0.887
			l-0.091-0.141c-0.298-0.461-0.58-0.896-0.658-1.532c-0.017-0.137-0.024-0.274-0.032-0.412c-0.007-0.136-0.014-0.271-0.032-0.405
			c-0.087-0.619-0.431-1.188-0.764-1.737C9.83,18.624,9.7,18.423,9.57,18.223c-0.264-0.408-0.538-0.83-0.756-1.283
			c-1.28-2.66-1.065-5.965,0.548-8.42c1.374-2.093,3.5-3.195,5.994-3.09c3.933,0.156,5.669,2.093,6.433,3.689
			c1.451,3.027,0.523,6.937-0.705,8.595c-0.703,0.949-0.911,1.586-1.131,2.262c-0.047,0.146-0.096,0.291-0.146,0.441
			c-0.078,0.225-0.124,0.461-0.174,0.713c-0.046,0.232-0.092,0.467-0.161,0.693c-0.179,0.574-0.474,1.125-0.851,1.592
			c-0.014,0.018-0.029,0.033-0.045,0.047l0.051,0.732c0.007,0.096,0.018,0.238-0.042,0.385c-0.023,0.061-0.056,0.111-0.088,0.156
			c0.034,0.031,0.064,0.063,0.093,0.102c0.13,0.172,0.173,0.393,0.117,0.587c-0.037,0.132-0.151,0.226-0.287,0.236
			c-0.006,0.009-0.021,0.062-0.016,0.083c0.115,0.08,0.272,0.197,0.293,0.418c0.016,0.172-0.07,0.303-0.113,0.365l-0.102,0.152
			c0.035,0.038,0.065,0.081,0.094,0.129c0.121,0.207,0.133,0.448,0.031,0.646c-0.162,0.318-0.498,0.414-0.742,0.482l-0.063,0.02
			C17.102,28.162,16.282,28.266,15.393,28.266z M12.448,26.061l0.083,0.039c0.107,0.049,0.18,0.15,0.19,0.27
			c0.01,0.117-0.043,0.23-0.142,0.299c-0.134,0.092-0.182,0.313-0.098,0.453c0.113,0.188,0.433,0.24,0.743,0.291l0.096,0.018
			c1.592,0.271,3.158,0.232,4.296-0.104l0.068-0.02c0.129-0.037,0.305-0.088,0.337-0.15c-0.118-0.006-0.236-0.092-0.29-0.197
			c-0.056-0.105-0.06-0.252,0.008-0.352l0.244-0.365c-0.217-0.189-0.287-0.477-0.199-0.75c0.035-0.107,0.092-0.203,0.164-0.279
			c-0.098-0.046-0.18-0.139-0.207-0.238c-0.075-0.267,0.088-0.461,0.176-0.563c0.021-0.024,0.052-0.063,0.06-0.077
			c0.002-0.011-0.002-0.064-0.004-0.093l-0.067-0.953c-0.011-0.162,0.098-0.306,0.251-0.343c0.304-0.391,0.541-0.844,0.688-1.316
			c0.063-0.204,0.104-0.414,0.145-0.624c0.051-0.264,0.104-0.536,0.198-0.805c0.05-0.146,0.097-0.287,0.143-0.429
			c0.228-0.694,0.46-1.414,1.229-2.449c1.102-1.486,1.963-5.161,0.641-7.92c-0.984-2.057-3.014-3.203-5.868-3.318
			c-2.256-0.093-4.176,0.903-5.419,2.795c-1.489,2.268-1.688,5.32-0.505,7.777c0.201,0.416,0.451,0.802,0.716,1.211
			c0.134,0.205,0.268,0.412,0.395,0.621c0.35,0.578,0.747,1.234,0.852,1.988c0.021,0.151,0.03,0.307,0.038,0.461
			c0.007,0.121,0.013,0.244,0.028,0.365c0.06,0.486,0.278,0.825,0.557,1.256l0.092,0.144c0.296,0.462,0.291,0.862,0.286,1.249
			c-0.002,0.163-0.005,0.338,0.017,0.535l0.052,0.484c0.006,0.064,0.023,0.232,0.065,0.27c0.124,0.103,0.154,0.279,0.072,0.417
			C12.502,25.779,12.459,25.918,12.448,26.061z"/>
		<path fill="#FFFFFF" d="M12.17,23.545c-0.013,0-0.026,0-0.041-0.003c-0.169-0.021-0.292-0.168-0.287-0.335
			c-0.021-0.104,0.01-0.211,0.082-0.288c0.083-0.09,0.206-0.123,0.321-0.094c0.17,0.013,0.31,0.153,0.311,0.325
			c0,0.104-0.044,0.195-0.117,0.257C12.378,23.492,12.279,23.545,12.17,23.545z"/>
		<path fill="#FFFFFF" d="M15.373,30c-0.102,0-0.198-0.004-0.288-0.014c-0.588-0.057-1.201-0.293-1.821-0.697
			c-0.743-0.484-1.176-1.045-1.282-1.662c-0.031-0.179,0.088-0.348,0.267-0.379c0.177-0.029,0.349,0.088,0.379,0.268
			c0.075,0.43,0.409,0.842,0.994,1.225c0.531,0.347,1.045,0.547,1.527,0.595c0.508,0.051,1.24-0.069,1.662-0.394
			c0.51-0.393,1.109-1.209,1.102-1.426c-0.027-0.18,0.096-0.346,0.274-0.373c0.179-0.026,0.347,0.097,0.375,0.274
			c0.104,0.673-1.035,1.801-1.352,2.044C16.713,29.843,15.965,30,15.373,30z"/>
		<path fill="#FFFFFF" d="M13.122,24.712c-0.391,0-0.811-0.049-1.188-0.259c-0.158-0.089-0.216-0.288-0.127-0.446
			c0.088-0.159,0.288-0.215,0.445-0.127c0.353,0.195,0.792,0.188,1.329,0.158l4.404-0.244c0.175-0.021,0.336,0.129,0.346,0.31
			c0.011,0.182-0.128,0.336-0.31,0.346l-4.403,0.244C13.461,24.703,13.294,24.712,13.122,24.712z"/>
		<path fill="#FFFFFF" d="M12.608,25.864c-0.174,0-0.494-0.031-0.651-0.317c-0.087-0.158-0.028-0.357,0.129-0.445
			c0.147-0.082,0.331-0.037,0.428,0.099c0.02,0.005,0.062,0.011,0.146,0.008c1.708-0.063,3.438-0.315,5.115-0.572
			c0.024-0.01,0.053-0.016,0.08-0.02l0.219-0.025c0.18-0.022,0.34,0.104,0.364,0.281c0.023,0.178-0.1,0.342-0.276,0.369
			c-1.786,0.271-3.633,0.555-5.478,0.623C12.663,25.863,12.638,25.864,12.608,25.864z"/>
		<path fill="#FFFFFF" d="M13.765,26.875c-0.494,0-0.991-0.04-1.479-0.146c-0.177-0.039-0.289-0.215-0.25-0.393
			c0.039-0.176,0.214-0.289,0.391-0.25c1.101,0.243,2.26,0.105,3.381-0.029c0.814-0.097,1.627-0.193,2.436-0.316
			c0.181-0.026,0.347,0.096,0.374,0.275c0.027,0.178-0.096,0.346-0.275,0.373c-0.814,0.123-1.634,0.223-2.452,0.319
			C15.218,26.788,14.496,26.875,13.765,26.875z"/>
		<path fill="#FFFFFF" d="M13.87,27.764c-0.491,0-0.981-0.039-1.475-0.131c-0.179-0.031-0.296-0.203-0.264-0.382
			c0.033-0.179,0.206-0.297,0.383-0.265c1.908,0.352,3.861-0.133,5.86-0.704c0.175-0.048,0.356,0.051,0.406,0.225
			c0.049,0.175-0.052,0.356-0.226,0.406C16.978,27.365,15.424,27.764,13.87,27.764z"/>
		<path fill="#FFFFFF" d="M14.776,23.311c-0.188-0.002-0.332-0.152-0.328-0.334c0.036-1.957-0.103-3.906-0.415-5.83
			c-0.283-0.112-0.529-0.305-0.717-0.469c-0.89-0.777-1.617-1.702-2.163-2.75c-0.171-0.327-0.331-0.687-0.345-1.09
			c-0.02-0.514,0.221-1.011,0.626-1.293c0.438-0.308,1.027-0.329,1.467-0.055c0.462,0.29,0.65,0.811,0.79,1.273
			c0.38,1.258,0.684,2.533,0.911,3.819c0.221-0.04,0.418-0.239,0.618-0.624c-0.038-0.11-0.068-0.224-0.096-0.332
			c-0.289-1.207-0.294-2.483-0.017-3.692c0.067-0.298,0.191-0.661,0.542-0.825c0.451-0.213,0.96,0.079,1.153,0.484
			c0.166,0.35,0.135,0.723,0.092,1.045c-0.15,1.152-0.472,2.271-0.952,3.326c0.026,0.043,0.056,0.08,0.089,0.112
			c0.11,0.107,0.26,0.156,0.414,0.163c0.248-1.277,0.588-2.535,1.021-3.752c0.072-0.202,0.182-0.507,0.433-0.714
			c0.168-0.137,0.396-0.205,0.607-0.186c0.185,0.02,0.346,0.104,0.455,0.238c0.168,0.207,0.169,0.473,0.17,0.6
			c0.002,1.135-0.306,2.25-0.889,3.224c-0.201,0.336-0.529,0.814-1.047,1.074c-0.062,0.031-0.123,0.06-0.188,0.08
			c-0.354,2.014-0.469,4.072-0.334,6.098c0.013,0.181-0.125,0.336-0.306,0.35c-0.179,0.005-0.337-0.126-0.35-0.307
			c-0.134-2.012-0.026-4.055,0.31-6.057c-0.27-0.029-0.521-0.133-0.717-0.307c-0.205,0.3-0.489,0.574-0.892,0.646
			c0.285,1.901,0.418,3.828,0.382,5.762C15.101,23.168,14.955,23.311,14.776,23.311z M12.219,11.957
			c-0.144,0-0.29,0.041-0.409,0.125c-0.221,0.154-0.357,0.442-0.348,0.732c0.011,0.273,0.138,0.551,0.271,0.811
			c0.501,0.961,1.197,1.846,2.013,2.559c0.046,0.041,0.092,0.078,0.135,0.112c-0.214-1.125-0.486-2.24-0.818-3.342
			c-0.11-0.366-0.241-0.738-0.512-0.907C12.457,11.986,12.339,11.957,12.219,11.957z M18.438,12.238
			c-0.027,0-0.081,0.01-0.121,0.042c-0.103,0.084-0.164,0.243-0.23,0.427c-0.375,1.057-0.68,2.143-0.912,3.247
			c0.175-0.151,0.341-0.36,0.509-0.642c0.521-0.871,0.797-1.869,0.795-2.885C18.477,12.283,18.461,12.248,18.438,12.238z
			 M15.97,11.695c-0.016,0-0.027,0.002-0.039,0.008c-0.07,0.033-0.133,0.16-0.183,0.379c-0.215,0.934-0.246,1.912-0.092,2.859
			c0.285-0.77,0.482-1.57,0.59-2.388c0.029-0.229,0.054-0.49-0.035-0.678C16.161,11.768,16.047,11.695,15.97,11.695z"/>
		<path fill="#FFFFFF" d="M15.396,23.665c-0.997,0-2.003-0.06-2.991-0.177c-0.144-0.019-0.259-0.127-0.284-0.271
			c-0.024-0.143,0.046-0.284,0.176-0.35c0.893-0.45,1.954-0.669,3.248-0.669c0.848,0,1.695,0.089,2.561,0.187
			c0.071,0.009,0.313,0.052,0.438,0.251c0.067,0.108,0.081,0.239,0.036,0.359c-0.047,0.128-0.143,0.195-0.178,0.222
			c-0.432,0.313-0.951,0.367-1.447,0.398C16.438,23.648,15.914,23.665,15.396,23.665z M14.074,22.973
			c0.947,0.051,1.898,0.047,2.839-0.012c0.075-0.005,0.151-0.01,0.229-0.018C16.043,22.838,14.952,22.818,14.074,22.973z"/>
	</g>
	<path fill="#FFFFFF" d="M15.325,3.784c-0.145,0-0.271-0.071-0.292-0.169c-0.242-1.131-0.336-2.283-0.281-3.425
		c0.005-0.108,0.157-0.194,0.305-0.19c0.163,0.004,0.29,0.094,0.284,0.203c-0.053,1.119,0.04,2.248,0.276,3.356
		c0.023,0.107-0.089,0.206-0.25,0.222C15.353,3.783,15.338,3.784,15.325,3.784z"/>
	<path fill="#FFFFFF" d="M22.245,6.325c-0.092,0-0.182-0.042-0.24-0.122c-0.095-0.132-0.063-0.316,0.066-0.412l3.133-2.266
		c0.131-0.096,0.316-0.066,0.412,0.066c0.095,0.132,0.064,0.316-0.066,0.412L22.417,6.27C22.364,6.307,22.303,6.325,22.245,6.325z"
		/>
	<path fill="#FFFFFF" d="M23.964,12.753c-0.158,0-0.291-0.127-0.295-0.288c-0.004-0.162,0.125-0.297,0.288-0.301
		c1.136-0.028,2.273-0.313,3.287-0.824c0.146-0.073,0.322-0.015,0.396,0.131c0.071,0.146,0.014,0.323-0.132,0.396
		C26.418,12.416,25.194,12.723,23.964,12.753z"/>
	<path fill="#FFFFFF" d="M25.922,20.511c-0.065,0-0.135-0.021-0.188-0.067l-2.584-2.174c-0.125-0.105-0.142-0.291-0.037-0.416
		c0.104-0.123,0.291-0.142,0.416-0.035l2.584,2.174c0.125,0.104,0.141,0.291,0.036,0.415C26.09,20.477,26.006,20.511,25.922,20.511z
		"/>
	<path fill="#FFFFFF" d="M8.459,6.848c-0.097,0-0.191-0.047-0.248-0.135C7.603,5.768,6.786,4.941,5.847,4.324
		C5.711,4.235,5.673,4.053,5.763,3.916c0.09-0.135,0.272-0.173,0.408-0.084C7.178,4.494,8.055,5.38,8.707,6.395
		c0.088,0.137,0.048,0.318-0.088,0.406C8.569,6.833,8.514,6.848,8.459,6.848z"/>
	<path fill="#FFFFFF" d="M6.197,12.709c-0.035,0-0.071-0.007-0.106-0.02c-0.982-0.381-2.013-0.633-3.061-0.749
		c-0.162-0.019-0.279-0.163-0.261-0.325c0.018-0.162,0.165-0.276,0.325-0.261c1.099,0.12,2.179,0.385,3.21,0.784
		c0.15,0.059,0.227,0.229,0.168,0.382C6.427,12.637,6.315,12.709,6.197,12.709z"/>
	<path fill="#FFFFFF" d="M4.925,20.643c-0.072,0-0.146-0.027-0.202-0.08c-0.119-0.113-0.124-0.299-0.013-0.418
		c0.563-0.594,1.01-0.929,1.442-1.25c0.432-0.322,0.84-0.627,1.367-1.185c0.111-0.119,0.299-0.123,0.417-0.012
		c0.118,0.112,0.124,0.299,0.012,0.417c-0.562,0.595-1.01,0.929-1.443,1.251c-0.432,0.321-0.84,0.627-1.366,1.184
		C5.081,20.611,5.002,20.643,4.925,20.643z"/>
</g>
</svg>
