<svg version="1.1" id="Layer_1" xmlns="http://www.w3.org/2000/svg" xmlns:xlink="http://www.w3.org/1999/xlink" x="0px" y="0px"
	 width="30.439px" height="30px" viewBox="0 0 30.439 30" enable-background="new 0 0 30.439 30" xml:space="preserve">
<g>
	<path fill="#FFFFFF" d="M13.313,0.502c5.842-0.081,10.208,1.938,13.178,4.987c3.285,3.372,5.348,11.358,2.819,17.046
		c-1.145,2.572-3.083,4.543-5.602,5.805c-1.624,0.366-3.44,0.73-5.055,0.954c-4.513,0.622-8.924-0.22-11.962-1.854
		c-2.66-1.432-4.252-4.041-5.611-6.814C-1.401,15.561,0.806,8.536,3.51,5.269c2.069-2.5,4.953-4.196,9.015-4.657
		C12.682,0.594,13.156,0.505,13.313,0.502z M14.034,1.354C6.222,2.334,1.161,6.579,0.546,14.612
		c-0.348,4.55,1.576,7.154,3.434,9.795c2.283,3.248,6.708,4.549,12.01,4.532c7.871-0.023,12.02-4.388,13.371-11.115
		c0.828-6.248-1.354-10.33-4.39-13.179c-2.626-1.865-5.788-3.302-10.059-3.42C14.737,1.221,14.21,1.332,14.034,1.354z
		 M24.103,27.753c1.854-1.123,3.279-2.728,4.451-4.543l0.131-0.11c0.095-0.104,0.313-0.104,0.256-0.387l0.014-0.072
		c0.008-0.014,0.025-0.056,0.033-0.067c0.955-1.616,1.186-4.284,0.949-6.823c0.033,6.598-3.388,9.913-7.479,12.42
		c0.215,0.188,0.447-0.038,0.635-0.02l-0.206-0.104l0.733-0.141C23.715,27.874,24.019,27.805,24.103,27.753z M4.232,5.193
		c2.313-2.391,5.725-3.746,9.87-4.273c-0.345-0.007-1.37,0.08-1.711,0.121c-3.668,0.438-6.327,1.955-8.28,4.121
		C4.189,5.215,4.23,5.195,4.232,5.193z"/>
	<path fill="#FFFFFF" d="M11.158,5.261c3.201,1.416,5.642,3.655,8.573,5.348c0.519,0.3,1.044,0.854,1.646,0.994
		c1,0.951,2.396,1.847,3.521,2.634c0.228,0.159,0.188,0.467,0.05,0.593c-2.136,1.964-4.88,3.344-7.224,5.042
		c-2.244,1.625-4.417,3.295-6.593,4.959c-0.218-0.112-0.545,0.045-0.447-0.343c-0.183,0.378-0.144-0.978-0.138-1.258l0.446-17.805
		C10.992,5.41,11.049,5.37,11.158,5.261z M21.118,13.481c-2.064,2.549-4.36,4.895-6.337,7.515c0.301-0.293,0.643-0.557,1.033-0.708
		c-0.052,0.222-0.439,0.653-0.325,0.595c2.143-1.098,3.343-3.063,4.826-4.813c0.424-0.502,0.732-1.311,1.319-1.638
		c-0.02-0.142,0.201-0.334,0.232-0.664c-1.892,2.384-3.924,4.514-6.067,6.517c2.078-2.391,4.443-4.587,6.145-7.483
		c0.022-0.039-0.261-0.354-0.396-0.099C21.412,12.96,21.302,13.253,21.118,13.481z M11.529,20.413
		c-0.051,0.121-0.105,0.28-0.322,0.308c-0.117,0.779-0.076,1.711-0.067,2.594l0.978-1.551c-0.169,0.162-0.448,0.547-0.598,0.57
		c-0.368,0.057-0.136-0.537-0.013-0.699c2.203-2.882,4.476-5.583,6.731-8.418l0.117-0.027l0.063-0.005
		c0.521-0.283,0.618-0.881,0.87-1.23c-2.852,2.527-5.32,5.458-7.757,8.389L11.529,20.413z M11.331,23.788
		c-0.206,0.094-0.184,0.356-0.194,0.542c0.157-0.167,0.604-0.732,0.798-0.857c0.693-0.451,1.577-0.867,1.885-1.691
		c1.88-2.617,4.155-4.965,6.246-7.35l0.051-0.021c0.376-0.449,0.743-0.915,1.083-1.624c-3.315,3.165-6.146,6.719-9.172,9.973
		c0.13-0.252-0.259,0.86-0.703,0.938L11.331,23.788z M16.804,11.631c0.024-0.009,0.131-0.042,0.137-0.066
		c0.087-0.322,0.287-0.579,0.406-0.914c-0.914,0.676-1.742,1.376-2.512,2.124c-1.333,1.296-2.353,3.149-3.442,4.675
		c-0.254,0.356-0.236,1.008-0.177,1.481c1.581-2.596,3.482-4.912,5.405-7.143C16.526,11.585,16.955,11.449,16.804,11.631z
		 M18.085,11.36c-2.496,2.461-5.019,4.919-6.809,8.004c-0.116,0.2-0.074,0.554-0.076,0.885c2.239-3.005,4.609-5.84,7.088-8.749
		c0.019-0.021,0.017-0.503-0.176-0.148C18.094,11.385,18.041,11.403,18.085,11.36z M16.265,9.648
		c-1.129,0.95-2.146,2.04-2.929,3.209c-0.867,1.295-2.293,2.298-2.158,4.325c1.344-1.931,2.495-4.007,4.048-5.7
		c0.285-0.692,1.122-1.152,1.257-1.949C16.37,9.589,16.288,9.629,16.265,9.648z M14.371,8.993c0.087-0.296,0.362-0.531,0.441-0.983
		c-1.272,0.896-2.162,2.079-2.946,3.191c-0.156,0.222-0.331,0.55-0.543,0.269c0.793-1.382,1.75-2.703,2.489-4.146
		c-0.912,0.62-1.653,1.688-2.477,2.618c-0.077,0.816-0.092,1.999-0.06,3.117c0.258-0.355,0.491-0.782,0.773-1.146l2.204-2.789
		C14.371,9.168,14.353,9.056,14.371,8.993z M14.834,10.201c0.459-0.007,0.391-0.639,0.685-1.148
		c-1.343,1.109-2.49,2.308-3.373,3.667c-0.11,0.169-0.244,0.183-0.172,0.018c-0.125-0.033-0.584,0.8-0.112,0.409
		c-0.357,0.408-0.859,1.118-0.653,2.115c1.052-1.679,2.336-3.274,3.578-4.833C14.741,10.347,14.729,10.228,14.834,10.201z
		 M20.306,12.863c0.092-0.086,0.12-0.243,0.104-0.329c-2.547,2.037-4.775,4.397-6.666,7.013c-0.046,0.064-0.041,0.163-0.036,0.201
		C15.878,17.387,18.028,14.986,20.306,12.863z M22.487,14.043c0.171-0.144,0.456-0.428,0.705-0.216
		c-0.341,0.625-0.731,1.304-1.243,1.739c-0.109,0.289-0.357,0.541-0.408,0.884l0.658-0.433l0.093-0.043
		c-0.005-0.156,0.004-0.314,0.069-0.391c0.504-0.577,0.952-0.931,1.5-1.412l-1.524-1.167c-0.262-0.233-0.507,0.234-0.531,0.456
		c0.142-0.001,0.243-0.154,0.452-0.093c0.056,0.587-0.49,1.14-0.731,1.574C21.843,14.666,22.15,14.326,22.487,14.043z M22.56,14.457
		c-1.169,0.972-2.421,2.549-3.509,3.919c0.865-0.452,1.719-1.022,2.304-1.519c-0.384-0.127-0.131-0.58,0.04-0.729
		c0.214-0.188,0.042-0.515,0.327-0.615c0.071-0.026,0.144,0.024,0.227,0.053C21.843,14.718,22.496,15.313,22.56,14.457z
		 M12.064,22.458c2.18-2.524,4.343-5.168,6.64-7.571C16.319,17.242,13.916,19.58,12.064,22.458z M15.404,15.399
		c1.237-1.392,2.469-2.801,4.053-3.85c0.64-0.423-0.354-0.626-0.615-0.721C17.845,12.42,16.609,13.94,15.404,15.399z M11.659,7.688
		c0.105-0.111,0.372-0.455,0.468-0.565c0.153-0.177,0.399-0.558,0.724-0.305c-0.308,0.807-0.875,1.546-1.088,2.384
		c0.568-0.718,1.109-1.479,1.789-2.07c-0.47-0.335-0.894-0.643-1.381-0.857c-0.266,0.439-0.46,0.96-0.644,1.442
		C11.563,7.713,11.649,7.698,11.659,7.688z M17.003,9.452c-0.682,0.944-1.512,1.85-2.135,2.92c0.882-0.892,1.856-1.701,2.985-2.356
		C17.607,9.737,17.235,9.686,17.003,9.452z M17.084,15.13c1.053-1.192,2.315-2.139,3.55-3.136c-0.045-0.254-0.396-0.589-0.598-0.337
		C19.099,12.829,17.929,13.879,17.084,15.13z M15.783,8.524c-0.168-0.106-0.369-0.355-0.673-0.386
		c-0.17,0.419-0.441,0.772-0.856,0.985c0.062,0.216-0.014,0.355-0.163,0.421c0.005,0.246-0.208,0.059-0.073-0.038
		C13.65,10.351,13,11.003,12.563,11.78C13.487,10.577,14.577,9.382,15.783,8.524z M16.209,12.73
		c0.688-0.563,1.624-1.547,2.354-2.227c-0.289-0.156-0.475-0.401-0.709-0.487C17.603,11.164,16.814,11.801,16.209,12.73z
		 M14.476,7.992c0.385-0.365-0.251-0.441-0.425-0.567c-0.376,0.549-0.814,1.234-1.103,1.915C13.349,8.778,13.98,8.462,14.476,7.992z
		 M22.578,16.07c0.634-0.529,1.31-1,1.713-1.752c-0.867,0.46-1.443,1.09-1.999,1.657l-0.093,0.045
		C21.399,16.801,22.582,16.059,22.578,16.07z M11.305,9.242l1.139-1.976c-0.404,0.165-0.616,0.395-0.748,0.616
		c-0.021,0.033-0.134,0.034-0.179,0.034C11.316,8.255,11.397,8.687,11.305,9.242z M15.257,10.177
		c0.41-0.383,0.769-0.751,1.236-1.049c-0.031-0.165-0.529-0.609-0.619-0.218C15.781,9.314,15.419,9.701,15.257,10.177z
		 M11.983,6.246C11.854,6.072,11.625,5.954,11.4,5.89v1.192C11.605,6.814,11.751,6.46,11.983,6.246z M11.92,21.664
		c0.505-0.292,0.604-1.018,0.967-1.171c-0.059-0.007,0.076-0.106,0.001-0.214C12.438,20.616,12.108,21.214,11.92,21.664z
		 M20.613,12.925c0.25-0.209,0.879-0.58,0.395-0.766c-0.299,0.417-0.643,0.746-0.836,1.162
		C20.37,13.196,20.521,13.002,20.613,12.925z M18.505,18.758c0.26,0.008,0.451-0.506,0.347-0.43
		C18.687,18.448,18.527,18.602,18.505,18.758z M15.958,12.998c-0.083,0.095-0.251,0.161-0.236,0.32
		C15.865,13.295,16.009,13.142,15.958,12.998z"/>
</g>
</svg>
