<svg version="1.1" id="Layer_1" xmlns="http://www.w3.org/2000/svg" xmlns:xlink="http://www.w3.org/1999/xlink" x="0px" y="0px"
	 width="30.439px" height="30px" viewBox="0 0 30.439 30" enable-background="new 0 0 30.439 30" xml:space="preserve">
<g>
	<g>
		<path fill="#FFFFFF" d="M14.716,28.48c-0.013,0-0.024,0-0.037-0.002c-0.153-0.021-0.262-0.162-0.241-0.315
			c0.771-5.753,1.096-11.61,0.959-17.413c-0.003-0.155,0.119-0.284,0.274-0.288c0.148,0,0.283,0.119,0.287,0.274
			c0.139,5.833-0.188,11.721-0.965,17.502C14.975,28.378,14.855,28.48,14.716,28.48z"/>
		<path fill="#FFFFFF" d="M20.673,28.625c-0.184-0.02-0.295-0.156-0.278-0.311c0.332-3.188,0.646-6.123,0.961-9.058
			c0.315-2.938,0.631-5.877,0.963-9.071c0.016-0.153,0.147-0.267,0.309-0.249c0.154,0.016,0.267,0.154,0.25,0.308
			c-0.332,3.193-0.646,6.132-0.963,9.071c-0.313,2.936-0.629,5.869-0.961,9.057C20.937,28.518,20.816,28.625,20.673,28.625z"/>
		<path fill="#FFFFFF" d="M19.033,11.752c-1.198,0-2.496-0.202-3.443-1.063c-0.115-0.104-0.124-0.282-0.02-0.396
			c0.104-0.116,0.281-0.123,0.396-0.019c1.05,0.953,2.675,0.973,3.976,0.883c0.484-0.033,0.997-0.082,1.442-0.27
			c0.454-0.193,0.79-0.532,0.898-0.907c0.043-0.148,0.198-0.237,0.347-0.192c0.149,0.043,0.235,0.198,0.192,0.348
			c-0.156,0.543-0.602,1.005-1.219,1.267c-0.525,0.223-1.09,0.277-1.623,0.314C19.677,11.737,19.358,11.752,19.033,11.752z"/>
		<path fill="#FFFFFF" d="M18.25,30c-1.354,0-2.826-0.615-3.736-1.583c-0.106-0.112-0.102-0.291,0.012-0.397
			c0.112-0.104,0.29-0.1,0.396,0.013c0.854,0.903,2.316,1.481,3.572,1.399c0.547-0.035,1.299-0.214,1.768-0.861
			c0.091-0.125,0.267-0.153,0.392-0.063c0.125,0.092,0.154,0.266,0.063,0.393c-0.472,0.652-1.228,1.029-2.186,1.092
			C18.437,29.997,18.343,30,18.25,30z"/>
		<path fill="#FFFFFF" d="M28.147,22.109c-0.014,0-0.024,0-0.036-0.002c-0.154-0.021-0.262-0.16-0.242-0.315
			c0.455-3.455,0.775-7.272,1.084-10.964C29.17,8.227,29.395,5.548,29.666,3c-1.688,2.143-4.063,4.772-5.733,6.458
			c-0.475,0.479-0.97,0.946-1.47,1.389c-0.116,0.102-0.295,0.092-0.396-0.025c-0.104-0.116-0.092-0.293,0.022-0.396
			c0.492-0.435,0.979-0.893,1.443-1.363c1.869-1.888,4.633-4.966,6.297-7.197c0.076-0.102,0.211-0.139,0.328-0.093
			c0.119,0.047,0.19,0.167,0.176,0.292c-0.319,2.831-0.575,5.87-0.82,8.81c-0.311,3.698-0.631,7.521-1.088,10.992
			C28.406,22.007,28.287,22.109,28.147,22.109z"/>
		<path fill="#FFFFFF" d="M20.507,29.23c-0.113,0-0.251-0.064-0.305-0.154c-0.102-0.17-0.039-0.404,0.078-0.532
			c2.34-2.526,4.883-4.905,7.561-7.069c0.12-0.099,0.298-0.078,0.396,0.043c0.098,0.119,0.079,0.297-0.041,0.396
			c-2.631,2.125-5.132,4.46-7.434,6.94c0.004,0.008,0.008,0.019,0.01,0.029c0.038,0.149-0.054,0.303-0.203,0.34
			C20.549,29.229,20.529,29.23,20.507,29.23z"/>
		<path fill="#FFFFFF" d="M16.141,10.942c-0.044,0-0.087-0.01-0.128-0.031c-0.581-0.298-0.839-0.717-0.69-1.12
			c0.051-0.138,0.143-0.24,0.211-0.314c2.817-3.109,5.987-5.905,9.422-8.311c0.082-0.058,0.19-0.068,0.282-0.022
			c0.091,0.043,0.152,0.133,0.159,0.235l0.129,2.019c0.01,0.154-0.107,0.288-0.262,0.298c-0.154,0.013-0.288-0.107-0.299-0.262
			L24.87,1.915c-3.244,2.316-6.243,4.985-8.919,7.939c-0.041,0.044-0.086,0.096-0.1,0.132c-0.038,0.102,0.143,0.284,0.418,0.426
			c0.139,0.072,0.192,0.241,0.121,0.378C16.341,10.886,16.243,10.942,16.141,10.942z"/>
		<path fill="#FFFFFF" d="M17.332,11.433c-0.074,0-0.147-0.029-0.203-0.086c-0.502-0.525-0.091-1.281,0.414-1.768
			c2.355-2.277,4.922-4.371,7.625-6.225c0.084-0.057,0.189-0.065,0.279-0.023c0.854,0.401,2.092,0.372,2.939,0.166
			c0.151-0.04,0.303,0.056,0.34,0.206c0.037,0.15-0.057,0.303-0.206,0.339c-0.834,0.204-2.139,0.28-3.163-0.137
			c-2.631,1.813-5.128,3.857-7.424,6.076c-0.279,0.27-0.615,0.751-0.398,0.978c0.107,0.111,0.104,0.29-0.01,0.396
			C17.471,11.407,17.402,11.433,17.332,11.433z"/>
		<path fill="#FFFFFF" d="M23.831,17.697c-0.042,0-0.083-0.01-0.121-0.027c-0.103-0.049-0.165-0.154-0.159-0.268
			c0.068-1.389,0.185-2.795,0.347-4.177c0.026-0.241,0.063-0.54,0.225-0.803c0.143-0.229,0.332-0.376,0.517-0.518l0.62-0.5
			c0.925-0.74,1.878-1.506,2.772-2.404c0.084-0.084,0.211-0.106,0.317-0.056c0.106,0.05,0.172,0.161,0.16,0.279
			c-0.046,0.52-0.089,1.103-0.134,1.704c-0.08,1.081-0.164,2.197-0.271,3.153c-0.008,0.07-0.042,0.135-0.096,0.181
			c-0.7,0.607-1.334,1.128-1.94,1.628c-0.699,0.577-1.36,1.121-2.051,1.737C23.964,17.671,23.898,17.697,23.831,17.697z
			 M27.888,9.917c-0.752,0.7-1.525,1.321-2.279,1.926l-0.629,0.504c-0.157,0.122-0.293,0.227-0.381,0.37
			c-0.098,0.157-0.123,0.378-0.146,0.574c-0.134,1.149-0.236,2.314-0.306,3.475c0.521-0.449,1.029-0.869,1.563-1.31
			c0.579-0.477,1.184-0.974,1.848-1.548c0.1-0.921,0.18-1.989,0.257-3.023C27.839,10.553,27.864,10.229,27.888,9.917z"/>
		<path fill="#FFFFFF" d="M21.642,27.72c-0.181-0.016-0.294-0.151-0.28-0.305c0.265-3.019,0.538-5.931,0.81-8.843
			s0.543-5.823,0.81-8.838c0.014-0.156,0.153-0.264,0.305-0.255c0.154,0.013,0.27,0.149,0.255,0.304
			c-0.265,3.017-0.538,5.929-0.81,8.841c-0.272,2.912-0.544,5.824-0.81,8.84C21.908,27.609,21.786,27.72,21.642,27.72z"/>
		<path fill="#FFFFFF" d="M18.796,10.505c-0.073,0-0.146-0.029-0.203-0.086c-0.106-0.112-0.104-0.29,0.01-0.397
			c2.488-2.387,4.833-4.404,7.376-6.346c0.123-0.094,0.3-0.071,0.395,0.052c0.094,0.124,0.07,0.3-0.053,0.394
			c-2.526,1.93-4.855,3.934-7.329,6.306C18.936,10.479,18.867,10.505,18.796,10.505z"/>
		<path fill="#FFFFFF" d="M20.525,10.4c-0.076,0-0.152-0.031-0.207-0.091c-0.104-0.114-0.097-0.292,0.018-0.396l6.625-6.049
			c0.115-0.104,0.293-0.096,0.396,0.018c0.104,0.115,0.097,0.292-0.019,0.397l-6.625,6.049C20.66,10.376,20.592,10.4,20.525,10.4z"
			/>
		<path fill="#FFFFFF" d="M17.624,27.577c-0.259,0-0.525-0.125-0.671-0.313c-0.111-0.146-0.146-0.32-0.1-0.49
			c0.044-0.149,0.143-0.256,0.209-0.325l1.143-1.208c-0.454,0.037-0.918-0.036-1.338-0.213c-0.139-0.059-0.207-0.217-0.154-0.356
			c0.129-0.34,0.326-0.647,0.574-0.911c-0.379-0.121-0.516-0.339-0.563-0.503c-0.117-0.407,0.225-0.739,0.354-0.862l1.05-1.015
			l-0.229,0.095c-0.178,0.071-0.447,0.184-0.73,0.102c-0.201-0.059-0.356-0.191-0.451-0.387c-0.169-0.349-0.096-0.797,0.021-1.074
			c0.235-0.575,0.621-1.076,1.117-1.451c0.123-0.092,0.301-0.068,0.393,0.056c0.094,0.123,0.069,0.3-0.055,0.395
			c-0.415,0.313-0.738,0.731-0.937,1.215c-0.09,0.215-0.104,0.476-0.033,0.616c0.029,0.063,0.066,0.082,0.101,0.092
			c0.088,0.025,0.224-0.023,0.364-0.081l1.579-0.642c0.123-0.053,0.268-0.008,0.34,0.105c0.074,0.113,0.057,0.262-0.04,0.355
			l-2.097,2.022c-0.207,0.198-0.213,0.279-0.205,0.306c0.011,0.035,0.082,0.09,0.218,0.129c0.122,0.035,0.251,0.057,0.379,0.059
			c0.364-0.227,0.777-0.371,1.208-0.41c0.117-0.012,0.238,0.061,0.285,0.174c0.046,0.115,0.012,0.246-0.084,0.324
			c-0.349,0.283-0.785,0.446-1.23,0.473c-0.278,0.199-0.516,0.459-0.68,0.756c0.524,0.144,1.102,0.1,1.594-0.131
			c0.121-0.057,0.269-0.02,0.347,0.092c0.079,0.107,0.069,0.259-0.022,0.355l-1.806,1.912c-0.023,0.023-0.07,0.074-0.076,0.094
			c0.013,0.021,0.121,0.088,0.229,0.088c0.083,0,0.164-0.015,0.244-0.025c0.189-0.028,0.402-0.061,0.627,0.011
			c0.146,0.047,0.229,0.205,0.183,0.353c-0.048,0.148-0.203,0.23-0.354,0.184c-0.098-0.031-0.226-0.012-0.373,0.01
			C17.845,27.561,17.74,27.575,17.624,27.577z"/>
		<path fill="#FFFFFF" d="M16.669,11.036c-0.032,0-0.066-0.012-0.094-0.037c-0.229-0.206-0.301-0.558-0.174-0.838
			c0.085-0.183,0.238-0.316,0.362-0.422c2.775-2.392,5.64-4.747,8.511-7c0.061-0.048,0.147-0.038,0.196,0.023
			c0.048,0.061,0.036,0.149-0.024,0.198c-2.867,2.25-5.727,4.603-8.5,6.992c-0.107,0.093-0.23,0.198-0.289,0.326
			c-0.078,0.168-0.031,0.388,0.105,0.513c0.058,0.052,0.063,0.14,0.01,0.198C16.746,11.021,16.708,11.036,16.669,11.036z"/>
	</g>
	<g>
		<path fill="#FFFFFF" d="M7.977,28.341c-0.164-0.004-0.286-0.135-0.281-0.289C7.911,21.07,7.948,16.148,7.834,9.896
			C7.832,9.741,7.955,9.613,8.11,9.61c0.171-0.001,0.283,0.121,0.286,0.275c0.113,6.264,0.076,11.192-0.14,18.186
			C8.252,28.221,8.127,28.341,7.977,28.341z"/>
		<path fill="#FFFFFF" d="M13.934,28.208c-0.171-0.01-0.29-0.142-0.28-0.297c0.184-3.2,0.362-6.147,0.541-9.097
			c0.179-2.948,0.358-5.896,0.542-9.101c0.009-0.155,0.141-0.282,0.296-0.264c0.155,0.009,0.272,0.142,0.265,0.296
			c-0.185,3.204-0.363,6.154-0.542,9.104c-0.179,2.947-0.357,5.894-0.542,9.094C14.205,28.093,14.082,28.208,13.934,28.208z"/>
		<path fill="#FFFFFF" d="M11.084,11.442c-1.066,0-2.18-0.198-3.045-0.915c-0.119-0.099-0.136-0.276-0.037-0.395
			c0.1-0.12,0.276-0.135,0.396-0.037c1.091,0.902,2.716,0.848,4.011,0.698c0.482-0.055,0.99-0.127,1.429-0.337
			c0.699-0.335,0.9-0.607,0.958-0.739c0.063-0.143,0.228-0.207,0.369-0.146c0.144,0.062,0.207,0.227,0.146,0.37
			c-0.158,0.362-0.572,0.706-1.23,1.022c-0.517,0.247-1.078,0.328-1.606,0.388C12.036,11.402,11.564,11.442,11.084,11.442z"/>
		<path fill="#FFFFFF" d="M11.378,29.7c-1.295,0-2.688-0.537-3.594-1.415C7.672,28.178,7.669,28,7.777,27.889
			c0.107-0.111,0.286-0.115,0.396-0.007c0.894,0.865,2.388,1.368,3.633,1.232c0.546-0.062,1.288-0.272,1.726-0.941
			c0.085-0.129,0.259-0.166,0.389-0.08c0.13,0.085,0.166,0.261,0.081,0.39c-0.44,0.673-1.179,1.084-2.133,1.19
			C11.707,29.691,11.543,29.7,11.378,29.7z"/>
		<path fill="#FFFFFF" d="M14.949,10.169c-0.073,0-0.147-0.029-0.202-0.086c-0.107-0.111-0.104-0.289,0.006-0.396l0.267-0.256
			c0.317-0.305,0.527-0.507,0.878-0.894c1.86-2.062,3.412-4.354,4.91-6.571c0.068-0.1,0.192-0.148,0.308-0.114
			c0.116,0.032,0.199,0.134,0.207,0.253c0.049,0.767,0.094,1.536,0.135,2.307c0.01,0.154-0.108,0.287-0.264,0.295
			c-0.15,0.02-0.287-0.11-0.296-0.265c-0.026-0.494-0.057-0.987-0.085-1.479c-1.324,1.952-2.81,4.08-4.496,5.95
			c-0.364,0.403-0.592,0.622-0.908,0.924l-0.264,0.254C15.09,10.143,15.02,10.169,14.949,10.169z"/>
		<path fill="#FFFFFF" d="M13.88,28.514c-0.037,0-0.072-0.007-0.104-0.021c-0.235-0.104-0.219-0.336-0.131-1.06
			c0.019-0.151,0.16-0.266,0.313-0.244c0.123,0.017,0.218,0.106,0.241,0.223c0.108-0.137,0.222-0.277,0.36-0.434
			c0.103-0.119,0.279-0.129,0.396-0.025s0.127,0.279,0.025,0.396c-0.185,0.209-0.324,0.387-0.467,0.57
			c-0.119,0.152-0.24,0.307-0.39,0.484C14.066,28.473,13.972,28.514,13.88,28.514z"/>
		<path fill="#FFFFFF" d="M8.588,10.755c-0.039,0-0.078-0.008-0.115-0.026c-0.427-0.194-0.632-0.71-0.477-1.201
			c0.045-0.138,0.129-0.24,0.196-0.322c2.885-3.497,5.67-6.237,8.765-8.624c0.08-0.061,0.188-0.076,0.281-0.036
			s0.158,0.126,0.168,0.228l0.224,2.01c0.018,0.154-0.095,0.292-0.249,0.31C17.231,3.112,17.089,3,17.072,2.845l-0.168-1.51
			C14,3.623,11.359,6.249,8.625,9.562c-0.04,0.049-0.082,0.101-0.094,0.137c-0.059,0.187-0.019,0.433,0.174,0.521
			c0.142,0.064,0.203,0.23,0.14,0.372C8.797,10.694,8.695,10.755,8.588,10.755z"/>
		<path fill="#FFFFFF" d="M9.801,11.191c-0.069,0-0.139-0.026-0.193-0.078c-0.526-0.501-0.15-1.275,0.331-1.786
			c2.249-2.382,4.715-4.594,7.331-6.57c0.078-0.06,0.186-0.074,0.275-0.036c0.854,0.355,1.815,0.408,2.706,0.147
			c0.15-0.043,0.306,0.042,0.349,0.19s-0.041,0.305-0.19,0.349c-0.962,0.281-1.993,0.241-2.927-0.108
			c-2.544,1.935-4.944,4.091-7.136,6.414c-0.267,0.281-0.578,0.777-0.353,0.993c0.112,0.107,0.116,0.284,0.01,0.397
			C9.949,11.161,9.875,11.191,9.801,11.191z"/>
		<path fill="#FFFFFF" d="M11.221,10.196c-0.07,0-0.14-0.026-0.193-0.078c-0.112-0.107-0.117-0.284-0.01-0.396
			c2.257-2.375,4.502-4.482,7.065-6.636c0.119-0.1,0.296-0.084,0.396,0.034c0.1,0.12,0.085,0.297-0.034,0.396
			c-2.547,2.14-4.778,4.235-7.021,6.593C11.369,10.167,11.295,10.196,11.221,10.196z"/>
		<path fill="#FFFFFF" d="M12.943,10.012c-0.072,0-0.145-0.027-0.199-0.082c-0.109-0.11-0.109-0.287,0-0.397l6.339-6.349
			c0.108-0.111,0.287-0.111,0.396-0.001c0.108,0.11,0.108,0.288,0,0.397l-6.337,6.35C13.087,9.985,13.015,10.012,12.943,10.012z"/>
		<path fill="#FFFFFF" d="M10.813,27.305c-0.246,0-0.499-0.111-0.646-0.283c-0.119-0.142-0.162-0.313-0.122-0.484
			c0.035-0.152,0.131-0.264,0.193-0.336l1.085-1.26c-0.453,0.057-0.919,0.008-1.346-0.149c-0.143-0.052-0.217-0.206-0.17-0.351
			c0.111-0.347,0.296-0.664,0.53-0.938c-0.384-0.104-0.529-0.313-0.585-0.475c-0.137-0.405,0.191-0.752,0.314-0.883l1.002-1.06
			l-0.228,0.104c-0.175,0.08-0.439,0.201-0.725,0.135c-0.204-0.049-0.366-0.176-0.469-0.365c-0.186-0.34-0.131-0.791-0.03-1.075
			c0.209-0.583,0.572-1.103,1.049-1.499c0.12-0.1,0.296-0.082,0.396,0.035c0.099,0.12,0.083,0.297-0.037,0.396
			c-0.4,0.332-0.705,0.768-0.879,1.257c-0.078,0.22-0.081,0.479-0.005,0.618c0.033,0.063,0.071,0.078,0.104,0.086
			c0.091,0.021,0.222-0.034,0.36-0.098l1.547-0.714c0.122-0.059,0.267-0.02,0.345,0.091c0.079,0.108,0.069,0.26-0.022,0.356
			l-2.001,2.117c-0.197,0.209-0.199,0.29-0.19,0.313c0.012,0.035,0.086,0.086,0.223,0.119c0.125,0.03,0.255,0.043,0.383,0.042
			c0.353-0.243,0.759-0.407,1.187-0.467c0.123-0.013,0.241,0.048,0.293,0.161c0.051,0.111,0.024,0.244-0.067,0.326
			c-0.336,0.3-0.766,0.481-1.208,0.529c-0.271,0.213-0.494,0.481-0.644,0.786c0.53,0.117,1.105,0.048,1.586-0.204
			c0.119-0.063,0.268-0.031,0.351,0.074c0.083,0.104,0.081,0.255-0.008,0.357l-1.715,1.992c-0.021,0.025-0.065,0.076-0.071,0.097
			c0.014,0.021,0.128,0.088,0.234,0.077c0.08-0.004,0.16-0.021,0.24-0.036c0.188-0.037,0.4-0.077,0.626-0.019
			c0.149,0.041,0.239,0.194,0.198,0.344c-0.04,0.15-0.194,0.238-0.345,0.197c-0.101-0.025-0.227,0-0.372,0.027
			c-0.104,0.021-0.209,0.041-0.313,0.047C10.846,27.303,10.829,27.305,10.813,27.305z"/>
		<path fill="#FFFFFF" d="M9.126,10.825c-0.03,0-0.063-0.011-0.089-0.032c-0.237-0.196-0.326-0.544-0.21-0.83
			c0.075-0.186,0.216-0.32,0.341-0.438c2.659-2.514,5.41-4.999,8.18-7.386c0.058-0.051,0.146-0.044,0.196,0.015
			c0.052,0.059,0.044,0.147-0.015,0.198c-2.766,2.385-5.514,4.867-8.169,7.377c-0.109,0.104-0.222,0.21-0.274,0.34
			c-0.068,0.171-0.014,0.39,0.129,0.508c0.061,0.049,0.068,0.138,0.02,0.197C9.208,10.808,9.167,10.825,9.126,10.825z"/>
	</g>
	<g>
		<path fill="#FFFFFF" d="M0.614,27.998c-0.158-0.002-0.282-0.129-0.281-0.284c0.074-6.987,0.013-11.907-0.229-18.155
			c-0.006-0.155,0.115-0.286,0.27-0.292c0.145-0.003,0.285,0.115,0.291,0.27c0.241,6.257,0.303,11.186,0.229,18.182
			C0.893,27.873,0.767,27.998,0.614,27.998z"/>
		<path fill="#FFFFFF" d="M6.567,27.745c-0.166-0.007-0.287-0.138-0.281-0.292c0.118-3.193,0.237-6.137,0.356-9.077
			C6.762,15.414,6.881,12.455,7,9.239c0.006-0.156,0.133-0.275,0.291-0.271c0.155,0.006,0.276,0.136,0.271,0.291
			c-0.119,3.217-0.239,6.178-0.358,9.14c-0.119,2.941-0.238,5.884-0.355,9.076C6.842,27.625,6.718,27.745,6.567,27.745z"/>
		<path fill="#FFFFFF" d="M3.216,11.039c-1.016,0-2.062-0.191-2.896-0.854C0.2,10.089,0.179,9.913,0.276,9.791
			C0.372,9.67,0.549,9.65,0.67,9.747c1.108,0.881,2.733,0.792,4.024,0.617c0.481-0.066,0.99-0.148,1.421-0.366
			c0.693-0.35,0.888-0.625,0.943-0.758c0.059-0.144,0.223-0.214,0.366-0.153C7.568,9.146,7.637,9.31,7.578,9.453
			c-0.149,0.365-0.557,0.717-1.209,1.046C5.86,10.755,5.3,10.848,4.77,10.92C4.285,10.985,3.754,11.039,3.216,11.039z"/>
		<path fill="#FFFFFF" d="M3.953,29.287c-1.269,0-2.626-0.505-3.527-1.342c-0.112-0.105-0.119-0.283-0.014-0.396
			s0.283-0.119,0.396-0.015c0.911,0.847,2.414,1.321,3.656,1.159c0.544-0.072,1.282-0.301,1.706-0.978
			c0.083-0.131,0.255-0.17,0.388-0.088c0.131,0.082,0.171,0.256,0.089,0.388c-0.427,0.682-1.156,1.107-2.108,1.233
			C4.346,29.275,4.15,29.287,3.953,29.287z"/>
		<path fill="#FFFFFF" d="M7.217,9.688c-0.07,0-0.143-0.028-0.197-0.082C6.909,9.497,6.908,9.319,7.018,9.21L7.28,8.946
			c0.311-0.311,0.517-0.516,0.859-0.91c1.819-2.1,3.391-4.527,4.775-6.669c0.065-0.102,0.188-0.148,0.305-0.12
			c0.116,0.029,0.201,0.129,0.211,0.248c0.064,0.766,0.126,1.535,0.183,2.304c0.012,0.155-0.104,0.289-0.259,0.301
			c-0.157-0.003-0.289-0.105-0.301-0.26c-0.037-0.494-0.075-0.986-0.114-1.478c-1.285,1.978-2.726,4.135-4.375,6.041
			c-0.354,0.41-0.577,0.632-0.886,0.94l-0.261,0.26C7.362,9.66,7.29,9.688,7.217,9.688z"/>
		<path fill="#FFFFFF" d="M6.52,28.05c-0.035,0-0.069-0.006-0.101-0.02c-0.236-0.099-0.226-0.33-0.151-1.056
			c0.016-0.154,0.155-0.261,0.308-0.25c0.127,0.012,0.226,0.107,0.248,0.229c0.013-0.018,0.026-0.033,0.04-0.051
			c0.301-0.389,0.627-0.809,0.823-1.041c0.101-0.117,0.277-0.133,0.396-0.032s0.133,0.276,0.033,0.396
			c-0.193,0.229-0.513,0.642-0.808,1.022c-0.209,0.271-0.407,0.522-0.54,0.688C6.709,28.006,6.612,28.05,6.52,28.05z"/>
		<path fill="#FFFFFF" d="M0.87,10.402c-0.037,0-0.075-0.007-0.111-0.023c-0.431-0.185-0.646-0.698-0.5-1.191
			c0.042-0.14,0.124-0.244,0.189-0.327c2.813-3.553,5.542-6.349,8.587-8.8c0.08-0.063,0.188-0.079,0.28-0.042
			c0.094,0.038,0.161,0.124,0.174,0.225L9.753,2.25c0.021,0.153-0.088,0.294-0.241,0.314C9.356,2.588,9.216,2.476,9.196,2.322
			L8.998,0.815C6.141,3.163,3.554,5.842,0.889,9.208C0.851,9.256,0.808,9.31,0.797,9.347C0.742,9.535,0.788,9.78,0.981,9.864
			c0.142,0.061,0.208,0.226,0.146,0.368C1.082,10.338,0.979,10.402,0.87,10.402z"/>
		<path fill="#FFFFFF" d="M2.09,10.813c-0.066,0-0.136-0.024-0.188-0.074c-0.536-0.491-0.176-1.271,0.295-1.792
			c2.199-2.427,4.62-4.688,7.195-6.718c0.078-0.061,0.183-0.077,0.275-0.04c0.862,0.337,1.823,0.37,2.707,0.091
			c0.146-0.047,0.307,0.036,0.353,0.183c0.047,0.148-0.035,0.306-0.184,0.353c-0.954,0.301-1.986,0.282-2.929-0.048
			C7.11,4.754,4.754,6.959,2.611,9.324c-0.26,0.287-0.563,0.79-0.332,1c0.114,0.104,0.123,0.282,0.018,0.396
			C2.243,10.782,2.167,10.813,2.09,10.813z"/>
		<path fill="#FFFFFF" d="M3.49,9.79c-0.068,0-0.135-0.025-0.189-0.074C3.187,9.612,3.179,9.434,3.283,9.32
			c2.253-2.468,4.539-4.709,6.988-6.853c0.116-0.1,0.294-0.089,0.396,0.026c0.103,0.117,0.09,0.294-0.025,0.396
			c-2.434,2.13-4.705,4.357-6.943,6.809C3.642,9.759,3.566,9.79,3.49,9.79z"/>
		<path fill="#FFFFFF" d="M5.208,9.571c-0.069,0-0.14-0.026-0.193-0.078C4.902,9.385,4.898,9.208,5.006,9.096l6.208-6.476
			c0.107-0.111,0.284-0.115,0.397-0.008c0.111,0.107,0.115,0.285,0.008,0.397L5.411,9.484C5.356,9.542,5.282,9.571,5.208,9.571z"/>
		<path fill="#FFFFFF" d="M3.417,26.902c-0.24,0-0.487-0.104-0.634-0.269c-0.122-0.139-0.169-0.311-0.132-0.483
			c0.033-0.151,0.122-0.26,0.187-0.338l1.06-1.282c-0.452,0.063-0.918,0.024-1.35-0.123c-0.143-0.048-0.221-0.202-0.177-0.347
			c0.105-0.349,0.282-0.67,0.512-0.947c-0.387-0.096-0.536-0.303-0.595-0.463c-0.145-0.4,0.176-0.754,0.297-0.887l0.98-1.08
			L3.34,20.791c-0.172,0.085-0.436,0.214-0.722,0.15c-0.205-0.045-0.369-0.168-0.476-0.356c-0.191-0.336-0.147-0.789-0.053-1.074
			c0.197-0.589,0.551-1.114,1.02-1.521c0.117-0.102,0.294-0.09,0.396,0.027s0.088,0.295-0.028,0.396
			c-0.394,0.34-0.688,0.781-0.854,1.273c-0.074,0.222-0.071,0.481,0.007,0.619c0.035,0.063,0.074,0.077,0.107,0.084
			c0.092,0.019,0.221-0.039,0.358-0.105l1.531-0.744c0.12-0.061,0.268-0.023,0.348,0.084s0.073,0.258-0.018,0.357L3,22.141
			c-0.192,0.213-0.192,0.295-0.184,0.318c0.012,0.034,0.088,0.085,0.225,0.114c0.125,0.026,0.255,0.042,0.383,0.032
			c0.349-0.25,0.75-0.422,1.178-0.489c0.124-0.019,0.241,0.044,0.296,0.153c0.054,0.111,0.028,0.246-0.063,0.328
			c-0.329,0.308-0.754,0.5-1.195,0.555c-0.266,0.218-0.484,0.492-0.627,0.8c0.53,0.106,1.105,0.026,1.582-0.236
			c0.117-0.063,0.265-0.034,0.351,0.068s0.086,0.254,0,0.356l-1.674,2.027c-0.023,0.027-0.065,0.078-0.07,0.098
			c0.015,0.021,0.128,0.084,0.237,0.073c0.08-0.007,0.16-0.024,0.24-0.042c0.187-0.041,0.397-0.088,0.625-0.031
			c0.15,0.037,0.242,0.189,0.205,0.342c-0.036,0.149-0.19,0.242-0.339,0.203c-0.102-0.022-0.227,0.004-0.372,0.035
			c-0.104,0.021-0.208,0.045-0.313,0.053C3.461,26.902,3.439,26.902,3.417,26.902z"/>
		<path fill="#FFFFFF" d="M1.412,10.461c-0.031,0-0.061-0.01-0.087-0.03C1.083,10.24,0.988,9.893,1.097,9.605
			c0.07-0.188,0.216-0.33,0.333-0.445c2.607-2.567,5.308-5.107,8.026-7.55c0.058-0.051,0.146-0.048,0.198,0.011
			C9.707,1.679,9.702,1.767,9.644,1.82C6.929,4.259,4.231,6.796,1.627,9.36C1.52,9.466,1.409,9.575,1.36,9.705
			c-0.066,0.173-0.006,0.391,0.139,0.505c0.062,0.048,0.071,0.136,0.023,0.197C1.495,10.442,1.454,10.461,1.412,10.461z"/>
	</g>
</g>
</svg>
